<?xml version="1.0" encoding="utf-8"?>
<!-- Generator: Adobe Illustrator 18.0.0, SVG Export Plug-In . SVG Version: 6.00 Build 0)  -->
<!DOCTYPE svg PUBLIC "-//W3C//DTD SVG 1.1//EN" "http://www.w3.org/Graphics/SVG/1.1/DTD/svg11.dtd">
<svg version="1.1" id="Calque_1" xmlns="http://www.w3.org/2000/svg" xmlns:xlink="http://www.w3.org/1999/xlink" x="0px" y="0px"
	 viewBox="0 0 1000 1000" enable-background="new 0 0 1000 1000" xml:space="preserve">
<g>
	<g>
		<path fill="none" stroke="#D7DBDD" stroke-width="7" stroke-miterlimit="10" d="M753,930.9H581.6c-8.3,0-16.5-7.1-16.5-16.5V402.5
			c0-8.3,7.1-16.5,16.5-16.5h170.2c8.3,0,16.5,7.1,16.5,16.5v513C768.3,923.8,761.2,930.9,753,930.9L753,930.9z"/>
	</g>
	<g>
		<path fill="none" stroke="#D7DBDD" stroke-width="7" stroke-miterlimit="10" d="M472.8,930.9H301.4c-8.3,0-16.5-7.1-16.5-16.5
			v-292c0-8.3,7.1-16.5,16.5-16.5h171.4c8.3,0,16.5,7.1,16.5,16.5v293.1C488.2,923.8,481.1,930.9,472.8,930.9L472.8,930.9z"/>
	</g>
	<g>
		<path fill="none" stroke="#D7DBDD" stroke-width="7" stroke-miterlimit="10" d="M192.7,930.9H22.5c-8.3,0-16.5-7.1-16.5-16.5
			V780.7c0-8.3,7.1-16.5,16.5-16.5h170.2c8.3,0,16.5,7.1,16.5,16.5v134.8C208,923.8,200.9,930.9,192.7,930.9L192.7,930.9z"/>
	</g>
	<g>
		<path fill="none" stroke="#D7DBDD" stroke-width="7" stroke-miterlimit="10" d="M535.5,349.3c-3.5,0-8.3-1.2-11.8-4.7
			c-5.9-5.9-5.9-16.5,0-22.5l112.3-112.3L523.6,97.5c-5.9-5.9-5.9-16.5,0-22.5c5.9-5.9,16.5-5.9,22.5,0l124.1,124.1
			c5.9,5.9,5.9,16.5,0,22.5L547.3,344.6C543.7,346.9,540.2,349.3,535.5,349.3L535.5,349.3z"/>
	</g>
	<g>
		<path fill="none" stroke="#D7DBDD" stroke-width="7" stroke-miterlimit="10" d="M114.7,641.3c-1.2,0-2.4,0-3.5,0
			c-8.3-1.2-14.2-10.6-13-18.9c49.6-248.2,266-429.1,517.7-429.1c8.3,0,16.5,7.1,16.5,16.5c0,9.5-7.1,16.5-16.5,16.5
			c-236.4,0-439.7,170.2-484.6,403.1C128.8,636.5,122.9,641.3,114.7,641.3L114.7,641.3z"/>
	</g>
	<g>
		<path fill="#6DD9F7" d="M730.5,424.9H611.1c-5.9,0-10.6,0-10.6,0v-11.8c0,0,4.7,0,10.6,0h119.4c5.9,0,10.6,0,10.6,0v11.8
			C741.1,423.8,736.4,424.9,730.5,424.9L730.5,424.9z"/>
	</g>
	<g>
		<path fill="#6DD9F7" d="M448,646H328.6c-5.9,0-10.6,0-10.6,0v-11.8c0,0,4.7,0,10.6,0H448c5.9,0,10.6,0,10.6,0V646
			C458.6,646,453.9,646,448,646L448,646z"/>
	</g>
	<g>
		<path fill="#6DD9F7" d="M163.1,800.8H43.7c-5.9,0-10.6,0-10.6,0V789c0,0,4.7,0,10.6,0h119.4c5.9,0,10.6,0,10.6,0v11.8
			C173.8,799.6,169,800.8,163.1,800.8L163.1,800.8z"/>
	</g>
</g>
<g>
	<g>
		<path fill="#6DD9F7" d="M918.4,389.5c-1.2,0-1.2-1.2-2.4-1.2l-41.4-61.5l-70.9,21.3c-2.4,0-3.5,0-4.7-1.2s-1.2-3.5,0-4.7
			l44.9-59.1l-41.4-61.5c-1.2-1.2-1.2-3.5,0-4.7c1.2-1.2,3.5-2.4,4.7-1.2l69.7,24.8l44.9-59.1c1.2-1.2,3.5-2.4,4.7-1.2l0,0
			c1.2,1.2,2.4,2.4,2.4,4.7l-2.4,73.3l69.7,24.8c1.2,1.2,2.4,2.4,2.4,4.7c0,2.4-1.2,3.5-3.5,3.5l-70.9,21.3l-2.4,73.3
			C922,388.3,920.8,389.5,918.4,389.5C919.6,389.5,919.6,389.5,918.4,389.5L918.4,389.5z M816.8,227.5l35.5,52
			c1.2,1.2,1.2,3.5,0,4.7l-39,50.8l61.5-17.7c2.4,0,3.5,0,4.7,1.2l35.5,52l1.2-63.8c0-2.4,1.2-3.5,3.5-3.5l61.5-17.7L922,265.4
			c-1.2-1.2-2.4-2.4-2.4-4.7l1.2-63.8l-39,50.8c-1.2,1.2-3.5,2.4-4.7,1.2L816.8,227.5L816.8,227.5z"/>
	</g>
</g>
</svg>
