<?xml version="1.0" encoding="utf-8"?>
<!-- Generator: Adobe Illustrator 18.0.0, SVG Export Plug-In . SVG Version: 6.00 Build 0)  -->
<!DOCTYPE svg PUBLIC "-//W3C//DTD SVG 1.1//EN" "http://www.w3.org/Graphics/SVG/1.1/DTD/svg11.dtd">
<svg version="1.1" id="Calque_1" xmlns="http://www.w3.org/2000/svg" xmlns:xlink="http://www.w3.org/1999/xlink" x="0px" y="0px"
	 viewBox="0 0 1000 1000" enable-background="new 0 0 1000 1000" xml:space="preserve">
<circle fill="#D7DBDD" cx="498.6" cy="498.6" r="491.1"/>
<g>
	<g>
		<path fill="#6DD9F7" d="M502.2,506.4c-346.6-5.2-597.4,58.5,2,355.4"/>
		<g>
			<path fill="#FFFFFF" d="M500.6,998.9c-67.3,0-132.6-13.2-194-39.1c-59.3-25.1-112.6-61-158.4-106.7S66.5,754,41.4,694.6
				c-26-61.4-39.1-126.7-39.1-194s13.1-132.6,38.9-194c25-59.4,60.8-112.6,106.3-158.4c45.6-45.8,98.8-81.7,158-106.7
				c61.3-26,126.6-39.1,193.9-39.1s132.6,13.2,194,39.1c59.3,25.1,112.6,61,158.4,106.7s81.7,99,106.7,158.4
				c26,61.4,39.1,126.7,39.1,194s-13.1,132.6-38.9,194C933.8,754,898,807.3,852.4,853c-45.6,45.8-98.8,81.7-158,106.7
				C633.1,985.7,567.9,998.9,500.6,998.9z M499.4,9.3c-66.4,0-130.7,13-191.1,38.6C249.9,72.6,197.5,108,152.5,153.1
				c-44.9,45.1-80.2,97.6-104.8,156.2C22.2,369.8,9.3,434.2,9.3,500.6s13,130.7,38.6,191.3c24.7,58.5,60.1,111,105.2,156.2
				c45.1,45.1,97.6,80.5,156.2,105.2c60.6,25.6,124.9,38.6,191.3,38.6s130.7-13,191.1-38.6c58.4-24.7,110.8-60.1,155.8-105.2
				c44.9-45.1,80.2-97.6,104.8-156.2c25.5-60.6,38.4-124.9,38.4-191.3s-13-130.7-38.6-191.3c-24.7-58.5-60.1-111-105.2-156.2
				C801.8,108,749.2,72.6,690.7,47.9C630.2,22.3,565.8,9.3,499.4,9.3z"/>
		</g>
		<g>
			<path fill="#FFFFFF" d="M500.6,899.2c-54,0-106.4-10.6-155.7-31.4c-47.6-20.1-90.4-48.9-127.1-85.5s-65.5-79.3-85.6-126.7
				c-20.8-49.1-31.4-101.3-31.4-155c0-220.4,179.3-399.8,399.8-399.8c54,0,106.3,10.6,155.5,31.4c47.5,20.1,90.1,48.9,126.7,85.5
				c36.5,36.6,65.2,79.2,85.2,126.7c20.7,49.1,31.2,101.3,31.2,155s-10.6,105.9-31.4,155.2c-20.1,47.6-48.9,90.3-85.5,127.1
				c-36.7,36.8-79.3,65.7-126.7,85.9C606.4,888.6,554.3,899.2,500.6,899.2z M500.6,107.8C284,107.8,107.8,284,107.8,500.6
				c0,52.8,10.4,104,30.8,152.3c19.8,46.6,48.1,88.5,84.1,124.5c36.1,36,78.1,64.3,124.8,84c48.4,20.5,99.9,30.8,153,30.8
				c52.8,0,104-10.4,152.3-31c46.6-19.9,88.5-48.3,124.5-84.4c36-36.1,64.3-78.2,84-124.9c20.5-48.4,30.8-99.7,30.8-152.5
				s-10.3-104-30.7-152.3c-19.7-46.6-47.9-88.5-83.8-124.5C703.9,148.6,605.4,107.8,500.6,107.8z"/>
		</g>
		<g>
			<path fill="#6DD9F7" d="M500.6,797.2c46.2-121.4,179.9-127.5,296.6-296.6c196.9-285.3-97.4-191-296.6-195.8"/>
			<path fill="#FFFFFF" d="M500.6,800.7c-80.5,0-156-31.1-212.5-87.6s-87.6-132-87.6-212.5c0-80.4,31.3-155.9,88.1-212.5
				c56.7-56.5,132-87.6,212.1-87.6s155.4,31.1,212.1,87.6c56.8,56.6,88.1,132.1,88.1,212.5c0,80.1-31.1,155.4-87.6,212.1
				C656.4,769.4,581,800.7,500.6,800.7z M500.6,207.4c-78.2,0-151.8,30.4-207.1,85.6c-55.5,55.3-86,129-86,207.5
				c0,78.6,30.4,152.4,85.6,207.5s128.9,85.6,207.5,85.6c78.5,0,152.2-30.5,207.5-86c55.2-55.3,85.6-128.9,85.6-207.1
				c0-78.5-30.5-152.2-86-207.5C652.4,237.8,578.8,207.4,500.6,207.4z"/>
		</g>
		<g>
			<path fill="#FFFFFF" d="M500.6,701.1c-53.7,0-104.3-20.9-142.4-58.8c-38.2-38.1-59.3-88.8-59.3-142.8
				c0-54.2,20.9-104.9,58.8-142.8s88.7-58.8,142.8-58.8s104.9,20.9,142.8,58.8c37.9,37.9,58.8,88.7,58.8,142.8
				c0,54-21,104.8-59.3,142.8C604.9,680.2,554.3,701.1,500.6,701.1z M500.6,304.8c-52.3,0-101.3,20.2-137.9,56.8
				s-56.8,85.6-56.8,137.9c0,52.2,20.3,101.1,57.2,137.9c36.8,36.6,85.6,56.8,137.4,56.8c51.9,0,100.7-20.2,137.4-56.8
				c36.9-36.7,57.2-85.7,57.2-137.9c0-52.3-20.2-101.3-56.8-137.9S552.9,304.8,500.6,304.8z"/>
		</g>
		<g>
			<path fill="#FFFFFF" d="M500.6,602.6c-56.2,0-102-45.8-102-102s45.8-102,102-102s102,45.8,102,102S556.8,602.6,500.6,602.6z
				 M500.6,405.6c-52.4,0-95,42.6-95,95s42.6,95,95,95s95-42.6,95-95C595.6,448.2,553,405.6,500.6,405.6z"/>
		</g>
	</g>
	<g>
		<g>
			<rect x="497.1" y="500.6" fill="#FFFFFF" width="7" height="493.6"/>
		</g>
		<g>
			
				<rect x="428.3" y="671.4" transform="matrix(-0.7071 -0.7071 0.7071 -0.7071 675.0309 1629.4188)" fill="#FFFFFF" width="493.3" height="7"/>
		</g>
		<g>
			<rect x="500.6" y="497.1" fill="#FFFFFF" width="493.6" height="7"/>
		</g>
		<g>
			
				<rect x="671.4" y="78.6" transform="matrix(-0.7083 -0.706 0.706 -0.7083 923.0388 1032.8523)" fill="#FFFFFF" width="7" height="494.1"/>
		</g>
		<g>
			<rect x="497.1" y="5.8" fill="#FFFFFF" width="7" height="494.8"/>
		</g>
		<g>
			
				<rect x="78.2" y="322.1" transform="matrix(-0.7071 -0.7071 0.7071 -0.7071 325.7036 786.1733)" fill="#FFFFFF" width="494.9" height="7"/>
		</g>
		<g>
			<rect x="5.8" y="497.1" fill="#FFFFFF" width="494.8" height="7"/>
		</g>
		<g>
			
				<rect x="322.2" y="427.9" transform="matrix(-0.706 -0.7082 0.7082 -0.706 77.6391 1382.1958)" fill="#FFFFFF" width="7" height="494.1"/>
		</g>
	</g>
</g>
</svg>
