<?xml version="1.0" encoding="utf-8"?>
<!-- Generator: Adobe Illustrator 18.0.0, SVG Export Plug-In . SVG Version: 6.00 Build 0)  -->
<!DOCTYPE svg PUBLIC "-//W3C//DTD SVG 1.1//EN" "http://www.w3.org/Graphics/SVG/1.1/DTD/svg11.dtd">
<svg version="1.1" id="Calque_1" xmlns="http://www.w3.org/2000/svg" xmlns:xlink="http://www.w3.org/1999/xlink" x="0px" y="0px"
	 viewBox="0 0 1000 1000" enable-background="new 0 0 1000 1000" xml:space="preserve">
<g>
	<g>
		<g>
			<path fill="#D7DBDD" d="M344.8,578.3c-25.3,0-49.2-10-67.4-28.2c-18.2-18.2-28.2-42.1-28.2-67.4s10-49.2,28.2-67.4
				c18.2-18.2,42.1-28.2,67.4-28.2s49.2,10,67.4,28.2c18.2,18.2,28.2,42.1,28.2,67.4s-10,49.2-28.2,67.4
				C394,568.3,370.1,578.3,344.8,578.3z M344.8,398c-22.8,0-44.1,8.8-60.1,24.7S260,460,260,482.8c0,22.8,8.8,44.1,24.7,60.1
				c16,16,37.3,24.7,60.1,24.7s44.1-8.8,60.1-24.7c16-16,24.7-37.3,24.7-60.1c-0.6-22.7-9.7-44.1-25.7-60.1
				C388,406.8,367,398,344.8,398z"/>
		</g>
	</g>
</g>
<g>
	<g>
		<path fill="#6DD9F7" d="M600,418.6C600,419.8,600,419.8,600,418.6C600,419.8,600,419.8,600,418.6z"/>
	</g>
	<g>
		<path fill="#6DD9F7" d="M614.7,178.1c-16-18.4-40.5-18.4-60.1-7.4c-19.6,12.3-28.2,28.2-24.5,49.1c3.7,19.6,18.4,42.9,34.4,73.6
			c6.1,11,11,23.3,16,34.4c12.3-6.1,28.2,4.9,42.9,6.1c4.9-18.4,8.6-39.3,11-61.3C639.3,229.6,631.9,195.3,614.7,178.1z"/>
	</g>
</g>
<g>
	<path fill="#D7DBDD" d="M667.5,471.6v-7c96.8,0,175.6-78.8,175.6-175.6s-78.8-175.6-175.6-175.6S491.8,192.1,491.8,289
		c0,13.9,1.3,25.6,4.1,35.8h9.6v7h-14.9l-0.7-2.5c-3.4-11.3-5.1-24.5-5.1-40.3c0-100.7,81.9-182.6,182.6-182.6S850,188.3,850,289
		S768.2,471.6,667.5,471.6z"/>
</g>
<g>
	<path fill="#ED9E6E" d="M559.5,416.6L559.5,416.6L559.5,416.6L559.5,416.6"/>
</g>
<g>
	<path fill="#ED9E6E" d="M857.7,342.9L857.7,342.9v-1.2C857.7,341.7,857.7,341.7,857.7,342.9"/>
</g>
<g>
	<path fill="#D7DBDD" d="M742.3,230.1c-12.3,3.7-20.9,16-17.2,28.2c3.7,12.3,16,20.9,28.2,17.2c12.3-3.7,20.9-16,17.2-28.2
		C768.1,235,754.6,227.6,742.3,230.1"/>
</g>
<g>
	<path fill="#D7DBDD" d="M712.9,363.8c-28.2,13.5-46.6,4.9-50.3-2.5c-1.2-2.5,0-4.9,2.5-6.1l69.9-35.6c2.5-1.2,4.9,0,6.1,2.5
		C744.8,329.4,741.1,350.3,712.9,363.8z"/>
</g>
<g>
	<path fill="#6DD9F7" d="M797,214.7c-14.4-23.3-34.8-42.8-59.1-56.1c-24.9-13.7-52.1-20-78.8-18.3l-0.5-7
		c27.9-1.8,56.5,4.8,82.6,19.1c25.4,14,46.7,34.2,61.7,58.6L797,214.7z"/>
</g>
<g>
	<path fill="#D7DBDD" d="M622.1,285.3c-3.7-12.3-16-20.9-28.2-17.2c-12.3,3.7-20.9,16-17.2,28.2c3.7,12.3,16,20.9,28.2,17.2
		C617.2,311,625.8,297.5,622.1,285.3"/>
</g>
<g>
	<g>
		<g>
			<path fill="#D7DBDD" d="M148.5,973.4c-3.1,0-7.3-1.4-10.2-2.8c-8.5-4.2-14.2-12.9-14.2-21.5V817.6H68.7
				c-36.4,0-66.1-29.6-66.1-66.1V392c0-36.4,29.6-66.1,66.1-66.1h537.4c36.4,0,66.1,29.6,66.1,66.1v360.7
				c0,36.4-29.6,66.1-66.1,66.1h-254l-189,148.9C157.7,972.9,151.1,973.4,148.5,973.4z M68.7,332.9c-32.6,0-59.1,26.5-59.1,59.1
				v359.5c0,32.6,26.5,59.1,59.1,59.1h62.4v138.5c0,6,4.2,12.2,10.3,15.3c2.3,1.2,5.4,2.1,7,2.1c1.4,0,6.2-0.3,9.8-3.9l0.3-0.3
				l191.1-150.4H606c32.6,0,59.1-26.5,59.1-59.1V392c0-32.6-26.5-59.1-59.1-59.1H68.7z"/>
		</g>
	</g>
	<g>
		<g>
			<path fill="#D7DBDD" d="M851.5,674.1c-5.2,0-11.1-3.4-14.2-5.5l-0.2-0.2L664,531.1v-1.7c0-3.5,2.5-7.2,7.2-7.2v5.6l170.2,134.9
				c4,2.6,7.9,4.2,10.2,4.2c1.6,0,4.7-0.9,7-2.1c6.2-3.1,10.3-9.2,10.3-15.3V511.2h63.6c32.6,0,59.1-26.5,59.1-59.1V92.6
				c0-32.6-26.5-59.1-59.1-59.1H395.1C362.5,33.5,336,60,336,92.6v236.8h-7V92.6c0-36.4,29.6-66.1,66.1-66.1h537.4
				c36.4,0,66.1,29.6,66.1,66.1v359.5c0,36.4-29.6,66.1-66.1,66.1h-56.6v131.5c0,8.6-5.7,17.3-14.2,21.5
				C858.9,672.6,854.6,674.1,851.5,674.1z"/>
		</g>
		<g>
			<path fill="none" stroke="#D7DBDD" stroke-width="7" stroke-miterlimit="10" d="M662.6,525.8"/>
		</g>
	</g>
</g>
<g>
	<g>
		<g>
			<path fill="#FFFFFF" d="M466.3,773.6H213.5c-4.9,0-8.6-3.7-8.6-8.6l-6.1-82.2c-1.2-27,18.4-57.7,45.4-67.5
				c61.3-22.1,128.8-22.1,190.2,0c29.4,11,46.6,42.9,45.4,67.5l-6.1,82.2C474.8,769.9,471.2,773.6,466.3,773.6L466.3,773.6z"/>
			<path fill="#D7DBDD" d="M466.3,777.1H213.5c-6.8,0-12-5.1-12.1-11.9l-6.1-82.2c-1.3-29.1,20.1-60.9,47.7-70.9
				c30.9-11.1,63.3-16.8,96.3-16.8s65.4,5.6,96.3,16.8c31.5,11.8,49,45.3,47.7,71l-6.1,81.8c0.6,3-0.1,5.9-1.9,8.2
				C473.2,775.6,469.9,777.1,466.3,777.1z M202.3,682.6l6.1,82.4c0,3,2.1,5.1,5.1,5.1h252.8c1.5,0,2.8-0.5,3.5-1.5
				c0.6-0.7,0.7-1.7,0.5-2.8l-0.1-0.5l6.2-82.8c1.1-22.5-15-53.4-43.1-63.9c-30.1-10.8-61.7-16.3-93.9-16.3s-63.8,5.5-93.9,16.4
				C220.4,627.7,201.1,656.4,202.3,682.6z"/>
		</g>
	</g>
</g>
<g>
	<path fill="#6DD9F7" d="M405.3,462c-9.6-24-32-40.9-57.2-43.2l0.6-7c27.8,2.5,52.5,21.2,63.1,47.6L405.3,462z"/>
</g>
</svg>
