<?xml version="1.0" encoding="utf-8"?>
<!-- Generator: Adobe Illustrator 18.0.0, SVG Export Plug-In . SVG Version: 6.00 Build 0)  -->
<!DOCTYPE svg PUBLIC "-//W3C//DTD SVG 1.1//EN" "http://www.w3.org/Graphics/SVG/1.1/DTD/svg11.dtd">
<svg version="1.1" id="Calque_1" xmlns="http://www.w3.org/2000/svg" xmlns:xlink="http://www.w3.org/1999/xlink" x="0px" y="0px"
	 viewBox="0 0 1280 800" enable-background="new 0 0 1280 800" xml:space="preserve">
<circle fill="#D7DBDD" cx="638.9" cy="398.9" r="392.9"/>
<g>
	<g>
		<linearGradient id="SVGID_1_" gradientUnits="userSpaceOnUse" x1="417.4569" y1="386.4263" x2="698.5465" y2="624.2001">
			<stop  offset="0" style="stop-color:#FFC171"/>
			<stop  offset="1" style="stop-color:#FF616E"/>
		</linearGradient>
		<path fill="url(#SVGID_1_)" d="M641.8,405.1c-277.3-4.2-477.9,46.8,1.6,284.3"/>
		<g>
			<path fill="#FFFFFF" d="M640.5,799.1c-53.8,0-106.1-10.6-155.2-31.3c-47.4-20.1-90.1-48.8-126.7-85.4s-65.4-79.3-85.4-126.8
				c-20.8-49.1-31.3-101.4-31.3-155.2s10.5-106.1,31.1-155.2c20-47.5,48.6-90.1,85-126.7c36.5-36.6,79-65.4,126.4-85.4
				c49-20.8,101.3-31.3,155.1-31.3c53.8,0,106.1,10.6,155.2,31.3c47.4,20.1,90.1,48.8,126.7,85.4c36.6,36.6,65.4,79.2,85.4,126.7
				c20.8,49.1,31.3,101.4,31.3,155.2s-10.5,106.1-31.1,155.2c-19.9,47.5-48.6,90.2-85,126.7c-36.5,36.6-79,65.4-126.4,85.4
				C746.5,788.6,694.3,799.1,640.5,799.1z M639.5,7.4c-53.1,0-104.6,10.4-152.9,30.9C439.9,58.1,398,86.4,362,122.5
				c-35.9,36.1-64.2,78.1-83.8,125c-20.4,48.4-30.7,99.9-30.7,153s10.4,104.6,30.9,153c19.8,46.8,48.1,88.8,84.2,125
				c36.1,36.1,78.1,64.4,125,84.2c48.5,20.5,99.9,30.9,153,30.9c53.1,0,104.6-10.4,152.9-30.9c46.7-19.8,88.6-48.1,124.6-84.2
				c35.9-36.1,64.2-78.1,83.8-125c20.4-48.5,30.7-99.9,30.7-153s-10.4-104.6-30.9-153c-19.8-46.8-48.1-88.8-84.2-125
				c-36.1-36.1-78.2-64.4-125-84.2C744.2,17.8,692.6,7.4,639.5,7.4z"/>
		</g>
		<g>
			<path fill="#FFFFFF" d="M640.5,719.4c-43.2,0-85.1-8.5-124.6-25.1c-38.1-16.1-72.3-39.1-101.7-68.4
				c-29.4-29.3-52.4-63.4-68.5-101.4c-16.6-39.3-25.1-81-25.1-124c0-176.3,143.4-319.8,319.8-319.8c43.2,0,85,8.5,124.4,25.1
				c38,16.1,72.1,39.1,101.4,68.4c29.2,29.3,52.2,63.4,68.2,101.4c16.6,39.3,25,81,25,124s-8.5,84.7-25.1,124.2
				c-16.1,38.1-39.1,72.2-68.4,101.7c-29.4,29.4-63.4,52.6-101.4,68.7C725.1,710.9,683.4,719.4,640.5,719.4z M640.5,86.2
				c-173.3,0-314.2,141-314.2,314.2c0,42.2,8.3,83.2,24.6,121.8c15.8,37.3,38.5,70.8,67.3,99.6c28.9,28.8,62.5,51.4,99.8,67.2
				c38.7,16.4,79.9,24.6,122.4,24.6c42.2,0,83.2-8.3,121.8-24.8c37.3-15.9,70.8-38.6,99.6-67.5c28.8-28.9,51.4-62.6,67.2-99.9
				c16.4-38.7,24.6-79.8,24.6-122s-8.2-83.2-24.6-121.8c-15.8-37.3-38.3-70.8-67-99.6C803.1,118.9,724.3,86.2,640.5,86.2z"/>
		</g>
		<g>
			<path fill="#FFFFFF" d="M640.5,640.6c-64.4,0-124.8-24.9-170-70.1s-70.1-105.6-70.1-170c0-64.3,25-124.7,70.5-170
				c45.4-45.2,105.6-70.1,169.7-70.1s124.3,24.9,169.7,70.1c45.4,45.3,70.5,105.7,70.5,170c0,64.1-24.9,124.3-70.1,169.7
				C765.1,615.5,704.8,640.6,640.5,640.6z M640.5,165.9c-62.6,0-121.4,24.3-165.7,68.5c-44.4,44.2-68.8,103.2-68.8,166
				c0,62.9,24.3,121.9,68.5,166c44.2,44.1,103.1,68.5,166,68.5c62.8,0,121.8-24.4,166-68.8C850.6,521.8,875,463,875,400.4
				c0-62.8-24.4-121.8-68.8-166C761.9,190.2,703,165.9,640.5,165.9z"/>
			<linearGradient id="SVGID_2_" gradientUnits="userSpaceOnUse" x1="598.4877" y1="293.4821" x2="815.7164" y2="477.236">
				<stop  offset="0" style="stop-color:#FFC171"/>
				<stop  offset="1" style="stop-color:#FF616E"/>
			</linearGradient>
			<path fill="url(#SVGID_2_)" d="M640.5,637.8c37-97.1,143.9-102,237.3-237.3c157.5-228.2-77.9-152.8-237.3-156.6"/>
		</g>
		<g>
			<path fill="#FFFFFF" d="M640.5,560.9c-43,0-83.4-16.7-113.9-47c-30.6-30.5-47.4-71-47.4-114.2c0-43.4,16.7-83.9,47-114.2
				c30.3-30.3,71-47,114.2-47c43.3,0,83.9,16.7,114.2,47s47,71,47,114.2c0,43.2-16.8,83.8-47.4,114.2
				C723.9,544.2,683.4,560.9,640.5,560.9z M640.5,243.8c-41.8,0-81,16.2-110.3,45.4c-29.3,29.3-45.4,68.5-45.4,110.3
				c0,41.8,16.2,80.9,45.8,110.3c29.4,29.3,68.5,45.4,109.9,45.4c41.5,0,80.6-16.2,109.9-45.4c29.5-29.4,45.8-68.6,45.8-110.3
				c0-41.8-16.2-81-45.4-110.3C721.4,260,682.3,243.8,640.5,243.8z"/>
		</g>
		<g>
			<path fill="#FFFFFF" d="M640.5,482.1c-45,0-81.6-36.6-81.6-81.6s36.6-81.6,81.6-81.6c45,0,81.6,36.6,81.6,81.6
				S685.4,482.1,640.5,482.1z M640.5,324.5c-41.9,0-76,34.1-76,76s34.1,76,76,76c41.9,0,76-34.1,76-76
				C716.5,358.6,682.4,324.5,640.5,324.5z"/>
		</g>
	</g>
	<g>
		<g>
			<rect x="637.7" y="400.5" fill="#FFFFFF" width="5.6" height="394.9"/>
		</g>
		<g>
			
				<rect x="582.7" y="537.2" transform="matrix(0.7071 0.7071 -0.7071 0.7071 610.2593 -393.3925)" fill="#FFFFFF" width="394.6" height="5.6"/>
		</g>
		<g>
			<rect x="640.5" y="397.7" fill="#FFFFFF" width="394.9" height="5.6"/>
		</g>
		<g>
			
				<rect x="777.1" y="62.9" transform="matrix(0.7083 0.706 -0.706 0.7083 411.4932 -474.5778)" fill="#FFFFFF" width="5.6" height="395.3"/>
		</g>
		<g>
			<rect x="637.7" y="4.6" fill="#FFFFFF" width="5.6" height="395.8"/>
		</g>
		<g>
			
				<rect x="302.6" y="257.7" transform="matrix(0.7071 0.7071 -0.7071 0.7071 330.8325 -277.6212)" fill="#FFFFFF" width="395.9" height="5.6"/>
		</g>
		<g>
			<rect x="244.6" y="397.7" fill="#FFFFFF" width="395.8" height="5.6"/>
		</g>
		<g>
			
				<rect x="497.8" y="342.4" transform="matrix(0.706 0.7082 -0.7082 0.706 529.6031 -195.7348)" fill="#FFFFFF" width="5.6" height="395.3"/>
		</g>
	</g>
	<g>
		<g>
			
				<rect x="711.8" y="385.9" transform="matrix(-0.9272 0.3746 -0.3746 -0.9272 1595.6595 856.4921)" fill="#FFFFFF" width="5.6" height="394.9"/>
		</g>
		<g>
			
				<rect x="624.9" y="474.5" transform="matrix(0.9205 0.3907 -0.3907 0.9205 251.8661 -283.3262)" fill="#FFFFFF" width="394.6" height="5.6"/>
		</g>
		<g>
			
				<rect x="626.2" y="323.5" transform="matrix(-0.9272 0.3746 -0.3746 -0.9272 1709.6335 320.2868)" fill="#FFFFFF" width="394.9" height="5.6"/>
		</g>
		<g>
			
				<rect x="714.7" y="20.7" transform="matrix(0.9211 0.3892 -0.3892 0.9211 141.5553 -262.0644)" fill="#FFFFFF" width="5.6" height="395.3"/>
		</g>
		<g>
			
				<rect x="563.7" y="18.8" transform="matrix(-0.9272 0.3746 -0.3746 -0.9272 1172.9149 205.5225)" fill="#FFFFFF" width="5.6" height="395.8"/>
		</g>
		<g>
			
				<rect x="260.5" y="320.1" transform="matrix(0.9205 0.3907 -0.3907 0.9205 162.6267 -153.4575)" fill="#FFFFFF" width="395.9" height="5.6"/>
		</g>
		<g>
			
				<rect x="259.2" y="471.6" transform="matrix(-0.9272 0.3746 -0.3746 -0.9272 1058.6639 743.0314)" fill="#FFFFFF" width="395.8" height="5.6"/>
		</g>
		<g>
			
				<rect x="560.4" y="384.4" transform="matrix(0.9199 0.3922 -0.3922 0.9199 273.3727 -174.2253)" fill="#FFFFFF" width="5.6" height="395.3"/>
		</g>
	</g>
</g>
<g id="QpTMHw.tif">
	
		<image overflow="visible" width="730" height="570" id="Layer_0" xlink:href="B699D6E916E8BA1F.png"  transform="matrix(1.8595 0 0 1.8595 -1399.522 -104.1177)">
	</image>
</g>
</svg>
