<?xml version="1.0" encoding="utf-8"?>
<!-- Generator: Adobe Illustrator 18.0.0, SVG Export Plug-In . SVG Version: 6.00 Build 0)  -->
<!DOCTYPE svg PUBLIC "-//W3C//DTD SVG 1.1//EN" "http://www.w3.org/Graphics/SVG/1.1/DTD/svg11.dtd">
<svg version="1.1" id="Calque_1" xmlns="http://www.w3.org/2000/svg" xmlns:xlink="http://www.w3.org/1999/xlink" x="0px" y="0px"
	 viewBox="0 0 84.6 73.9" enable-background="new 0 0 84.6 73.9" xml:space="preserve">
<g>
	<g>
		<path fill="none" stroke="#D7DBDD" stroke-miterlimit="10" d="M63.7,73.4H49.2c-0.7,0-1.4-0.6-1.4-1.4V28.7c0-0.7,0.6-1.4,1.4-1.4
			h14.4c0.7,0,1.4,0.6,1.4,1.4v43.4C65,72.8,64.4,73.4,63.7,73.4L63.7,73.4z"/>
	</g>
	<g>
		<path fill="none" stroke="#D7DBDD" stroke-miterlimit="10" d="M40,73.4H25.5c-0.7,0-1.4-0.6-1.4-1.4V47.3c0-0.7,0.6-1.4,1.4-1.4
			H40c0.7,0,1.4,0.6,1.4,1.4v24.8C41.3,72.8,40.7,73.4,40,73.4L40,73.4z"/>
	</g>
	<g>
		<path fill="none" stroke="#D7DBDD" stroke-miterlimit="10" d="M16.3,73.4H1.9c-0.7,0-1.4-0.6-1.4-1.4V60.7c0-0.7,0.6-1.4,1.4-1.4
			h14.4c0.7,0,1.4,0.6,1.4,1.4v11.4C17.6,72.8,17,73.4,16.3,73.4L16.3,73.4z"/>
	</g>
	<g>
		<path fill="none" stroke="#D7DBDD" stroke-miterlimit="10" d="M45.3,24.2c-0.3,0-0.7-0.1-1-0.4c-0.5-0.5-0.5-1.4,0-1.9l9.5-9.5
			l-9.5-9.5c-0.5-0.5-0.5-1.4,0-1.9c0.5-0.5,1.4-0.5,1.9,0l10.5,10.5c0.5,0.5,0.5,1.4,0,1.9L46.3,23.8C46,24,45.7,24.2,45.3,24.2
			L45.3,24.2z"/>
	</g>
	<g>
		<path fill="none" stroke="#D7DBDD" stroke-miterlimit="10" d="M9.7,48.9c-0.1,0-0.2,0-0.3,0c-0.7-0.1-1.2-0.9-1.1-1.6
			C12.5,26.3,30.8,11,52.1,11c0.7,0,1.4,0.6,1.4,1.4s-0.6,1.4-1.4,1.4c-20,0-37.2,14.4-41,34.1C10.9,48.5,10.4,48.9,9.7,48.9
			L9.7,48.9z"/>
	</g>
	<g>
		<path fill="#6DD9F7" d="M61.8,30.6H51.7c-0.5,0-0.9,0-0.9,0v-1c0,0,0.4,0,0.9,0h10.1c0.5,0,0.9,0,0.9,0v1
			C62.7,30.5,62.3,30.6,61.8,30.6L61.8,30.6z"/>
	</g>
	<g>
		<path fill="#6DD9F7" d="M37.9,49.3H27.8c-0.5,0-0.9,0-0.9,0v-1c0,0,0.4,0,0.9,0h10.1c0.5,0,0.9,0,0.9,0v1
			C38.8,49.3,38.4,49.3,37.9,49.3L37.9,49.3z"/>
	</g>
	<g>
		<path fill="#6DD9F7" d="M13.8,62.4H3.7c-0.5,0-0.9,0-0.9,0v-1c0,0,0.4,0,0.9,0h10.1c0.5,0,0.9,0,0.9,0v1
			C14.7,62.3,14.3,62.4,13.8,62.4L13.8,62.4z"/>
	</g>
</g>
<g>
	<g>
		<path fill="#6DD9F7" d="M77.7,27.6c-0.1,0-0.1-0.1-0.2-0.1L74,22.3l-6,1.8c-0.2,0-0.3,0-0.4-0.1c-0.1-0.1-0.1-0.3,0-0.4l3.8-5
			l-3.5-5.2c-0.1-0.1-0.1-0.3,0-0.4c0.1-0.1,0.3-0.2,0.4-0.1l5.9,2.1l3.8-5c0.1-0.1,0.3-0.2,0.4-0.1l0,0c0.1,0.1,0.2,0.2,0.2,0.4
			l-0.2,6.2l5.9,2.1c0.1,0.1,0.2,0.2,0.2,0.4c0,0.2-0.1,0.3-0.3,0.3l-6,1.8l-0.2,6.2c0,0.2-0.1,0.3-0.3,0.3
			C77.8,27.6,77.8,27.6,77.7,27.6L77.7,27.6z M69.1,13.9l3,4.4c0.1,0.1,0.1,0.3,0,0.4l-3.3,4.3l5.2-1.5c0.2,0,0.3,0,0.4,0.1l3,4.4
			l0.1-5.4c0-0.2,0.1-0.3,0.3-0.3l5.2-1.5L78,17.1c-0.1-0.1-0.2-0.2-0.2-0.4l0.1-5.4l-3.3,4.3c-0.1,0.1-0.3,0.2-0.4,0.1L69.1,13.9
			L69.1,13.9z"/>
	</g>
</g>
</svg>
