<?xml version="1.0" encoding="utf-8"?>
<!-- Generator: Adobe Illustrator 18.0.0, SVG Export Plug-In . SVG Version: 6.00 Build 0)  -->
<!DOCTYPE svg PUBLIC "-//W3C//DTD SVG 1.1//EN" "http://www.w3.org/Graphics/SVG/1.1/DTD/svg11.dtd">
<svg version="1.1" id="Calque_1" xmlns="http://www.w3.org/2000/svg" xmlns:xlink="http://www.w3.org/1999/xlink" x="0px" y="0px"
	 viewBox="0 0 81.5 77.6" enable-background="new 0 0 81.5 77.6" xml:space="preserve">
<g>
	<g>
		<path fill="none" stroke="#D7DBDD" stroke-width="0.5" stroke-miterlimit="10" d="M28.1,44.9c-4.1,0-7.5-3.4-7.5-7.5
			c0-4.1,3.4-7.5,7.5-7.5c4.1,0,7.5,3.4,7.5,7.5C35.6,41.5,32.2,44.9,28.1,44.9L28.1,44.9z M28.1,30.2c-4,0-7.2,3.2-7.2,7.2
			c0,4,3.2,7.2,7.2,7.2s7.2-3.2,7.2-7.2C35.2,33.4,32,30.2,28.1,30.2L28.1,30.2z"/>
	</g>
</g>
<g>
	<path fill="#6DD9F7" d="M48.9,32C48.9,32.1,48.9,32.1,48.9,32C48.9,32.1,48.9,32.1,48.9,32z"/>
	<path fill="#6DD9F7" d="M50.1,12.4c-1.3-1.5-3.3-1.5-4.9-0.6c-1.6,1-2.3,2.3-2,4c0.3,1.6,1.5,3.5,2.8,6c0.5,0.9,0.9,1.9,1.3,2.8
		c1-0.5,2.3,0.4,3.5,0.5c0.4-1.5,0.7-3.2,0.9-5C52.1,16.6,51.5,13.8,50.1,12.4z"/>
</g>
<path fill="none" stroke="#D7DBDD" stroke-miterlimit="10" d="M54.4,36.2c8.1,0,14.6-6.6,14.6-14.6c0-8.1-6.6-14.6-14.6-14.6
	c-8.1,0-14.6,6.6-14.6,14.6c0,1.1,0.1,2.2,0.4,3.2c0.3,0,0.5,0,1,0c-0.5,0-0.7,0-1,0"/>
<path fill="#ED9E6E" d="M45.6,32C45.6,32,45.6,32,45.6,32C45.6,32,45.6,32,45.6,32C45.6,32,45.6,32,45.6,32"/>
<path fill="#ED9E6E" d="M69.9,26C69.9,26,69.9,26,69.9,26c0,0,0-0.1,0-0.1C69.9,25.9,69.9,25.9,69.9,26"/>
<path fill="#D7DBDD" d="M60.5,16.8c-1,0.3-1.7,1.3-1.4,2.3c0.3,1,1.3,1.7,2.3,1.4c1-0.3,1.7-1.3,1.4-2.3
	C62.6,17.2,61.5,16.6,60.5,16.8"/>
<path fill="#D7DBDD" d="M58.1,27.7c-2.3,1.1-3.8,0.4-4.1-0.2c-0.1-0.2,0-0.4,0.2-0.5l5.7-2.9c0.2-0.1,0.4,0,0.5,0.2
	C60.7,24.9,60.4,26.6,58.1,27.7z"/>
<path fill="none" stroke="#6DD9F7" stroke-miterlimit="10" d="M53.7,9.2c4.6-0.3,9.1,2.3,11.5,6.2"/>
<linearGradient id="SVGID_1_" gradientUnits="userSpaceOnUse" x1="58.8067" y1="41.1783" x2="63.5357" y2="41.1783" gradientTransform="matrix(0.9702 -0.2425 -0.2425 -0.9702 14.071 77.8709)">
	<stop  offset="0" style="stop-color:#FF7BAC"/>
	<stop  offset="1" style="stop-color:#FF7BAC;stop-opacity:0"/>
</linearGradient>
<path opacity="0.56" fill="url(#SVGID_1_)" enable-background="new    " d="M65.7,22.5c0.3,1.3-0.5,2.5-1.7,2.9
	c-1.3,0.3-2.6-0.5-2.9-1.7c-0.3-1.3,0.5-2.6,1.7-2.9C64.1,20.5,65.4,21.2,65.7,22.5"/>
<path fill="#D7DBDD" d="M50.7,21.3c-0.3-1-1.3-1.7-2.3-1.4c-1,0.3-1.7,1.3-1.4,2.3c0.3,1,1.3,1.7,2.3,1.4
	C50.3,23.4,51,22.3,50.7,21.3"/>
<g>
	<g>
		<path fill="none" stroke="#D7DBDD" stroke-miterlimit="10" d="M12.1,77.1c-0.2,0-0.5-0.1-0.7-0.2c-0.6-0.3-1-0.9-1-1.5V64.4H5.6
			c-2.8,0-5.1-2.3-5.1-5.1V30c0-2.8,2.3-5.1,5.1-5.1h43.8c2.8,0,5.1,2.3,5.1,5.1v29.4c0,2.8-2.3,5.1-5.1,5.1H28.6L13.1,76.7
			C12.8,77,12.4,77.1,12.1,77.1L12.1,77.1z"/>
	</g>
	<g>
		<path fill="none" stroke="#D7DBDD" stroke-miterlimit="10" d="M54.7,40.9c-0.3,0-0.3,0.3-0.3,0.3l14,11.1c0.3,0.2,0.7,0.4,1,0.4
			c0.2,0,0.5-0.1,0.7-0.2c0.6-0.3,1-0.9,1-1.5V40H76c2.8,0,5.1-2.3,5.1-5.1V5.6c0-2.8-2.3-5.1-5.1-5.1H32.2c-2.8,0-5.1,2.3-5.1,5.1
			v19.3"/>
		<path fill="none" stroke="#D7DBDD" stroke-miterlimit="10" d="M54,40.9"/>
	</g>
</g>
<g>
	<g>
		<path fill="#FFFFFF" stroke="#D7DBDD" stroke-width="0.75" stroke-miterlimit="10" d="M38,61.1H17.4c-0.4,0-0.7-0.3-0.7-0.7
			l-0.5-6.7c-0.1-2.2,1.5-4.7,3.7-5.5c5-1.8,10.5-1.8,15.5,0c2.4,0.9,3.8,3.5,3.7,5.5l-0.5,6.7C38.7,60.8,38.4,61.1,38,61.1L38,61.1
			z"/>
	</g>
</g>
<path fill="none" stroke="#6DD9F7" stroke-miterlimit="10" d="M28.4,31.9c2.2,0.2,4.1,1.7,4.9,3.7"/>
</svg>
