<?xml version="1.0" encoding="utf-8"?>
<!-- Generator: Adobe Illustrator 18.0.0, SVG Export Plug-In . SVG Version: 6.00 Build 0)  -->
<!DOCTYPE svg PUBLIC "-//W3C//DTD SVG 1.1//EN" "http://www.w3.org/Graphics/SVG/1.1/DTD/svg11.dtd">
<svg version="1.1" id="Calque_1" xmlns="http://www.w3.org/2000/svg" xmlns:xlink="http://www.w3.org/1999/xlink" x="0px" y="0px"
	 viewBox="0 0 86.3 86.3" enable-background="new 0 0 86.3 86.3" xml:space="preserve">
<g>
	<g>
		<path fill="none" stroke="#D7DBDD" stroke-miterlimit="10" d="M85.8,43.2c0-23.6-19.1-42.7-42.7-42.7S0.5,19.6,0.5,43.2
			s19.1,42.7,42.7,42.7S85.8,66.8,85.8,43.2z"/>
		<path fill="none" stroke="#D7DBDD" stroke-miterlimit="10" d="M43.2,77.3C24.3,77.3,9,62,9,43.2S24.3,9,43.2,9
			s34.1,15.3,34.1,34.1S62,77.3,43.2,77.3z"/>
		<path fill="#6DD9F7" stroke="#D7DBDD" stroke-miterlimit="10" d="M68.8,43.2c0-14.2-11.5-25.6-25.6-25.6S17.6,29,17.6,43.2
			S29,68.8,43.2,68.8S68.8,57.3,68.8,43.2z"/>
		<path fill="none" stroke="#D7DBDD" stroke-miterlimit="10" d="M43.2,60.2c-9.4,0-17.1-7.6-17.1-17.1s7.6-17.1,17.1-17.1
			s17.1,7.6,17.1,17.1S52.6,60.2,43.2,60.2z"/>
		<path fill="none" stroke="#D7DBDD" stroke-miterlimit="10" d="M51.7,43.2c0-4.7-3.8-8.5-8.5-8.5s-8.5,3.8-8.5,8.5s3.8,8.5,8.5,8.5
			S51.7,47.9,51.7,43.2z"/>
	</g>
	<g>
		<line fill="none" stroke="#D7DBDD" stroke-miterlimit="10" x1="43.2" y1="43.2" x2="43.2" y2="85.8"/>
		<line fill="none" stroke="#D7DBDD" stroke-miterlimit="10" x1="43.2" y1="43.2" x2="73.3" y2="73.3"/>
		<line fill="none" stroke="#D7DBDD" stroke-miterlimit="10" x1="43.2" y1="43.2" x2="85.8" y2="43.2"/>
		<line fill="none" stroke="#D7DBDD" stroke-miterlimit="10" x1="43.2" y1="43.2" x2="73.3" y2="13"/>
		<line fill="none" stroke="#D7DBDD" stroke-miterlimit="10" x1="43.2" y1="43.2" x2="43.2" y2="0.5"/>
		<line fill="none" stroke="#D7DBDD" stroke-miterlimit="10" x1="43.2" y1="43.2" x2="13" y2="13"/>
		<line fill="none" stroke="#D7DBDD" stroke-miterlimit="10" x1="43.2" y1="43.2" x2="0.5" y2="43.2"/>
		<line fill="none" stroke="#D7DBDD" stroke-miterlimit="10" x1="43.2" y1="43.2" x2="13" y2="73.3"/>
	</g>
</g>
</svg>
