<?xml version="1.0" encoding="utf-8"?>
<!-- Generator: Adobe Illustrator 18.0.0, SVG Export Plug-In . SVG Version: 6.00 Build 0)  -->
<!DOCTYPE svg PUBLIC "-//W3C//DTD SVG 1.1//EN" "http://www.w3.org/Graphics/SVG/1.1/DTD/svg11.dtd">
<svg version="1.1" id="Calque_1" xmlns="http://www.w3.org/2000/svg" xmlns:xlink="http://www.w3.org/1999/xlink" x="0px" y="0px"
	 viewBox="0 0 1280 800" enable-background="new 0 0 1280 800" xml:space="preserve">
<circle fill="#FFFFFF" cx="593.2" cy="382.3" r="342.3"/>
<g>
	<path fill="#5983FC" d="M399.4,374.5c-30.2-59.6-59.4-102.7-65.8-141c-7.3-37.5,8.4-70.1,45.8-92.5c36.7-21.4,84.1-20.6,114.5,13.7
		c31.4,33,45.7,99.6,38.6,179.3c-6.5,80.2-29,152.4-43.9,202.5c-15.8,50.4-23.8,78.7-23,79.7c-0.1,0.8,4.4-29-4.9-75.2
		C452.4,495,430.3,432.8,399.4,374.5z"/>
</g>
<path fill="#ED9E6E" d="M424.9,587.8c0.1,0,0.2,0.1,0.4,0.2c-0.2-0.6-0.4-1.2-0.6-1.8C424.6,586.6,424.8,587.2,424.9,587.8"/>
<path fill="#ED9E6E" d="M875.6,475.4c0.1-0.2,0.2-0.2,0.3-0.4c-0.2-0.5-0.3-1-0.6-1.5C875.4,474.1,875.5,474.7,875.6,475.4"/>
<path fill="#0D599E" d="M736.4,272.2c-24.2,6.1-39,30.6-32.9,54.9c6.1,24.2,30.6,39,54.8,32.9c24.2-6.1,39-30.6,33-54.8
	C785.2,280.9,760.6,266.2,736.4,272.2"/>
<path fill="#0D599E" d="M649.7,514.6c42.1-33.1,76-23.7,84.9-12.4c2.5,3.1,1.9,7.6-1.2,10l-105.8,83.1c-3.1,2.5-7.6,1.9-10-1.2
	C608.7,582.8,607.5,547.8,649.7,514.6z"/>
<path opacity="0.66" fill="none" stroke="#FFC171" stroke-width="25" stroke-miterlimit="10" enable-background="new    " d="
	M592.7,69.4c108.5-0.6,215.3,65.4,273.4,160.6"/>
<linearGradient id="SVGID_1_" gradientUnits="userSpaceOnUse" x1="620.3694" y1="223.5025" x2="758.681" y2="223.5025" gradientTransform="matrix(0.7762 -0.194 -0.194 -0.7762 313.2176 725.8416)">
	<stop  offset="0" style="stop-color:#FF7BAC"/>
	<stop  offset="1" style="stop-color:#FF7BAC;stop-opacity:0"/>
</linearGradient>
<path opacity="0.56" fill="url(#SVGID_1_)" enable-background="new    " d="M858.7,405.2c7.4,29.6-10.6,59.6-40.2,67
	c-29.7,7.4-59.7-10.6-67.1-40.2c-7.4-29.6,10.6-59.7,40.2-67C821.3,357.5,851.3,375.6,858.7,405.2"/>
<path fill="#0D599E" d="M507.3,376.2c-6.1-24.2-30.6-39-54.9-33c-24.2,6.1-39,30.6-32.9,54.9c6.1,24.2,30.6,39,54.8,32.9
	C498.6,424.9,513.4,400.4,507.3,376.2"/>
<linearGradient id="SVGID_2_" gradientUnits="userSpaceOnUse" x1="203.3252" y1="213.9632" x2="341.5398" y2="213.9632" gradientTransform="matrix(0.7762 -0.194 -0.194 -0.7762 313.2176 725.8416)">
	<stop  offset="0" style="stop-color:#FF7BAC"/>
	<stop  offset="1" style="stop-color:#FF7BAC;stop-opacity:0"/>
</linearGradient>
<path opacity="0.56" fill="url(#SVGID_2_)" enable-background="new    " d="M536.8,493.5c7.4,29.6-10.6,59.6-40.2,67
	c-29.6,7.4-59.7-10.6-67-40.2c-7.4-29.6,10.6-59.7,40.2-67C499.4,445.8,529.4,463.9,536.8,493.5"/>
</svg>
