<?xml version="1.0" standalone="no"?>
<!DOCTYPE svg PUBLIC "-//W3C//DTD SVG 20010904//EN"
 "http://www.w3.org/TR/2001/REC-SVG-20010904/DTD/svg10.dtd">
<svg version="1.0" xmlns="http://www.w3.org/2000/svg"
 width="16.000000pt" height="16.000000pt" viewBox="0 0 16.000000 16.000000"
 preserveAspectRatio="xMidYMid meet">
<metadata>
Created by potrace 1.11, written by Peter Selinger 2001-2013
</metadata>
<g transform="translate(0.000000,16.000000) scale(0.001477,-0.001477)"
fill="#000000" stroke="none">
<path d="M5765 7478 c2 -1135 4 -2082 4 -2106 l1 -42 130 65 c71 36 131 64
132 63 2 -2 17 7 33 18 17 12 40 24 52 28 12 4 55 25 94 47 39 21 74 39 77 39
2 0 214 104 471 231 256 128 747 371 1091 541 344 169 634 313 645 320 11 6
61 31 110 56 282 138 495 245 495 247 0 1 -46 37 -102 80 -57 43 -166 126
-243 185 -77 59 -250 191 -385 294 -135 103 -255 195 -267 204 -12 9 -166 127
-343 262 -177 135 -388 296 -468 357 -81 62 -155 118 -164 125 -9 7 -190 146
-403 308 -213 162 -462 352 -553 422 -92 70 -171 131 -177 136 -5 4 -48 37
-95 72 -47 35 -90 69 -97 75 -45 38 -43 178 -38 -2027z m1085 228 c151 -115
320 -244 375 -286 55 -42 150 -115 210 -161 155 -118 169 -129 164 -133 -2 -2
-53 -28 -114 -58 -60 -30 -119 -60 -130 -66 -57 -33 -791 -390 -794 -387 -9
10 -6 1313 4 1307 5 -3 134 -100 285 -216z"/>
<path d="M3088 8375 c-2 -2 -27 -6 -57 -10 -54 -7 -75 -10 -121 -20 -14 -3
-34 -7 -45 -10 -449 -95 -878 -435 -1089 -862 -123 -251 -176 -486 -170 -768
2 -77 6 -151 9 -165 3 -14 8 -45 11 -70 15 -116 86 -334 152 -465 23 -47 88
-158 105 -180 4 -5 31 -41 59 -80 166 -224 434 -424 708 -528 701 -267 1467
-40 1918 568 158 213 273 519 299 792 35 377 -52 741 -254 1055 -151 235 -391
449 -648 576 -143 71 -335 133 -454 148 -25 3 -49 8 -55 11 -9 6 -362 14 -368
8z m332 -810 c324 -69 585 -336 646 -662 61 -327 -63 -643 -331 -841 -186
-138 -441 -193 -670 -145 -250 52 -484 240 -592 473 -142 308 -83 673 149 925
201 217 504 313 798 250z"/>
<path d="M8047 5074 c-1 -1 -38 -4 -82 -8 -300 -25 -745 -212 -1165 -491 -173
-115 -325 -256 -425 -395 -22 -30 -42 -57 -45 -60 -14 -11 -100 -160 -132
-230 -59 -126 -107 -272 -124 -374 -3 -21 -8 -48 -10 -60 -3 -11 -7 -75 -9
-141 -12 -360 123 -662 436 -974 248 -246 574 -426 845 -466 21 -4 47 -9 57
-11 22 -7 232 -6 267 0 14 3 41 7 60 10 107 16 261 79 371 152 374 248 730
989 844 1754 12 81 17 160 20 275 6 341 -62 564 -229 751 -151 169 -354 258
-609 267 -37 1 -69 2 -70 1z m104 -836 c20 -75 15 -264 -11 -408 -5 -30 -12
-69 -15 -86 -21 -128 -109 -412 -178 -574 -113 -266 -236 -455 -325 -499 -135
-67 -390 43 -593 256 -87 92 -154 189 -170 246 -63 227 103 555 370 736 123
84 486 281 517 281 3 0 25 9 50 20 68 32 212 67 281 69 l62 2 12 -43z"/>
<path d="M3898 4745 c-2 -1 -30 -5 -63 -9 -99 -10 -122 -14 -218 -40 -168 -46
-320 -117 -458 -212 -100 -69 -125 -90 -222 -187 -281 -284 -432 -661 -429
-1072 2 -354 121 -680 347 -951 182 -217 422 -379 690 -465 326 -104 678 -98
990 18 525 195 895 661 970 1221 13 97 13 344 0 402 -2 14 -7 39 -10 55 -12
69 -15 83 -34 152 -84 292 -266 568 -502 756 -85 69 -251 170 -339 206 -30 13
-64 27 -75 32 -29 12 -147 49 -174 54 -12 2 -30 6 -39 9 -9 3 -35 8 -57 11
-23 3 -52 8 -65 11 -26 5 -306 14 -312 9z m223 -799 c65 -12 74 -14 124 -31
330 -113 528 -449 468 -796 -65 -378 -428 -642 -803 -585 -484 75 -753 593
-534 1029 102 204 307 354 522 382 13 2 25 5 27 7 6 6 159 1 196 -6z"/>
</g>
</svg>
