<svg style="position: absolute; width: 0; height: 0; overflow: hidden;" version="1.1" xmlns="http://www.w3.org/2000/svg" xmlns:xlink="http://www.w3.org/1999/xlink">
<defs>
<symbol id="svgicon-meka_logo_app" viewBox="188.4 347.1 621 304">
<title>meka_logo_app</title>

<path fill="none" stroke="#FFFFFF" stroke-width="19" stroke-miterlimit="10" d="M701.2,520.9L701.2,520.9
	c-12.5,7.7-29,3.7-36.7-8.8l0,0c-7.7-12.5-3.7-29,8.8-36.7l0,0c12.5-7.7,29-3.7,36.7,8.8l0,0C717.7,496.7,713.7,513.2,701.2,520.9z"
	/>
<circle fill="none" stroke="#FFFFFF" stroke-width="19" stroke-miterlimit="10" cx="668.7" cy="414.1" r="29.8"/>
<polygon fill="none" stroke="#FFFFFF" stroke-width="19" stroke-miterlimit="10" points="738.9,432.7 738.8,366.3 791.5,406.6 "/>
<path fill="none" stroke="#FFFFFF" stroke-width="19" stroke-miterlimit="10" d="M794.5,468.3c6.6,10.4-4.4,44.6-14.8,51.3
	c-10.4,6.6-24.6-2.3-31.2-12.7c-6.6-10.4-0.4-25.6,11.2-33C770,467.2,787.8,457.9,794.5,468.3z"/>
<g>
	<path fill="#FFFFFF" stroke="#FFFFFF" stroke-width="7" stroke-miterlimit="10" d="M324.3,591.7v54.2H316v-52.1
		c0-17.5-8.3-29.2-23.2-29.2c-17.5,0-28.9,17-30.4,35.8v45.5H254v-52.1c0-17.5-8.5-29.2-23.4-29.2c-17.3,0-28.9,17-30.4,35.8v45.5
		h-8.3v-87.5h7.8l0.5,19.4c6.7-11.2,17.6-21.1,32.7-21.1c14.9,0,24.7,9.2,28,23.2c6.6-12.1,17.8-23.2,34.1-23.2
		C313.7,556.6,324.3,571,324.3,591.7z"/>
	<path fill="#FFFFFF" stroke="#FFFFFF" stroke-width="7" stroke-miterlimit="10" d="M430.5,604.7h-79.2C352,626,367.2,640,388.1,640
		c17.5,0,27.9-10,31.8-19.4l7.4,1.2c-4,12.1-17.6,25.8-39.4,25.8c-25.6,0-45-18.7-45-46c0-24.6,18.2-45,43.8-45
		c26.8,0,43.8,21.8,43.8,46.2V604.7z M351.3,598.3H422c-1-18-14.4-34.1-35.3-34.1C366.7,564.2,352,579.4,351.3,598.3z"/>
	<path fill="#FFFFFF" stroke="#FFFFFF" stroke-width="7" stroke-miterlimit="10" d="M484.3,596.4l40.7,49.5h-10.6l-36.2-43.9
		L462.2,617v28.9h-8.3V516.1h8.3v89.8l51-47.6H525L484.3,596.4z"/>
	<path fill="#FFFFFF" stroke="#FFFFFF" stroke-width="7" stroke-miterlimit="10" d="M579.3,556.6c17.8,0,32.9,10.6,39.1,25.3
		l0.3-23.5h8.1v87.5h-8.1l-0.3-23.7c-6.2,14.9-21.3,25.4-39.1,25.4c-25.1,0-45.2-20.4-45.2-45.7C534.1,577,554.2,556.6,579.3,556.6z
		 M580.3,639.6c20.8,0,37.5-17,37.5-37.7c0-20.4-16.8-37.4-37.5-37.4c-20.9,0-37.9,17-37.9,37.4
		C542.4,622.7,559.4,639.6,580.3,639.6z"/>
</g>
<path fill="#FFFFFF" stroke="#FFFFFF" stroke-width="5" stroke-miterlimit="10" d="M423,529.9c0,0-71,0-71.1,0
	c0.1,2.1,0.2,4.3,0.2,6.4c0.1,0,0.3,0,0.4,0h70.7C423.1,534.2,423.1,532.1,423,529.9z"/>
<path fill="#FFFFFF" stroke="#FFFFFF" stroke-width="5" stroke-miterlimit="10" d="M621.1,529.9c0,0-71,0-71.1,0
	c0.1,2.1,0.2,4.3,0.2,6.4c0.1,0,0.3,0,0.4,0h70.7C621.3,534.2,621.2,532.1,621.1,529.9z"/>
</symbol>



<symbol id="svgicon-chef-hat" viewBox="0 0 32 32">
<title>chef-hat</title>
<path fill="none" stroke="#fff" stroke-width="1" stroke-miterlimit="10" stroke-linecap="round" stroke-linejoin="round" d="M23.336 4c-0.8 0-1.549 0.2-2.205 0.555-0.633-2.243-3.357-3.888-5.8-3.888s-5.2 1.645-5.833 3.888c-0.656-0.355-1.409-0.555-2.203-0.555-2.579 0-4.669 2.089-4.669 4.667s2 4.667 4.667 4.667v17.917h16.039v-17.917c2.667 0 4.669-2.089 4.669-4.667s-2.088-4.667-4.664-4.667zM7.292 25.917h16.039M11.305 20.584v5.333M15.292 19.251v6.667M19.317 20.584v5.333"></path>
</symbol>
<symbol id="svgicon-drink-coffee" viewBox="0 0 32 32">
<title>drink-coffee</title>
<path fill="none" stroke="#fff" stroke-width="1" stroke-miterlimit="10" stroke-linecap="round" stroke-linejoin="round" d="M24 31.333h-16l-1.333-21.333h18.667zM5.333 4.667h21.333v5.333h-21.333zM25.333 4.667h-18.667l1.333-4h16z"></path>
<path fill="none" stroke="#fff" stroke-width="1" stroke-miterlimit="10" stroke-linecap="butt" stroke-linejoin="round" d="M7 15.333h18M7.5 23.333h17.028"></path>
<path fill="none" stroke="#fff" stroke-width="1" stroke-miterlimit="10" stroke-linecap="round" stroke-linejoin="round" d="M12.667 19.333h6.667"></path>
</symbol>
<symbol id="svgicon-music-note" viewBox="0 0 32 32">
<title>music-note</title>
<path fill="none" stroke="#fff" stroke-width="1" stroke-miterlimit="10" stroke-linecap="butt" stroke-linejoin="round" d="M12.667 27.333c0 2-1.791 4-4 4-2.208 0-4-1.791-4-4 0-2.208 1.792-4 4-4h4v4zM27.333 22c0 2-1.791 4-4 4-2.208 0-4-1.791-4-4 0-2.208 1.792-4 4-4h4v4zM12.667 24.667v-17.333l14.667-6v19.333M12.667 12l14.667-6"></path>
</symbol>
<symbol id="svgicon-notebook-2" viewBox="0 0 32 32">
<title>notebook-2</title>
<path fill="none" stroke="#fff" stroke-width="1" stroke-miterlimit="10" stroke-linecap="round" stroke-linejoin="round" d="M27.333 24.667h-22.667v-13.333h22.667zM2 27.333v-16.667c0-1.104 0.896-2 2-2h24c1.104 0 2 0.896 2 2v16.667"></path>
<path fill="none" stroke="#fff" stroke-width="1" stroke-miterlimit="10" stroke-linecap="round" stroke-linejoin="round" d="M19.333 27.333v1h-6.667v-1h-12v2.667c0 0.737 0.597 1 1 1h28c0.737 0 1-0.596 1-1v-2.667h-12z"></path>
</symbol>
<symbol id="svgicon-paint-palette" viewBox="0 0 32 32">
<title>paint-palette</title>
<path fill="none" stroke="#fff" stroke-width="1" stroke-miterlimit="10" stroke-linecap="round" stroke-linejoin="round" d="M5.157 27.852c-5.988-5.987-5.988-15.697 0-21.685s15.696-5.987 21.685 0 5.988 15.697 0 21.685c-2.863 2.864-7.507 2.864-10.371 0l-5.656-5.656c-0.521-0.521-1.365-0.521-1.885 0-0.521 0.521-0.521 1.364 0 1.885 1.040 1.041 1.040 2.729 0 3.771-1.043 1.041-2.732 1.041-3.773 0z"></path>
<path fill="none" stroke="#fff" stroke-width="1" stroke-miterlimit="10" stroke-linecap="round" stroke-linejoin="round" d="M23.655 10.411c0 1.104-0.895 1.999-1.999 1.999s-1.999-0.895-1.999-1.999c0-1.104 0.895-1.999 1.999-1.999s1.999 0.895 1.999 1.999z"></path>
<path fill="none" stroke="#fff" stroke-width="1" stroke-miterlimit="10" stroke-linecap="round" stroke-linejoin="round" d="M26.667 17.008c0 0.736-0.597 1-1 1s-1-0.597-1-1c0-0.736 0.597-1 1-1s1 0.597 1 1z"></path>
<path fill="none" stroke="#fff" stroke-width="1" stroke-miterlimit="10" stroke-linecap="round" stroke-linejoin="round" d="M24.323 23.609c0 1.473-1.194 2.667-2.667 2.667s-2.667-1.194-2.667-2.667c0-1.473 1.194-2.667 2.667-2.667s2.667 1.194 2.667 2.667z"></path>
<path fill="none" stroke="#fff" stroke-width="1" stroke-miterlimit="10" stroke-linecap="round" stroke-linejoin="round" d="M15.641 8.995c0 1.104-0.895 1.999-1.999 1.999s-1.999-0.895-1.999-1.999c0-1.104 0.895-1.999 1.999-1.999s1.999 0.895 1.999 1.999z"></path>
</symbol>

<symbol id="bg_triangle_round" viewBox="0 0 134.8 148.4">
<title>bg_triangle_round</title>
<linearGradient id="SVGID_1_" gradientUnits="userSpaceOnUse" x1="-23.5003" y1="15.3995" x2="125.8853" y2="15.3995" gradientTransform="matrix(-0.8837 0.4681 -0.4681 -0.8837 126.4549 65.7797)">
	<stop  offset="0" style="stop-color:#C2982E"/>
	<stop  offset="0" style="stop-color:#A2792C"/>
	<stop  offset="0.4607" style="stop-color:#CDA430"/>
	<stop  offset="0.5618" style="stop-color:#CDA430"/>
	<stop  offset="0.8202" style="stop-color:#F8D975"/>
	<stop  offset="1" style="stop-color:#C2982E"/>
	<stop  offset="1" style="stop-color:#A2792C"/>
</linearGradient>
<path opacity="0.54" fill="none" stroke="url(#SVGID_1_)" stroke-width="43" stroke-miterlimit="10" d="M109.7,29.9
	c12,18.8-7.9,80.8-26.8,92.8c-18.8,12-44.5-4.2-56.5-23c-12-18.8-0.6-46.3,20.2-59.7C65.4,28,97.6,11.1,109.7,29.9z"/>
</symbol>


<symbol id="bg_round" viewBox="0 0 150.8 150.8">
<title>bg_round</title>
<linearGradient id="SVGID_1_" gradientUnits="userSpaceOnUse" x1="110.3895" y1="83.7706" x2="261.153" y2="83.7706" gradientTransform="matrix(0.7381 0.6747 -0.6747 0.7381 -5.221 -111.7853)">
	<stop  offset="0" style="stop-color:#C2982E"/>
	<stop  offset="0" style="stop-color:#A2792C"/>
	<stop  offset="0.4607" style="stop-color:#CDA430"/>
	<stop  offset="0.5618" style="stop-color:#CDA430"/>
	<stop  offset="0.8202" style="stop-color:#F8D975"/>
	<stop  offset="1" style="stop-color:#C2982E"/>
	<stop  offset="1" style="stop-color:#A2792C"/>
</linearGradient>
<circle opacity="0.54" fill="none" stroke="url(#SVGID_1_)" stroke-width="43" stroke-miterlimit="10" cx="75.4" cy="75.4" r="53.9"/>
</symbol>



<symbol id="bg_square_round" viewBox="0 0 150.7 150.7">
<title>bg_square_round</title>
<linearGradient id="SVGID_1_" gradientUnits="userSpaceOnUse" x1="-9.094947e-13" y1="75.3428" x2="150.6856" y2="75.3428">
	<stop  offset="0" style="stop-color:#C2982E"/>
	<stop  offset="0" style="stop-color:#A2792C"/>
	<stop  offset="0.4607" style="stop-color:#CDA430"/>
	<stop  offset="0.5618" style="stop-color:#CDA430"/>
	<stop  offset="0.8202" style="stop-color:#F8D975"/>
	<stop  offset="1" style="stop-color:#C2982E"/>
	<stop  offset="1" style="stop-color:#A2792C"/>
</linearGradient>
<path opacity="0.54" fill="none" stroke="url(#SVGID_1_)" stroke-width="43" stroke-miterlimit="10" d="M110.4,113.5l-34.9,13.7
	c-15.1,5.9-32.4-1.6-38.3-16.7L23.5,75.5c-5.9-15.1,1.6-32.4,16.7-38.3l34.9-13.7c15.1-5.9,32.4,1.6,38.3,16.7l13.7,34.9
	C133.1,90.3,125.6,107.6,110.4,113.5z"/>
</symbol>


<symbol id="bg_triangle" viewBox="0 0 157.6 198.3">
<title>bg_triangle</title>
<linearGradient id="SVGID_1_" gradientUnits="userSpaceOnUse" x1="0" y1="99.1584" x2="157.6243" y2="99.1584">
	<stop  offset="0" style="stop-color:#C2982E"/>
	<stop  offset="0" style="stop-color:#A2792C"/>
	<stop  offset="0.4607" style="stop-color:#CDA430"/>
	<stop  offset="0.5618" style="stop-color:#CDA430"/>
	<stop  offset="0.8202" style="stop-color:#F8D975"/>
	<stop  offset="1" style="stop-color:#C2982E"/>
	<stop  offset="1" style="stop-color:#A2792C"/>
</linearGradient>
<polygon opacity="0.54" fill="none" stroke="url(#SVGID_1_)" stroke-width="43" stroke-miterlimit="10" points="21.8,163.7 
	21.6,43.5 117.1,116.4 "/>
</symbol>



<symbol id="landing_perso_progress" viewBox="0 0 1000 1000">
	<title>landing_perso_progress</title>
<g>
	<g>
		<path fill="none" stroke="#D7DBDD" stroke-width="10" stroke-miterlimit="10" d="M753,930.9H581.6c-8.3,0-16.5-7.1-16.5-16.5V402.5
			c0-8.3,7.1-16.5,16.5-16.5h170.2c8.3,0,16.5,7.1,16.5,16.5v513C768.3,923.8,761.2,930.9,753,930.9L753,930.9z"/>
	</g>
	<g>
		<path fill="none" stroke="#D7DBDD" stroke-width="10" stroke-miterlimit="10" d="M472.8,930.9H301.4c-8.3,0-16.5-7.1-16.5-16.5
			v-292c0-8.3,7.1-16.5,16.5-16.5h171.4c8.3,0,16.5,7.1,16.5,16.5v293.1C488.2,923.8,481.1,930.9,472.8,930.9L472.8,930.9z"/>
	</g>
	<g>
		<path fill="none" stroke="#D7DBDD" stroke-width="10" stroke-miterlimit="10" d="M192.7,930.9H22.5c-8.3,0-16.5-7.1-16.5-16.5
			V780.7c0-8.3,7.1-16.5,16.5-16.5h170.2c8.3,0,16.5,7.1,16.5,16.5v134.8C208,923.8,200.9,930.9,192.7,930.9L192.7,930.9z"/>
	</g>
	<g>
		<path fill="none" stroke="#D7DBDD" stroke-width="10" stroke-miterlimit="10" d="M535.5,349.3c-3.5,0-8.3-1.2-11.8-4.7
			c-5.9-5.9-5.9-16.5,0-22.5l112.3-112.3L523.6,97.5c-5.9-5.9-5.9-16.5,0-22.5c5.9-5.9,16.5-5.9,22.5,0l124.1,124.1
			c5.9,5.9,5.9,16.5,0,22.5L547.3,344.6C543.7,346.9,540.2,349.3,535.5,349.3L535.5,349.3z"/>
	</g>
	<g>
		<path fill="none" stroke="#D7DBDD" stroke-width="10" stroke-miterlimit="10" d="M114.7,641.3c-1.2,0-2.4,0-3.5,0
			c-8.3-1.2-14.2-10.6-13-18.9c49.6-248.2,266-429.1,517.7-429.1c8.3,0,16.5,7.1,16.5,16.5c0,9.5-7.1,16.5-16.5,16.5
			c-236.4,0-439.7,170.2-484.6,403.1C128.8,636.5,122.9,641.3,114.7,641.3L114.7,641.3z"/>
	</g>
	<g>
		<path fill="#1E81ED" d="M730.5,424.9H611.1c-5.9,0-10.6,0-10.6,0v-11.8c0,0,4.7,0,10.6,0h119.4c5.9,0,10.6,0,10.6,0v11.8
			C741.1,423.8,736.4,424.9,730.5,424.9L730.5,424.9z"/>
	</g>
	<g>
		<path fill="#1E81ED" d="M448,646H328.6c-5.9,0-10.6,0-10.6,0v-11.8c0,0,4.7,0,10.6,0H448c5.9,0,10.6,0,10.6,0V646
			C458.6,646,453.9,646,448,646L448,646z"/>
	</g>
	<g>
		<path fill="#1E81ED" d="M163.1,800.8H43.7c-5.9,0-10.6,0-10.6,0V789c0,0,4.7,0,10.6,0h119.4c5.9,0,10.6,0,10.6,0v11.8
			C173.8,799.6,169,800.8,163.1,800.8L163.1,800.8z"/>
	</g>
</g>
<g>
	<g>
		<path fill="#1E81ED" d="M918.4,389.5c-1.2,0-1.2-1.2-2.4-1.2l-41.4-61.5l-70.9,21.3c-2.4,0-3.5,0-4.7-1.2s-1.2-3.5,0-4.7
			l44.9-59.1l-41.4-61.5c-1.2-1.2-1.2-3.5,0-4.7c1.2-1.2,3.5-2.4,4.7-1.2l69.7,24.8l44.9-59.1c1.2-1.2,3.5-2.4,4.7-1.2l0,0
			c1.2,1.2,2.4,2.4,2.4,4.7l-2.4,73.3l69.7,24.8c1.2,1.2,2.4,2.4,2.4,4.7c0,2.4-1.2,3.5-3.5,3.5l-70.9,21.3l-2.4,73.3
			C922,388.3,920.8,389.5,918.4,389.5C919.6,389.5,919.6,389.5,918.4,389.5L918.4,389.5z M816.8,227.5l35.5,52
			c1.2,1.2,1.2,3.5,0,4.7l-39,50.8l61.5-17.7c2.4,0,3.5,0,4.7,1.2l35.5,52l1.2-63.8c0-2.4,1.2-3.5,3.5-3.5l61.5-17.7L922,265.4
			c-1.2-1.2-2.4-2.4-2.4-4.7l1.2-63.8l-39,50.8c-1.2,1.2-3.5,2.4-4.7,1.2L816.8,227.5L816.8,227.5z"/>
	</g>
</g>
</symbol>




<symbol id="landing_perso_radar" viewBox="0 0 1000 1000">
	<title>landing_perso_radar</title>
<g>
	<g>
		<g>
			<path fill="#D7DBDD" d="M500.6,998.9c-67.3,0-132.6-13.2-194-39.1c-59.3-25.1-112.6-61-158.4-106.7S66.5,754,41.4,694.6
				c-26-61.4-39.1-126.7-39.1-194c0-67.3,13.1-132.6,38.9-194c25-59.4,60.8-112.6,106.3-158.4c45.6-45.8,98.8-81.7,158-106.7
				c61.3-26,126.6-39.1,193.9-39.1c67.3,0,132.6,13.2,194,39.1c59.3,25.1,112.6,61,158.4,106.7s81.7,99,106.7,158.4
				c26,61.4,39.1,126.7,39.1,194c0,67.3-13.1,132.6-38.9,194C933.8,754,898,807.3,852.4,853c-45.6,45.8-98.8,81.7-158,106.7
				C633.1,985.7,567.9,998.9,500.6,998.9z M499.4,9.3c-66.4,0-130.7,13-191.1,38.6C249.9,72.6,197.5,108,152.5,153.1
				c-44.9,45.1-80.2,97.6-104.8,156.2C22.2,369.8,9.3,434.2,9.3,500.6c0,66.4,13,130.7,38.6,191.3c24.7,58.5,60.1,111,105.2,156.2
				c45.1,45.1,97.6,80.5,156.2,105.2c60.6,25.6,124.9,38.6,191.3,38.6c66.4,0,130.7-13,191.1-38.6c58.4-24.7,110.8-60.1,155.8-105.2
				c44.9-45.1,80.2-97.6,104.8-156.2c25.5-60.6,38.4-124.9,38.4-191.3c0-66.4-13-130.7-38.6-191.3c-24.7-58.5-60.1-111-105.2-156.2
				C801.8,108,749.2,72.6,690.7,47.9C630.2,22.3,565.8,9.3,499.4,9.3z"/>
		</g>
		<g>
			<path fill="#D7DBDD" d="M500.6,899.2c-54,0-106.4-10.6-155.7-31.4c-47.6-20.1-90.4-48.9-127.1-85.5
				c-36.7-36.6-65.5-79.3-85.6-126.7c-20.8-49.1-31.4-101.3-31.4-155c0-220.4,179.3-399.8,399.8-399.8c54,0,106.3,10.6,155.5,31.4
				c47.5,20.1,90.1,48.9,126.7,85.5c36.5,36.6,65.2,79.2,85.2,126.7c20.7,49.1,31.2,101.3,31.2,155c0,53.7-10.6,105.9-31.4,155.2
				c-20.1,47.6-48.9,90.3-85.5,127.1c-36.7,36.8-79.3,65.7-126.7,85.9C606.4,888.6,554.3,899.2,500.6,899.2z M500.6,107.8
				C284,107.8,107.8,284,107.8,500.6c0,52.8,10.4,104,30.8,152.3c19.8,46.6,48.1,88.5,84.1,124.5c36.1,36,78.1,64.3,124.8,84
				c48.4,20.5,99.9,30.8,153,30.8c52.8,0,104-10.4,152.3-31c46.6-19.9,88.5-48.3,124.5-84.4c36-36.1,64.3-78.2,84-124.9
				c20.5-48.4,30.8-99.7,30.8-152.5c0-52.8-10.3-104-30.7-152.3c-19.7-46.6-47.9-88.5-83.8-124.5
				C703.9,148.6,605.4,107.8,500.6,107.8z"/>
		</g>
		<g>
			<path fill="#1E81ED" d="M797.2,500.6c0-164.5-133.3-296.6-296.6-296.6S203.9,336,203.9,500.6S336,797.2,500.6,797.2
				S797.2,664,797.2,500.6z"/>
			<path fill="#D7DBDD" d="M500.6,800.7c-80.5,0-156-31.1-212.5-87.6c-56.5-56.5-87.6-132-87.6-212.5c0-80.4,31.3-155.9,88.1-212.5
				c56.7-56.5,132-87.6,212.1-87.6s155.4,31.1,212.1,87.6c56.8,56.6,88.1,132.1,88.1,212.5c0,80.1-31.1,155.4-87.6,212.1
				C656.4,769.4,581,800.7,500.6,800.7z M500.6,207.4c-78.2,0-151.8,30.4-207.1,85.6c-55.5,55.3-86,129-86,207.5
				c0,78.6,30.4,152.4,85.6,207.5s128.9,85.6,207.5,85.6c78.5,0,152.2-30.5,207.5-86c55.2-55.3,85.6-128.9,85.6-207.1
				c0-78.5-30.5-152.2-86-207.5C652.4,237.8,578.8,207.4,500.6,207.4z"/>
		</g>
		<g>
			<path fill="#D7DBDD" d="M500.6,701.1c-53.7,0-104.3-20.9-142.4-58.8c-38.2-38.1-59.3-88.8-59.3-142.8
				c0-54.2,20.9-104.9,58.8-142.8c37.9-37.9,88.7-58.8,142.8-58.8s104.9,20.9,142.8,58.8c37.9,37.9,58.8,88.7,58.8,142.8
				c0,54-21,104.8-59.3,142.8C604.9,680.2,554.3,701.1,500.6,701.1z M500.6,304.8c-52.3,0-101.3,20.2-137.9,56.8
				s-56.8,85.6-56.8,137.9c0,52.2,20.3,101.1,57.2,137.9c36.8,36.6,85.6,56.8,137.4,56.8c51.9,0,100.7-20.2,137.4-56.8
				c36.9-36.7,57.2-85.7,57.2-137.9c0-52.3-20.2-101.3-56.8-137.9S552.9,304.8,500.6,304.8z"/>
		</g>
		<g>
			<path fill="#D7DBDD" d="M500.6,602.6c-56.2,0-102-45.8-102-102c0-56.2,45.8-102,102-102c56.2,0,102,45.8,102,102
				C602.6,556.8,556.8,602.6,500.6,602.6z M500.6,405.6c-52.4,0-95,42.6-95,95c0,52.4,42.6,95,95,95c52.4,0,95-42.6,95-95
				C595.6,448.2,553,405.6,500.6,405.6z"/>
		</g>
	</g>
	<g>
		<g>
			<rect x="497.1" y="500.6" fill="#D7DBDD" width="10" height="493.6"/>
		</g>
		<g>
			
				<rect x="428.3" y="671.5" transform="matrix(0.7071 0.7071 -0.7071 0.7071 674.9698 -279.5821)" fill="#D7DBDD" width="493.3" height="7"/>
		</g>
		<g>
			<rect x="500.6" y="497.1" fill="#D7DBDD" width="493.6" height="10"/>
		</g>
		<g>
			
				<rect x="671.5" y="78.6" transform="matrix(0.7083 0.706 -0.706 0.7083 426.7827 -381.5049)" fill="#D7DBDD" width="7" height="494.1"/>
		</g>
		<g>
			<rect x="497.1" y="5.8" fill="#D7DBDD" width="10" height="494.8"/>
		</g>
		<g>
			
				<rect x="78.2" y="322.1" transform="matrix(0.7071 0.7071 -0.7071 0.7071 325.6077 -134.8714)" fill="#D7DBDD" width="494.9" height="7"/>
		</g>
		<g>
			<rect x="5.8" y="497.1" fill="#D7DBDD" width="494.8" height="10"/>
		</g>
		<g>
			
				<rect x="322.1" y="427.9" transform="matrix(0.706 0.7082 -0.7082 0.706 573.7611 -32.1546)" fill="#D7DBDD" width="10" height="494.1"/>
		</g>
	</g>
</g>
</symbol>


<symbol id="landing_ai" viewBox="0 0 1000 1000">
	<title>landing_ai</title>
<g>
	<g>
		<g>
			<path fill="#D7DBDD" d="M344.8,578.3c-25.3,0-49.2-10-67.4-28.2c-18.2-18.2-28.2-42.1-28.2-67.4s10-49.2,28.2-67.4
				c18.2-18.2,42.1-28.2,67.4-28.2s49.2,10,67.4,28.2c18.2,18.2,28.2,42.1,28.2,67.4s-10,49.2-28.2,67.4
				C394,568.3,370.1,578.3,344.8,578.3z M344.8,398c-22.8,0-44.1,8.8-60.1,24.7s-24.7,37.3-24.7,60.1c0,22.8,8.8,44.1,24.7,60.1
				c16,16,37.3,24.7,60.1,24.7s44.1-8.8,60.1-24.7c16-16,24.7-37.3,24.7-60.1c-0.6-22.7-9.7-44.1-25.7-60.1
				C388,406.8,367,398,344.8,398z"/>
		</g>
	</g>
</g>
<g>
	<g>
		<path fill="#1E81ED" d="M600,418.6C600,419.8,600,419.8,600,418.6C600,419.8,600,419.8,600,418.6z"/>
	</g>
	<g>
		<path fill="#1E81ED" d="M614.7,178.1c-16-18.4-40.5-18.4-60.1-7.4c-19.6,12.3-28.2,28.2-24.5,49.1c3.7,19.6,18.4,42.9,34.4,73.6
			c6.1,11,11,23.3,16,34.4c12.3-6.1,28.2,4.9,42.9,6.1c4.9-18.4,8.6-39.3,11-61.3C639.3,229.6,631.9,195.3,614.7,178.1z"/>
	</g>
</g>
<g>
	<path fill="#D7DBDD" d="M667.5,471.6v-7c96.8,0,175.6-78.8,175.6-175.6s-78.8-175.6-175.6-175.6S491.8,192.1,491.8,289
		c0,13.9,1.3,25.6,4.1,35.8h9.6v7h-14.9l-0.7-2.5c-3.4-11.3-5.1-24.5-5.1-40.3c0-100.7,81.9-182.6,182.6-182.6
		c100.7,0,182.6,81.9,182.6,182.6S768.2,471.6,667.5,471.6z"/>
</g>
<g>
	<path fill="#ED9E6E" d="M559.5,416.6L559.5,416.6L559.5,416.6L559.5,416.6"/>
</g>
<g>
	<path fill="#ED9E6E" d="M857.7,342.9L857.7,342.9v-1.2C857.7,341.7,857.7,341.7,857.7,342.9"/>
</g>
<g>
	<path fill="#D7DBDD" d="M742.3,230.1c-12.3,3.7-20.9,16-17.2,28.2c3.7,12.3,16,20.9,28.2,17.2c12.3-3.7,20.9-16,17.2-28.2
		C768.1,235,754.6,227.6,742.3,230.1"/>
</g>
<g>
	<path fill="#D7DBDD" d="M712.9,363.8c-28.2,13.5-46.6,4.9-50.3-2.5c-1.2-2.5,0-4.9,2.5-6.1l69.9-35.6c2.5-1.2,4.9,0,6.1,2.5
		C744.8,329.4,741.1,350.3,712.9,363.8z"/>
</g>
<g>
	<path fill="#1E81ED" d="M797,214.7c-14.4-23.3-34.8-42.8-59.1-56.1c-24.9-13.7-52.1-20-78.8-18.3l-0.5-7
		c27.9-1.8,56.5,4.8,82.6,19.1c25.4,14,46.7,34.2,61.7,58.6L797,214.7z"/>
</g>
<g>
	<path fill="#D7DBDD" d="M622.1,285.3c-3.7-12.3-16-20.9-28.2-17.2c-12.3,3.7-20.9,16-17.2,28.2c3.7,12.3,16,20.9,28.2,17.2
		C617.2,311,625.8,297.5,622.1,285.3"/>
</g>
<g>
	<g>
		<g>
			<path fill="#D7DBDD" d="M148.5,973.4c-3.1,0-7.3-1.4-10.2-2.8c-8.5-4.2-14.2-12.9-14.2-21.5V817.6H68.7
				c-36.4,0-66.1-29.6-66.1-66.1V392c0-36.4,29.6-66.1,66.1-66.1h537.4c36.4,0,66.1,29.6,66.1,66.1v360.7
				c0,36.4-29.6,66.1-66.1,66.1h-254L163.1,967.7C157.7,972.9,151.1,973.4,148.5,973.4z M68.7,332.9c-32.6,0-59.1,26.5-59.1,59.1
				v359.5c0,32.6,26.5,59.1,59.1,59.1h62.4v138.5c0,6,4.2,12.2,10.3,15.3c2.3,1.2,5.4,2.1,7,2.1c1.4,0,6.2-0.3,9.8-3.9l0.3-0.3
				l191.1-150.4h256.4c32.6,0,59.1-26.5,59.1-59.1V392c0-32.6-26.5-59.1-59.1-59.1H68.7z"/>
		</g>
	</g>
	<g>
		<g>
			<path fill="#D7DBDD" d="M851.5,674.1c-5.2,0-11.1-3.4-14.2-5.5l-0.2-0.2L664,531.1v-1.7c0-3.5,2.5-7.2,7.2-7.2v5.6l170.2,134.9
				c4,2.6,7.9,4.2,10.2,4.2c1.6,0,4.7-0.9,7-2.1c6.2-3.1,10.3-9.2,10.3-15.3V511.2h63.6c32.6,0,59.1-26.5,59.1-59.1V92.6
				c0-32.6-26.5-59.1-59.1-59.1H395.1c-32.6,0-59.1,26.5-59.1,59.1v236.8h-7V92.6c0-36.4,29.6-66.1,66.1-66.1h537.4
				c36.4,0,66.1,29.6,66.1,66.1v359.5c0,36.4-29.6,66.1-66.1,66.1h-56.6v131.5c0,8.6-5.7,17.3-14.2,21.5
				C858.9,672.6,854.6,674.1,851.5,674.1z"/>
		</g>
		<g>
			<path fill="none" stroke="#D7DBDD" stroke-width="10" stroke-miterlimit="10" d="M662.6,525.8"/>
		</g>
	</g>
</g>
<g>
	<g>
		<g>
			<path fill="#FFFFFF" d="M466.3,773.6H213.5c-4.9,0-8.6-3.7-8.6-8.6l-6.1-82.2c-1.2-27,18.4-57.7,45.4-67.5
				c61.3-22.1,128.8-22.1,190.2,0c29.4,11,46.6,42.9,45.4,67.5l-6.1,82.2C474.8,769.9,471.2,773.6,466.3,773.6L466.3,773.6z"/>
			<path fill="#D7DBDD" d="M466.3,777.1H213.5c-6.8,0-12-5.1-12.1-11.9l-6.1-82.2c-1.3-29.1,20.1-60.9,47.7-70.9
				c30.9-11.1,63.3-16.8,96.3-16.8c33,0,65.4,5.6,96.3,16.8c31.5,11.8,49,45.3,47.7,71l-6.1,81.8c0.6,3-0.1,5.9-1.9,8.2
				C473.2,775.6,469.9,777.1,466.3,777.1z M202.3,682.6l6.1,82.4c0,3,2.1,5.1,5.1,5.1h252.8c1.5,0,2.8-0.5,3.5-1.5
				c0.6-0.7,0.7-1.7,0.5-2.8l-0.1-0.5l6.2-82.8c1.1-22.5-15-53.4-43.1-63.9c-30.1-10.8-61.7-16.3-93.9-16.3
				c-32.2,0-63.8,5.5-93.9,16.4C220.4,627.7,201.1,656.4,202.3,682.6z"/>
		</g>
	</g>
</g>
<g>
	<path fill="#1E81ED" d="M405.3,462c-9.6-24-32-40.9-57.2-43.2l0.6-7c27.8,2.5,52.5,21.2,63.1,47.6L405.3,462z"/>
</g>
</symbol>



<symbol version="1.1" id="social_twitter" viewBox="0 0 56.5 45.9" >
	<title>social_twitter</title>
<path fill="#6DD9F7" d="M56.5,5.4c-2.1,0.9-4.3,1.5-6.7,1.8c2.4-1.4,4.2-3.7,5.1-6.4c-2.2,1.3-4.7,2.3-7.4,2.8
	C45.5,1.4,42.5,0,39.1,0c-7.5,0-13,7-11.3,14.2C18.2,13.8,9.7,9.1,3.9,2.1c-3,5.2-1.6,12,3.6,15.5c-1.9-0.1-3.7-0.6-5.3-1.5
	C2.1,21.5,6,26.6,11.6,27.7c-1.6,0.4-3.4,0.5-5.2,0.2c1.5,4.6,5.8,8,10.8,8.1c-4.9,3.8-11,5.5-17.2,4.8c5.1,3.3,11.2,5.2,17.8,5.2
	c21.5,0,33.7-18.2,33-34.5C53,9.8,55,7.8,56.5,5.4L56.5,5.4z"/>
</symbol>



<symbol id="pattern_blue_bg" viewBox="0 0 701.8 414.6">
	<title>pattern_blue_bg</title>
<g>
	<path fill="#1E81ED" d="M282.4,6.3c5.7,1,6.6,8.1,9.1,13c-4.8-0.1-5.1,5.4-11.7,3.3C276.4,16.7,277.5,9.6,282.4,6.3z"/>
	<path fill="#1E81ED" d="M283.7-73.2c0.9,0,1.7,0,2.6,0C286.2-71.7,284-71.2,283.7-73.2z"/>
	<path fill="#1E81ED" d="M285,105.3c1.4-7.4,2.6-5.3,6.6-9.7c0.3,6.8,6.4,9.7,1.3,14.7C287.7,111.6,288.1,106.2,285,105.3z"/>
	<path fill="#1E81ED" d="M292.8,188.1c5.1-0.4,3.3,7.8,7.8,8.1c-1.7,3.3-4.3,5.6-7.8,6.6C286.4,199.7,287,191.4,292.8,188.1z"/>
	<path fill="#1E81ED" d="M295.4,780.7C294.8,781.3,296.2,779.6,295.4,780.7L295.4,780.7z"/>
	<path fill="#1E81ED" d="M297.9,305c-0.1-9.3-1.6-20.2,6.6-19.5c0.1,8.5,5.8,10,6.6,17.8C307.3,307.9,302.6,309.1,297.9,305z"/>
	<path fill="#1E81ED" d="M304.5,473.8c3.8,2.3,4.4-1.3,7.8,1.6c-1.4,7.1,0,5.3,1.3,11.4c1.6-0.7,2.7-2.1,2.6-4.8
		C327.4,505,288.2,504.3,304.5,473.8z"/>
	<path fill="#1E81ED" d="M303.2,373.2c6.4-1.6,7.7,3.3,11.7,4.8c-3.6,5.3,1.4,10.3,3.8,13C311.6,408.4,294.2,385.2,303.2,373.2z"/>
	<path fill="#1E81ED" d="M305.8,620c0.3-8.3,2.1-14.7,7.8-16.2c6.6,0.6,4.8,11.3,6.6,17.8C315.5,625.7,308.8,625.7,305.8,620z"/>
	<path fill="#1E81ED" d="M310.9,899.1c-5-9.3-7.1-34.3,3.8-34.1C324.1,865.4,330.7,899.7,310.9,899.1z"/>
	<path fill="#1E81ED" d="M313.6,766.1c1,0.3,1.3,1.6,2.6,1.6c10.4,6.3,10.5,32.2-1.3,30.8C305.5,797.5,303.2,771.8,313.6,766.1z"/>
	<path fill="#1E81ED" d="M309.6,678.4c16.8-6.1,18.1,30.6,6.6,30.8C306.5,709.5,304.1,691.2,309.6,678.4z"/>
	<path fill="#1E81ED" d="M314.9,478.6C314.3,479.4,315.7,477.7,314.9,478.6L314.9,478.6z"/>
	<path fill="#1E81ED" d="M320,389.4c-1.6-0.3-1.1-3-1.3-4.8C320.3,384.9,319.9,387.5,320,389.4z"/>
	<path fill="#1E81ED" d="M359.1,228.7c4.4,4.1,2.1,16.8,9.1,17.8c-2.8,8.8-1.7,22.7-14.2,19.5C348.5,257.1,347.1,229.9,359.1,228.7z
		"/>
	<path fill="#1E81ED" d="M356.5-65.1c9.1,0.6,10,11.3,13,19.5c-2.7-0.7-2.4,2.3-2.6,4.8c-3,0-6.1,0-9.1,0
		C353.8-46.3,349.9-60,356.5-65.1z"/>
	<path fill="#1E81ED" d="M368.2,926.8c-3.4,0-7,0-10.4,0c-4.1-4.6-2.7-17.7,5.1-19.5C367.5,910,367.3,921.9,368.2,926.8z"/>
	<path fill="#1E81ED" d="M360.3,12.8c1.7,0,3.4,0,5.1,0c5.3,7.4,5.6,21.1,10.4,29.2c-2,5-5.7,8-13,6.6
		C358.2,41.3,352.6,21,360.3,12.8z"/>
	<path fill="#1E81ED" d="M374.6,793.7c8.4,11,4.7,46.3-7.8,43.9C353.5,834.9,361.5,795,374.6,793.7z M369.5,805.1
		C370.3,804,368.9,805.7,369.5,805.1L369.5,805.1z"/>
	<path fill="#1E81ED" d="M369.5,129.7c2.1,4.8,2.8,11.5,6.6,14.7C367.5,167.6,350.1,132.5,369.5,129.7z"/>
	<path fill="#1E81ED" d="M368.2,693c2.6,0,5.1,0,7.8,0c2.3,7.3-1.6,13.1,3.8,14.7C377.2,735.8,356.1,708.5,368.2,693z"/>
	<path fill="#1E81ED" d="M366.9,584.2c2-0.1,5,0.7,5.1-1.6c5.6,5.8,2.6,12.7,6.6,21.1C368.9,617.4,358.9,596.2,366.9,584.2z"/>
	<path fill="#1E81ED" d="M366.9,676.7C366.3,677.4,367.7,675.7,366.9,676.7L366.9,676.7z"/>
	<path fill="#1E81ED" d="M366.9,381.3c3.7-1.9,6.7-1.9,10.4,0c0.1,5.8-1,13.3,2.6,14.7C374.9,413.5,359.8,398,366.9,381.3z"/>
	<path fill="#1E81ED" d="M378.6,483.6c-1,8.7,1.4,13.4,5.1,16.2C375,536.1,353.6,476.2,378.6,483.6z"/>
	<path fill="#1E81ED" d="M374.6,30.7c2.3,0.4,3,2.8,2.6,6.6C375,36.8,374.3,34.4,374.6,30.7z"/>
	<path fill="#1E81ED" d="M379.9,275.7c-1.6-0.4-1.3-3.3,0-3.3C381.7,273.3,379.7,274,379.9,275.7z"/>
	<path fill="#1E81ED" d="M382.4,494.9c-0.4-0.3-2.4-3.6-1.3-4.8C382,488.9,384.7,496.5,382.4,494.9z"/>
	<path fill="#1E81ED" d="M424,204.4c11.3,4.6,4.7,27.5-6.6,21.1C413.5,216.5,418.8,206.9,424,204.4z M426.6,217.3
		C427.4,216.3,426.2,218,426.6,217.3L426.6,217.3z M426.6,214C427.4,213,426.2,214.8,426.6,214L426.6,214z"/>
	<path fill="#1E81ED" d="M417.5,33.9c3.7-0.3,5.4-3,9.1-3.3c7.1,5.7,6.3,21.7-1.3,25.9C414.3,56.9,416.6,45.3,417.5,33.9z"/>
	<path fill="#1E81ED" d="M430.6-65.1c11.7,7.6,1.4,36.9-10.4,24.4C422-50.8,421.3-64.2,430.6-65.1z"/>
	<path fill="#1E81ED" d="M421.5,141.1c0.1-7.6-0.6-15.8,1.3-21.1c5.4,0.4,5.1-2.1,9.1,0C438.6,128.8,432,148.4,421.5,141.1z"/>
	<path fill="#1E81ED" d="M429.3,308.2c12.4,2,7.6,29.8-5.1,21.1C421.2,317.2,426.6,316.8,429.3,308.2z"/>
	<path fill="#1E81ED" d="M433.1,598.9c3-0.4,3-4.4,0-4.8c0.3-1.3,1.1-1.9,2.6-1.6c0.9,2.4,1.6-0.1,0,0c-2.4-3.1,0.7-3,0-8.1
		c1.7,0,3.4,0,5.1,0c3.4,8.3,3.7,20.1-3.8,22.8c-1.3-3.3-6.7-1.4-6.6-6.6C431.6,600.1,433.1,600.5,433.1,598.9z M438.3,595.6
		c0.3,1.3,0,3.1,1.3,3.3C439.4,597.6,439.6,595.6,438.3,595.6z"/>
	<path fill="#1E81ED" d="M431.9,595.6C430.3,595.8,431,593.2,431.9,595.6L431.9,595.6z"/>
	<path fill="#1E81ED" d="M439.7,399.1c-0.1,2.1-1.7,2.3-1.3,4.8c-6,0.9-7.1-4.1-7.8-9.7c6.3,5.1,1.1-5.1,6.6-4.8
		C437,393.7,436.3,399,439.7,399.1z"/>
	<path fill="#1E81ED" d="M431.9,681.7c-1-5.7,2-6.3,1.3-11.4c9,1.1,0.9-2.8,3.8-6.6c4.4,2,6.1,7.6,5.1,16.2
		C437.4,678.8,436.7,682.8,431.9,681.7z M438.3,671.9c0.3,1.3,0,3.1,1.3,3.3C439.4,673.9,439.6,672,438.3,671.9z"/>
	<path fill="#1E81ED" d="M433.1,598.9c-1-0.4-1.6-1.4-1.3-3.3C432.9,595.9,433.3,596.9,433.1,598.9z"/>
	<path fill="#1E81ED" d="M437,905.7c0.1-4.1,1.9-6.3,5.1-6.6c-4.7-5.8,3-4.8,1.3-13c7.3-0.4,7.6,7.8,7.8,16.2
		C445.1,907.8,443.3,908.8,437,905.7z"/>
	<path fill="#1E81ED" d="M437,832.6c-0.7-5.3,0.9-7.6,1.3-11.4c4,0.3,2.1,2.6,7.8,3.3c-1.9-2.6-4.6-4-3.8-9.7
		c6.4,2.4,6.1,9.8,6.6,16.2c-3.4-1-4.7,0.7-3.8,4.8C441.8,835.3,439.4,833.9,437,832.6z"/>
	<path fill="#1E81ED" d="M443.6,524.1c0,1.6,0,3.3,0,4.8c1-0.3,1.3-1.6,2.6-1.6C446.7,524.7,445.1,524.4,443.6,524.1
		c0.9-2.1,2.8-3,5.1-3.3c-0.4,9.1,0.1,13-6.6,16.2c-2.4-0.3-4.3-1-5.1-3.3c1.3-3.3,2.6-6.6,3.8-9.7
		C441.8,524.1,442.7,524.1,443.6,524.1z"/>
	<path fill="#1E81ED" d="M444.8,748.2c8.4,5.6,6.1,16.5,1.3,24.4C435.3,770.6,441,754.2,444.8,748.2z"/>
	<path fill="#1E81ED" d="M439.7,399.1c0.1-2,0.4-3.8,2.6-3.3c0,1.1,0,2.1,0,3.3C441.4,399.1,440.6,399.1,439.7,399.1z"/>
	<path fill="#1E81ED" d="M442.3,521C437.1,519.1,447.4,519.1,442.3,521L442.3,521z"/>
	<path fill="#1E81ED" d="M442.3,392.7C441.7,393.3,443.1,391.6,442.3,392.7L442.3,392.7z"/>
	<path fill="#1E81ED" d="M444.8,460.8c0.4,0,0.9,0,1.3,0C445.8,459,444.8,460,444.8,460.8c-0.9,0-1.7,0-2.6,0
		c-0.7-8,3.3-0.9,3.8-8.1c2,0,2.8,12-1.3,9.7C444.8,462,444.8,461.4,444.8,460.8z"/>
	<path fill="#1E81ED" d="M474.8,14.4c4-2.3,4.7,0.7,10.4,0C499,43.2,458.8,46.5,474.8,14.4z M478.6,24.1
		C479.5,23.1,478,24.8,478.6,24.1L478.6,24.1z M481.3,17.7c-1.3,0-1.6,2.8,0,3.3C481.2,19.1,483.2,18.4,481.3,17.7z"/>
	<path fill="#1E81ED" d="M474.8-63.5c7.4,1.3,4.8,6.1,11.7,1.6c2.7,8.5-0.7,14-3.8,19.5C469.6-40.4,469.6-54.8,474.8-63.5z
		 M482.6-55.4C483.4-56.4,482-54.7,482.6-55.4L482.6-55.4z"/>
	<path fill="#1E81ED" d="M478.6,196.2c13.8-9.3,24.1,26.2,9.1,34.1C478.2,227.3,477.6,207.6,478.6,196.2z"/>
	<path fill="#1E81ED" d="M489,116.7c-1.3,0-2.6,0-3.8,0c-0.1,4.6,3.1,4.7,6.6,4.8c-1.9,5.3-4.7,9.4-10.4,9.7
		c-3-2.8-4.3-7.6-3.8-14.7C481.3,117.9,489.3,110.3,489,116.7z M486.4,123.1C487.3,122.1,485.9,123.8,486.4,123.1L486.4,123.1z"/>
	<path fill="#1E81ED" d="M500.7,392.7c3.3,6.3,6.1,12.8,5.1,24.4C491.1,442.2,475.5,381.9,500.7,392.7z"/>
	<path fill="#1E81ED" d="M491.7,296.8c16.1-0.1,16.5,31.6,5.1,30.8C488.7,327.2,481,305.4,491.7,296.8z"/>
	<path fill="#1E81ED" d="M489,116.7C490.6,116.6,489.9,119,489,116.7L489,116.7z"/>
	<path fill="#1E81ED" d="M511.1,545.3c-5.4,2.7-9.4,6.1-14.2,1.6c-4.7-14.1-5.8-36.5,6.6-34.1C510.7,514.3,514.1,532.1,511.1,545.3z
		"/>
	<path fill="#1E81ED" d="M504.7,785.6c14.4,2,13.1,37-1.3,37.3c-0.4-3.3-3.4-3.3-5.1-4.8c1-14.5-6-25.1,1.3-34.1
		C502.7,781.7,502.5,791.4,504.7,785.6z"/>
	<path fill="#1E81ED" d="M513.8,720.6c0-0.6,0-1.1,0-1.6C512.2,719.3,513.1,720.6,513.8,720.6c0,2.1,0,4.3,0,6.6
		c-13.4,12.8-20.5-21.9-3.8-21.1c3.7,2.4,4.6,8.4,5.1,14.7C514.7,720.6,514.2,720.6,513.8,720.6z M508.5,710.9
		C509.4,709.8,508,711.5,508.5,710.9L508.5,710.9z M509.8,720.6c0.3,1.3,0,3.1,1.3,3.3C510.8,722.6,511.1,720.6,509.8,720.6z"/>
	<path fill="#1E81ED" d="M512.5,639.4c0-0.6,0-1.1,0-1.6C510.9,638.1,511.7,639.4,512.5,639.4c-9,15-17.8-16.1-10.4-27.6
		C512.4,607.5,523.3,632.7,512.5,639.4z M509.8,620c-1.3,0-1.6,2.8,0,3.3C509.7,621.4,511.8,620.7,509.8,620z"/>
	<path fill="#1E81ED" d="M504.7,785.6C500.7,785.1,505.8,778.7,504.7,785.6L504.7,785.6z"/>
	<path fill="#1E81ED" d="M507.2,879.8c5.4,2.3,10.5-4.8,13,13C514.9,908.4,498.6,894,507.2,879.8z M515.1,886.2
		C515.9,885.2,514.5,886.9,515.1,886.2L515.1,886.2z"/>
	<path fill="#1E81ED" d="M515.1,680C514.5,680.7,515.9,679,515.1,680L515.1,680z"/>
	<path fill="#1E81ED" d="M563.1-42.4c0.3,1.3,1.1,1.9,2.6,1.6c-3.6,6.7-13.7,9-18.2,1.6c2.1-7.4-0.4-10.4,0-19.5
		c4.4-2.8,5.8,2.1,10.4,3.3C559.3-50.6,559-43.6,563.1-42.4z"/>
	<path fill="#1E81ED" d="M554,11.1c7.1,0.9,6.4,11.4,7.8,19.5c1.7,4,4-3,5.1,1.6c-0.6,5.6-3.6,2-1.3,8.1
		C550.3,56.9,547.1,25.4,554,11.1z"/>
	<path fill="#1E81ED" d="M554,113.4c5.6-2,6.6-0.1,10.4,3.3c-0.6,6-0.6,9.1-2.6,16.2C552,131.4,554.1,119.9,554,113.4z"/>
	<path fill="#1E81ED" d="M559.3,219c3.4-0.6,3.6-5.3,9.1-3.3c3.7,6.6-0.1,12.3,5.1,16.2C567.4,248.8,555.4,233.4,559.3,219z"/>
	<path fill="#1E81ED" d="M564.4,25.8C564,26.5,565.2,24.7,564.4,25.8L564.4,25.8z"/>
	<path fill="#1E81ED" d="M563.1-42.4C561.7-50,569.2-40.6,563.1-42.4L563.1-42.4z"/>
	<path fill="#1E81ED" d="M569.7,852.1c19.9-7.8,18.7,32.9,5.1,32.5C564,884.2,565.5,863.8,569.7,852.1z"/>
	<path fill="#1E81ED" d="M570.9,777.5c5.4,0.4,6.1-2.7,10.4,0c1.1,6.3,1.7,13,1.3,21.1c-4.3-2.7-4.7,5.7-9.1,4.8
		C564.7,801.8,565.2,786.4,570.9,777.5z M570.9,792C571.8,791,570.4,792.7,570.9,792L570.9,792z"/>
	<path fill="#1E81ED" d="M569.7,683.3c19.1-9.7,18.2,28.2,5.1,27.6C564.4,710.3,567.5,695.5,569.7,683.3z"/>
	<path fill="#1E81ED" d="M568.4,126.4C567.8,127.1,569.2,125.4,568.4,126.4L568.4,126.4z"/>
	<path fill="#1E81ED" d="M587.9,628.1c-5.6-2.8-6.7,4.8-7.8,4.8c-10.5-0.3-10.7-26.4,0-27.6C587.5,604.5,591,612.2,587.9,628.1z
		 M581.3,621.6C582.2,620.6,580.8,622.3,581.3,621.6L581.3,621.6z"/>
	<path fill="#1E81ED" d="M586.6,344c0.1,4.1,0.7,7.7,2.6,9.7c-10.1,21.5-22.5-17-9.1-21.1C584,334.2,583.2,341.6,586.6,344z"/>
	<path fill="#1E81ED" d="M581.3,439.7c6.7,1.4,8.1,9.4,13,13c-0.1,5.8-2,9.4-2.6,14.7c-3.8,0.1-4.6,4-11.7,3.3
		C574.2,465,576.2,445.6,581.3,439.7z"/>
	<path fill="#1E81ED" d="M581.3,519.3c8.7,4.3,14.7,12,13,29.2c-4.4,0.9-5.7,5.8-11.7,4.8c-0.6-2-1.7-3.3-3.8-3.3
		C578.5,538.1,577.4,528.7,581.3,519.3z M583.9,537.2C589,535.2,578.8,535.2,583.9,537.2L583.9,537.2z"/>
	<path fill="#1E81ED" d="M586.6,344c0-1.6,0-3.3,0-4.8c1.7,1,2.4,3.4,2.6,6.6C587.9,345.6,587.6,344.3,586.6,344z"/>
	<path fill="#1E81ED" d="M590.5,350.4C589.9,351.1,591.3,349.4,590.5,350.4L590.5,350.4z"/>
	<path fill="#1E81ED" d="M622.9,207.6c-1.6-0.4-1.3-3.3,0-3.3C624.8,205.1,622.8,205.8,622.9,207.6z"/>
	<path fill="#1E81ED" d="M634.6,409c9.7,1.4,8.8,11,11.7,17.8C637.1,453,618.1,422.4,634.6,409z"/>
	<path fill="#1E81ED" d="M641.2,298.5c13.1,3,12.7,22.9,2.6,30.8C624.5,332.5,634.2,303.7,641.2,298.5z"/>
	<path fill="#1E81ED" d="M642.5,850.5c2.6-0.6,4.4,11.7,5.1,3.3c1.9,2.6,3.7,5.1,5.1,8.1c-1.4,8-3.8,14.7-9.1,17.8
		C632.1,877.5,635.8,856.1,642.5,850.5z M648.9,866.7c-0.7-2.4,1.6-8.4-1.3-8.1C648.3,863.7,644.6,865.2,648.9,866.7z"/>
	<path fill="#1E81ED" d="M642.5,688.1c4.1-0.9,4.6,3,9.1,1.6c1.6,4.6,1.4,11.3,1.3,17.8C639.9,724,630.4,699.8,642.5,688.1z"/>
	<path fill="#1E81ED" d="M655.4,519.3c0.1,2.8-0.3,5-1.3,6.6c-3.6-1.1-2.6,3.3-5.1,3.3c-6.8-2.8-9.5-10.8-10.4-21.1
		c3.8-6.4,10.7-1.4,15.5,0C653.4,511.4,651,518.4,655.4,519.3z"/>
	<path fill="#1E81ED" d="M650.3,184.8c9.7,5.8,5.4,32.5-6.6,25.9c-8.1-6-7.6-26.4,1.3-27.6C648.6,182.8,648.2,191.5,650.3,184.8z
		 M650.3,191.4c0.1,1.9-0.3,4.6,1.3,4.8C651.3,194.4,651.7,191.7,650.3,191.4z"/>
	<path fill="#1E81ED" d="M641.2,77.7c10.4-3.7,23.7,17.2,11.7,30.8c-4.7,0.6-8.4-0.3-11.7-1.6C638.9,96.1,636.9,87.5,641.2,77.7z"/>
	<path fill="#1E81ED" d="M648.9,775.7c2.7,6.7-3,13.7,5.1,13c-1,4.7-3.1,8-5.1,11.4C636.3,801.5,637.6,775.2,648.9,775.7z"/>
	<path fill="#1E81ED" d="M641.2,926.8c-1-7.8,2.4-10,6.6-11.4c1.6,8,8.5-0.7,7.8,9.7c-2.4,0.7-5.6-5-5.3,1.6
		C647.2,926.8,644.2,926.8,641.2,926.8z"/>
	<path fill="#1E81ED" d="M652.9,602c3.7,2.8,2.4,12.1,5.1,16.2c-1.7,1.6-4.8,1.6-5.1,4.8C641.5,623.4,642,602.9,652.9,602z"/>
	<path fill="#1E81ED" d="M654.2,525.8C655.7,525.7,655,528.1,654.2,525.8L654.2,525.8z"/>
	<path fill="#1E81ED" d="M656.7,926.8c-0.4,0-0.9,0-1.3,0c0-0.6,0-1.1,0-1.6C656.3,925.2,657,925.4,656.7,926.8z"/>
	<path fill="#1E81ED" d="M655.4,519.3C655.3,517.4,657.3,518.3,655.4,519.3L655.4,519.3z"/>
	<path fill="#1E81ED" d="M656.7,512.8C656.1,513.6,657.6,511.7,656.7,512.8L656.7,512.8z"/>
	<path fill="#1E81ED" d="M658,605.3C657.6,606,658.9,604.3,658,605.3L658,605.3z"/>
	<path fill="#1E81ED" d="M658,524.1C657.6,524.8,658.9,523.1,658,524.1L658,524.1z"/>
	<path fill="#1E81ED" d="M659.3,613.4c-1.3,0-1-2-1.3-3.3C659.3,610.3,659,612.2,659.3,613.4z"/>
	<path fill="#1E81ED" d="M715.3,205.9c0-2.7-1-4.3-2.6-4.8C712.6,203.9,713.6,205.4,715.3,205.9c0,1.1,0,2.1,0,3.3
		c-9.8,6.3-12.8-7-14.2-16.2c5.4-12,20.4-8.7,19.5,9.7C717.8,202.8,718.8,207.2,715.3,205.9z M717.8,201.1c-0.6-3.1-0.4-7-3.8-6.6
		C713.7,198.7,716,199.7,717.8,201.1z"/>
	<path fill="#1E81ED" d="M716.6,4.7c-1.6,0.3-1.1,3-1.3,4.8C716.7,9.3,716.3,6.6,716.6,4.7c9.7,8.5,6.6,35.5-7.8,29.2
		c-4.7-13.4-8.4-27.2-3.8-40.6C710.9-5.7,712.4,1.2,716.6,4.7z M717.8,14.4C718.7,13.4,717.3,15.1,717.8,14.4L717.8,14.4z"/>
	
</g>
</symbol>

</defs>
</svg>
