<svg style="position: absolute; width: 0; height: 0; overflow: hidden;" version="1.1" xmlns="http://www.w3.org/2000/svg" xmlns:xlink="http://www.w3.org/1999/xlink">
<defs>
<symbol id="svgicon-meka_logo_app" viewBox="188.4 347.1 621 304">
<title>meka_logo_app</title>

<path fill="none" stroke="#FFFFFF" stroke-width="19" stroke-miterlimit="10" d="M701.2,520.9L701.2,520.9
	c-12.5,7.7-29,3.7-36.7-8.8l0,0c-7.7-12.5-3.7-29,8.8-36.7l0,0c12.5-7.7,29-3.7,36.7,8.8l0,0C717.7,496.7,713.7,513.2,701.2,520.9z"
	/>
<circle fill="none" stroke="#FFFFFF" stroke-width="19" stroke-miterlimit="10" cx="668.7" cy="414.1" r="29.8"/>
<polygon fill="none" stroke="#FFFFFF" stroke-width="19" stroke-miterlimit="10" points="738.9,432.7 738.8,366.3 791.5,406.6 "/>
<path fill="none" stroke="#FFFFFF" stroke-width="19" stroke-miterlimit="10" d="M794.5,468.3c6.6,10.4-4.4,44.6-14.8,51.3
	c-10.4,6.6-24.6-2.3-31.2-12.7c-6.6-10.4-0.4-25.6,11.2-33C770,467.2,787.8,457.9,794.5,468.3z"/>
<g>
	<path fill="#FFFFFF" stroke="#FFFFFF" stroke-width="7" stroke-miterlimit="10" d="M324.3,591.7v54.2H316v-52.1
		c0-17.5-8.3-29.2-23.2-29.2c-17.5,0-28.9,17-30.4,35.8v45.5H254v-52.1c0-17.5-8.5-29.2-23.4-29.2c-17.3,0-28.9,17-30.4,35.8v45.5
		h-8.3v-87.5h7.8l0.5,19.4c6.7-11.2,17.6-21.1,32.7-21.1c14.9,0,24.7,9.2,28,23.2c6.6-12.1,17.8-23.2,34.1-23.2
		C313.7,556.6,324.3,571,324.3,591.7z"/>
	<path fill="#FFFFFF" stroke="#FFFFFF" stroke-width="7" stroke-miterlimit="10" d="M430.5,604.7h-79.2C352,626,367.2,640,388.1,640
		c17.5,0,27.9-10,31.8-19.4l7.4,1.2c-4,12.1-17.6,25.8-39.4,25.8c-25.6,0-45-18.7-45-46c0-24.6,18.2-45,43.8-45
		c26.8,0,43.8,21.8,43.8,46.2V604.7z M351.3,598.3H422c-1-18-14.4-34.1-35.3-34.1C366.7,564.2,352,579.4,351.3,598.3z"/>
	<path fill="#FFFFFF" stroke="#FFFFFF" stroke-width="7" stroke-miterlimit="10" d="M484.3,596.4l40.7,49.5h-10.6l-36.2-43.9
		L462.2,617v28.9h-8.3V516.1h8.3v89.8l51-47.6H525L484.3,596.4z"/>
	<path fill="#FFFFFF" stroke="#FFFFFF" stroke-width="7" stroke-miterlimit="10" d="M579.3,556.6c17.8,0,32.9,10.6,39.1,25.3
		l0.3-23.5h8.1v87.5h-8.1l-0.3-23.7c-6.2,14.9-21.3,25.4-39.1,25.4c-25.1,0-45.2-20.4-45.2-45.7C534.1,577,554.2,556.6,579.3,556.6z
		 M580.3,639.6c20.8,0,37.5-17,37.5-37.7c0-20.4-16.8-37.4-37.5-37.4c-20.9,0-37.9,17-37.9,37.4
		C542.4,622.7,559.4,639.6,580.3,639.6z"/>
</g>
<path fill="#FFFFFF" stroke="#FFFFFF" stroke-width="5" stroke-miterlimit="10" d="M423,529.9c0,0-71,0-71.1,0
	c0.1,2.1,0.2,4.3,0.2,6.4c0.1,0,0.3,0,0.4,0h70.7C423.1,534.2,423.1,532.1,423,529.9z"/>
<path fill="#FFFFFF" stroke="#FFFFFF" stroke-width="5" stroke-miterlimit="10" d="M621.1,529.9c0,0-71,0-71.1,0
	c0.1,2.1,0.2,4.3,0.2,6.4c0.1,0,0.3,0,0.4,0h70.7C621.3,534.2,621.2,532.1,621.1,529.9z"/>
</symbol>



<symbol id="svgicon-chef-hat" viewBox="0 0 32 32">
<title>chef-hat</title>
<path fill="none" stroke="#fff" stroke-width="1" stroke-miterlimit="10" stroke-linecap="round" stroke-linejoin="round" d="M23.336 4c-0.8 0-1.549 0.2-2.205 0.555-0.633-2.243-3.357-3.888-5.8-3.888s-5.2 1.645-5.833 3.888c-0.656-0.355-1.409-0.555-2.203-0.555-2.579 0-4.669 2.089-4.669 4.667s2 4.667 4.667 4.667v17.917h16.039v-17.917c2.667 0 4.669-2.089 4.669-4.667s-2.088-4.667-4.664-4.667zM7.292 25.917h16.039M11.305 20.584v5.333M15.292 19.251v6.667M19.317 20.584v5.333"></path>
</symbol>
<symbol id="svgicon-drink-coffee" viewBox="0 0 32 32">
<title>drink-coffee</title>
<path fill="none" stroke="#fff" stroke-width="1" stroke-miterlimit="10" stroke-linecap="round" stroke-linejoin="round" d="M24 31.333h-16l-1.333-21.333h18.667zM5.333 4.667h21.333v5.333h-21.333zM25.333 4.667h-18.667l1.333-4h16z"></path>
<path fill="none" stroke="#fff" stroke-width="1" stroke-miterlimit="10" stroke-linecap="butt" stroke-linejoin="round" d="M7 15.333h18M7.5 23.333h17.028"></path>
<path fill="none" stroke="#fff" stroke-width="1" stroke-miterlimit="10" stroke-linecap="round" stroke-linejoin="round" d="M12.667 19.333h6.667"></path>
</symbol>
<symbol id="svgicon-music-note" viewBox="0 0 32 32">
<title>music-note</title>
<path fill="none" stroke="#fff" stroke-width="1" stroke-miterlimit="10" stroke-linecap="butt" stroke-linejoin="round" d="M12.667 27.333c0 2-1.791 4-4 4-2.208 0-4-1.791-4-4 0-2.208 1.792-4 4-4h4v4zM27.333 22c0 2-1.791 4-4 4-2.208 0-4-1.791-4-4 0-2.208 1.792-4 4-4h4v4zM12.667 24.667v-17.333l14.667-6v19.333M12.667 12l14.667-6"></path>
</symbol>
<symbol id="svgicon-notebook-2" viewBox="0 0 32 32">
<title>notebook-2</title>
<path fill="none" stroke="#fff" stroke-width="1" stroke-miterlimit="10" stroke-linecap="round" stroke-linejoin="round" d="M27.333 24.667h-22.667v-13.333h22.667zM2 27.333v-16.667c0-1.104 0.896-2 2-2h24c1.104 0 2 0.896 2 2v16.667"></path>
<path fill="none" stroke="#fff" stroke-width="1" stroke-miterlimit="10" stroke-linecap="round" stroke-linejoin="round" d="M19.333 27.333v1h-6.667v-1h-12v2.667c0 0.737 0.597 1 1 1h28c0.737 0 1-0.596 1-1v-2.667h-12z"></path>
</symbol>
<symbol id="svgicon-paint-palette" viewBox="0 0 32 32">
<title>paint-palette</title>
<path fill="none" stroke="#fff" stroke-width="1" stroke-miterlimit="10" stroke-linecap="round" stroke-linejoin="round" d="M5.157 27.852c-5.988-5.987-5.988-15.697 0-21.685s15.696-5.987 21.685 0 5.988 15.697 0 21.685c-2.863 2.864-7.507 2.864-10.371 0l-5.656-5.656c-0.521-0.521-1.365-0.521-1.885 0-0.521 0.521-0.521 1.364 0 1.885 1.040 1.041 1.040 2.729 0 3.771-1.043 1.041-2.732 1.041-3.773 0z"></path>
<path fill="none" stroke="#fff" stroke-width="1" stroke-miterlimit="10" stroke-linecap="round" stroke-linejoin="round" d="M23.655 10.411c0 1.104-0.895 1.999-1.999 1.999s-1.999-0.895-1.999-1.999c0-1.104 0.895-1.999 1.999-1.999s1.999 0.895 1.999 1.999z"></path>
<path fill="none" stroke="#fff" stroke-width="1" stroke-miterlimit="10" stroke-linecap="round" stroke-linejoin="round" d="M26.667 17.008c0 0.736-0.597 1-1 1s-1-0.597-1-1c0-0.736 0.597-1 1-1s1 0.597 1 1z"></path>
<path fill="none" stroke="#fff" stroke-width="1" stroke-miterlimit="10" stroke-linecap="round" stroke-linejoin="round" d="M24.323 23.609c0 1.473-1.194 2.667-2.667 2.667s-2.667-1.194-2.667-2.667c0-1.473 1.194-2.667 2.667-2.667s2.667 1.194 2.667 2.667z"></path>
<path fill="none" stroke="#fff" stroke-width="1" stroke-miterlimit="10" stroke-linecap="round" stroke-linejoin="round" d="M15.641 8.995c0 1.104-0.895 1.999-1.999 1.999s-1.999-0.895-1.999-1.999c0-1.104 0.895-1.999 1.999-1.999s1.999 0.895 1.999 1.999z"></path>
</symbol>

<symbol id="bg_triangle_round" viewBox="0 0 134.8 148.4">
<title>bg_triangle_round</title>
<linearGradient id="SVGID_1_" gradientUnits="userSpaceOnUse" x1="-23.5003" y1="15.3995" x2="125.8853" y2="15.3995" gradientTransform="matrix(-0.8837 0.4681 -0.4681 -0.8837 126.4549 65.7797)">
	<stop  offset="0" style="stop-color:#C2982E"/>
	<stop  offset="0" style="stop-color:#A2792C"/>
	<stop  offset="0.4607" style="stop-color:#CDA430"/>
	<stop  offset="0.5618" style="stop-color:#CDA430"/>
	<stop  offset="0.8202" style="stop-color:#F8D975"/>
	<stop  offset="1" style="stop-color:#C2982E"/>
	<stop  offset="1" style="stop-color:#A2792C"/>
</linearGradient>
<path opacity="0.54" fill="none" stroke="url(#SVGID_1_)" stroke-width="43" stroke-miterlimit="10" d="M109.7,29.9
	c12,18.8-7.9,80.8-26.8,92.8c-18.8,12-44.5-4.2-56.5-23c-12-18.8-0.6-46.3,20.2-59.7C65.4,28,97.6,11.1,109.7,29.9z"/>
</symbol>


<symbol id="bg_round" viewBox="0 0 150.8 150.8">
<title>bg_round</title>
<linearGradient id="SVGID_1_" gradientUnits="userSpaceOnUse" x1="110.3895" y1="83.7706" x2="261.153" y2="83.7706" gradientTransform="matrix(0.7381 0.6747 -0.6747 0.7381 -5.221 -111.7853)">
	<stop  offset="0" style="stop-color:#C2982E"/>
	<stop  offset="0" style="stop-color:#A2792C"/>
	<stop  offset="0.4607" style="stop-color:#CDA430"/>
	<stop  offset="0.5618" style="stop-color:#CDA430"/>
	<stop  offset="0.8202" style="stop-color:#F8D975"/>
	<stop  offset="1" style="stop-color:#C2982E"/>
	<stop  offset="1" style="stop-color:#A2792C"/>
</linearGradient>
<circle opacity="0.54" fill="none" stroke="url(#SVGID_1_)" stroke-width="43" stroke-miterlimit="10" cx="75.4" cy="75.4" r="53.9"/>
</symbol>



<symbol id="bg_square_round" viewBox="0 0 150.7 150.7">
<title>bg_square_round</title>
<linearGradient id="SVGID_1_" gradientUnits="userSpaceOnUse" x1="-9.094947e-13" y1="75.3428" x2="150.6856" y2="75.3428">
	<stop  offset="0" style="stop-color:#C2982E"/>
	<stop  offset="0" style="stop-color:#A2792C"/>
	<stop  offset="0.4607" style="stop-color:#CDA430"/>
	<stop  offset="0.5618" style="stop-color:#CDA430"/>
	<stop  offset="0.8202" style="stop-color:#F8D975"/>
	<stop  offset="1" style="stop-color:#C2982E"/>
	<stop  offset="1" style="stop-color:#A2792C"/>
</linearGradient>
<path opacity="0.54" fill="none" stroke="url(#SVGID_1_)" stroke-width="43" stroke-miterlimit="10" d="M110.4,113.5l-34.9,13.7
	c-15.1,5.9-32.4-1.6-38.3-16.7L23.5,75.5c-5.9-15.1,1.6-32.4,16.7-38.3l34.9-13.7c15.1-5.9,32.4,1.6,38.3,16.7l13.7,34.9
	C133.1,90.3,125.6,107.6,110.4,113.5z"/>
</symbol>


<symbol id="bg_triangle" viewBox="0 0 157.6 198.3">
<title>bg_triangle</title>
<linearGradient id="SVGID_1_" gradientUnits="userSpaceOnUse" x1="0" y1="99.1584" x2="157.6243" y2="99.1584">
	<stop  offset="0" style="stop-color:#C2982E"/>
	<stop  offset="0" style="stop-color:#A2792C"/>
	<stop  offset="0.4607" style="stop-color:#CDA430"/>
	<stop  offset="0.5618" style="stop-color:#CDA430"/>
	<stop  offset="0.8202" style="stop-color:#F8D975"/>
	<stop  offset="1" style="stop-color:#C2982E"/>
	<stop  offset="1" style="stop-color:#A2792C"/>
</linearGradient>
<polygon opacity="0.54" fill="none" stroke="url(#SVGID_1_)" stroke-width="43" stroke-miterlimit="10" points="21.8,163.7 
	21.6,43.5 117.1,116.4 "/>
</symbol>



<symbol id="landing_perso_progress" viewBox="0 0 1000 1000">
	<title>landing_perso_progress</title>
<g>
	<g>
		<path fill="none" stroke="#D7DBDD" stroke-width="10" stroke-miterlimit="10" d="M753,930.9H581.6c-8.3,0-16.5-7.1-16.5-16.5V402.5
			c0-8.3,7.1-16.5,16.5-16.5h170.2c8.3,0,16.5,7.1,16.5,16.5v513C768.3,923.8,761.2,930.9,753,930.9L753,930.9z"/>
	</g>
	<g>
		<path fill="none" stroke="#D7DBDD" stroke-width="10" stroke-miterlimit="10" d="M472.8,930.9H301.4c-8.3,0-16.5-7.1-16.5-16.5
			v-292c0-8.3,7.1-16.5,16.5-16.5h171.4c8.3,0,16.5,7.1,16.5,16.5v293.1C488.2,923.8,481.1,930.9,472.8,930.9L472.8,930.9z"/>
	</g>
	<g>
		<path fill="none" stroke="#D7DBDD" stroke-width="10" stroke-miterlimit="10" d="M192.7,930.9H22.5c-8.3,0-16.5-7.1-16.5-16.5
			V780.7c0-8.3,7.1-16.5,16.5-16.5h170.2c8.3,0,16.5,7.1,16.5,16.5v134.8C208,923.8,200.9,930.9,192.7,930.9L192.7,930.9z"/>
	</g>
	<g>
		<path fill="none" stroke="#D7DBDD" stroke-width="10" stroke-miterlimit="10" d="M535.5,349.3c-3.5,0-8.3-1.2-11.8-4.7
			c-5.9-5.9-5.9-16.5,0-22.5l112.3-112.3L523.6,97.5c-5.9-5.9-5.9-16.5,0-22.5c5.9-5.9,16.5-5.9,22.5,0l124.1,124.1
			c5.9,5.9,5.9,16.5,0,22.5L547.3,344.6C543.7,346.9,540.2,349.3,535.5,349.3L535.5,349.3z"/>
	</g>
	<g>
		<path fill="none" stroke="#D7DBDD" stroke-width="10" stroke-miterlimit="10" d="M114.7,641.3c-1.2,0-2.4,0-3.5,0
			c-8.3-1.2-14.2-10.6-13-18.9c49.6-248.2,266-429.1,517.7-429.1c8.3,0,16.5,7.1,16.5,16.5c0,9.5-7.1,16.5-16.5,16.5
			c-236.4,0-439.7,170.2-484.6,403.1C128.8,636.5,122.9,641.3,114.7,641.3L114.7,641.3z"/>
	</g>
	<g>
		<path fill="#1E81ED" d="M730.5,424.9H611.1c-5.9,0-10.6,0-10.6,0v-11.8c0,0,4.7,0,10.6,0h119.4c5.9,0,10.6,0,10.6,0v11.8
			C741.1,423.8,736.4,424.9,730.5,424.9L730.5,424.9z"/>
	</g>
	<g>
		<path fill="#1E81ED" d="M448,646H328.6c-5.9,0-10.6,0-10.6,0v-11.8c0,0,4.7,0,10.6,0H448c5.9,0,10.6,0,10.6,0V646
			C458.6,646,453.9,646,448,646L448,646z"/>
	</g>
	<g>
		<path fill="#1E81ED" d="M163.1,800.8H43.7c-5.9,0-10.6,0-10.6,0V789c0,0,4.7,0,10.6,0h119.4c5.9,0,10.6,0,10.6,0v11.8
			C173.8,799.6,169,800.8,163.1,800.8L163.1,800.8z"/>
	</g>
</g>
<g>
	<g>
		<path fill="#1E81ED" d="M918.4,389.5c-1.2,0-1.2-1.2-2.4-1.2l-41.4-61.5l-70.9,21.3c-2.4,0-3.5,0-4.7-1.2s-1.2-3.5,0-4.7
			l44.9-59.1l-41.4-61.5c-1.2-1.2-1.2-3.5,0-4.7c1.2-1.2,3.5-2.4,4.7-1.2l69.7,24.8l44.9-59.1c1.2-1.2,3.5-2.4,4.7-1.2l0,0
			c1.2,1.2,2.4,2.4,2.4,4.7l-2.4,73.3l69.7,24.8c1.2,1.2,2.4,2.4,2.4,4.7c0,2.4-1.2,3.5-3.5,3.5l-70.9,21.3l-2.4,73.3
			C922,388.3,920.8,389.5,918.4,389.5C919.6,389.5,919.6,389.5,918.4,389.5L918.4,389.5z M816.8,227.5l35.5,52
			c1.2,1.2,1.2,3.5,0,4.7l-39,50.8l61.5-17.7c2.4,0,3.5,0,4.7,1.2l35.5,52l1.2-63.8c0-2.4,1.2-3.5,3.5-3.5l61.5-17.7L922,265.4
			c-1.2-1.2-2.4-2.4-2.4-4.7l1.2-63.8l-39,50.8c-1.2,1.2-3.5,2.4-4.7,1.2L816.8,227.5L816.8,227.5z"/>
	</g>
</g>
</symbol>




<symbol id="landing_perso_radar" viewBox="0 0 1000 1000">
	<title>landing_perso_radar</title>
<g>
	<g>
		<g>
			<path fill="#D7DBDD" d="M500.6,998.9c-67.3,0-132.6-13.2-194-39.1c-59.3-25.1-112.6-61-158.4-106.7S66.5,754,41.4,694.6
				c-26-61.4-39.1-126.7-39.1-194c0-67.3,13.1-132.6,38.9-194c25-59.4,60.8-112.6,106.3-158.4c45.6-45.8,98.8-81.7,158-106.7
				c61.3-26,126.6-39.1,193.9-39.1c67.3,0,132.6,13.2,194,39.1c59.3,25.1,112.6,61,158.4,106.7s81.7,99,106.7,158.4
				c26,61.4,39.1,126.7,39.1,194c0,67.3-13.1,132.6-38.9,194C933.8,754,898,807.3,852.4,853c-45.6,45.8-98.8,81.7-158,106.7
				C633.1,985.7,567.9,998.9,500.6,998.9z M499.4,9.3c-66.4,0-130.7,13-191.1,38.6C249.9,72.6,197.5,108,152.5,153.1
				c-44.9,45.1-80.2,97.6-104.8,156.2C22.2,369.8,9.3,434.2,9.3,500.6c0,66.4,13,130.7,38.6,191.3c24.7,58.5,60.1,111,105.2,156.2
				c45.1,45.1,97.6,80.5,156.2,105.2c60.6,25.6,124.9,38.6,191.3,38.6c66.4,0,130.7-13,191.1-38.6c58.4-24.7,110.8-60.1,155.8-105.2
				c44.9-45.1,80.2-97.6,104.8-156.2c25.5-60.6,38.4-124.9,38.4-191.3c0-66.4-13-130.7-38.6-191.3c-24.7-58.5-60.1-111-105.2-156.2
				C801.8,108,749.2,72.6,690.7,47.9C630.2,22.3,565.8,9.3,499.4,9.3z"/>
		</g>
		<g>
			<path fill="#D7DBDD" d="M500.6,899.2c-54,0-106.4-10.6-155.7-31.4c-47.6-20.1-90.4-48.9-127.1-85.5
				c-36.7-36.6-65.5-79.3-85.6-126.7c-20.8-49.1-31.4-101.3-31.4-155c0-220.4,179.3-399.8,399.8-399.8c54,0,106.3,10.6,155.5,31.4
				c47.5,20.1,90.1,48.9,126.7,85.5c36.5,36.6,65.2,79.2,85.2,126.7c20.7,49.1,31.2,101.3,31.2,155c0,53.7-10.6,105.9-31.4,155.2
				c-20.1,47.6-48.9,90.3-85.5,127.1c-36.7,36.8-79.3,65.7-126.7,85.9C606.4,888.6,554.3,899.2,500.6,899.2z M500.6,107.8
				C284,107.8,107.8,284,107.8,500.6c0,52.8,10.4,104,30.8,152.3c19.8,46.6,48.1,88.5,84.1,124.5c36.1,36,78.1,64.3,124.8,84
				c48.4,20.5,99.9,30.8,153,30.8c52.8,0,104-10.4,152.3-31c46.6-19.9,88.5-48.3,124.5-84.4c36-36.1,64.3-78.2,84-124.9
				c20.5-48.4,30.8-99.7,30.8-152.5c0-52.8-10.3-104-30.7-152.3c-19.7-46.6-47.9-88.5-83.8-124.5
				C703.9,148.6,605.4,107.8,500.6,107.8z"/>
		</g>
		<g>
			<path fill="#1E81ED" d="M797.2,500.6c0-164.5-133.3-296.6-296.6-296.6S203.9,336,203.9,500.6S336,797.2,500.6,797.2
				S797.2,664,797.2,500.6z"/>
			<path fill="#D7DBDD" d="M500.6,800.7c-80.5,0-156-31.1-212.5-87.6c-56.5-56.5-87.6-132-87.6-212.5c0-80.4,31.3-155.9,88.1-212.5
				c56.7-56.5,132-87.6,212.1-87.6s155.4,31.1,212.1,87.6c56.8,56.6,88.1,132.1,88.1,212.5c0,80.1-31.1,155.4-87.6,212.1
				C656.4,769.4,581,800.7,500.6,800.7z M500.6,207.4c-78.2,0-151.8,30.4-207.1,85.6c-55.5,55.3-86,129-86,207.5
				c0,78.6,30.4,152.4,85.6,207.5s128.9,85.6,207.5,85.6c78.5,0,152.2-30.5,207.5-86c55.2-55.3,85.6-128.9,85.6-207.1
				c0-78.5-30.5-152.2-86-207.5C652.4,237.8,578.8,207.4,500.6,207.4z"/>
		</g>
		<g>
			<path fill="#D7DBDD" d="M500.6,701.1c-53.7,0-104.3-20.9-142.4-58.8c-38.2-38.1-59.3-88.8-59.3-142.8
				c0-54.2,20.9-104.9,58.8-142.8c37.9-37.9,88.7-58.8,142.8-58.8s104.9,20.9,142.8,58.8c37.9,37.9,58.8,88.7,58.8,142.8
				c0,54-21,104.8-59.3,142.8C604.9,680.2,554.3,701.1,500.6,701.1z M500.6,304.8c-52.3,0-101.3,20.2-137.9,56.8
				s-56.8,85.6-56.8,137.9c0,52.2,20.3,101.1,57.2,137.9c36.8,36.6,85.6,56.8,137.4,56.8c51.9,0,100.7-20.2,137.4-56.8
				c36.9-36.7,57.2-85.7,57.2-137.9c0-52.3-20.2-101.3-56.8-137.9S552.9,304.8,500.6,304.8z"/>
		</g>
		<g>
			<path fill="#D7DBDD" d="M500.6,602.6c-56.2,0-102-45.8-102-102c0-56.2,45.8-102,102-102c56.2,0,102,45.8,102,102
				C602.6,556.8,556.8,602.6,500.6,602.6z M500.6,405.6c-52.4,0-95,42.6-95,95c0,52.4,42.6,95,95,95c52.4,0,95-42.6,95-95
				C595.6,448.2,553,405.6,500.6,405.6z"/>
		</g>
	</g>
	<g>
		<g>
			<rect x="497.1" y="500.6" fill="#D7DBDD" width="10" height="493.6"/>
		</g>
		<g>
			
				<rect x="428.3" y="671.5" transform="matrix(0.7071 0.7071 -0.7071 0.7071 674.9698 -279.5821)" fill="#D7DBDD" width="493.3" height="7"/>
		</g>
		<g>
			<rect x="500.6" y="497.1" fill="#D7DBDD" width="493.6" height="10"/>
		</g>
		<g>
			
				<rect x="671.5" y="78.6" transform="matrix(0.7083 0.706 -0.706 0.7083 426.7827 -381.5049)" fill="#D7DBDD" width="7" height="494.1"/>
		</g>
		<g>
			<rect x="497.1" y="5.8" fill="#D7DBDD" width="10" height="494.8"/>
		</g>
		<g>
			
				<rect x="78.2" y="322.1" transform="matrix(0.7071 0.7071 -0.7071 0.7071 325.6077 -134.8714)" fill="#D7DBDD" width="494.9" height="7"/>
		</g>
		<g>
			<rect x="5.8" y="497.1" fill="#D7DBDD" width="494.8" height="10"/>
		</g>
		<g>
			
				<rect x="322.1" y="427.9" transform="matrix(0.706 0.7082 -0.7082 0.706 573.7611 -32.1546)" fill="#D7DBDD" width="10" height="494.1"/>
		</g>
	</g>
</g>
</symbol>


<symbol id="landing_ai" viewBox="0 0 1000 1000">
	<title>landing_ai</title>
<g>
	<g>
		<g>
			<path fill="#D7DBDD" d="M344.8,578.3c-25.3,0-49.2-10-67.4-28.2c-18.2-18.2-28.2-42.1-28.2-67.4s10-49.2,28.2-67.4
				c18.2-18.2,42.1-28.2,67.4-28.2s49.2,10,67.4,28.2c18.2,18.2,28.2,42.1,28.2,67.4s-10,49.2-28.2,67.4
				C394,568.3,370.1,578.3,344.8,578.3z M344.8,398c-22.8,0-44.1,8.8-60.1,24.7s-24.7,37.3-24.7,60.1c0,22.8,8.8,44.1,24.7,60.1
				c16,16,37.3,24.7,60.1,24.7s44.1-8.8,60.1-24.7c16-16,24.7-37.3,24.7-60.1c-0.6-22.7-9.7-44.1-25.7-60.1
				C388,406.8,367,398,344.8,398z"/>
		</g>
	</g>
</g>
<g>
	<g>
		<path fill="#1E81ED" d="M600,418.6C600,419.8,600,419.8,600,418.6C600,419.8,600,419.8,600,418.6z"/>
	</g>
	<g>
		<path fill="#1E81ED" d="M614.7,178.1c-16-18.4-40.5-18.4-60.1-7.4c-19.6,12.3-28.2,28.2-24.5,49.1c3.7,19.6,18.4,42.9,34.4,73.6
			c6.1,11,11,23.3,16,34.4c12.3-6.1,28.2,4.9,42.9,6.1c4.9-18.4,8.6-39.3,11-61.3C639.3,229.6,631.9,195.3,614.7,178.1z"/>
	</g>
</g>
<g>
	<path fill="#D7DBDD" d="M667.5,471.6v-7c96.8,0,175.6-78.8,175.6-175.6s-78.8-175.6-175.6-175.6S491.8,192.1,491.8,289
		c0,13.9,1.3,25.6,4.1,35.8h9.6v7h-14.9l-0.7-2.5c-3.4-11.3-5.1-24.5-5.1-40.3c0-100.7,81.9-182.6,182.6-182.6
		c100.7,0,182.6,81.9,182.6,182.6S768.2,471.6,667.5,471.6z"/>
</g>
<g>
	<path fill="#ED9E6E" d="M559.5,416.6L559.5,416.6L559.5,416.6L559.5,416.6"/>
</g>
<g>
	<path fill="#ED9E6E" d="M857.7,342.9L857.7,342.9v-1.2C857.7,341.7,857.7,341.7,857.7,342.9"/>
</g>
<g>
	<path fill="#D7DBDD" d="M742.3,230.1c-12.3,3.7-20.9,16-17.2,28.2c3.7,12.3,16,20.9,28.2,17.2c12.3-3.7,20.9-16,17.2-28.2
		C768.1,235,754.6,227.6,742.3,230.1"/>
</g>
<g>
	<path fill="#D7DBDD" d="M712.9,363.8c-28.2,13.5-46.6,4.9-50.3-2.5c-1.2-2.5,0-4.9,2.5-6.1l69.9-35.6c2.5-1.2,4.9,0,6.1,2.5
		C744.8,329.4,741.1,350.3,712.9,363.8z"/>
</g>
<g>
	<path fill="#1E81ED" d="M797,214.7c-14.4-23.3-34.8-42.8-59.1-56.1c-24.9-13.7-52.1-20-78.8-18.3l-0.5-7
		c27.9-1.8,56.5,4.8,82.6,19.1c25.4,14,46.7,34.2,61.7,58.6L797,214.7z"/>
</g>
<g>
	<path fill="#D7DBDD" d="M622.1,285.3c-3.7-12.3-16-20.9-28.2-17.2c-12.3,3.7-20.9,16-17.2,28.2c3.7,12.3,16,20.9,28.2,17.2
		C617.2,311,625.8,297.5,622.1,285.3"/>
</g>
<g>
	<g>
		<g>
			<path fill="#D7DBDD" d="M148.5,973.4c-3.1,0-7.3-1.4-10.2-2.8c-8.5-4.2-14.2-12.9-14.2-21.5V817.6H68.7
				c-36.4,0-66.1-29.6-66.1-66.1V392c0-36.4,29.6-66.1,66.1-66.1h537.4c36.4,0,66.1,29.6,66.1,66.1v360.7
				c0,36.4-29.6,66.1-66.1,66.1h-254L163.1,967.7C157.7,972.9,151.1,973.4,148.5,973.4z M68.7,332.9c-32.6,0-59.1,26.5-59.1,59.1
				v359.5c0,32.6,26.5,59.1,59.1,59.1h62.4v138.5c0,6,4.2,12.2,10.3,15.3c2.3,1.2,5.4,2.1,7,2.1c1.4,0,6.2-0.3,9.8-3.9l0.3-0.3
				l191.1-150.4h256.4c32.6,0,59.1-26.5,59.1-59.1V392c0-32.6-26.5-59.1-59.1-59.1H68.7z"/>
		</g>
	</g>
	<g>
		<g>
			<path fill="#D7DBDD" d="M851.5,674.1c-5.2,0-11.1-3.4-14.2-5.5l-0.2-0.2L664,531.1v-1.7c0-3.5,2.5-7.2,7.2-7.2v5.6l170.2,134.9
				c4,2.6,7.9,4.2,10.2,4.2c1.6,0,4.7-0.9,7-2.1c6.2-3.1,10.3-9.2,10.3-15.3V511.2h63.6c32.6,0,59.1-26.5,59.1-59.1V92.6
				c0-32.6-26.5-59.1-59.1-59.1H395.1c-32.6,0-59.1,26.5-59.1,59.1v236.8h-7V92.6c0-36.4,29.6-66.1,66.1-66.1h537.4
				c36.4,0,66.1,29.6,66.1,66.1v359.5c0,36.4-29.6,66.1-66.1,66.1h-56.6v131.5c0,8.6-5.7,17.3-14.2,21.5
				C858.9,672.6,854.6,674.1,851.5,674.1z"/>
		</g>
		<g>
			<path fill="none" stroke="#D7DBDD" stroke-width="10" stroke-miterlimit="10" d="M662.6,525.8"/>
		</g>
	</g>
</g>
<g>
	<g>
		<g>
			<path fill="#FFFFFF" d="M466.3,773.6H213.5c-4.9,0-8.6-3.7-8.6-8.6l-6.1-82.2c-1.2-27,18.4-57.7,45.4-67.5
				c61.3-22.1,128.8-22.1,190.2,0c29.4,11,46.6,42.9,45.4,67.5l-6.1,82.2C474.8,769.9,471.2,773.6,466.3,773.6L466.3,773.6z"/>
			<path fill="#D7DBDD" d="M466.3,777.1H213.5c-6.8,0-12-5.1-12.1-11.9l-6.1-82.2c-1.3-29.1,20.1-60.9,47.7-70.9
				c30.9-11.1,63.3-16.8,96.3-16.8c33,0,65.4,5.6,96.3,16.8c31.5,11.8,49,45.3,47.7,71l-6.1,81.8c0.6,3-0.1,5.9-1.9,8.2
				C473.2,775.6,469.9,777.1,466.3,777.1z M202.3,682.6l6.1,82.4c0,3,2.1,5.1,5.1,5.1h252.8c1.5,0,2.8-0.5,3.5-1.5
				c0.6-0.7,0.7-1.7,0.5-2.8l-0.1-0.5l6.2-82.8c1.1-22.5-15-53.4-43.1-63.9c-30.1-10.8-61.7-16.3-93.9-16.3
				c-32.2,0-63.8,5.5-93.9,16.4C220.4,627.7,201.1,656.4,202.3,682.6z"/>
		</g>
	</g>
</g>
<g>
	<path fill="#1E81ED" d="M405.3,462c-9.6-24-32-40.9-57.2-43.2l0.6-7c27.8,2.5,52.5,21.2,63.1,47.6L405.3,462z"/>
</g>
</symbol>



<symbol version="1.1" id="social_twitter" viewBox="0 0 56.5 45.9" >
	<title>social_twitter</title>
<path fill="#6DD9F7" d="M56.5,5.4c-2.1,0.9-4.3,1.5-6.7,1.8c2.4-1.4,4.2-3.7,5.1-6.4c-2.2,1.3-4.7,2.3-7.4,2.8
	C45.5,1.4,42.5,0,39.1,0c-7.5,0-13,7-11.3,14.2C18.2,13.8,9.7,9.1,3.9,2.1c-3,5.2-1.6,12,3.6,15.5c-1.9-0.1-3.7-0.6-5.3-1.5
	C2.1,21.5,6,26.6,11.6,27.7c-1.6,0.4-3.4,0.5-5.2,0.2c1.5,4.6,5.8,8,10.8,8.1c-4.9,3.8-11,5.5-17.2,4.8c5.1,3.3,11.2,5.2,17.8,5.2
	c21.5,0,33.7-18.2,33-34.5C53,9.8,55,7.8,56.5,5.4L56.5,5.4z"/>
</symbol>





</defs>
</svg>
