<svg style="position: absolute; width: 0; height: 0; overflow: hidden;" version="1.1" xmlns="http://www.w3.org/2000/svg" xmlns:xlink="http://www.w3.org/1999/xlink">
<defs>
<symbol id="svgicon-meka_logo_app" viewBox="0 0 66 32">
<title>meka_logo_app</title>
<path fill="#fff" style="fill: var(--color1, #fff)" d="M66.33 7.526c0 1.184-0.96 2.144-2.144 2.144s-2.144-0.96-2.144-2.144c0-1.184 0.96-2.144 2.144-2.144s2.144 0.96 2.144 2.144z"></path>
<path fill="#fff" style="fill: var(--color1, #fff)" d="M0.412 10.577h3.32v1.34c0.639-0.68 1.196-1.134 1.649-1.361 0.474-0.247 1.093-0.371 1.814-0.371 1.629 0 2.907 0.701 3.856 2.124 1.052-1.423 2.454-2.124 4.247-2.124 3.237 0 4.866 1.959 4.866 5.897v8.907h-3.32v-8c0-1.381-0.165-2.351-0.495-2.928-0.351-0.577-0.907-0.866-1.711-0.866-0.907 0-1.588 0.351-2 1.031s-0.619 1.794-0.619 3.32v7.443h-3.361v-7.959c0-2.557-0.742-3.856-2.227-3.856-0.928 0-1.629 0.351-2.041 1.052-0.433 0.701-0.639 1.814-0.639 3.32v7.443h-3.34v-14.412z"></path>
<path fill="#fff" style="fill: var(--color1, #fff)" d="M35.175 18.557h-10.33c0.082 1.175 0.474 2.124 1.155 2.825 0.68 0.68 1.546 1.031 2.619 1.031 0.825 0 1.505-0.206 2.062-0.598 0.536-0.392 1.134-1.134 1.814-2.186l2.804 1.567c-0.433 0.742-0.887 1.381-1.381 1.897-0.474 0.536-1.010 0.969-1.546 1.299-0.557 0.33-1.155 0.598-1.794 0.742-0.639 0.165-1.34 0.227-2.082 0.227-2.144 0-3.876-0.68-5.175-2.062s-1.959-3.237-1.959-5.526c0-2.268 0.639-4.124 1.897-5.526 1.278-1.381 2.948-2.082 5.052-2.082 2.124 0 3.794 0.68 5.031 2.021 1.216 1.34 1.835 3.196 1.835 5.567v0.804zM31.753 15.835c-0.454-1.773-1.588-2.66-3.361-2.66-0.412 0-0.784 0.062-1.134 0.186s-0.68 0.309-0.969 0.536c-0.289 0.227-0.536 0.515-0.742 0.845s-0.371 0.701-0.474 1.113h6.68z"></path>
<path fill="#fff" style="fill: var(--color1, #fff)" d="M39.814 0v15.237l4.68-4.66h4.474l-6.247 6.041 6.722 8.351h-4.309l-4.763-6.082-0.536 0.536v5.546h-3.32v-24.969h3.299z"></path>
<path fill="#fff" style="fill: var(--color1, #fff)" d="M60.948 20.247h-8.371l-2.186 4.742h-3.175l9.67-20.763 9.32 20.763h-3.216l-2.041-4.742zM59.732 17.464l-2.887-6.639-3.031 6.639h5.918z"></path>
<path fill="#fff" style="fill: var(--color1, #fff)" d="M60.845 19.876c0 0.957-1.846 1.732-4.124 1.732s-4.124-0.775-4.124-1.732c0-0.957 1.846-1.732 4.124-1.732s4.124 0.775 4.124 1.732z"></path>
<path fill="#fff" style="fill: var(--color1, #fff)" d="M51.608 7.443c0 1.184-0.96 2.144-2.144 2.144s-2.144-0.96-2.144-2.144c0-1.184 0.96-2.144 2.144-2.144s2.144 0.96 2.144 2.144z"></path>
<path fill="#fff" style="fill: var(--color1, #fff)" d="M2.598 28.66v0.577c-0.289-0.247-0.577-0.351-0.887-0.351-0.33 0-0.619 0.124-0.845 0.371s-0.351 0.536-0.351 0.887c0 0.351 0.124 0.639 0.351 0.866s0.515 0.351 0.845 0.351c0.165 0 0.33-0.021 0.454-0.082 0.062-0.021 0.144-0.062 0.206-0.124 0.082-0.041 0.144-0.103 0.227-0.165v0.598c-0.289 0.165-0.577 0.247-0.887 0.247-0.474 0-0.866-0.165-1.196-0.495s-0.495-0.722-0.495-1.196c0-0.412 0.144-0.784 0.412-1.113 0.33-0.392 0.784-0.598 1.32-0.598 0.268-0.021 0.557 0.062 0.845 0.227z"></path>
<path fill="#fff" style="fill: var(--color1, #fff)" d="M4.68 30.371l1.010 1.402h-0.598l-0.928-1.34h-0.082v1.34h-0.495v-3.278h0.577c0.433 0 0.742 0.082 0.948 0.247 0.206 0.186 0.309 0.412 0.309 0.722 0 0.227-0.062 0.433-0.206 0.598-0.144 0.144-0.33 0.247-0.536 0.309zM4.062 29.979h0.165c0.474 0 0.701-0.186 0.701-0.536 0-0.33-0.227-0.495-0.68-0.495h-0.186v1.031z"></path>
<path fill="#fff" style="fill: var(--color1, #fff)" d="M8.351 28.948h-1.32v0.784h1.278v0.474h-1.278v1.093h1.32v0.474h-1.814v-3.278h1.814v0.454z"></path>
<path fill="#fff" style="fill: var(--color1, #fff)" d="M11.278 30.969h-1.402l-0.371 0.804h-0.536l1.629-3.485 1.567 3.464h-0.536l-0.351-0.784zM11.072 30.495l-0.495-1.113-0.515 1.113h1.010z"></path>
<path fill="#fff" style="fill: var(--color1, #fff)" d="M13.649 28.948v2.804h-0.495v-2.825h-0.763v-0.474h2v0.474h-0.742z"></path>
<path fill="#fff" style="fill: var(--color1, #fff)" d="M15.67 28.474v3.278h-0.495v-3.278h0.495z"></path>
<path fill="#fff" style="fill: var(--color1, #fff)" d="M16.99 28.474l0.907 2.268 0.928-2.268h0.536l-1.464 3.526-1.443-3.526h0.536z"></path>
<path fill="#fff" style="fill: var(--color1, #fff)" d="M21.918 28.948h-1.32v0.784h1.278v0.474h-1.278v1.093h1.32v0.474h-1.814v-3.278h1.814v0.454z"></path>
<path fill="#fff" style="fill: var(--color1, #fff)" d="M24.619 31.753v-3.278h0.495c0.227 0 0.392 0.021 0.515 0.041 0.124 0.041 0.247 0.082 0.33 0.165s0.165 0.186 0.227 0.309c0.062 0.124 0.082 0.247 0.082 0.392 0 0.227-0.082 0.433-0.268 0.598 0.165 0.062 0.309 0.165 0.412 0.309s0.144 0.309 0.144 0.515c0 0.247-0.082 0.474-0.268 0.66-0.103 0.103-0.227 0.186-0.371 0.227s-0.33 0.062-0.557 0.062h-0.742zM25.113 29.897h0.165c0.186 0 0.309-0.041 0.412-0.124 0.082-0.082 0.124-0.206 0.124-0.351s-0.041-0.268-0.124-0.351c-0.082-0.082-0.206-0.124-0.392-0.124h-0.165v0.948zM25.113 31.299h0.309c0.227 0 0.392-0.041 0.495-0.124 0.103-0.103 0.165-0.206 0.165-0.371 0-0.144-0.062-0.268-0.165-0.351-0.103-0.103-0.289-0.144-0.557-0.144h-0.247v0.99z"></path>
<path fill="#fff" style="fill: var(--color1, #fff)" d="M27.34 30.103c0-0.454 0.165-0.866 0.515-1.196 0.33-0.33 0.742-0.495 1.216-0.495s0.866 0.165 1.196 0.495c0.33 0.33 0.495 0.742 0.495 1.196 0 0.474-0.165 0.866-0.515 1.196-0.33 0.33-0.742 0.495-1.216 0.495-0.433 0-0.804-0.144-1.134-0.433-0.371-0.309-0.557-0.722-0.557-1.258zM27.835 30.103c0 0.371 0.124 0.66 0.371 0.887s0.515 0.351 0.845 0.351c0.351 0 0.639-0.124 0.866-0.351 0.227-0.247 0.351-0.536 0.351-0.887s-0.124-0.639-0.351-0.887c-0.227-0.247-0.515-0.351-0.866-0.351s-0.639 0.124-0.866 0.351c-0.227 0.268-0.351 0.557-0.351 0.887z"></path>
<path fill="#fff" style="fill: var(--color1, #fff)" d="M32.536 28.948v2.804h-0.495v-2.825h-0.763v-0.474h2v0.474h-0.742z"></path>
</symbol>
<symbol id="svgicon-chef-hat" viewBox="0 0 32 32">
<title>chef-hat</title>
<path fill="none" stroke="#fff" stroke-width="1.3333" stroke-miterlimit="10" stroke-linecap="round" stroke-linejoin="round" d="M23.336 4c-0.8 0-1.549 0.2-2.205 0.555-0.633-2.243-3.357-3.888-5.8-3.888s-5.2 1.645-5.833 3.888c-0.656-0.355-1.409-0.555-2.203-0.555-2.579 0-4.669 2.089-4.669 4.667s2 4.667 4.667 4.667v17.917h16.039v-17.917c2.667 0 4.669-2.089 4.669-4.667s-2.088-4.667-4.664-4.667zM7.292 25.917h16.039M11.305 20.584v5.333M15.292 19.251v6.667M19.317 20.584v5.333"></path>
</symbol>
<symbol id="svgicon-drink-coffee" viewBox="0 0 32 32">
<title>drink-coffee</title>
<path fill="none" stroke="#fff" stroke-width="1.3333" stroke-miterlimit="10" stroke-linecap="round" stroke-linejoin="round" d="M24 31.333h-16l-1.333-21.333h18.667zM5.333 4.667h21.333v5.333h-21.333zM25.333 4.667h-18.667l1.333-4h16z"></path>
<path fill="none" stroke="#fff" stroke-width="1.3333" stroke-miterlimit="10" stroke-linecap="butt" stroke-linejoin="round" d="M7 15.333h18M7.5 23.333h17.028"></path>
<path fill="none" stroke="#fff" stroke-width="1.3333" stroke-miterlimit="10" stroke-linecap="round" stroke-linejoin="round" d="M12.667 19.333h6.667"></path>
</symbol>
<symbol id="svgicon-music-note" viewBox="0 0 32 32">
<title>music-note</title>
<path fill="none" stroke="#fff" stroke-width="1.3333" stroke-miterlimit="10" stroke-linecap="butt" stroke-linejoin="round" d="M12.667 27.333c0 2-1.791 4-4 4-2.208 0-4-1.791-4-4 0-2.208 1.792-4 4-4h4v4zM27.333 22c0 2-1.791 4-4 4-2.208 0-4-1.791-4-4 0-2.208 1.792-4 4-4h4v4zM12.667 24.667v-17.333l14.667-6v19.333M12.667 12l14.667-6"></path>
</symbol>
<symbol id="svgicon-notebook-2" viewBox="0 0 32 32">
<title>notebook-2</title>
<path fill="none" stroke="#fff" stroke-width="1.3333" stroke-miterlimit="10" stroke-linecap="round" stroke-linejoin="round" d="M27.333 24.667h-22.667v-13.333h22.667zM2 27.333v-16.667c0-1.104 0.896-2 2-2h24c1.104 0 2 0.896 2 2v16.667"></path>
<path fill="none" stroke="#fff" stroke-width="1.3333" stroke-miterlimit="10" stroke-linecap="round" stroke-linejoin="round" d="M19.333 27.333v1.333h-6.667v-1.333h-12v2.667c0 0.737 0.597 1.333 1.333 1.333h28c0.737 0 1.333-0.596 1.333-1.333v-2.667h-12z"></path>
</symbol>
<symbol id="svgicon-paint-palette" viewBox="0 0 32 32">
<title>paint-palette</title>
<path fill="none" stroke="#fff" stroke-width="1.3333" stroke-miterlimit="10" stroke-linecap="round" stroke-linejoin="round" d="M5.157 27.852c-5.988-5.987-5.988-15.697 0-21.685s15.696-5.987 21.685 0 5.988 15.697 0 21.685c-2.863 2.864-7.507 2.864-10.371 0l-5.656-5.656c-0.521-0.521-1.365-0.521-1.885 0-0.521 0.521-0.521 1.364 0 1.885 1.040 1.041 1.040 2.729 0 3.771-1.043 1.041-2.732 1.041-3.773 0z"></path>
<path fill="none" stroke="#fff" stroke-width="1.3333" stroke-miterlimit="10" stroke-linecap="round" stroke-linejoin="round" d="M23.655 10.411c0 1.104-0.895 1.999-1.999 1.999s-1.999-0.895-1.999-1.999c0-1.104 0.895-1.999 1.999-1.999s1.999 0.895 1.999 1.999z"></path>
<path fill="none" stroke="#fff" stroke-width="1.3333" stroke-miterlimit="10" stroke-linecap="round" stroke-linejoin="round" d="M26.667 17.008c0 0.736-0.597 1.333-1.333 1.333s-1.333-0.597-1.333-1.333c0-0.736 0.597-1.333 1.333-1.333s1.333 0.597 1.333 1.333z"></path>
<path fill="none" stroke="#fff" stroke-width="1.3333" stroke-miterlimit="10" stroke-linecap="round" stroke-linejoin="round" d="M24.323 23.609c0 1.473-1.194 2.667-2.667 2.667s-2.667-1.194-2.667-2.667c0-1.473 1.194-2.667 2.667-2.667s2.667 1.194 2.667 2.667z"></path>
<path fill="none" stroke="#fff" stroke-width="1.3333" stroke-miterlimit="10" stroke-linecap="round" stroke-linejoin="round" d="M15.641 8.995c0 1.104-0.895 1.999-1.999 1.999s-1.999-0.895-1.999-1.999c0-1.104 0.895-1.999 1.999-1.999s1.999 0.895 1.999 1.999z"></path>
</symbol>

<symbol id="bg_triangle_round" viewBox="0 0 134.8 148.4">
<title>bg_triangle_round</title>
<linearGradient id="SVGID_1_" gradientUnits="userSpaceOnUse" x1="-23.5003" y1="15.3995" x2="125.8853" y2="15.3995" gradientTransform="matrix(-0.8837 0.4681 -0.4681 -0.8837 126.4549 65.7797)">
	<stop  offset="0" style="stop-color:#C2982E"/>
	<stop  offset="0" style="stop-color:#A2792C"/>
	<stop  offset="0.4607" style="stop-color:#CDA430"/>
	<stop  offset="0.5618" style="stop-color:#CDA430"/>
	<stop  offset="0.8202" style="stop-color:#F8D975"/>
	<stop  offset="1" style="stop-color:#C2982E"/>
	<stop  offset="1" style="stop-color:#A2792C"/>
</linearGradient>
<path opacity="0.54" fill="none" stroke="url(#SVGID_1_)" stroke-width="43" stroke-miterlimit="10" d="M109.7,29.9
	c12,18.8-7.9,80.8-26.8,92.8c-18.8,12-44.5-4.2-56.5-23c-12-18.8-0.6-46.3,20.2-59.7C65.4,28,97.6,11.1,109.7,29.9z"/>
</symbol>


<symbol id="bg_round" viewBox="0 0 150.8 150.8">
<title>bg_round</title>
<linearGradient id="SVGID_1_" gradientUnits="userSpaceOnUse" x1="110.3895" y1="83.7706" x2="261.153" y2="83.7706" gradientTransform="matrix(0.7381 0.6747 -0.6747 0.7381 -5.221 -111.7853)">
	<stop  offset="0" style="stop-color:#C2982E"/>
	<stop  offset="0" style="stop-color:#A2792C"/>
	<stop  offset="0.4607" style="stop-color:#CDA430"/>
	<stop  offset="0.5618" style="stop-color:#CDA430"/>
	<stop  offset="0.8202" style="stop-color:#F8D975"/>
	<stop  offset="1" style="stop-color:#C2982E"/>
	<stop  offset="1" style="stop-color:#A2792C"/>
</linearGradient>
<circle opacity="0.54" fill="none" stroke="url(#SVGID_1_)" stroke-width="43" stroke-miterlimit="10" cx="75.4" cy="75.4" r="53.9"/>
</symbol>



<symbol id="bg_square_round" viewBox="0 0 150.7 150.7">
<title>bg_square_round</title>
<linearGradient id="SVGID_1_" gradientUnits="userSpaceOnUse" x1="-9.094947e-13" y1="75.3428" x2="150.6856" y2="75.3428">
	<stop  offset="0" style="stop-color:#C2982E"/>
	<stop  offset="0" style="stop-color:#A2792C"/>
	<stop  offset="0.4607" style="stop-color:#CDA430"/>
	<stop  offset="0.5618" style="stop-color:#CDA430"/>
	<stop  offset="0.8202" style="stop-color:#F8D975"/>
	<stop  offset="1" style="stop-color:#C2982E"/>
	<stop  offset="1" style="stop-color:#A2792C"/>
</linearGradient>
<path opacity="0.54" fill="none" stroke="url(#SVGID_1_)" stroke-width="43" stroke-miterlimit="10" d="M110.4,113.5l-34.9,13.7
	c-15.1,5.9-32.4-1.6-38.3-16.7L23.5,75.5c-5.9-15.1,1.6-32.4,16.7-38.3l34.9-13.7c15.1-5.9,32.4,1.6,38.3,16.7l13.7,34.9
	C133.1,90.3,125.6,107.6,110.4,113.5z"/>
</symbol>


<symbol id="bg_triangle" viewBox="0 0 157.6 198.3">
<title>bg_triangle</title>
<linearGradient id="SVGID_1_" gradientUnits="userSpaceOnUse" x1="0" y1="99.1584" x2="157.6243" y2="99.1584">
	<stop  offset="0" style="stop-color:#C2982E"/>
	<stop  offset="0" style="stop-color:#A2792C"/>
	<stop  offset="0.4607" style="stop-color:#CDA430"/>
	<stop  offset="0.5618" style="stop-color:#CDA430"/>
	<stop  offset="0.8202" style="stop-color:#F8D975"/>
	<stop  offset="1" style="stop-color:#C2982E"/>
	<stop  offset="1" style="stop-color:#A2792C"/>
</linearGradient>
<polygon opacity="0.54" fill="none" stroke="url(#SVGID_1_)" stroke-width="43" stroke-miterlimit="10" points="21.8,163.7 
	21.6,43.5 117.1,116.4 "/>
</symbol>



<symbol id="landing_perso_progress" viewBox="0 0 81.5 77.6">
	<title>landing_perso_progress</title>
		<path fill="none" stroke="#D7DBDD" stroke-miterlimit="10" d="M63.7,73.4H49.2c-0.7,0-1.4-0.6-1.4-1.4V28.7c0-0.7,0.6-1.4,1.4-1.4
			h14.4c0.7,0,1.4,0.6,1.4,1.4v43.4C65,72.8,64.4,73.4,63.7,73.4L63.7,73.4z"/>
		<path fill="none" stroke="#D7DBDD" stroke-miterlimit="10" d="M40,73.4H25.5c-0.7,0-1.4-0.6-1.4-1.4V47.3c0-0.7,0.6-1.4,1.4-1.4
			H40c0.7,0,1.4,0.6,1.4,1.4v24.8C41.3,72.8,40.7,73.4,40,73.4L40,73.4z"/>
		<path fill="none" stroke="#D7DBDD" stroke-miterlimit="10" d="M16.3,73.4H1.9c-0.7,0-1.4-0.6-1.4-1.4V60.7c0-0.7,0.6-1.4,1.4-1.4
			h14.4c0.7,0,1.4,0.6,1.4,1.4v11.4C17.6,72.8,17,73.4,16.3,73.4L16.3,73.4z"/>
		<path fill="none" stroke="#D7DBDD" stroke-miterlimit="10" d="M45.3,24.2c-0.3,0-0.7-0.1-1-0.4c-0.5-0.5-0.5-1.4,0-1.9l9.5-9.5
			l-9.5-9.5c-0.5-0.5-0.5-1.4,0-1.9c0.5-0.5,1.4-0.5,1.9,0l10.5,10.5c0.5,0.5,0.5,1.4,0,1.9L46.3,23.8C46,24,45.7,24.2,45.3,24.2
			L45.3,24.2z"/>
		<path fill="none" stroke="#D7DBDD" stroke-miterlimit="10" d="M9.7,48.9c-0.1,0-0.2,0-0.3,0c-0.7-0.1-1.2-0.9-1.1-1.6
			C12.5,26.3,30.8,11,52.1,11c0.7,0,1.4,0.6,1.4,1.4s-0.6,1.4-1.4,1.4c-20,0-37.2,14.4-41,34.1C10.9,48.5,10.4,48.9,9.7,48.9
			L9.7,48.9z"/>
		<path fill="#6DD9F7" d="M61.8,30.6H51.7c-0.5,0-0.9,0-0.9,0v-1c0,0,0.4,0,0.9,0h10.1c0.5,0,0.9,0,0.9,0v1
			C62.7,30.5,62.3,30.6,61.8,30.6L61.8,30.6z"/>
		<path fill="#6DD9F7" d="M37.9,49.3H27.8c-0.5,0-0.9,0-0.9,0v-1c0,0,0.4,0,0.9,0h10.1c0.5,0,0.9,0,0.9,0v1
			C38.8,49.3,38.4,49.3,37.9,49.3L37.9,49.3z"/>
		<path fill="#6DD9F7" d="M13.8,62.4H3.7c-0.5,0-0.9,0-0.9,0v-1c0,0,0.4,0,0.9,0h10.1c0.5,0,0.9,0,0.9,0v1
			C14.7,62.3,14.3,62.4,13.8,62.4L13.8,62.4z"/>
		<path fill="#6DD9F7" d="M77.7,27.6c-0.1,0-0.1-0.1-0.2-0.1L74,22.3l-6,1.8c-0.2,0-0.3,0-0.4-0.1c-0.1-0.1-0.1-0.3,0-0.4l3.8-5
			l-3.5-5.2c-0.1-0.1-0.1-0.3,0-0.4c0.1-0.1,0.3-0.2,0.4-0.1l5.9,2.1l3.8-5c0.1-0.1,0.3-0.2,0.4-0.1l0,0c0.1,0.1,0.2,0.2,0.2,0.4
			l-0.2,6.2l5.9,2.1c0.1,0.1,0.2,0.2,0.2,0.4c0,0.2-0.1,0.3-0.3,0.3l-6,1.8l-0.2,6.2c0,0.2-0.1,0.3-0.3,0.3
			C77.8,27.6,77.8,27.6,77.7,27.6L77.7,27.6z M69.1,13.9l3,4.4c0.1,0.1,0.1,0.3,0,0.4l-3.3,4.3l5.2-1.5c0.2,0,0.3,0,0.4,0.1l3,4.4
			l0.1-5.4c0-0.2,0.1-0.3,0.3-0.3l5.2-1.5L78,17.1c-0.1-0.1-0.2-0.2-0.2-0.4l0.1-5.4l-3.3,4.3c-0.1,0.1-0.3,0.2-0.4,0.1L69.1,13.9
			L69.1,13.9z"/>
</symbol>




<symbol id="landing_perso_radar" viewBox="0 0 86.3 86.3">
	<title>landing_perso_radar</title>
<g>
	<g>
		<path fill="none" stroke="#D7DBDD" stroke-miterlimit="10" d="M85.8,43.2c0-23.6-19.1-42.7-42.7-42.7S0.5,19.6,0.5,43.2
			s19.1,42.7,42.7,42.7S85.8,66.8,85.8,43.2z"/>
		<path fill="none" stroke="#D7DBDD" stroke-miterlimit="10" d="M43.2,77.3C24.3,77.3,9,62,9,43.2S24.3,9,43.2,9
			s34.1,15.3,34.1,34.1S62,77.3,43.2,77.3z"/>
		<path fill="#6DD9F7" stroke="#D7DBDD" stroke-miterlimit="10" d="M68.8,43.2c0-14.2-11.5-25.6-25.6-25.6S17.6,29,17.6,43.2
			S29,68.8,43.2,68.8S68.8,57.3,68.8,43.2z"/>
		<path fill="none" stroke="#D7DBDD" stroke-miterlimit="10" d="M43.2,60.2c-9.4,0-17.1-7.6-17.1-17.1s7.6-17.1,17.1-17.1
			s17.1,7.6,17.1,17.1S52.6,60.2,43.2,60.2z"/>
		<path fill="none" stroke="#D7DBDD" stroke-miterlimit="10" d="M51.7,43.2c0-4.7-3.8-8.5-8.5-8.5s-8.5,3.8-8.5,8.5s3.8,8.5,8.5,8.5
			S51.7,47.9,51.7,43.2z"/>
	</g>
	<g>
		<line fill="none" stroke="#D7DBDD" stroke-miterlimit="10" x1="43.2" y1="43.2" x2="43.2" y2="85.8"/>
		<line fill="none" stroke="#D7DBDD" stroke-miterlimit="10" x1="43.2" y1="43.2" x2="73.3" y2="73.3"/>
		<line fill="none" stroke="#D7DBDD" stroke-miterlimit="10" x1="43.2" y1="43.2" x2="85.8" y2="43.2"/>
		<line fill="none" stroke="#D7DBDD" stroke-miterlimit="10" x1="43.2" y1="43.2" x2="73.3" y2="13"/>
		<line fill="none" stroke="#D7DBDD" stroke-miterlimit="10" x1="43.2" y1="43.2" x2="43.2" y2="0.5"/>
		<line fill="none" stroke="#D7DBDD" stroke-miterlimit="10" x1="43.2" y1="43.2" x2="13" y2="13"/>
		<line fill="none" stroke="#D7DBDD" stroke-miterlimit="10" x1="43.2" y1="43.2" x2="0.5" y2="43.2"/>
		<line fill="none" stroke="#D7DBDD" stroke-miterlimit="10" x1="43.2" y1="43.2" x2="13" y2="73.3"/>
	</g>
</g>
</symbol>


<symbol id="landing_ai" viewBox="0 0 81.5 77.6">
	<title>landing_ai</title>
<g>
	<g>
		<path fill="none" stroke="#D7DBDD" stroke-width="0.5" stroke-miterlimit="10" d="M28.1,44.9c-4.1,0-7.5-3.4-7.5-7.5
			c0-4.1,3.4-7.5,7.5-7.5c4.1,0,7.5,3.4,7.5,7.5C35.6,41.5,32.2,44.9,28.1,44.9L28.1,44.9z M28.1,30.2c-4,0-7.2,3.2-7.2,7.2
			c0,4,3.2,7.2,7.2,7.2s7.2-3.2,7.2-7.2C35.2,33.4,32,30.2,28.1,30.2L28.1,30.2z"/>
	</g>
</g>
<g>
	<path fill="#6DD9F7" d="M48.9,32C48.9,32.1,48.9,32.1,48.9,32C48.9,32.1,48.9,32.1,48.9,32z"/>
	<path fill="#6DD9F7" d="M50.1,12.4c-1.3-1.5-3.3-1.5-4.9-0.6c-1.6,1-2.3,2.3-2,4c0.3,1.6,1.5,3.5,2.8,6c0.5,0.9,0.9,1.9,1.3,2.8
		c1-0.5,2.3,0.4,3.5,0.5c0.4-1.5,0.7-3.2,0.9-5C52.1,16.6,51.5,13.8,50.1,12.4z"/>
</g>
<path fill="none" stroke="#D7DBDD" stroke-miterlimit="10" d="M54.4,36.2c8.1,0,14.6-6.6,14.6-14.6c0-8.1-6.6-14.6-14.6-14.6
	c-8.1,0-14.6,6.6-14.6,14.6c0,1.1,0.1,2.2,0.4,3.2c0.3,0,0.5,0,1,0c-0.5,0-0.7,0-1,0"/>
<path fill="#ED9E6E" d="M45.6,32C45.6,32,45.6,32,45.6,32C45.6,32,45.6,32,45.6,32C45.6,32,45.6,32,45.6,32"/>
<path fill="#ED9E6E" d="M69.9,26C69.9,26,69.9,26,69.9,26c0,0,0-0.1,0-0.1C69.9,25.9,69.9,25.9,69.9,26"/>
<path fill="#D7DBDD" d="M60.5,16.8c-1,0.3-1.7,1.3-1.4,2.3c0.3,1,1.3,1.7,2.3,1.4c1-0.3,1.7-1.3,1.4-2.3
	C62.6,17.2,61.5,16.6,60.5,16.8"/>
<path fill="#D7DBDD" d="M58.1,27.7c-2.3,1.1-3.8,0.4-4.1-0.2c-0.1-0.2,0-0.4,0.2-0.5l5.7-2.9c0.2-0.1,0.4,0,0.5,0.2
	C60.7,24.9,60.4,26.6,58.1,27.7z"/>
<path fill="none" stroke="#6DD9F7" stroke-miterlimit="10" d="M53.7,9.2c4.6-0.3,9.1,2.3,11.5,6.2"/>
<linearGradient id="SVGID_1_" gradientUnits="userSpaceOnUse" x1="58.8067" y1="41.1783" x2="63.5357" y2="41.1783" gradientTransform="matrix(0.9702 -0.2425 -0.2425 -0.9702 14.071 77.8709)">
	<stop  offset="0" style="stop-color:#FF7BAC"/>
	<stop  offset="1" style="stop-color:#FF7BAC;stop-opacity:0"/>
</linearGradient>
<path opacity="0.56" fill="url(#SVGID_1_)" enable-background="new    " d="M65.7,22.5c0.3,1.3-0.5,2.5-1.7,2.9
	c-1.3,0.3-2.6-0.5-2.9-1.7c-0.3-1.3,0.5-2.6,1.7-2.9C64.1,20.5,65.4,21.2,65.7,22.5"/>
<path fill="#D7DBDD" d="M50.7,21.3c-0.3-1-1.3-1.7-2.3-1.4c-1,0.3-1.7,1.3-1.4,2.3c0.3,1,1.3,1.7,2.3,1.4
	C50.3,23.4,51,22.3,50.7,21.3"/>
<g>
	<g>
		<path fill="none" stroke="#D7DBDD" stroke-miterlimit="10" d="M12.1,77.1c-0.2,0-0.5-0.1-0.7-0.2c-0.6-0.3-1-0.9-1-1.5V64.4H5.6
			c-2.8,0-5.1-2.3-5.1-5.1V30c0-2.8,2.3-5.1,5.1-5.1h43.8c2.8,0,5.1,2.3,5.1,5.1v29.4c0,2.8-2.3,5.1-5.1,5.1H28.6L13.1,76.7
			C12.8,77,12.4,77.1,12.1,77.1L12.1,77.1z"/>
	</g>
	<g>
		<path fill="none" stroke="#D7DBDD" stroke-miterlimit="10" d="M54.7,40.9c-0.3,0-0.3,0.3-0.3,0.3l14,11.1c0.3,0.2,0.7,0.4,1,0.4
			c0.2,0,0.5-0.1,0.7-0.2c0.6-0.3,1-0.9,1-1.5V40H76c2.8,0,5.1-2.3,5.1-5.1V5.6c0-2.8-2.3-5.1-5.1-5.1H32.2c-2.8,0-5.1,2.3-5.1,5.1
			v19.3"/>
		<path fill="none" stroke="#D7DBDD" stroke-miterlimit="10" d="M54,40.9"/>
	</g>
</g>
<g>
	<g>
		<path fill="#FFFFFF" stroke="#D7DBDD" stroke-width="0.75" stroke-miterlimit="10" d="M38,61.1H17.4c-0.4,0-0.7-0.3-0.7-0.7
			l-0.5-6.7c-0.1-2.2,1.5-4.7,3.7-5.5c5-1.8,10.5-1.8,15.5,0c2.4,0.9,3.8,3.5,3.7,5.5l-0.5,6.7C38.7,60.8,38.4,61.1,38,61.1L38,61.1
			z"/>
	</g>
</g>
<path fill="none" stroke="#6DD9F7" stroke-miterlimit="10" d="M28.4,31.9c2.2,0.2,4.1,1.7,4.9,3.7"/>
</symbol>



<symbol version="1.1" id="social_twitter" viewBox="0 0 56.5 45.9" >
	<title>social_twitter</title>
<path fill="#6DD9F7" d="M56.5,5.4c-2.1,0.9-4.3,1.5-6.7,1.8c2.4-1.4,4.2-3.7,5.1-6.4c-2.2,1.3-4.7,2.3-7.4,2.8
	C45.5,1.4,42.5,0,39.1,0c-7.5,0-13,7-11.3,14.2C18.2,13.8,9.7,9.1,3.9,2.1c-3,5.2-1.6,12,3.6,15.5c-1.9-0.1-3.7-0.6-5.3-1.5
	C2.1,21.5,6,26.6,11.6,27.7c-1.6,0.4-3.4,0.5-5.2,0.2c1.5,4.6,5.8,8,10.8,8.1c-4.9,3.8-11,5.5-17.2,4.8c5.1,3.3,11.2,5.2,17.8,5.2
	c21.5,0,33.7-18.2,33-34.5C53,9.8,55,7.8,56.5,5.4L56.5,5.4z"/>
</symbol>





</defs>
</svg>
