<svg style="position: absolute; width: 0; height: 0; overflow: hidden;" version="1.1" xmlns="http://www.w3.org/2000/svg" xmlns:xlink="http://www.w3.org/1999/xlink">
<defs>
<symbol id="svgicon-meka_logo_app" viewBox="188.4 347.1 621 304">
<title>meka_logo_app</title>

<path fill="none" stroke-width="19" stroke-miterlimit="10" d="M701.2,520.9L701.2,520.9
	c-12.5,7.7-29,3.7-36.7-8.8l0,0c-7.7-12.5-3.7-29,8.8-36.7l0,0c12.5-7.7,29-3.7,36.7,8.8l0,0C717.7,496.7,713.7,513.2,701.2,520.9z"
	/>
<circle fill="none" stroke-width="19" stroke-miterlimit="10" cx="668.7" cy="414.1" r="29.8"/>
<polygon fill="none" stroke-width="19" stroke-miterlimit="10" points="738.9,432.7 738.8,366.3 791.5,406.6 "/>
<path fill="none" stroke-width="19" stroke-miterlimit="10" d="M794.5,468.3c6.6,10.4-4.4,44.6-14.8,51.3
	c-10.4,6.6-24.6-2.3-31.2-12.7c-6.6-10.4-0.4-25.6,11.2-33C770,467.2,787.8,457.9,794.5,468.3z"/>
<g>
	<path stroke-width="7" stroke-miterlimit="10" d="M324.3,591.7v54.2H316v-52.1
		c0-17.5-8.3-29.2-23.2-29.2c-17.5,0-28.9,17-30.4,35.8v45.5H254v-52.1c0-17.5-8.5-29.2-23.4-29.2c-17.3,0-28.9,17-30.4,35.8v45.5
		h-8.3v-87.5h7.8l0.5,19.4c6.7-11.2,17.6-21.1,32.7-21.1c14.9,0,24.7,9.2,28,23.2c6.6-12.1,17.8-23.2,34.1-23.2
		C313.7,556.6,324.3,571,324.3,591.7z"/>
	<path stroke-width="7" stroke-miterlimit="10" d="M430.5,604.7h-79.2C352,626,367.2,640,388.1,640
		c17.5,0,27.9-10,31.8-19.4l7.4,1.2c-4,12.1-17.6,25.8-39.4,25.8c-25.6,0-45-18.7-45-46c0-24.6,18.2-45,43.8-45
		c26.8,0,43.8,21.8,43.8,46.2V604.7z M351.3,598.3H422c-1-18-14.4-34.1-35.3-34.1C366.7,564.2,352,579.4,351.3,598.3z"/>
	<path stroke-width="7" stroke-miterlimit="10" d="M484.3,596.4l40.7,49.5h-10.6l-36.2-43.9
		L462.2,617v28.9h-8.3V516.1h8.3v89.8l51-47.6H525L484.3,596.4z"/>
	<path stroke-width="7" stroke-miterlimit="10" d="M579.3,556.6c17.8,0,32.9,10.6,39.1,25.3
		l0.3-23.5h8.1v87.5h-8.1l-0.3-23.7c-6.2,14.9-21.3,25.4-39.1,25.4c-25.1,0-45.2-20.4-45.2-45.7C534.1,577,554.2,556.6,579.3,556.6z
		 M580.3,639.6c20.8,0,37.5-17,37.5-37.7c0-20.4-16.8-37.4-37.5-37.4c-20.9,0-37.9,17-37.9,37.4
		C542.4,622.7,559.4,639.6,580.3,639.6z"/>
</g>
<path stroke-width="5" stroke-miterlimit="10" d="M423,529.9c0,0-71,0-71.1,0
	c0.1,2.1,0.2,4.3,0.2,6.4c0.1,0,0.3,0,0.4,0h70.7C423.1,534.2,423.1,532.1,423,529.9z"/>
<path stroke-width="5" stroke-miterlimit="10" d="M621.1,529.9c0,0-71,0-71.1,0
	c0.1,2.1,0.2,4.3,0.2,6.4c0.1,0,0.3,0,0.4,0h70.7C621.3,534.2,621.2,532.1,621.1,529.9z"/>
</symbol>





<symbol id="svgicon-meka_logo_app_pro" viewBox="8.5 710.3 1000 590">
<title>meka_logo_app_pro</title>
<g id="XMLID_1_">
	<g>
		<path fill="#FFFFFF" d="M677.2,711C519.3,727.6,39.9,873.4,43,1026.3c2.6,152.3,376.5,290.5,552.7,272.4
			c158.1-15,414.1-63.2,412.8-216.4C1005.9,930,836,695.5,677.2,711z"/>
	</g>
</g>
<path fill="none" stroke-width="19" stroke-miterlimit="10" d="M843,998.8L843,998.8
	c-20.4,12.6-47.3,6.1-59.9-14.4l0,0c-12.6-20.4-6.1-47.3,14.4-59.9l0,0c20.4-12.6,47.3-6.1,59.9,14.4l0,0
	C869.9,959.3,863.4,986.2,843,998.8z"/>
<polygon fill="none" stroke-width="19" stroke-miterlimit="10" points="904.5,854.9 904.3,746.6 990.4,812.3 "/>
<path fill="none" stroke-width="19" stroke-miterlimit="10" d="M995.2,913c10.7,16.9-7.2,72.7-24.1,83.7
	c-16.9,10.7-40.1-3.7-50.9-20.8c-10.7-16.9-0.6-41.7,18.2-53.8C955.3,911.2,984.3,896.1,995.2,913z"/>
<g>
	<path stroke-width="7" stroke-miterlimit="10" d="M228.1,1114.3v88.4h-13.6v-85
		c0-28.6-13.6-47.6-37.9-47.6c-28.6,0-47.1,27.8-49.6,58.4v74.3h-13.6v-85c0-28.6-13.9-47.6-38.2-47.6c-28.3,0-47.1,27.8-49.6,58.4
		v74.3H12V1060h12.8l0.8,31.6c10.9-18.2,28.7-34.4,53.4-34.4c24.3,0,40.3,15,45.7,37.9c10.7-19.8,29.1-37.9,55.6-37.9
		C210.8,1057.1,228.1,1080.6,228.1,1114.3z"/>
	<path stroke-width="7" stroke-miterlimit="10" d="M401.4,1135.5H272.1
		c1.1,34.8,25.9,57.5,60.1,57.5c28.6,0,45.5-16.3,51.9-31.6l12.1,1.9c-6.5,19.8-28.7,42-64.2,42c-41.7,0-73.5-30.5-73.5-75.1
		c0-40.1,29.7-73.5,71.4-73.5c43.8,0,71.4,35.6,71.4,75.4L401.4,1135.5L401.4,1135.5z M272.1,1125h115.3
		c-1.6-29.4-23.5-55.6-57.5-55.6C297.3,1069.4,273.2,1094.2,272.1,1125z"/>
	<path stroke-width="7" stroke-miterlimit="10" d="M489.1,1122l66.4,80.7h-17.3l-59.1-71.6
		l-26,24.5v47.1h-13.6V991h13.6v146.5l83.2-77.7h19.3L489.1,1122z"/>
	<path stroke-width="7" stroke-miterlimit="10" d="M644.2,1057.1c29.1,0,53.7,17.3,63.8,41.2
		l0.5-38.3h13.2v142.8h-13.2L708,1164c-10.1,24.3-34.8,41.4-63.8,41.4c-40.9,0-73.8-33.3-73.8-74.6
		C570.4,1090.3,603.1,1057.1,644.2,1057.1z M645.8,1192.4c33.9,0,61.2-27.8,61.2-61.5c0-33.3-27.5-61-61.2-61
		c-34.1,0-61.8,27.8-61.8,61C583.9,1164.9,611.6,1192.4,645.8,1192.4z"/>
</g>
<path stroke-width="5" stroke-miterlimit="10" d="M389.1,1013.5c0,0-115.8,0-116,0
	c0.2,3.4,0.3,7,0.3,10.4c0.2,0,0.5,0,0.6,0h115.3C389.2,1020.5,389.2,1017,389.1,1013.5z"/>
<path stroke-width="5" stroke-miterlimit="10" d="M712.4,1013.5c0,0-115.8,0-116,0
	c0.2,3.4,0.3,7,0.3,10.4c0.2,0,0.5,0,0.6,0h115.3C712.7,1020.5,712.5,1017,712.4,1013.5z"/>
<g enable-background="new    ">
	<path d="M770.8,826.7c5.2,0,9.7,1.8,13.3,5.4c3.7,3.6,5.5,8.4,5.5,14.4s-1.8,10.8-5.5,14.6c-3.7,3.7-8,5.6-12.8,5.6
		s-9.3-2.1-13.2-6.4v20H750v-53h8.2v6.8C761.3,829.2,765.5,826.7,770.8,826.7z M758,846.8c0,3.7,1.1,6.7,3.4,9.1
		c2.2,2.4,5,3.5,8.2,3.5s6-1.2,8.4-3.5s3.6-5.4,3.6-9.1s-1.2-6.8-3.5-9.3s-5.1-3.7-8.4-3.7c-3.3,0-6,1.2-8.2,3.7
		C759.1,840,758,843.1,758,846.8z"/>
	<path d="M819.3,835c-4,0-7.1,1.3-9.1,3.9c-2,2.6-3.1,6.2-3.1,10.6v16.6H799v-38.8h8.2v7.8c1.3-2.4,3.1-4.4,5.4-6
		c2.3-1.6,4.7-2.4,7.2-2.4l0.1,8.2C819.6,835,819.5,835,819.3,835z"/>
	<path d="M859.7,860.9c-3.9,3.9-8.8,5.8-14.6,5.8s-10.7-1.9-14.6-5.8c-3.9-3.9-5.8-8.6-5.8-14.2
		c0-5.6,1.9-10.3,5.8-14.2c3.9-3.9,8.8-5.8,14.6-5.8s10.7,1.9,14.6,5.8c3.9,3.9,5.8,8.6,5.8,14.2C865.5,852.3,863.6,857,859.7,860.9
		z M836.3,855.9c2.3,2.4,5.2,3.5,8.8,3.5c3.5,0,6.5-1.2,8.8-3.5c2.3-2.4,3.5-5.4,3.5-9.2c0-3.7-1.2-6.8-3.5-9.2s-5.2-3.5-8.8-3.5
		s-6.5,1.2-8.8,3.5c-2.3,2.4-3.5,5.4-3.5,9.2S834,853.5,836.3,855.9z"/>
</g>
</symbol>











<symbol id="svgicon-chef-hat" viewBox="0 0 32 32">
<title>chef-hat</title>
<path fill="none" stroke="#ffffff" stroke-width="1" stroke-miterlimit="10" stroke-linecap="round" stroke-linejoin="round" d="M23.336 4c-0.8 0-1.549 0.2-2.205 0.555-0.633-2.243-3.357-3.888-5.8-3.888s-5.2 1.645-5.833 3.888c-0.656-0.355-1.409-0.555-2.203-0.555-2.579 0-4.669 2.089-4.669 4.667s2 4.667 4.667 4.667v17.917h16.039v-17.917c2.667 0 4.669-2.089 4.669-4.667s-2.088-4.667-4.664-4.667zM7.292 25.917h16.039M11.305 20.584v5.333M15.292 19.251v6.667M19.317 20.584v5.333"></path>
</symbol>
<symbol id="svgicon-drink-coffee" viewBox="0 0 32 32">
<title>drink-coffee</title>
<path fill="none" stroke="#ffffff" stroke-width="1" stroke-miterlimit="10" stroke-linecap="round" stroke-linejoin="round" d="M24 31.333h-16l-1.333-21.333h18.667zM5.333 4.667h21.333v5.333h-21.333zM25.333 4.667h-18.667l1.333-4h16z"></path>
<path fill="none" stroke="#ffffff" stroke-width="1" stroke-miterlimit="10" stroke-linecap="butt" stroke-linejoin="round" d="M7 15.333h18M7.5 23.333h17.028"></path>
<path fill="none" stroke="#ffffff" stroke-width="1" stroke-miterlimit="10" stroke-linecap="round" stroke-linejoin="round" d="M12.667 19.333h6.667"></path>
</symbol>
<symbol id="svgicon-music-note" viewBox="0 0 32 32">
<title>music-note</title>
<path fill="none" stroke="#ffffff" stroke-width="1" stroke-miterlimit="10" stroke-linecap="butt" stroke-linejoin="round" d="M12.667 27.333c0 2-1.791 4-4 4-2.208 0-4-1.791-4-4 0-2.208 1.792-4 4-4h4v4zM27.333 22c0 2-1.791 4-4 4-2.208 0-4-1.791-4-4 0-2.208 1.792-4 4-4h4v4zM12.667 24.667v-17.333l14.667-6v19.333M12.667 12l14.667-6"></path>
</symbol>
<symbol id="svgicon-notebook-2" viewBox="0 0 32 32">
<title>notebook-2</title>
<path fill="none" stroke="#ffffff" stroke-width="1" stroke-miterlimit="10" stroke-linecap="round" stroke-linejoin="round" d="M27.333 24.667h-22.667v-13.333h22.667zM2 27.333v-16.667c0-1.104 0.896-2 2-2h24c1.104 0 2 0.896 2 2v16.667"></path>
<path fill="none" stroke="#ffffff" stroke-width="1" stroke-miterlimit="10" stroke-linecap="round" stroke-linejoin="round" d="M19.333 27.333v1h-6.667v-1h-12v2.667c0 0.737 0.597 1 1 1h28c0.737 0 1-0.596 1-1v-2.667h-12z"></path>
</symbol>
<symbol id="svgicon-paint-palette" viewBox="0 0 32 32">
<title>paint-palette</title>
<path fill="none" stroke="#ffffff" stroke-width="1" stroke-miterlimit="10" stroke-linecap="round" stroke-linejoin="round" d="M5.157 27.852c-5.988-5.987-5.988-15.697 0-21.685s15.696-5.987 21.685 0 5.988 15.697 0 21.685c-2.863 2.864-7.507 2.864-10.371 0l-5.656-5.656c-0.521-0.521-1.365-0.521-1.885 0-0.521 0.521-0.521 1.364 0 1.885 1.040 1.041 1.040 2.729 0 3.771-1.043 1.041-2.732 1.041-3.773 0z"></path>
<path fill="none" stroke="#ffffff" stroke-width="1" stroke-miterlimit="10" stroke-linecap="round" stroke-linejoin="round" d="M23.655 10.411c0 1.104-0.895 1.999-1.999 1.999s-1.999-0.895-1.999-1.999c0-1.104 0.895-1.999 1.999-1.999s1.999 0.895 1.999 1.999z"></path>
<path fill="none" stroke="#ffffff" stroke-width="1" stroke-miterlimit="10" stroke-linecap="round" stroke-linejoin="round" d="M26.667 17.008c0 0.736-0.597 1-1 1s-1-0.597-1-1c0-0.736 0.597-1 1-1s1 0.597 1 1z"></path>
<path fill="none" stroke="#ffffff" stroke-width="1" stroke-miterlimit="10" stroke-linecap="round" stroke-linejoin="round" d="M24.323 23.609c0 1.473-1.194 2.667-2.667 2.667s-2.667-1.194-2.667-2.667c0-1.473 1.194-2.667 2.667-2.667s2.667 1.194 2.667 2.667z"></path>
<path fill="none" stroke="#ffffff" stroke-width="1" stroke-miterlimit="10" stroke-linecap="round" stroke-linejoin="round" d="M15.641 8.995c0 1.104-0.895 1.999-1.999 1.999s-1.999-0.895-1.999-1.999c0-1.104 0.895-1.999 1.999-1.999s1.999 0.895 1.999 1.999z"></path>
</symbol>

<symbol id="bg_triangle_round" viewBox="0 0 134.8 148.4">
<title>bg_triangle_round</title>
<path opacity="0.74" fill="none" stroke-width="43" stroke-miterlimit="10" d="M109.7,29.9
	c12,18.8-7.9,80.8-26.8,92.8c-18.8,12-44.5-4.2-56.5-23c-12-18.8-0.6-46.3,20.2-59.7C65.4,28,97.6,11.1,109.7,29.9z"/>
</symbol>


<symbol id="bg_round" viewBox="0 0 150.8 150.8">
<title>bg_round</title>
<circle opacity="0.74" fill="none" stroke-width="43" stroke-miterlimit="10" cx="75.4" cy="75.4" r="53.9"/>
</symbol>



<symbol id="bg_square_round" viewBox="0 0 150.7 150.7">
<title>bg_square_round</title>
<path opacity="0.74" fill="none" stroke-width="43" stroke-miterlimit="10" d="M110.4,113.5l-34.9,13.7
	c-15.1,5.9-32.4-1.6-38.3-16.7L23.5,75.5c-5.9-15.1,1.6-32.4,16.7-38.3l34.9-13.7c15.1-5.9,32.4,1.6,38.3,16.7l13.7,34.9
	C133.1,90.3,125.6,107.6,110.4,113.5z"/>
</symbol>


<symbol id="bg_triangle" viewBox="0 0 157.6 198.3">
<title>bg_triangle</title>
<polygon opacity="0.74" fill="none" stroke-width="43" stroke-miterlimit="10" points="21.8,163.7 
	21.6,43.5 117.1,116.4 "/>
</symbol>



<symbol id="landing_perso_progress" viewBox="0 0 1000 1000">
	<title>landing_perso_progress</title>
<g>
	<g>
		<path fill="#D7DBDD" d="M753,930.9c-54.5,0-108.9,0-163.4,0c-11,0-24.5-1.9-24.5-16.5c0-2.8,0-5.6,0-8.4c0-18.6,0-37.3,0-55.9
			c0-132.2,0-264.5,0-396.7c0-15.8,0-31.5,0-47.3c0-22,19.9-20.1,36-20.1c34.2,0,68.4,0,102.6,0c13.4,0,26.7,0,40.1,0
			c11,0,24.6,1.9,24.6,16.5c0,106.9,0,213.8,0,320.7c0,46.7,0,93.4,0,140c0,13.7,0,27.5,0,41.2C768.3,915.4,768.9,930.9,753,930.9z"
			/>
	</g>
	<g>
		<path fill="#D7DBDD" d="M472.8,930.9c-54.5,0-108.9,0-163.4,0c-11,0-24.5-1.9-24.5-16.5c0-4.7,0-9.4,0-14c0-27.9,0-55.7,0-83.6
			c0-61.9,0-123.9,0-185.8c0-7.6-0.7-15.1,5.8-20.9c6.6-5.9,17.6-4.1,25.8-4.1c33.4,0,66.8,0,100.3,0c14.5,0,29.1,0,43.6,0
			c9.6,0,20.6-1.6,26.6,8c3.3,5.4,2.4,12.5,2.4,18.6c0,10.6,0,21.3,0,31.9c0,68,0,136,0,204c0,12.6,0,25.2,0,37.8
			C489.3,917.1,487.7,930.9,472.8,930.9z"/>
	</g>
	<g>
		<path fill="#D7DBDD" d="M192.7,930.9c-54.4,0-108.8,0-163.1,0c-10.9,0-23.6-2.6-23.6-16.7c0-9.6,0-19.1,0-28.7
			c0-32.4,0-64.8,0-97.3c0-11.2,2.4-24.1,16.8-24.1c8.5,0,16.9,0,25.4,0c34.7,0,69.5,0,104.2,0c15.8,0,56.7-7.4,56.7,17.7
			c0,29,0,58,0,87c0,12.7,0,25.3,0,38C209.2,917.6,206.8,930.9,192.7,930.9z"/>
	</g>
	<g>
		<path fill="#D7DBDD" d="M535.5,349.3c-14,0-21.8-17.2-11.7-27.3c2.5-2.5,5-5,7.5-7.5c12.8-12.8,25.6-25.6,38.4-38.4
			c22.1-22.1,44.2-44.2,66.3-66.3c-37-37-74-73.9-111-110.9c-15-14.9,5.5-39.2,21.1-23.9c5.2,4.2,9.7,9.7,14.4,14.4
			c24.1,24.1,48.2,48.2,72.3,72.3c12.3,12.3,26.4,24,37.4,37.4c15.8,15.8-15.5,38-25.1,47.6c-21.5,21.5-43,43.1-64.5,64.6
			c-8.5,8.5-17,17-25.4,25.5C549.6,342.3,544.1,349.3,535.5,349.3z"/>
	</g>
	<g>
		<path fill="#D7DBDD" d="M114.7,641.3c-30.1,0-9.6-49.9-5.1-65.2c7.3-25,16.5-49.4,27.3-73.1c21.3-46.3,49.2-89.6,82.7-128
			c66.4-76.3,154.4-133.1,251.7-161.2c24.7-7.2,50-12.5,75.5-15.9c12.4-1.7,24.9-2.9,37.4-3.6c11.2-0.7,29.6-4.5,39.6,1.2
			c10.7,6.1,11.5,22.4,0.5,28.6c-10.1,5.7-28.6,2.4-40,3.2c-25.8,1.7-51.5,5.4-76.8,11.1c-98.6,22.5-189,76.1-256.8,151.1
			c-32.6,36.2-59.9,77.1-80.7,121.2c-10.6,22.5-19.5,45.7-26.7,69.5c-3.6,12.1-6.8,24.3-9.5,36.7
			C131.4,628.3,129.3,641.3,114.7,641.3z"/>
	</g>
	<g>
		<path fill="#28e2fc" d="M730.5,424.9c-25.1,0-50.1,0-75.2,0c-13,0-26,0-39.1,0c-4.2,0-8.4,0-12.6,0c-5.3,0-5.3-11.8,0-11.8
			c26.1,0,52.2,0,78.3,0c13.8,0,27.5,0,41.3,0c2.4,0,4.8,0,7.3,0c3,0,10.6-2,10.6,1.8c0,3.3,0,6.6,0,10
			C741.1,423.9,731.2,424.9,730.5,424.9L730.5,424.9z"/>
	</g>
	<g>
		<path fill="#28e2fc" d="M448,646c-25.8,0-51.6,0-77.4,0c-12.9,0-25.8,0-38.7,0c-3.5,0-12.4,1.7-13.9,0c-1.1-1.2,0-8.3,0-10
			c0-3.8,7.6-1.8,10.6-1.8c25.8,0,51.6,0,77.4,0c12.9,0,25.8,0,38.7,0c3.5,0,12.4-1.7,13.9,0c1.1,1.2,0,8.3,0,10
			C458.6,648,451,646,448,646L448,646z"/>
	</g>
	<g>
		<path fill="#28e2fc" d="M163.1,800.8c-25.1,0-50.1,0-75.2,0c-13,0-26,0-39.1,0c-4.2,0-8.4,0-12.6,0c-5.3,0-5.3-11.8,0-11.8
			c26.1,0,52.2,0,78.3,0c13.8,0,27.5,0,41.3,0c2.4,0,4.8,0,7.3,0c3,0,10.6-2,10.6,1.8c0,3.3,0,6.6,0,10
			C173.8,799.8,163.8,800.8,163.1,800.8L163.1,800.8z"/>
	</g>
</g>
<g>
	<g id="XMLID_1_">
		<g>
			<path fill="#28e2fc" d="M816.8,227.5c6.1,9,12.2,17.9,18.4,26.9c4.1,6,8.2,12,12.3,18c1.5,2.2,5.8,6.5,5.8,9.5
				c0,3-4.7,7.2-6.2,9.3c-4.5,5.9-9,11.7-13.5,17.5c-6.7,8.8-13.4,17.5-20.2,26.3c10.6-3,21.2-6.1,31.8-9.2
				c8.5-2.4,23.4-10.3,32.5-8.4c3,0.6,5.3,6,6.8,8.2c4.1,6,8.2,12,12.3,18c6.1,9,12.2,17.9,18.4,26.9c0.2-11,0.4-22,0.6-33
				c0.1-7.3,0.3-14.7,0.4-22c0.1-2.9-0.8-8,0.6-10.7c1-1.9,8.2-3,10.1-3.5c6.9-2,13.7-4,20.6-5.9c11.3-3.2,22.6-6.5,34-9.8
				c-9.9-3.4-19.7-6.7-29.6-10c-7-2.4-14.1-4.8-21.1-7.2c-3.2-1.1-8.2-1.6-10.1-4.8c-1.8-2.9-0.6-8.4-0.6-11.5
				c0.1-7.3,0.3-14.7,0.4-22c0.2-11,0.4-22,0.6-33c-6.7,8.8-13.5,17.5-20.2,26.3c-4.5,5.8-9,11.7-13.5,17.6c-2,2.5-4.4,7.3-7.7,8.5
				c-2.5,0.9-8.5-2.5-10.6-3.2c-6.9-2.5-13.9-4.9-20.8-7.4C837.6,234.9,827.2,231.2,816.8,227.5z M842.1,285.5
				c4-5.3-8.4-17.5-11.6-22.2c-8.8-13.1-17.6-26.1-26.4-39.2c-9.2-13.7,13.1-4.8,18.1-3c15.8,5.6,31.6,11.2,47.4,16.9
				c0.9,0.3,6.8,3.1,7.5,2.3c3.2-4.2,6.3-8.3,9.5-12.5c10.2-13.4,20.4-26.8,30.5-40.2c1.1-1.5,6.4-10.3,9.4-7.4
				c3.9,1.8,2.2,10.7,2.1,13.8c-0.5,16.7-1.1,33.5-1.6,50.2c-0.2,4.6-0.3,9.1-0.5,13.7c0,1.1,7.6,3.1,8.6,3.4
				c15.9,5.7,31.8,11.3,47.7,17c4.1,1.5,12.5,2.6,15,6.7c3.9,6.4-7.6,7.7-11.5,8.9c-19.1,5.7-38.2,11.5-57.3,17.2
				c-4.6,1.4-4.8,0.7-5,5.4c-0.3,8.7-0.6,17.4-0.9,26.2c-0.2,5.3,2,46.9-4.8,46.9c-3,0-5.5-5.7-6.7-7.6c-4.6-6.9-9.3-13.8-13.9-20.7
				c-7.7-11.4-15.3-22.8-23-34.1c-1.2-1.8-28.7,8.3-31.4,9.1c-13.1,3.9-26.2,7.9-39.4,11.8c-7.1,2.1-5.8-4.8-3.2-8.1
				c4.2-5.6,8.5-11.2,12.7-16.8C823,310.5,832.6,298,842.1,285.5z"/>
			<path fill="#28e2fc" d="M835.2,254.4c-6.1-9-12.2-17.9-18.4-26.9c10.4,3.7,20.8,7.4,31.2,11.1c7,2.5,13.9,4.9,20.8,7.4
				c2.1,0.8,8.1,4.1,10.6,3.2c3.3-1.1,5.7-5.9,7.7-8.5c4.5-5.9,9-11.7,13.5-17.6c6.7-8.8,13.5-17.5,20.2-26.3c-0.2,11-0.4,22-0.6,33
				c-0.1,7.3-0.3,14.7-0.4,22c0,3.1-1.2,8.6,0.6,11.5c1.9,3.2,6.9,3.7,10.1,4.8c7,2.4,14.1,4.8,21.1,7.2c9.9,3.3,19.7,6.7,29.6,10
				c-11.3,3.3-22.6,6.5-34,9.8c-6.9,2-13.7,4-20.6,5.9c-1.9,0.5-9.1,1.6-10.1,3.5c-1.4,2.7-0.5,7.9-0.6,10.7
				c-0.1,7.3-0.3,14.7-0.4,22c-0.2,11-0.4,22-0.6,33c-6.1-9-12.2-17.9-18.4-26.9c-4.1-6-8.2-12-12.3-18c-1.5-2.2-3.8-7.6-6.8-8.2
				c-9.1-1.9-23.9,5.9-32.5,8.4c-10.6,3.1-21.2,6.1-31.8,9.2c6.7-8.8,13.5-17.5,20.2-26.3c4.5-5.9,9-11.7,13.5-17.5
				c1.6-2.1,6.2-6.3,6.2-9.3c0-3-4.3-7.3-5.8-9.5C843.3,266.4,839.3,260.4,835.2,254.4z"/>
		</g>
		<g>
		</g>
	</g>
</g>
</symbol>




<symbol id="landing_perso_radar" viewBox="0 0 1000 1000">
	<title>landing_perso_radar</title>
<circle fill="#D7DBDD" cx="498.6" cy="498.6" r="491.1"/>
<g>
	<g>
		<path fill="#28e2fc" d="M502.2,506.4c-346.6-5.2-597.4,58.5,2,355.4"/>
		<g>
			<path fill="#FFFFFF" d="M500.6,998.9c-67.3,0-132.6-13.2-194-39.1c-59.3-25.1-112.6-61-158.4-106.7S66.5,754,41.4,694.6
				c-26-61.4-39.1-126.7-39.1-194s13.1-132.6,38.9-194c25-59.4,60.8-112.6,106.3-158.4c45.6-45.8,98.8-81.7,158-106.7
				c61.3-26,126.6-39.1,193.9-39.1s132.6,13.2,194,39.1c59.3,25.1,112.6,61,158.4,106.7s81.7,99,106.7,158.4
				c26,61.4,39.1,126.7,39.1,194s-13.1,132.6-38.9,194C933.8,754,898,807.3,852.4,853c-45.6,45.8-98.8,81.7-158,106.7
				C633.1,985.7,567.9,998.9,500.6,998.9z M499.4,9.3c-66.4,0-130.7,13-191.1,38.6C249.9,72.6,197.5,108,152.5,153.1
				c-44.9,45.1-80.2,97.6-104.8,156.2C22.2,369.8,9.3,434.2,9.3,500.6s13,130.7,38.6,191.3c24.7,58.5,60.1,111,105.2,156.2
				c45.1,45.1,97.6,80.5,156.2,105.2c60.6,25.6,124.9,38.6,191.3,38.6s130.7-13,191.1-38.6c58.4-24.7,110.8-60.1,155.8-105.2
				c44.9-45.1,80.2-97.6,104.8-156.2c25.5-60.6,38.4-124.9,38.4-191.3s-13-130.7-38.6-191.3c-24.7-58.5-60.1-111-105.2-156.2
				C801.8,108,749.2,72.6,690.7,47.9C630.2,22.3,565.8,9.3,499.4,9.3z"/>
		</g>
		<g>
			<path fill="#FFFFFF" d="M500.6,899.2c-54,0-106.4-10.6-155.7-31.4c-47.6-20.1-90.4-48.9-127.1-85.5s-65.5-79.3-85.6-126.7
				c-20.8-49.1-31.4-101.3-31.4-155c0-220.4,179.3-399.8,399.8-399.8c54,0,106.3,10.6,155.5,31.4c47.5,20.1,90.1,48.9,126.7,85.5
				c36.5,36.6,65.2,79.2,85.2,126.7c20.7,49.1,31.2,101.3,31.2,155s-10.6,105.9-31.4,155.2c-20.1,47.6-48.9,90.3-85.5,127.1
				c-36.7,36.8-79.3,65.7-126.7,85.9C606.4,888.6,554.3,899.2,500.6,899.2z M500.6,107.8C284,107.8,107.8,284,107.8,500.6
				c0,52.8,10.4,104,30.8,152.3c19.8,46.6,48.1,88.5,84.1,124.5c36.1,36,78.1,64.3,124.8,84c48.4,20.5,99.9,30.8,153,30.8
				c52.8,0,104-10.4,152.3-31c46.6-19.9,88.5-48.3,124.5-84.4c36-36.1,64.3-78.2,84-124.9c20.5-48.4,30.8-99.7,30.8-152.5
				s-10.3-104-30.7-152.3c-19.7-46.6-47.9-88.5-83.8-124.5C703.9,148.6,605.4,107.8,500.6,107.8z"/>
		</g>
		<g>
			<path fill="#28e2fc" d="M500.6,797.2c46.2-121.4,179.9-127.5,296.6-296.6c196.9-285.3-97.4-191-296.6-195.8"/>
			<path fill="#FFFFFF" d="M500.6,800.7c-80.5,0-156-31.1-212.5-87.6s-87.6-132-87.6-212.5c0-80.4,31.3-155.9,88.1-212.5
				c56.7-56.5,132-87.6,212.1-87.6s155.4,31.1,212.1,87.6c56.8,56.6,88.1,132.1,88.1,212.5c0,80.1-31.1,155.4-87.6,212.1
				C656.4,769.4,581,800.7,500.6,800.7z M500.6,207.4c-78.2,0-151.8,30.4-207.1,85.6c-55.5,55.3-86,129-86,207.5
				c0,78.6,30.4,152.4,85.6,207.5s128.9,85.6,207.5,85.6c78.5,0,152.2-30.5,207.5-86c55.2-55.3,85.6-128.9,85.6-207.1
				c0-78.5-30.5-152.2-86-207.5C652.4,237.8,578.8,207.4,500.6,207.4z"/>
		</g>
		<g>
			<path fill="#FFFFFF" d="M500.6,701.1c-53.7,0-104.3-20.9-142.4-58.8c-38.2-38.1-59.3-88.8-59.3-142.8
				c0-54.2,20.9-104.9,58.8-142.8s88.7-58.8,142.8-58.8s104.9,20.9,142.8,58.8c37.9,37.9,58.8,88.7,58.8,142.8
				c0,54-21,104.8-59.3,142.8C604.9,680.2,554.3,701.1,500.6,701.1z M500.6,304.8c-52.3,0-101.3,20.2-137.9,56.8
				s-56.8,85.6-56.8,137.9c0,52.2,20.3,101.1,57.2,137.9c36.8,36.6,85.6,56.8,137.4,56.8c51.9,0,100.7-20.2,137.4-56.8
				c36.9-36.7,57.2-85.7,57.2-137.9c0-52.3-20.2-101.3-56.8-137.9S552.9,304.8,500.6,304.8z"/>
		</g>
		<g>
			<path fill="#FFFFFF" d="M500.6,602.6c-56.2,0-102-45.8-102-102s45.8-102,102-102s102,45.8,102,102S556.8,602.6,500.6,602.6z
				 M500.6,405.6c-52.4,0-95,42.6-95,95s42.6,95,95,95s95-42.6,95-95C595.6,448.2,553,405.6,500.6,405.6z"/>
		</g>
	</g>
	<g>
		<g>
			<rect x="497.1" y="500.6" fill="#FFFFFF" width="7" height="493.6"/>
		</g>
		<g>
			
				<rect x="428.3" y="671.4" transform="matrix(-0.7071 -0.7071 0.7071 -0.7071 675.0309 1629.4188)" fill="#FFFFFF" width="493.3" height="7"/>
		</g>
		<g>
			<rect x="500.6" y="497.1" fill="#FFFFFF" width="493.6" height="7"/>
		</g>
		<g>
			
				<rect x="671.4" y="78.6" transform="matrix(-0.7083 -0.706 0.706 -0.7083 923.0388 1032.8523)" fill="#FFFFFF" width="7" height="494.1"/>
		</g>
		<g>
			<rect x="497.1" y="5.8" fill="#FFFFFF" width="7" height="494.8"/>
		</g>
		<g>
			
				<rect x="78.2" y="322.1" transform="matrix(-0.7071 -0.7071 0.7071 -0.7071 325.7036 786.1733)" fill="#FFFFFF" width="494.9" height="7"/>
		</g>
		<g>
			<rect x="5.8" y="497.1" fill="#FFFFFF" width="494.8" height="7"/>
		</g>
		<g>
			
				<rect x="322.2" y="427.9" transform="matrix(-0.706 -0.7082 0.7082 -0.706 77.6391 1382.1958)" fill="#FFFFFF" width="7" height="494.1"/>
		</g>
	</g>
</g>
</symbol>


<symbol id="landing_ai" viewBox="0 0 1000 1000">
	<title>landing_ai</title>
<g>
	<g>
		<g>
			<g id="XMLID_4_">
				<g>
					<path fill="#D7DBDD" d="M998.6,92.6v359.5c0,36.4-29.6,66.1-66.1,66.1h-56.6v131.5c0,8.6-5.7,17.3-14.2,21.5
						c-2.8,1.4-7.1,2.9-10.2,2.9c-5.2,0-11.1-3.4-14.2-5.5l-0.2-0.2L672.2,537.6v-9l169.2,134.1c4,2.6,7.9,4.2,10.2,4.2
						c1.6,0,4.7-0.9,7-2.1c6.2-3.1,10.3-9.2,10.3-15.3V511.2h63.6c32.6,0,59.1-26.5,59.1-59.1V92.6c0-32.6-26.5-59.1-59.1-59.1
						H395.1C362.5,33.5,336,60,336,92.6v233.3h-7V92.6c0-36.4,29.6-66.1,66.1-66.1h537.4C968.9,26.5,998.6,56.1,998.6,92.6z"/>
					<path fill="#D7DBDD" d="M991.6,92.6v359.5c0,32.6-26.5,59.1-59.1,59.1h-63.6v138.3c0,6.1-4.1,12.2-10.3,15.3
						c-2.3,1.2-5.4,2.1-7,2.1c-2.3,0-6.2-1.6-10.2-4.2L672.2,528.6V392c0-36.5-29.7-66.1-66.1-66.1H336V92.6
						c0-32.6,26.5-59.1,59.1-59.1h537.4C965.1,33.5,991.6,60,991.6,92.6z"/>
					<path fill="#D7DBDD" d="M672.2,537.6v215.1c0,36.4-29.6,66.1-66.1,66.1h-254l-189,148.9c-5.4,5.2-12,5.7-14.6,5.7
						c-3.1,0-7.3-1.4-10.2-2.8c-8.5-4.2-14.2-12.9-14.2-21.5V817.6H68.7c-36.4,0-66.1-29.6-66.1-66.1V392
						c0-36.4,29.6-66.1,66.1-66.1H329v3.5h7v-3.5h270.1c36.4,0,66.1,29.6,66.1,66.1v136.6l-1-0.8v-5.6c-2.9,0-5,1.4-6.1,3.3V392
						c0-32.6-26.5-59.1-59.1-59.1H68.7c-32.6,0-59.1,26.5-59.1,59.1v359.5c0,32.6,26.5,59.1,59.1,59.1h62.4v138.5
						c0,6,4.2,12.2,10.3,15.3c2.3,1.2,5.4,2.1,7,2.1c1.4,0,6.2-0.3,9.8-3.9l0.3-0.3l191.1-150.4H606c32.6,0,59.1-26.5,59.1-59.1V532
						L672.2,537.6z"/>
					<path fill="#D7DBDD" d="M672.2,528.6v9l-7.1-5.6v-6.5c1.2-1.9,3.2-3.3,6.1-3.3v5.6L672.2,528.6z"/>
					<path fill="#D7DBDD" d="M665.1,532v220.8c0,32.6-26.5,59.1-59.1,59.1H349.6L158.5,962.3l-0.3,0.3c-3.6,3.6-8.4,3.9-9.8,3.9
						c-1.6,0-4.7-0.9-7-2.1c-6.1-3.1-10.3-9.3-10.3-15.3V810.6H68.7c-32.6,0-59.1-26.5-59.1-59.1V392c0-32.6,26.5-59.1,59.1-59.1
						H606c32.6,0,59.1,26.5,59.1,59.1v133.5c-0.7,1.2-1.1,2.6-1.1,3.9v1.7L665.1,532z"/>
					<path fill="#D7DBDD" d="M665.1,525.5v6.5l-1.1-0.9v-1.7C664,528,664.4,526.7,665.1,525.5z"/>
					<rect x="329" y="325.9" fill="#D7DBDD" width="7" height="3.5"/>
				</g>
				<g>
				</g>
			</g>
		</g>
	</g>
</g>
<g>
	<g id="XMLID_1_">
		<g>
			<path fill="#FFFFFF" d="M672,327c-0.7-0.1-1.3-0.2-2-0.3c-7.8-1-15.6-1.8-23.4-2.4c-17.3-1.3-34.7-1.7-52-1.7c-2.9,0-5.9,0-8.8,0
				c-3,0-6,0.1-9.1,0.1c-1.1,0-2.2,0-3.2,0c-4.7,0.1-9.4,0.1-14.1,0.2c-3.3,0.1-6.6,0.1-9.8,0.1c-3,0.1-6,0.1-9,0.1
				c-0.8,0-1.6,0-2.4,0c-4.1-13.5-6.3-27.8-6.3-42.4c0-38.4,14.6-74.4,41.6-101.2s62.8-41.6,101.2-41.6c37.4,0,72.7,14.8,99.5,41.6
				c26.9,26.9,42.2,63,43.3,101.2c0,38.4-14.6,74.2-41.6,101.2c-26.9,26.8-62.8,41.6-101.2,41.6c-1.2,0-2.5,0-3.7-0.1
				c0.1-1,0.1-1.9,0.1-2.9c0.1-0.8,0.1-1.6,0.1-2.5c0.1-1,0.1-2,0.1-3c0.1-1.1,0.1-2.2,0.1-3.3c0-0.9,0.1-1.8,0.1-2.7
				c0-1.1,0.1-2.1,0.1-3.2c0-1.2,0.1-2.4,0.1-3.6c0.3-25.2-1.3-50.4-1.5-75.8C670.7,326.8,671.3,326.9,672,327z"/>
			<path fill="#FFFFFF" d="M671.1,418.2c0.1-1,0.1-2,0.1-3C671.2,416.2,671.2,417.2,671.1,418.2z"/>
			<path fill="#FFFFFF" d="M573.5,322.9c-4.7,0.1-9.4,0.1-14.1,0.2C564.1,323,568.8,322.9,573.5,322.9z"/>
			<path fill="#FFFFFF" d="M671,420.7c0,1-0.1,1.9-0.1,2.9c1.2,0,2.5,0.1,3.7,0.1c38.4,0,74.2-14.8,101.2-41.6
				c26.9-26.9,41.6-62.8,41.6-101.2c-1-38.2-16.3-74.2-43.3-101.2c-26.8-26.8-62.1-41.6-99.5-41.6c-38.4,0-74.2,14.8-101.2,41.6
				s-41.6,62.8-41.6,101.2c0,14.6,2.2,28.9,6.3,42.4c-6.2,0.1-12.5,0.1-18.7,0.1c-3.8-13.8-5.8-28.1-5.8-42.7
				c0-42.6,16.8-82.8,47.5-113.4s70.9-47.5,113.4-47.5c42.6,0,82.8,16.8,113.4,47.5c30.6,30.6,47.5,70.9,47.5,113.4
				s-16.8,82.8-47.5,113.4c-30.6,30.6-70.9,47.5-113.4,47.5c-1.8,0-3.5,0-5.2-0.1C670.1,434.6,670.6,427.6,671,420.7z"/>
			<path fill="#FFFFFF" d="M671.4,409.3c0,0.9,0,1.8-0.1,2.7C671.4,411.1,671.4,410.2,671.4,409.3z"/>
			<path fill="#FFFFFF" d="M671.5,406.1c0-1.2,0.1-2.4,0.1-3.6C671.5,403.7,671.5,404.9,671.5,406.1z"/>
			<path fill="#FFFFFF" d="M672,327c-0.7-0.1-1.3-0.2-2-0.2v0C670.7,326.8,671.3,326.9,672,327z"/>
			<path fill="#FFFFFF" d="M670,326.8c-7.8-1-15.6-1.8-23.4-2.4C654.4,325,662.2,325.7,670,326.8L670,326.8z"/>
			<path fill="#FFFFFF" d="M594.5,322.7c-2.9,0-5.9,0-8.8,0C588.7,322.7,591.6,322.7,594.5,322.7z"/>
			<path fill="#FFFFFF" d="M585.8,322.7c-3,0-6,0.1-9.1,0.1C579.7,322.8,582.7,322.8,585.8,322.7z"/>
			<path fill="#FFFFFF" d="M549.6,323.2c-3,0.1-6,0.1-9,0.1C543.6,323.3,546.6,323.2,549.6,323.2z"/>
			<path fill="#FFFFFF" d="M538.1,323.3L538.1,323.3c0.8,0,1.6,0,2.4,0C539.7,323.3,538.9,323.3,538.1,323.3z"/>
		</g>
		<g>
		</g>
	</g>
</g>
<g>
	<g id="XMLID_2_">
		<g>
			<path fill="#FFFFFF" d="M429.6,482.8c0,22.8-8.7,44.1-24.7,60.1c-16,15.9-37.3,24.7-60.1,24.7c-22.8,0-44.1-8.7-60.1-24.7
				c-15.9-16-24.7-37.3-24.7-60.1c0-22.8,8.7-44.2,24.7-60.1c16-15.9,37.3-24.7,60.1-24.7c22.2,0,43.2,8.8,59.1,24.7
				C419.9,438.7,429,460.1,429.6,482.8z"/>
			<path fill="#FFFFFF" d="M412.2,415.3c18.2,18.2,28.2,42.1,28.2,67.4c0,25.3-10,49.2-28.2,67.4c-18.2,18.2-42.1,28.2-67.4,28.2
				c-25.3,0-49.2-10-67.4-28.2c-18.2-18.2-28.2-42.1-28.2-67.4c0-25.3,10-49.2,28.2-67.4c18.2-18.2,42.1-28.2,67.4-28.2
				C370.1,387.1,394,397.1,412.2,415.3z M404.9,542.9c16-16,24.7-37.3,24.7-60.1c-0.6-22.7-9.7-44.1-25.7-60.1
				C388,406.8,367,398,344.8,398c-22.8,0-44.1,8.8-60.1,24.7c-16,15.9-24.7,37.3-24.7,60.1c0,22.8,8.8,44.1,24.7,60.1
				c16,16,37.3,24.7,60.1,24.7C367.6,567.6,388.9,558.8,404.9,542.9z"/>
		</g>
		<g>
		</g>
	</g>
</g>
<g>
	<g>
		<path fill="#28e2fc" d="M632.5,430.6C632.7,431.8,632.7,431.8,632.5,430.6C632.7,431.8,632.7,431.8,632.5,430.6z"/>
	</g>
	<g>
		<path fill="#28e2fc" d="M614.1,188.7c-18.1-14.1-42.4-10.7-60.4,1.6c-17.9,13.5-24.5,28.8-18.3,46.7c6,16.8,23.4,35.4,43,60.4
			c4.3,5.1,8.2,10.7,11.9,16.2c4.1,6.1,11.2,9.5,18.5,9c3.8-0.2,7.8,0.2,12,0.7c11.7,1.5,22.4-7.1,23.3-18.9
			c0.9-11.2,1.2-22.9,1.1-34.9C644.7,230.9,633.2,201.6,614.1,188.7z"/>
	</g>
</g>
<g>
	<path fill="#ED9E6E" d="M559.5,416.6L559.5,416.6L559.5,416.6L559.5,416.6"/>
</g>
<g>
	<path fill="#ED9E6E" d="M857.7,342.9L857.7,342.9v-1.2C857.7,341.7,857.7,341.7,857.7,342.9"/>
</g>
<g>
	<path fill="#D7DBDD" d="M742.3,230.1c-12.3,3.7-20.9,16-17.2,28.2c3.7,12.3,16,20.9,28.2,17.2c12.3-3.7,20.9-16,17.2-28.2
		C768.1,235,754.6,227.6,742.3,230.1"/>
</g>
<g>
	<path fill="#D7DBDD" d="M712.9,363.8c-28.2,13.5-46.6,4.9-50.3-2.5c-1.2-2.5,0-4.9,2.5-6.1l69.9-35.6c2.5-1.2,4.9,0,6.1,2.5
		C744.8,329.4,741.1,350.3,712.9,363.8z"/>
</g>
<g>
	<path fill="#28e2fc" d="M797,214.7c-14.4-23.3-34.8-42.8-59.1-56.1c-24.9-13.7-52.1-20-78.8-18.3l-0.5-7
		c27.9-1.8,56.5,4.8,82.6,19.1c25.4,14,46.7,34.2,61.7,58.6L797,214.7z"/>
</g>
<g>
	<path fill="#D7DBDD" d="M637.4,284.8c-3.7-12.3-16-20.9-28.2-17.2c-12.3,3.7-20.9,16-17.2,28.2c3.7,12.3,16,20.9,28.2,17.2
		C632.5,310.5,641.1,297,637.4,284.8"/>
</g>
<g>
	<g id="XMLID_3_">
		<g>
			<path fill="#FFFFFF" d="M435.6,612.1c31.5,11.8,49,45.3,47.7,71l-6.1,81.8c0.6,3-0.1,5.9-1.9,8.2c-2.1,2.5-5.4,4-9,4H213.5
				c-6.8,0-12-5.1-12.1-11.9l-6.1-82.2c-1.3-29.1,20.1-60.9,47.7-70.9c30.9-11.1,63.3-16.8,96.3-16.8S404.7,600.9,435.6,612.1z
				 M479.8,682.8c1.2-24.6-16-56.5-45.4-67.5c-61.4-22.1-128.9-22.1-190.2,0c-27,9.8-46.6,40.5-45.4,67.5l6.1,82.2
				c0,4.9,3.7,8.6,8.6,8.6h252.8c4.9,0,8.5-3.7,7.4-8.6L479.8,682.8z"/>
			<path fill="#FFFFFF" d="M434.4,615.3c29.4,11,46.6,42.9,45.4,67.5l-6.1,82.2c1.1,4.9-2.5,8.6-7.4,8.6H213.5
				c-4.9,0-8.6-3.7-8.6-8.6l-6.1-82.2c-1.2-27,18.4-57.7,45.4-67.5C305.5,593.2,373,593.2,434.4,615.3z M476.4,682.5
				c1.1-22.5-15-53.4-43.1-63.9c-30.1-10.8-61.7-16.3-93.9-16.3s-63.8,5.5-93.9,16.4c-25.1,9-44.4,37.7-43.2,63.9l6.1,82.4
				c0,3,2.1,5.1,5.1,5.1h252.8c1.5,0,2.8-0.5,3.5-1.5c0.6-0.7,0.7-1.7,0.5-2.8l-0.1-0.5L476.4,682.5z"/>
			<path fill="#FFFFFF" d="M433.3,618.6c28.1,10.5,44.2,41.4,43.1,63.9l-6.2,82.8l0.1,0.5c0.2,1.1,0.1,2.1-0.5,2.8
				c-0.7,1-2,1.5-3.5,1.5H213.5c-3,0-5.1-2.1-5.1-5.1l-6.1-82.4c-1.2-26.2,18.1-54.9,43.2-63.9c30.1-10.9,61.7-16.4,93.9-16.4
				S403.2,607.8,433.3,618.6z"/>
		</g>
		<g>
		</g>
	</g>
</g>
<g>
	<path fill="#28e2fc" d="M405.3,462c-9.6-24-32-40.9-57.2-43.2l0.6-7c27.8,2.5,52.5,21.2,63.1,47.6L405.3,462z"/>
</g>
</symbol>



<symbol version="1.1" id="social_twitter" viewBox="0 0 56.5 45.9" >
	<title>social_twitter</title>
<path d="M56.5,5.4c-2.1,0.9-4.3,1.5-6.7,1.8c2.4-1.4,4.2-3.7,5.1-6.4c-2.2,1.3-4.7,2.3-7.4,2.8
	C45.5,1.4,42.5,0,39.1,0c-7.5,0-13,7-11.3,14.2C18.2,13.8,9.7,9.1,3.9,2.1c-3,5.2-1.6,12,3.6,15.5c-1.9-0.1-3.7-0.6-5.3-1.5
	C2.1,21.5,6,26.6,11.6,27.7c-1.6,0.4-3.4,0.5-5.2,0.2c1.5,4.6,5.8,8,10.8,8.1c-4.9,3.8-11,5.5-17.2,4.8c5.1,3.3,11.2,5.2,17.8,5.2
	c21.5,0,33.7-18.2,33-34.5C53,9.8,55,7.8,56.5,5.4L56.5,5.4z"/>
</symbol>

<symbol version="1.1" id="social_linkedin" width="24" height="24" viewBox="0 0 24 24" >
	<title>social_linkedin</title>
<path d="M0 0v24h24v-24h-24zm8 19h-3v-11h3v11zm-1.5-12.268c-.966 0-1.75-.79-1.75-1.764s.784-1.764 1.75-1.764 1.75.79 1.75 1.764-.783 1.764-1.75 1.764zm13.5 12.268h-3v-5.604c0-3.368-4-3.113-4 0v5.604h-3v-11h3v1.765c1.397-2.586 7-2.777 7 2.476v6.759z"/></symbol>



<symbol id="pattern_blue_bg_detail1" viewBox="0 0 272.2 160.5">
	<title>pattern_blue_bg_detail1</title>
<path fill-rule="evenodd" clip-rule="evenodd" fill="#ffc171" d="M261.1,114.5C208,142.3,151,167.1,52.9,159
	C-161.8,32.6,352.8-102.1,261.1,114.5z"/>
</symbol>


<symbol id="pattern_blue_bg" viewBox="0 0 701.8 414.6">
	<title>pattern_blue_bg</title>
<g>
	<path fill="#28e2fc" d="M282.4,6.3c5.7,1,6.6,8.1,9.1,13c-4.8-0.1-5.1,5.4-11.7,3.3C276.4,16.7,277.5,9.6,282.4,6.3z"/>
	<path fill="#28e2fc" d="M283.7-73.2c0.9,0,1.7,0,2.6,0C286.2-71.7,284-71.2,283.7-73.2z"/>
	<path fill="#28e2fc" d="M285,105.3c1.4-7.4,2.6-5.3,6.6-9.7c0.3,6.8,6.4,9.7,1.3,14.7C287.7,111.6,288.1,106.2,285,105.3z"/>
	<path fill="#28e2fc" d="M292.8,188.1c5.1-0.4,3.3,7.8,7.8,8.1c-1.7,3.3-4.3,5.6-7.8,6.6C286.4,199.7,287,191.4,292.8,188.1z"/>
	<path fill="#28e2fc" d="M295.4,780.7C294.8,781.3,296.2,779.6,295.4,780.7L295.4,780.7z"/>
	<path fill="#28e2fc" d="M297.9,305c-0.1-9.3-1.6-20.2,6.6-19.5c0.1,8.5,5.8,10,6.6,17.8C307.3,307.9,302.6,309.1,297.9,305z"/>
	<path fill="#28e2fc" d="M304.5,473.8c3.8,2.3,4.4-1.3,7.8,1.6c-1.4,7.1,0,5.3,1.3,11.4c1.6-0.7,2.7-2.1,2.6-4.8
		C327.4,505,288.2,504.3,304.5,473.8z"/>
	<path fill="#28e2fc" d="M303.2,373.2c6.4-1.6,7.7,3.3,11.7,4.8c-3.6,5.3,1.4,10.3,3.8,13C311.6,408.4,294.2,385.2,303.2,373.2z"/>
	<path fill="#28e2fc" d="M305.8,620c0.3-8.3,2.1-14.7,7.8-16.2c6.6,0.6,4.8,11.3,6.6,17.8C315.5,625.7,308.8,625.7,305.8,620z"/>
	<path fill="#28e2fc" d="M310.9,899.1c-5-9.3-7.1-34.3,3.8-34.1C324.1,865.4,330.7,899.7,310.9,899.1z"/>
	<path fill="#28e2fc" d="M313.6,766.1c1,0.3,1.3,1.6,2.6,1.6c10.4,6.3,10.5,32.2-1.3,30.8C305.5,797.5,303.2,771.8,313.6,766.1z"/>
	<path fill="#28e2fc" d="M309.6,678.4c16.8-6.1,18.1,30.6,6.6,30.8C306.5,709.5,304.1,691.2,309.6,678.4z"/>
	<path fill="#28e2fc" d="M314.9,478.6C314.3,479.4,315.7,477.7,314.9,478.6L314.9,478.6z"/>
	<path fill="#28e2fc" d="M320,389.4c-1.6-0.3-1.1-3-1.3-4.8C320.3,384.9,319.9,387.5,320,389.4z"/>
	<path fill="#28e2fc" d="M359.1,228.7c4.4,4.1,2.1,16.8,9.1,17.8c-2.8,8.8-1.7,22.7-14.2,19.5C348.5,257.1,347.1,229.9,359.1,228.7z
		"/>
	<path fill="#28e2fc" d="M356.5-65.1c9.1,0.6,10,11.3,13,19.5c-2.7-0.7-2.4,2.3-2.6,4.8c-3,0-6.1,0-9.1,0
		C353.8-46.3,349.9-60,356.5-65.1z"/>
	<path fill="#28e2fc" d="M368.2,926.8c-3.4,0-7,0-10.4,0c-4.1-4.6-2.7-17.7,5.1-19.5C367.5,910,367.3,921.9,368.2,926.8z"/>
	<path fill="#28e2fc" d="M360.3,12.8c1.7,0,3.4,0,5.1,0c5.3,7.4,5.6,21.1,10.4,29.2c-2,5-5.7,8-13,6.6
		C358.2,41.3,352.6,21,360.3,12.8z"/>
	<path fill="#28e2fc" d="M374.6,793.7c8.4,11,4.7,46.3-7.8,43.9C353.5,834.9,361.5,795,374.6,793.7z M369.5,805.1
		C370.3,804,368.9,805.7,369.5,805.1L369.5,805.1z"/>
	<path fill="#28e2fc" d="M369.5,129.7c2.1,4.8,2.8,11.5,6.6,14.7C367.5,167.6,350.1,132.5,369.5,129.7z"/>
	<path fill="#28e2fc" d="M368.2,693c2.6,0,5.1,0,7.8,0c2.3,7.3-1.6,13.1,3.8,14.7C377.2,735.8,356.1,708.5,368.2,693z"/>
	<path fill="#28e2fc" d="M366.9,584.2c2-0.1,5,0.7,5.1-1.6c5.6,5.8,2.6,12.7,6.6,21.1C368.9,617.4,358.9,596.2,366.9,584.2z"/>
	<path fill="#28e2fc" d="M366.9,676.7C366.3,677.4,367.7,675.7,366.9,676.7L366.9,676.7z"/>
	<path fill="#28e2fc" d="M366.9,381.3c3.7-1.9,6.7-1.9,10.4,0c0.1,5.8-1,13.3,2.6,14.7C374.9,413.5,359.8,398,366.9,381.3z"/>
	<path fill="#28e2fc" d="M378.6,483.6c-1,8.7,1.4,13.4,5.1,16.2C375,536.1,353.6,476.2,378.6,483.6z"/>
	<path fill="#28e2fc" d="M374.6,30.7c2.3,0.4,3,2.8,2.6,6.6C375,36.8,374.3,34.4,374.6,30.7z"/>
	<path fill="#28e2fc" d="M379.9,275.7c-1.6-0.4-1.3-3.3,0-3.3C381.7,273.3,379.7,274,379.9,275.7z"/>
	<path fill="#28e2fc" d="M382.4,494.9c-0.4-0.3-2.4-3.6-1.3-4.8C382,488.9,384.7,496.5,382.4,494.9z"/>
	<path fill="#28e2fc" d="M424,204.4c11.3,4.6,4.7,27.5-6.6,21.1C413.5,216.5,418.8,206.9,424,204.4z M426.6,217.3
		C427.4,216.3,426.2,218,426.6,217.3L426.6,217.3z M426.6,214C427.4,213,426.2,214.8,426.6,214L426.6,214z"/>
	<path fill="#28e2fc" d="M417.5,33.9c3.7-0.3,5.4-3,9.1-3.3c7.1,5.7,6.3,21.7-1.3,25.9C414.3,56.9,416.6,45.3,417.5,33.9z"/>
	<path fill="#28e2fc" d="M430.6-65.1c11.7,7.6,1.4,36.9-10.4,24.4C422-50.8,421.3-64.2,430.6-65.1z"/>
	<path fill="#28e2fc" d="M421.5,141.1c0.1-7.6-0.6-15.8,1.3-21.1c5.4,0.4,5.1-2.1,9.1,0C438.6,128.8,432,148.4,421.5,141.1z"/>
	<path fill="#28e2fc" d="M429.3,308.2c12.4,2,7.6,29.8-5.1,21.1C421.2,317.2,426.6,316.8,429.3,308.2z"/>
	<path fill="#28e2fc" d="M433.1,598.9c3-0.4,3-4.4,0-4.8c0.3-1.3,1.1-1.9,2.6-1.6c0.9,2.4,1.6-0.1,0,0c-2.4-3.1,0.7-3,0-8.1
		c1.7,0,3.4,0,5.1,0c3.4,8.3,3.7,20.1-3.8,22.8c-1.3-3.3-6.7-1.4-6.6-6.6C431.6,600.1,433.1,600.5,433.1,598.9z M438.3,595.6
		c0.3,1.3,0,3.1,1.3,3.3C439.4,597.6,439.6,595.6,438.3,595.6z"/>
	<path fill="#28e2fc" d="M431.9,595.6C430.3,595.8,431,593.2,431.9,595.6L431.9,595.6z"/>
	<path fill="#28e2fc" d="M439.7,399.1c-0.1,2.1-1.7,2.3-1.3,4.8c-6,0.9-7.1-4.1-7.8-9.7c6.3,5.1,1.1-5.1,6.6-4.8
		C437,393.7,436.3,399,439.7,399.1z"/>
	<path fill="#28e2fc" d="M431.9,681.7c-1-5.7,2-6.3,1.3-11.4c9,1.1,0.9-2.8,3.8-6.6c4.4,2,6.1,7.6,5.1,16.2
		C437.4,678.8,436.7,682.8,431.9,681.7z M438.3,671.9c0.3,1.3,0,3.1,1.3,3.3C439.4,673.9,439.6,672,438.3,671.9z"/>
	<path fill="#28e2fc" d="M433.1,598.9c-1-0.4-1.6-1.4-1.3-3.3C432.9,595.9,433.3,596.9,433.1,598.9z"/>
	<path fill="#28e2fc" d="M437,905.7c0.1-4.1,1.9-6.3,5.1-6.6c-4.7-5.8,3-4.8,1.3-13c7.3-0.4,7.6,7.8,7.8,16.2
		C445.1,907.8,443.3,908.8,437,905.7z"/>
	<path fill="#28e2fc" d="M437,832.6c-0.7-5.3,0.9-7.6,1.3-11.4c4,0.3,2.1,2.6,7.8,3.3c-1.9-2.6-4.6-4-3.8-9.7
		c6.4,2.4,6.1,9.8,6.6,16.2c-3.4-1-4.7,0.7-3.8,4.8C441.8,835.3,439.4,833.9,437,832.6z"/>
	<path fill="#28e2fc" d="M443.6,524.1c0,1.6,0,3.3,0,4.8c1-0.3,1.3-1.6,2.6-1.6C446.7,524.7,445.1,524.4,443.6,524.1
		c0.9-2.1,2.8-3,5.1-3.3c-0.4,9.1,0.1,13-6.6,16.2c-2.4-0.3-4.3-1-5.1-3.3c1.3-3.3,2.6-6.6,3.8-9.7
		C441.8,524.1,442.7,524.1,443.6,524.1z"/>
	<path fill="#28e2fc" d="M444.8,748.2c8.4,5.6,6.1,16.5,1.3,24.4C435.3,770.6,441,754.2,444.8,748.2z"/>
	<path fill="#28e2fc" d="M439.7,399.1c0.1-2,0.4-3.8,2.6-3.3c0,1.1,0,2.1,0,3.3C441.4,399.1,440.6,399.1,439.7,399.1z"/>
	<path fill="#28e2fc" d="M442.3,521C437.1,519.1,447.4,519.1,442.3,521L442.3,521z"/>
	<path fill="#28e2fc" d="M442.3,392.7C441.7,393.3,443.1,391.6,442.3,392.7L442.3,392.7z"/>
	<path fill="#28e2fc" d="M444.8,460.8c0.4,0,0.9,0,1.3,0C445.8,459,444.8,460,444.8,460.8c-0.9,0-1.7,0-2.6,0
		c-0.7-8,3.3-0.9,3.8-8.1c2,0,2.8,12-1.3,9.7C444.8,462,444.8,461.4,444.8,460.8z"/>
	<path fill="#28e2fc" d="M474.8,14.4c4-2.3,4.7,0.7,10.4,0C499,43.2,458.8,46.5,474.8,14.4z M478.6,24.1
		C479.5,23.1,478,24.8,478.6,24.1L478.6,24.1z M481.3,17.7c-1.3,0-1.6,2.8,0,3.3C481.2,19.1,483.2,18.4,481.3,17.7z"/>
	<path fill="#28e2fc" d="M474.8-63.5c7.4,1.3,4.8,6.1,11.7,1.6c2.7,8.5-0.7,14-3.8,19.5C469.6-40.4,469.6-54.8,474.8-63.5z
		 M482.6-55.4C483.4-56.4,482-54.7,482.6-55.4L482.6-55.4z"/>
	<path fill="#28e2fc" d="M478.6,196.2c13.8-9.3,24.1,26.2,9.1,34.1C478.2,227.3,477.6,207.6,478.6,196.2z"/>
	<path fill="#28e2fc" d="M489,116.7c-1.3,0-2.6,0-3.8,0c-0.1,4.6,3.1,4.7,6.6,4.8c-1.9,5.3-4.7,9.4-10.4,9.7
		c-3-2.8-4.3-7.6-3.8-14.7C481.3,117.9,489.3,110.3,489,116.7z M486.4,123.1C487.3,122.1,485.9,123.8,486.4,123.1L486.4,123.1z"/>
	<path fill="#28e2fc" d="M500.7,392.7c3.3,6.3,6.1,12.8,5.1,24.4C491.1,442.2,475.5,381.9,500.7,392.7z"/>
	<path fill="#28e2fc" d="M491.7,296.8c16.1-0.1,16.5,31.6,5.1,30.8C488.7,327.2,481,305.4,491.7,296.8z"/>
	<path fill="#28e2fc" d="M489,116.7C490.6,116.6,489.9,119,489,116.7L489,116.7z"/>
	<path fill="#28e2fc" d="M511.1,545.3c-5.4,2.7-9.4,6.1-14.2,1.6c-4.7-14.1-5.8-36.5,6.6-34.1C510.7,514.3,514.1,532.1,511.1,545.3z
		"/>
	<path fill="#28e2fc" d="M504.7,785.6c14.4,2,13.1,37-1.3,37.3c-0.4-3.3-3.4-3.3-5.1-4.8c1-14.5-6-25.1,1.3-34.1
		C502.7,781.7,502.5,791.4,504.7,785.6z"/>
	<path fill="#28e2fc" d="M513.8,720.6c0-0.6,0-1.1,0-1.6C512.2,719.3,513.1,720.6,513.8,720.6c0,2.1,0,4.3,0,6.6
		c-13.4,12.8-20.5-21.9-3.8-21.1c3.7,2.4,4.6,8.4,5.1,14.7C514.7,720.6,514.2,720.6,513.8,720.6z M508.5,710.9
		C509.4,709.8,508,711.5,508.5,710.9L508.5,710.9z M509.8,720.6c0.3,1.3,0,3.1,1.3,3.3C510.8,722.6,511.1,720.6,509.8,720.6z"/>
	<path fill="#28e2fc" d="M512.5,639.4c0-0.6,0-1.1,0-1.6C510.9,638.1,511.7,639.4,512.5,639.4c-9,15-17.8-16.1-10.4-27.6
		C512.4,607.5,523.3,632.7,512.5,639.4z M509.8,620c-1.3,0-1.6,2.8,0,3.3C509.7,621.4,511.8,620.7,509.8,620z"/>
	<path fill="#28e2fc" d="M504.7,785.6C500.7,785.1,505.8,778.7,504.7,785.6L504.7,785.6z"/>
	<path fill="#28e2fc" d="M507.2,879.8c5.4,2.3,10.5-4.8,13,13C514.9,908.4,498.6,894,507.2,879.8z M515.1,886.2
		C515.9,885.2,514.5,886.9,515.1,886.2L515.1,886.2z"/>
	<path fill="#28e2fc" d="M515.1,680C514.5,680.7,515.9,679,515.1,680L515.1,680z"/>
	<path fill="#28e2fc" d="M563.1-42.4c0.3,1.3,1.1,1.9,2.6,1.6c-3.6,6.7-13.7,9-18.2,1.6c2.1-7.4-0.4-10.4,0-19.5
		c4.4-2.8,5.8,2.1,10.4,3.3C559.3-50.6,559-43.6,563.1-42.4z"/>
	<path fill="#28e2fc" d="M554,11.1c7.1,0.9,6.4,11.4,7.8,19.5c1.7,4,4-3,5.1,1.6c-0.6,5.6-3.6,2-1.3,8.1
		C550.3,56.9,547.1,25.4,554,11.1z"/>
	<path fill="#28e2fc" d="M554,113.4c5.6-2,6.6-0.1,10.4,3.3c-0.6,6-0.6,9.1-2.6,16.2C552,131.4,554.1,119.9,554,113.4z"/>
	<path fill="#28e2fc" d="M559.3,219c3.4-0.6,3.6-5.3,9.1-3.3c3.7,6.6-0.1,12.3,5.1,16.2C567.4,248.8,555.4,233.4,559.3,219z"/>
	<path fill="#28e2fc" d="M564.4,25.8C564,26.5,565.2,24.7,564.4,25.8L564.4,25.8z"/>
	<path fill="#28e2fc" d="M563.1-42.4C561.7-50,569.2-40.6,563.1-42.4L563.1-42.4z"/>
	<path fill="#28e2fc" d="M569.7,852.1c19.9-7.8,18.7,32.9,5.1,32.5C564,884.2,565.5,863.8,569.7,852.1z"/>
	<path fill="#28e2fc" d="M570.9,777.5c5.4,0.4,6.1-2.7,10.4,0c1.1,6.3,1.7,13,1.3,21.1c-4.3-2.7-4.7,5.7-9.1,4.8
		C564.7,801.8,565.2,786.4,570.9,777.5z M570.9,792C571.8,791,570.4,792.7,570.9,792L570.9,792z"/>
	<path fill="#28e2fc" d="M569.7,683.3c19.1-9.7,18.2,28.2,5.1,27.6C564.4,710.3,567.5,695.5,569.7,683.3z"/>
	<path fill="#28e2fc" d="M568.4,126.4C567.8,127.1,569.2,125.4,568.4,126.4L568.4,126.4z"/>
	<path fill="#28e2fc" d="M587.9,628.1c-5.6-2.8-6.7,4.8-7.8,4.8c-10.5-0.3-10.7-26.4,0-27.6C587.5,604.5,591,612.2,587.9,628.1z
		 M581.3,621.6C582.2,620.6,580.8,622.3,581.3,621.6L581.3,621.6z"/>
	<path fill="#28e2fc" d="M586.6,344c0.1,4.1,0.7,7.7,2.6,9.7c-10.1,21.5-22.5-17-9.1-21.1C584,334.2,583.2,341.6,586.6,344z"/>
	<path fill="#28e2fc" d="M581.3,439.7c6.7,1.4,8.1,9.4,13,13c-0.1,5.8-2,9.4-2.6,14.7c-3.8,0.1-4.6,4-11.7,3.3
		C574.2,465,576.2,445.6,581.3,439.7z"/>
	<path fill="#28e2fc" d="M581.3,519.3c8.7,4.3,14.7,12,13,29.2c-4.4,0.9-5.7,5.8-11.7,4.8c-0.6-2-1.7-3.3-3.8-3.3
		C578.5,538.1,577.4,528.7,581.3,519.3z M583.9,537.2C589,535.2,578.8,535.2,583.9,537.2L583.9,537.2z"/>
	<path fill="#28e2fc" d="M586.6,344c0-1.6,0-3.3,0-4.8c1.7,1,2.4,3.4,2.6,6.6C587.9,345.6,587.6,344.3,586.6,344z"/>
	<path fill="#28e2fc" d="M590.5,350.4C589.9,351.1,591.3,349.4,590.5,350.4L590.5,350.4z"/>
	<path fill="#28e2fc" d="M622.9,207.6c-1.6-0.4-1.3-3.3,0-3.3C624.8,205.1,622.8,205.8,622.9,207.6z"/>
	<path fill="#28e2fc" d="M634.6,409c9.7,1.4,8.8,11,11.7,17.8C637.1,453,618.1,422.4,634.6,409z"/>
	<path fill="#28e2fc" d="M641.2,298.5c13.1,3,12.7,22.9,2.6,30.8C624.5,332.5,634.2,303.7,641.2,298.5z"/>
	<path fill="#28e2fc" d="M642.5,850.5c2.6-0.6,4.4,11.7,5.1,3.3c1.9,2.6,3.7,5.1,5.1,8.1c-1.4,8-3.8,14.7-9.1,17.8
		C632.1,877.5,635.8,856.1,642.5,850.5z M648.9,866.7c-0.7-2.4,1.6-8.4-1.3-8.1C648.3,863.7,644.6,865.2,648.9,866.7z"/>
	<path fill="#28e2fc" d="M642.5,688.1c4.1-0.9,4.6,3,9.1,1.6c1.6,4.6,1.4,11.3,1.3,17.8C639.9,724,630.4,699.8,642.5,688.1z"/>
	<path fill="#28e2fc" d="M655.4,519.3c0.1,2.8-0.3,5-1.3,6.6c-3.6-1.1-2.6,3.3-5.1,3.3c-6.8-2.8-9.5-10.8-10.4-21.1
		c3.8-6.4,10.7-1.4,15.5,0C653.4,511.4,651,518.4,655.4,519.3z"/>
	<path fill="#28e2fc" d="M650.3,184.8c9.7,5.8,5.4,32.5-6.6,25.9c-8.1-6-7.6-26.4,1.3-27.6C648.6,182.8,648.2,191.5,650.3,184.8z
		 M650.3,191.4c0.1,1.9-0.3,4.6,1.3,4.8C651.3,194.4,651.7,191.7,650.3,191.4z"/>
	<path fill="#28e2fc" d="M641.2,77.7c10.4-3.7,23.7,17.2,11.7,30.8c-4.7,0.6-8.4-0.3-11.7-1.6C638.9,96.1,636.9,87.5,641.2,77.7z"/>
	<path fill="#28e2fc" d="M648.9,775.7c2.7,6.7-3,13.7,5.1,13c-1,4.7-3.1,8-5.1,11.4C636.3,801.5,637.6,775.2,648.9,775.7z"/>
	<path fill="#28e2fc" d="M641.2,926.8c-1-7.8,2.4-10,6.6-11.4c1.6,8,8.5-0.7,7.8,9.7c-2.4,0.7-5.6-5-5.3,1.6
		C647.2,926.8,644.2,926.8,641.2,926.8z"/>
	<path fill="#28e2fc" d="M652.9,602c3.7,2.8,2.4,12.1,5.1,16.2c-1.7,1.6-4.8,1.6-5.1,4.8C641.5,623.4,642,602.9,652.9,602z"/>
	<path fill="#28e2fc" d="M654.2,525.8C655.7,525.7,655,528.1,654.2,525.8L654.2,525.8z"/>
	<path fill="#28e2fc" d="M656.7,926.8c-0.4,0-0.9,0-1.3,0c0-0.6,0-1.1,0-1.6C656.3,925.2,657,925.4,656.7,926.8z"/>
	<path fill="#28e2fc" d="M655.4,519.3C655.3,517.4,657.3,518.3,655.4,519.3L655.4,519.3z"/>
	<path fill="#28e2fc" d="M656.7,512.8C656.1,513.6,657.6,511.7,656.7,512.8L656.7,512.8z"/>
	<path fill="#28e2fc" d="M658,605.3C657.6,606,658.9,604.3,658,605.3L658,605.3z"/>
	<path fill="#28e2fc" d="M658,524.1C657.6,524.8,658.9,523.1,658,524.1L658,524.1z"/>
	<path fill="#28e2fc" d="M659.3,613.4c-1.3,0-1-2-1.3-3.3C659.3,610.3,659,612.2,659.3,613.4z"/>
	<path fill="#28e2fc" d="M715.3,205.9c0-2.7-1-4.3-2.6-4.8C712.6,203.9,713.6,205.4,715.3,205.9c0,1.1,0,2.1,0,3.3
		c-9.8,6.3-12.8-7-14.2-16.2c5.4-12,20.4-8.7,19.5,9.7C717.8,202.8,718.8,207.2,715.3,205.9z M717.8,201.1c-0.6-3.1-0.4-7-3.8-6.6
		C713.7,198.7,716,199.7,717.8,201.1z"/>
	<path fill="#28e2fc" d="M716.6,4.7c-1.6,0.3-1.1,3-1.3,4.8C716.7,9.3,716.3,6.6,716.6,4.7c9.7,8.5,6.6,35.5-7.8,29.2
		c-4.7-13.4-8.4-27.2-3.8-40.6C710.9-5.7,712.4,1.2,716.6,4.7z M717.8,14.4C718.7,13.4,717.3,15.1,717.8,14.4L717.8,14.4z"/>
	
</g>
</symbol>


<symbol id="test-bg-svg-shapes" viewBox="0 5.1 145 112.9">
<path opacity="0.66" fill="#FFC171" enable-background="new    " d="M26.3,101.6c2.1-12.3,16.6-12.8,27.3-7.3
	c0.7,0.2,1.5,0.5,2.3,0.8c3.8,1.3,7.9,2.6,11.1,0.7c2.6-1.3,4.4-3.1,5.4-5.4c0.4-0.8,0.6-1.5,0.9-2.4c5.2-12.6-6.4-30-21.5-29.1
	c-1,0-2.1,0.1-3.1,0.3c-3,0.5-5.8,1.7-8.2,3.6c-0.9,0.6-1.8,1.3-2.7,2.1c-3.5,3.2-6.5,7.5-9.2,11.8c-0.5,0.9-1.1,1.8-1.6,2.6
	c-1.4,1.9-4,1.5-6,1.4c-0.8,0-1.6,0-2.3,0.2c-0.9,0.2-1.8,0.4-2.7,0.7c-0.7,0.2-1.5,0.5-2.2,0.8C7.3,85,4.5,93.4,7.3,100.1
	c1,2.9,3.9,4.7,7.2,5.8c0.9,0.3,1.8,0.5,2.7,0.7c0.9,0.1,1.9,0.2,2.8,0.1c1.1-0.1,2.3-0.3,3.4-0.8c0.6-0.4,1.2-1,1.7-1.7
	C25.5,103.5,25.9,102.6,26.3,101.6z"/>
<path opacity="0.66" fill="#FFC171" enable-background="new    " d="M68.1,36c2.5,11.8,13,19,23.6,16.1
	c10.6-2.9,17.2-14.8,14.7-26.5c-2.5-11.8-13-19-23.6-16.1C72.2,12.3,65.6,24.2,68.1,36z"/>
<path opacity="0.54" fill="#FFC171" enable-background="new    " d="M124,113c-11.7-1.2-30.9-29.9-29.7-41.7
	c1.2-11.7,16.4-17.1,28.1-15.9c11.7,1.2,19.4,15,18.1,28C139.4,95.3,135.8,114.2,124,113z"/>
<path opacity="0.54" fill="#FFC171" enable-background="new    " d="M44.3,49.1l-13,5.1C25.7,56.4,19.2,53.6,17,48l-5.1-13.1
	c-2.2-5.6,0.6-12.1,6.2-14.3l13-5.1c5.6-2.2,12.1,0.6,14.3,6.2l5.1,13C52.8,40.4,50,46.9,44.3,49.1z"/>
</symbol>




</defs>
</svg>
