<svg style="position: absolute; width: 0; height: 0; overflow: hidden;" version="1.1" xmlns="http://www.w3.org/2000/svg" xmlns:xlink="http://www.w3.org/1999/xlink">
<defs>
<symbol id="svgicon-meka_logo_app" viewBox="0 0 66 32">
<title>meka_logo_app</title>
<path fill="#fff" style="fill: var(--color1, #fff)" d="M66.33 7.526c0 1.184-0.96 2.144-2.144 2.144s-2.144-0.96-2.144-2.144c0-1.184 0.96-2.144 2.144-2.144s2.144 0.96 2.144 2.144z"></path>
<path fill="#fff" style="fill: var(--color1, #fff)" d="M0.412 10.577h3.32v1.34c0.639-0.68 1.196-1.134 1.649-1.361 0.474-0.247 1.093-0.371 1.814-0.371 1.629 0 2.907 0.701 3.856 2.124 1.052-1.423 2.454-2.124 4.247-2.124 3.237 0 4.866 1.959 4.866 5.897v8.907h-3.32v-8c0-1.381-0.165-2.351-0.495-2.928-0.351-0.577-0.907-0.866-1.711-0.866-0.907 0-1.588 0.351-2 1.031s-0.619 1.794-0.619 3.32v7.443h-3.361v-7.959c0-2.557-0.742-3.856-2.227-3.856-0.928 0-1.629 0.351-2.041 1.052-0.433 0.701-0.639 1.814-0.639 3.32v7.443h-3.34v-14.412z"></path>
<path fill="#fff" style="fill: var(--color1, #fff)" d="M35.175 18.557h-10.33c0.082 1.175 0.474 2.124 1.155 2.825 0.68 0.68 1.546 1.031 2.619 1.031 0.825 0 1.505-0.206 2.062-0.598 0.536-0.392 1.134-1.134 1.814-2.186l2.804 1.567c-0.433 0.742-0.887 1.381-1.381 1.897-0.474 0.536-1.010 0.969-1.546 1.299-0.557 0.33-1.155 0.598-1.794 0.742-0.639 0.165-1.34 0.227-2.082 0.227-2.144 0-3.876-0.68-5.175-2.062s-1.959-3.237-1.959-5.526c0-2.268 0.639-4.124 1.897-5.526 1.278-1.381 2.948-2.082 5.052-2.082 2.124 0 3.794 0.68 5.031 2.021 1.216 1.34 1.835 3.196 1.835 5.567v0.804zM31.753 15.835c-0.454-1.773-1.588-2.66-3.361-2.66-0.412 0-0.784 0.062-1.134 0.186s-0.68 0.309-0.969 0.536c-0.289 0.227-0.536 0.515-0.742 0.845s-0.371 0.701-0.474 1.113h6.68z"></path>
<path fill="#fff" style="fill: var(--color1, #fff)" d="M39.814 0v15.237l4.68-4.66h4.474l-6.247 6.041 6.722 8.351h-4.309l-4.763-6.082-0.536 0.536v5.546h-3.32v-24.969h3.299z"></path>
<path fill="#fff" style="fill: var(--color1, #fff)" d="M60.948 20.247h-8.371l-2.186 4.742h-3.175l9.67-20.763 9.32 20.763h-3.216l-2.041-4.742zM59.732 17.464l-2.887-6.639-3.031 6.639h5.918z"></path>
<path fill="#fff" style="fill: var(--color1, #fff)" d="M60.845 19.876c0 0.957-1.846 1.732-4.124 1.732s-4.124-0.775-4.124-1.732c0-0.957 1.846-1.732 4.124-1.732s4.124 0.775 4.124 1.732z"></path>
<path fill="#fff" style="fill: var(--color1, #fff)" d="M51.608 7.443c0 1.184-0.96 2.144-2.144 2.144s-2.144-0.96-2.144-2.144c0-1.184 0.96-2.144 2.144-2.144s2.144 0.96 2.144 2.144z"></path>
<path fill="#fff" style="fill: var(--color1, #fff)" d="M2.598 28.66v0.577c-0.289-0.247-0.577-0.351-0.887-0.351-0.33 0-0.619 0.124-0.845 0.371s-0.351 0.536-0.351 0.887c0 0.351 0.124 0.639 0.351 0.866s0.515 0.351 0.845 0.351c0.165 0 0.33-0.021 0.454-0.082 0.062-0.021 0.144-0.062 0.206-0.124 0.082-0.041 0.144-0.103 0.227-0.165v0.598c-0.289 0.165-0.577 0.247-0.887 0.247-0.474 0-0.866-0.165-1.196-0.495s-0.495-0.722-0.495-1.196c0-0.412 0.144-0.784 0.412-1.113 0.33-0.392 0.784-0.598 1.32-0.598 0.268-0.021 0.557 0.062 0.845 0.227z"></path>
<path fill="#fff" style="fill: var(--color1, #fff)" d="M4.68 30.371l1.010 1.402h-0.598l-0.928-1.34h-0.082v1.34h-0.495v-3.278h0.577c0.433 0 0.742 0.082 0.948 0.247 0.206 0.186 0.309 0.412 0.309 0.722 0 0.227-0.062 0.433-0.206 0.598-0.144 0.144-0.33 0.247-0.536 0.309zM4.062 29.979h0.165c0.474 0 0.701-0.186 0.701-0.536 0-0.33-0.227-0.495-0.68-0.495h-0.186v1.031z"></path>
<path fill="#fff" style="fill: var(--color1, #fff)" d="M8.351 28.948h-1.32v0.784h1.278v0.474h-1.278v1.093h1.32v0.474h-1.814v-3.278h1.814v0.454z"></path>
<path fill="#fff" style="fill: var(--color1, #fff)" d="M11.278 30.969h-1.402l-0.371 0.804h-0.536l1.629-3.485 1.567 3.464h-0.536l-0.351-0.784zM11.072 30.495l-0.495-1.113-0.515 1.113h1.010z"></path>
<path fill="#fff" style="fill: var(--color1, #fff)" d="M13.649 28.948v2.804h-0.495v-2.825h-0.763v-0.474h2v0.474h-0.742z"></path>
<path fill="#fff" style="fill: var(--color1, #fff)" d="M15.67 28.474v3.278h-0.495v-3.278h0.495z"></path>
<path fill="#fff" style="fill: var(--color1, #fff)" d="M16.99 28.474l0.907 2.268 0.928-2.268h0.536l-1.464 3.526-1.443-3.526h0.536z"></path>
<path fill="#fff" style="fill: var(--color1, #fff)" d="M21.918 28.948h-1.32v0.784h1.278v0.474h-1.278v1.093h1.32v0.474h-1.814v-3.278h1.814v0.454z"></path>
<path fill="#fff" style="fill: var(--color1, #fff)" d="M24.619 31.753v-3.278h0.495c0.227 0 0.392 0.021 0.515 0.041 0.124 0.041 0.247 0.082 0.33 0.165s0.165 0.186 0.227 0.309c0.062 0.124 0.082 0.247 0.082 0.392 0 0.227-0.082 0.433-0.268 0.598 0.165 0.062 0.309 0.165 0.412 0.309s0.144 0.309 0.144 0.515c0 0.247-0.082 0.474-0.268 0.66-0.103 0.103-0.227 0.186-0.371 0.227s-0.33 0.062-0.557 0.062h-0.742zM25.113 29.897h0.165c0.186 0 0.309-0.041 0.412-0.124 0.082-0.082 0.124-0.206 0.124-0.351s-0.041-0.268-0.124-0.351c-0.082-0.082-0.206-0.124-0.392-0.124h-0.165v0.948zM25.113 31.299h0.309c0.227 0 0.392-0.041 0.495-0.124 0.103-0.103 0.165-0.206 0.165-0.371 0-0.144-0.062-0.268-0.165-0.351-0.103-0.103-0.289-0.144-0.557-0.144h-0.247v0.99z"></path>
<path fill="#fff" style="fill: var(--color1, #fff)" d="M27.34 30.103c0-0.454 0.165-0.866 0.515-1.196 0.33-0.33 0.742-0.495 1.216-0.495s0.866 0.165 1.196 0.495c0.33 0.33 0.495 0.742 0.495 1.196 0 0.474-0.165 0.866-0.515 1.196-0.33 0.33-0.742 0.495-1.216 0.495-0.433 0-0.804-0.144-1.134-0.433-0.371-0.309-0.557-0.722-0.557-1.258zM27.835 30.103c0 0.371 0.124 0.66 0.371 0.887s0.515 0.351 0.845 0.351c0.351 0 0.639-0.124 0.866-0.351 0.227-0.247 0.351-0.536 0.351-0.887s-0.124-0.639-0.351-0.887c-0.227-0.247-0.515-0.351-0.866-0.351s-0.639 0.124-0.866 0.351c-0.227 0.268-0.351 0.557-0.351 0.887z"></path>
<path fill="#fff" style="fill: var(--color1, #fff)" d="M32.536 28.948v2.804h-0.495v-2.825h-0.763v-0.474h2v0.474h-0.742z"></path>
</symbol>
<symbol id="svgicon-chef-hat" viewBox="0 0 32 32">
<title>chef-hat</title>
<path fill="none" stroke="#fff" stroke-width="1.3333" stroke-miterlimit="10" stroke-linecap="round" stroke-linejoin="round" d="M23.336 4c-0.8 0-1.549 0.2-2.205 0.555-0.633-2.243-3.357-3.888-5.8-3.888s-5.2 1.645-5.833 3.888c-0.656-0.355-1.409-0.555-2.203-0.555-2.579 0-4.669 2.089-4.669 4.667s2 4.667 4.667 4.667v17.917h16.039v-17.917c2.667 0 4.669-2.089 4.669-4.667s-2.088-4.667-4.664-4.667zM7.292 25.917h16.039M11.305 20.584v5.333M15.292 19.251v6.667M19.317 20.584v5.333"></path>
</symbol>
<symbol id="svgicon-drink-coffee" viewBox="0 0 32 32">
<title>drink-coffee</title>
<path fill="none" stroke="#fff" stroke-width="1.3333" stroke-miterlimit="10" stroke-linecap="round" stroke-linejoin="round" d="M24 31.333h-16l-1.333-21.333h18.667zM5.333 4.667h21.333v5.333h-21.333zM25.333 4.667h-18.667l1.333-4h16z"></path>
<path fill="none" stroke="#fff" stroke-width="1.3333" stroke-miterlimit="10" stroke-linecap="butt" stroke-linejoin="round" d="M7 15.333h18M7.5 23.333h17.028"></path>
<path fill="none" stroke="#fff" stroke-width="1.3333" stroke-miterlimit="10" stroke-linecap="round" stroke-linejoin="round" d="M12.667 19.333h6.667"></path>
</symbol>
<symbol id="svgicon-music-note" viewBox="0 0 32 32">
<title>music-note</title>
<path fill="none" stroke="#fff" stroke-width="1.3333" stroke-miterlimit="10" stroke-linecap="butt" stroke-linejoin="round" d="M12.667 27.333c0 2-1.791 4-4 4-2.208 0-4-1.791-4-4 0-2.208 1.792-4 4-4h4v4zM27.333 22c0 2-1.791 4-4 4-2.208 0-4-1.791-4-4 0-2.208 1.792-4 4-4h4v4zM12.667 24.667v-17.333l14.667-6v19.333M12.667 12l14.667-6"></path>
</symbol>
<symbol id="svgicon-notebook-2" viewBox="0 0 32 32">
<title>notebook-2</title>
<path fill="none" stroke="#fff" stroke-width="1.3333" stroke-miterlimit="10" stroke-linecap="round" stroke-linejoin="round" d="M27.333 24.667h-22.667v-13.333h22.667zM2 27.333v-16.667c0-1.104 0.896-2 2-2h24c1.104 0 2 0.896 2 2v16.667"></path>
<path fill="none" stroke="#fff" stroke-width="1.3333" stroke-miterlimit="10" stroke-linecap="round" stroke-linejoin="round" d="M19.333 27.333v1.333h-6.667v-1.333h-12v2.667c0 0.737 0.597 1.333 1.333 1.333h28c0.737 0 1.333-0.596 1.333-1.333v-2.667h-12z"></path>
</symbol>
<symbol id="svgicon-paint-palette" viewBox="0 0 32 32">
<title>paint-palette</title>
<path fill="none" stroke="#fff" stroke-width="1.3333" stroke-miterlimit="10" stroke-linecap="round" stroke-linejoin="round" d="M5.157 27.852c-5.988-5.987-5.988-15.697 0-21.685s15.696-5.987 21.685 0 5.988 15.697 0 21.685c-2.863 2.864-7.507 2.864-10.371 0l-5.656-5.656c-0.521-0.521-1.365-0.521-1.885 0-0.521 0.521-0.521 1.364 0 1.885 1.040 1.041 1.040 2.729 0 3.771-1.043 1.041-2.732 1.041-3.773 0z"></path>
<path fill="none" stroke="#fff" stroke-width="1.3333" stroke-miterlimit="10" stroke-linecap="round" stroke-linejoin="round" d="M23.655 10.411c0 1.104-0.895 1.999-1.999 1.999s-1.999-0.895-1.999-1.999c0-1.104 0.895-1.999 1.999-1.999s1.999 0.895 1.999 1.999z"></path>
<path fill="none" stroke="#fff" stroke-width="1.3333" stroke-miterlimit="10" stroke-linecap="round" stroke-linejoin="round" d="M26.667 17.008c0 0.736-0.597 1.333-1.333 1.333s-1.333-0.597-1.333-1.333c0-0.736 0.597-1.333 1.333-1.333s1.333 0.597 1.333 1.333z"></path>
<path fill="none" stroke="#fff" stroke-width="1.3333" stroke-miterlimit="10" stroke-linecap="round" stroke-linejoin="round" d="M24.323 23.609c0 1.473-1.194 2.667-2.667 2.667s-2.667-1.194-2.667-2.667c0-1.473 1.194-2.667 2.667-2.667s2.667 1.194 2.667 2.667z"></path>
<path fill="none" stroke="#fff" stroke-width="1.3333" stroke-miterlimit="10" stroke-linecap="round" stroke-linejoin="round" d="M15.641 8.995c0 1.104-0.895 1.999-1.999 1.999s-1.999-0.895-1.999-1.999c0-1.104 0.895-1.999 1.999-1.999s1.999 0.895 1.999 1.999z"></path>
</symbol>
</defs>
</svg>
