<svg xmlns="http://www.w3.org/2000/svg" viewBox="0 0 4000 2500" enable-background="new 0 0 4000 2500"><path d="M393 1465v-744.2h-70.3v-14.5h202.6v417.6h2.1c2.1-6.2 8.3-16.5 14.5-28.9s16.5-24.8 31-37.2c14.5-12.4 31-22.7 51.7-33.1 20.7-10.3 47.5-14.5 80.6-14.5 47.5 0 84.8 14.5 109.6 41.3 26.9 26.9 39.3 64.1 39.3 111.6v303.9h72.4v14.5h-270.9v-14.5h66.1v-341c0-31-6.2-51.7-18.6-66.1-12.4-14.5-28.9-20.7-49.6-20.7-16.5 0-33.1 4.1-49.6 12.4s-28.9 20.7-41.3 37.2c-12.4 16.5-20.7 37.2-28.9 62-6.2 24.8-10.3 53.7-10.3 86.8v229.5h68.2v14.5h-268.9v-14.5h70.3v-2.1zm977.8 24.8c-18.6 2.1-37.2 4.1-53.7 4.1-37.2 0-64.1-6.2-80.6-18.6-16.5-12.4-28.9-31-33.1-53.7h-2.1c-12.4 28.9-26.9 47.5-47.5 57.9-20.7 10.3-49.6 14.5-86.8 14.5-16.5 0-35.1-2.1-51.7-6.2-18.6-4.1-35.1-10.3-49.6-16.5-14.5-8.3-26.9-18.6-37.2-33.1-10.3-14.5-14.5-31-14.5-51.7s4.1-37.2 12.4-51.7 18.6-24.8 33.1-35.1c12.4-10.3 28.9-16.5 45.5-22.7 16.5-6.2 35.1-12.4 51.7-18.6 28.9-8.3 53.7-16.5 72.4-22.7 18.6-6.2 33.1-12.4 43.4-18.6 10.3-6.2 16.5-14.5 20.7-22.7 4.1-8.3 6.2-20.7 6.2-33.1v-66.3c0-18.6-4.1-37.2-14.5-51.7-10.3-16.5-26.9-22.7-51.7-22.7-16.5 0-31 4.1-43.4 10.3-12.4 8.3-18.6 20.7-18.6 41.3 0 2.1 0 6.2 2.1 10.3 0 6.2 2.1 10.3 2.1 18.6l2.1 18.6s2.1 10.3 2.1 12.4c0 10.3-2.1 18.6-8.3 24.8-4.1 6.2-10.3 10.3-18.6 14.5-6.2 2.1-14.5 4.1-20.7 4.1h-18.6c-6.2 0-14.5 0-22.7-2.1-8.3-2.1-14.5-4.1-20.7-8.3-6.2-4.1-10.3-10.3-14.5-16.5s-6.2-16.5-6.2-28.9c0-18.6 6.2-35.1 16.5-49.6s24.8-26.9 41.3-37.2c16.5-10.3 37.2-16.5 57.9-22.7 22.7-4.1 45.5-8.3 68.2-8.3 26.9 0 53.7 2.1 76.5 6.2 24.8 4.1 45.5 12.4 62 22.7 16.5 12.4 31 26.9 41.3 47.5 10.3 20.7 16.5 45.5 16.5 74.4v266.7c0 14.5 2.1 24.8 6.2 35.1s14.5 16.5 28.9 16.5c10.3 0 16.5-2.1 22.7-6.2 6.2-4.1 12.4-8.3 18.6-14.5l10.3 10.3c-10.3 18.9-24.7 27.1-45.4 29.2zm-175.7-274.9c-2.1 4.1-4.1 8.3-8.3 12.4s-10.3 8.3-20.7 12.4c-14.5 6.2-26.9 12.4-41.3 18.6-14.5 6.2-24.8 14.5-37.2 22.7-10.3 10.3-18.6 20.7-26.9 35.1-6.2 14.5-10.3 31-10.3 51.7 0 8.3 0 18.6 2.1 31s4.1 22.7 8.3 33.1c4.1 10.3 12.4 20.7 20.7 26.9 10.3 8.3 22.7 10.3 39.3 10.3 8.3 0 18.6-2.1 26.9-6.2 8.3-4.1 16.5-10.3 24.8-20.7 6.2-8.3 12.4-20.7 16.5-35.1s6.2-33.1 6.2-53.7v-142.6 4.1zm198.4-47.6c12.4-28.9 28.9-55.8 51.7-78.6 22.7-24.8 49.6-43.4 82.7-59.9s70.3-22.7 113.7-22.7c26.9 0 51.7 2.1 74.4 8.3 22.7 6.2 41.3 14.5 57.9 24.8 16.5 10.3 28.9 22.7 37.2 37.2 8.3 14.5 14.5 31 14.5 49.6 0 22.7-6.2 41.3-18.6 49.6-12.4 10.3-28.9 14.5-51.7 14.5-16.5 0-31-2.1-45.5-8.3s-20.7-18.6-20.7-37.2c0-2.1 0-8.3 2.1-14.5 2.1-6.2 4.1-14.5 6.2-22.7 2.1-8.3 4.1-14.5 6.2-22.7 2.1-6.2 2.1-12.4 2.1-14.5 0-14.5-6.2-24.8-18.6-33.1s-28.9-12.4-47.5-12.4c-24.8 0-45.5 6.2-62 18.6-14.5 12.4-26.9 28.9-35.1 49.6-8.3 20.7-14.5 43.4-16.5 70.3-2.1 26.9-4.1 55.8-4.1 84.8s2.1 55.8 4.1 84.8c2.1 28.9 8.3 53.7 16.5 76.5 10.3 22.7 22.7 41.3 41.3 55.8 18.6 14.5 41.3 20.7 72.4 20.7 28.9 0 53.7-6.2 74.4-16.5 20.7-10.3 37.2-22.7 47.5-37.2 12.4-14.5 20.7-28.9 26.9-41.3 6.2-14.5 10.3-24.8 10.3-31l14.5 6.2c-4.1 12.4-8.3 26.9-16.5 43.4-8.3 14.5-18.6 28.9-33.1 43.4-14.5 12.4-33.1 24.8-55.8 33.1-22.7 10.3-51.7 14.5-84.8 14.5-10.3 0-22.7 0-39.3-2.1-16.5-2.1-35.1-6.2-55.8-12.4s-39.3-14.5-59.9-24.8-39.3-24.8-55.8-43.4c-16.5-18.6-31-41.3-41.3-66.1-10.3-26.9-16.5-57.9-16.5-95.1 3.9-33.4 10.1-60.2 22.5-89.2zm554.1 93c0 24.8 2.1 51.7 4.1 78.6s8.3 49.6 16.5 70.3c10.3 20.7 22.7 39.3 41.3 51.7 18.6 14.5 43.4 20.7 74.4 20.7 28.9 0 53.7-6.2 72.4-16.5 20.7-10.3 35.1-22.7 47.5-37.2 12.4-14.5 22.7-26.9 28.9-41.3 6.2-14.5 10.3-22.7 10.3-31l14.5 6.2c-4.1 14.5-10.3 28.9-18.6 43.4s-20.7 28.9-35.1 43.4c-14.5 12.4-33.1 24.8-55.8 33.1-22.7 8.3-49.6 12.4-80.6 12.4-37.2 0-72.4-6.2-103.4-16.5s-59.9-26.9-84.8-47.5c-24.8-20.7-43.4-47.5-55.8-76.5-14.5-31-20.7-64.1-20.7-103.4 0-31 6.2-59.9 18.6-91 12.4-28.9 31-55.8 53.7-78.6 22.7-22.7 49.6-41.3 78.6-55.8 31-14.5 64.1-20.7 99.2-20.7 24.8 0 49.6 4.1 74.4 12.4s47.5 20.7 68.2 37.2 37.2 37.2 49.6 64.1 18.6 57.9 18.6 95.1h-316.3v47.4zm171.5-136.4c0-8.3 0-16.5-2.1-28.9 0-12.4-4.1-22.7-8.3-35.1-4.1-12.4-10.3-20.7-20.7-28.9-10.3-8.3-22.7-12.4-41.3-12.4-24.8 0-43.4 6.2-55.8 16.5-12.4 12.4-22.7 26.9-28.9 43.4-6.2 18.6-10.3 37.2-12.4 57.9-2.1 20.7-2.1 39.3-4.1 57.9h171.6v-70.3h2zm696.7 341.1v14.5h-200.5v-78.6h-2.1c-12.4 31-26.9 53.7-47.5 70.3-20.7 16.5-47.5 24.8-78.6 24.8-35.1 0-66.1-6.2-95.1-20.7-28.9-14.5-53.7-31-74.4-53.7-20.7-22.7-37.2-47.5-47.5-78.6-12.4-28.9-16.5-59.9-16.5-93 0-24.8 4.1-51.7 12.4-80.6s22.7-55.8 41.3-78.6c18.6-24.8 43.4-45.5 72.4-59.9 28.9-16.5 64.1-24.8 105.4-24.8 33.1 0 57.9 8.3 78.6 22.7s35.1 37.2 45.5 68.2h2.1v-376.2h-72.4v-14.5h204.7v760.7h72.4v-2zm-206.7-291.5c-2.1-26.9-8.3-51.7-16.5-74.4s-20.7-41.3-35.1-57.9-37.2-22.7-64.1-22.7c-18.6 0-33.1 4.1-45.5 12.4-12.4 8.3-22.7 20.7-31 39.3-8.3 18.6-14.5 41.3-16.5 72.4-4.1 28.9-4.1 66.1-4.1 109.6 0 35.1 0 66.1 2.1 95.1 2.1 28.9 6.2 51.7 12.4 72.4 6.2 20.7 14.5 35.1 26.9 45.5 12.4 10.3 26.9 16.5 47.5 16.5 31 0 53.7-8.3 70.3-22.7 16.5-14.5 28.9-35.1 37.2-57.9s14.5-47.5 16.5-74.4c2.1-26.9 2.1-51.7 2.1-74.4 1.9-25 1.9-49.8-2.2-78.8zm551.9-148.8c31 12.4 59.9 31 82.7 53.7 22.7 22.7 41.3 47.5 55.8 78.6 12.4 28.9 20.7 62 20.7 93 0 33.1-6.2 66.1-20.7 95.1-12.4 28.9-31 55.8-55.8 78.6-22.7 22.7-51.7 39.3-82.7 51.7s-66.1 18.6-103.4 18.6-72.4-6.2-103.4-18.6c-31-12.4-59.9-31-82.7-51.7-22.7-22.7-41.3-47.5-55.8-78.6-12.4-28.9-20.7-62-20.7-95.1s6.2-64.1 20.7-93c12.4-28.9 31-55.8 55.8-78.6 22.7-22.7 51.7-39.3 82.7-53.7 31-12.4 66.1-20.7 103.4-20.7s72.4 8.3 103.4 20.7zm-37.2 436.2c16.5-12.4 26.9-31 35.1-51.7 8.3-20.7 12.4-45.5 14.5-74.4 2.1-28.9 2.1-55.8 2.1-84.8s0-55.8-2.1-84.8c-2.1-26.9-6.2-51.7-14.5-74.4-8.3-20.7-18.6-39.3-35.1-51.7-16.5-12.4-37.2-20.7-66.1-20.7s-49.6 6.2-66.1 20.7c-16.5 12.4-26.9 31-35.1 51.7-8.3 20.7-12.4 45.5-14.5 74.4-2.1 26.9-2.1 55.8-2.1 84.8s0 57.9 2.1 84.8c2.1 28.9 6.2 51.7 14.5 74.4 8.3 20.7 18.6 39.3 35.1 51.7 16.5 12.4 37.2 20.7 66.1 20.7 26.8-.1 49.5-8.3 66.1-20.7zm384.5-440.4v91h2.1c12.4-26.9 31-51.7 51.7-70.3 22.7-20.7 51.7-28.9 86.8-28.9 31 0 53.7 8.3 72.4 24.8 18.6 16.5 28.9 39.3 28.9 66.1 0 20.7-6.2 39.3-16.5 49.6-10.3 12.4-26.9 18.6-49.6 18.6-16.5 0-31-4.1-45.5-10.3s-20.7-18.6-20.7-37.2c0-2.1 0-6.2 2.1-10.3l2.1-16.5c2.1-6.2 2.1-12.4 2.1-16.5l2.1-8.3c0-6.2-2.1-10.3-4.1-14.5-2.1-4.1-4.1-6.2-6.2-8.3-4.1-2.1-8.3-4.1-14.5-4.1s-16.5 4.1-26.9 10.3c-10.3 6.2-20.7 16.5-31 28.9s-16.5 28.9-24.8 47.5c-6.2 18.6-10.3 39.3-10.3 62v274.9h84.8v14.5h-283.2v-14.5h70.3v-434h-70.3v-14.5h198.2z" fill="#5B4E60"/></svg>