<?xml version="1.0" encoding="utf-8"?>
<!-- Generator: Adobe Illustrator 18.0.0, SVG Export Plug-In . SVG Version: 6.00 Build 0)  -->
<!DOCTYPE svg PUBLIC "-//W3C//DTD SVG 1.1//EN" "http://www.w3.org/Graphics/SVG/1.1/DTD/svg11.dtd">
<svg version="1.1" id="Calque_1" xmlns="http://www.w3.org/2000/svg" xmlns:xlink="http://www.w3.org/1999/xlink" x="0px" y="0px"
	 viewBox="0 0 4000 2500" enable-background="new 0 0 4000 2500" xml:space="preserve">
<path fill="#5B4E60" d="M208.6,1536.1V724.9h-77.2v-16.4h220.2v454.2h2c3.1-7,8.4-17.4,15.9-31.1s18.6-27.4,33.5-41.1
	s33.9-25.6,57-35.8c23.1-10.2,52.2-15.2,87.5-15.2c51.7,0,91.8,14.8,120.4,44.5s42.9,70.3,42.9,121.8v330.3H789v16.4H495v-16.4h72.6
	v-369.8c0-32.8-6.7-56.8-20-72s-31.3-22.8-54-22.8c-18.8,0-36.8,4.5-54,13.5s-32.3,22.4-45.2,40.4s-23.3,40.2-31.1,66.7
	s-11.7,57.7-11.7,93.6v250.4h73.7v16.4h-294v-16.4H208.6L208.6,1536.1z M1284.4,1562.8c-20.7,3.1-40,4.6-58,4.6
	c-39.9,0-69.4-7-88.5-21.1c-19.2-14-31.1-33.6-35.8-58.5h-2c-12.5,31.2-29.7,52.3-51.6,63.2c-21.9,10.9-53.5,16.4-95,16.4
	c-18.8,0-37.9-2-57.5-5.8c-19.5-3.9-37.5-10.1-53.9-18.7s-29.7-20.5-39.9-35.7s-15.2-33.8-15.2-55.6c0-22.6,4.5-41.6,13.5-56.8
	s20.7-28.1,35.2-38.7c14.5-10.5,30.9-19.1,49.3-25.8c18.4-6.6,37.4-13.1,57-19.3c31.9-9.4,57.8-17.4,77.7-24
	c19.8-6.6,35.2-13.7,46.1-21.1s18.5-15.8,22.8-25.2s6.4-21.5,6.4-36.3V1133c0-21.1-5.1-40.2-15.2-57.4
	c-10.2-17.2-29.3-25.8-57.4-25.8c-18,0-33.6,4.1-46.8,12.3c-13.3,8.2-19.9,23.2-19.9,45.1c0,2.3,0.4,6.5,1.2,12.3
	c0.8,5.9,1.6,12.3,2.3,19.3s1.6,13.7,2.3,19.9s1.2,10.5,1.2,12.9c0,11.7-2.7,20.9-8.2,27.5s-11.9,11.5-19.3,14.6s-15.2,4.9-23.4,5.3
	s-15,0.6-20.5,0.6c-7.8,0-15.8-0.6-24-1.8s-15.4-3.9-21.7-8.2s-11.5-10.3-15.8-18.2c-4.3-7.8-6.4-18.3-6.4-31.6
	c0-20.3,5.7-38.4,17-54.4s26.3-29.3,45.1-39.8c18.7-10.5,40-18.5,63.8-24s48.6-8.2,74.3-8.2c29.7,0,57.6,2.3,83.7,7
	c26.2,4.7,48.8,13.3,68,25.8c19.1,12.5,34.4,29.5,45.7,51c11.3,21.5,17,48.6,17,81.4v290.6c0,14.8,2.1,27.9,6.4,39.2
	c4.3,11.3,15,17,32.2,17c10.1,0,18.5-2,25.2-5.9s13.1-9.4,19.3-16.4l10.5,10.5C1320.9,1550.1,1305.1,1559.7,1284.4,1562.8
	L1284.4,1562.8z M1092.8,1261.7c-1.6,4.7-4.5,9.2-8.8,13.5s-11.9,9.2-22.8,14.6c-14.8,7-29.7,13.9-44.5,20.5s-28.1,15-39.8,25.2
	s-21.3,22.6-28.7,37.5s-11.1,33.9-11.1,57.3c0,9.4,0.6,20.3,1.8,32.8s4.3,24.6,9.4,36.3c5.1,11.7,12.7,21.7,22.8,29.9
	c10.1,8.2,24.2,12.3,42.1,12.3c10.1,0,20.1-2.3,29.8-7s18.5-11.9,26.3-21.7c7.8-9.8,14-22.6,18.7-38.6s7-35.3,7-58v-154.5h-2.2
	V1261.7z M1317.6,1211c12.5-31.2,31-59.8,55.6-85.9s54.6-47.7,90.1-64.9c35.5-17.1,76.7-25.7,123.5-25.7c29.6,0,56.6,3.1,80.8,9.4
	c24.2,6.2,45.1,15,62.6,26.3c17.6,11.3,31.2,25,41,40.9s14.6,33.7,14.6,53.2c0,25.7-6.6,43.9-19.9,54.4s-32,15.8-56.2,15.8
	c-18,0-34.5-3.3-49.8-9.9s-22.8-20.5-22.8-41.6c0-3.1,1-8.6,2.9-16.4s3.9-16,5.9-24.6c1.9-8.6,3.9-16.8,5.8-24.6
	c2-7.8,2.9-13.2,2.9-16.4c0-15.6-6.8-27.9-20.5-36.9s-30.6-13.5-50.9-13.5c-28.1,0-50.3,6.6-66.7,19.9c-16.4,13.3-29.1,31-38,53.2
	c-9,22.2-14.8,48-17.5,77.2s-4.1,60.2-4.1,93c0,30.4,1.2,60.8,3.5,91.1s8.6,58,18.7,83c10.1,24.9,25,45.2,44.5,60.8
	s46,23.4,79.6,23.4c32,0,58.9-5.6,80.8-16.9s39.4-24.5,52.7-39.7s23.2-30.4,29.8-45.6s10.7-26.3,12.3-33.3l16.4,5.8
	c-3.9,14-10,29.4-18.2,46.2s-20.1,32.3-35.7,46.8c-15.6,14.4-35.7,26.7-60.3,36.8c-24.6,10.1-55.6,15.2-93,15.2
	c-10.2,0-24.4-1-42.7-2.9c-18.3-2-38.2-6.2-59.7-12.9c-21.5-6.6-43.1-15.8-65-27.5s-41.9-27.5-60.3-47.3s-33.2-44.2-44.5-73.1
	c-11.3-28.8-17-63.1-17-102.9C1298.8,1272.1,1305.1,1242.1,1317.6,1211L1317.6,1211z M1932,1311.1c0,28.1,1.2,56.4,3.5,84.9
	s8.6,54.2,18.7,77.2s24.9,42,44.4,56.8s46.8,22.2,81.9,22.2c31.2,0,57.5-5.8,78.9-17.5s39-25.2,52.6-40.4
	c13.6-15.2,23.8-30.2,30.4-45.1c6.6-14.8,10.3-25.7,11.1-32.8l16.4,5.8c-3.9,14.8-10.5,30.6-19.9,47.4s-22.2,32.4-38.6,46.8
	s-36.7,26.5-60.8,36.3c-24.2,9.7-53.4,14.6-87.7,14.6c-40.6,0-78.4-6.1-113.5-18.1c-35.1-12.1-65.7-29.7-91.8-52.7
	s-46.6-51.1-61.4-84.3s-22.2-70.9-22.2-113c0-33.6,7-66.4,21-98.4s33.3-60.3,57.9-84.9s53.4-44.5,86.6-59.7s68.8-22.8,107-22.8
	c27.3,0,54.6,4.3,81.9,12.9s51.8,21.9,73.7,39.8s39.8,41.2,53.8,69.7s21.1,62.7,21.1,102.5h-345L1932,1311.1L1932,1311.1z
	 M2119,1163.9c0-8.6-0.4-19.1-1.2-31.6s-3.5-25-8.2-37.5s-12.3-23-22.8-31.6s-25.1-12.9-43.8-12.9c-26.5,0-47,6.2-61.4,18.7
	s-25.1,28.3-32.1,47.4s-11.5,39.8-13.4,62c-2,22.2-3.3,43.5-4.1,63.8h187V1163.9z M2888.7,1535.9v16.4h-218.2v-86.6h-2
	c-12.5,32.8-29.9,57.9-52.2,75.5s-51,26.3-86.2,26.3c-38.3,0-73.1-7.4-104.4-22.2c-31.3-14.8-58-34.5-80.3-59.1
	s-39.7-52.9-52.2-84.8c-12.5-32-18.8-65.5-18.8-100.7c0-27.3,4.9-56.5,14.7-87.8c9.8-31.2,25-60.1,45.8-86.6s47.1-48.6,79.2-66.1
	s70.8-26.3,116.2-26.3c35.2,0,63.8,8.2,85.7,24.6s38.7,41,50.5,73.7h2V724.9h-79.6v-16.4h222.6v827.4L2888.7,1535.9L2888.7,1535.9z
	 M2664.4,1218.9c-2.8-29.7-8.4-57-17-81.9s-21.5-45.6-38.8-62s-40.3-24.6-69.3-24.6c-19.6,0-36.2,4.3-49.9,12.9
	s-24.9,22.6-33.5,42.1s-14.7,45.5-18.2,77.8c-3.5,32.4-5.3,72-5.3,118.8c0,38.2,1,72.8,2.9,103.6c2,30.8,6.2,57.2,12.9,79
	s16.4,38.6,29.4,50.3c12.9,11.7,30.3,17.5,52.2,17.5c32.9,0,58.5-8.4,76.9-25.2c18.4-16.8,32.3-37.8,41.7-63.2s15.1-52.7,17-81.9
	c2-29.3,2.9-56,2.9-80.2C2668.5,1276.2,2667.1,1248.5,2664.4,1218.9L2664.4,1218.9z M3275.2,1055.1c34.7,14.4,64.9,33.8,90.7,58
	c25.7,24.2,45.8,52.5,60.2,84.9s21.7,66.6,21.7,102.5c0,36.7-7.2,71.2-21.7,103.6c-14.4,32.4-34.5,60.7-60.2,84.9
	c-25.8,24.2-56,43.3-90.7,57.4s-72.3,21.1-112.9,21.1s-78.2-7-112.9-21.1s-64.9-33.2-90.7-57.4c-25.8-24.2-45.8-52.5-60.3-84.9
	c-14.4-32.4-21.6-66.9-21.6-103.6c0-35.9,7.2-70.1,21.6-102.5c14.4-32.4,34.5-60.7,60.3-84.9c25.7-24.2,56-43.5,90.7-58
	s72.4-21.7,112.9-21.7S3240.5,1040.7,3275.2,1055.1z M3233.6,1530.8c17.2-14.4,29.8-33.4,38-56.8s13.2-50.3,15.2-80.8
	c1.9-30.4,2.9-61.3,2.9-92.5s-1-61.8-2.9-91.9c-2-30-7-56.8-15.2-80.2s-20.9-42.3-38-56.8s-41-21.7-71.4-21.7s-54.2,7.2-71.4,21.7
	s-29.8,33.4-38,56.8s-13.3,50.1-15.2,80.2c-2,30-2.9,60.7-2.9,91.9c0,31.2,1,62,2.9,92.5c1.9,30.4,7,57.3,15.2,80.8
	s20.9,42.3,38,56.8s40.9,21.7,71.4,21.7S3216.5,1545.3,3233.6,1530.8z M3664.8,1050.8v98.3h2c14-29.6,33-55.1,56.8-76.5
	s55.2-32.1,94.2-32.1c32.8,0,59.3,8.8,79.6,26.3s30.4,41.8,30.4,73c0,23.4-5.7,41.7-17,54.9s-29.5,19.8-54.4,19.8
	c-18,0-34.3-3.7-49.2-11.1c-14.8-7.4-22.2-21.3-22.2-41.6c0-2.3,0.4-6.4,1.2-12.3s1.8-12.1,2.9-18.7c1.2-6.6,2.2-12.7,2.9-18.1
	s1.2-8.6,1.2-9.4c-0.8-6.2-2-11.1-3.5-14.6c-1.6-3.5-4.1-6.6-7.6-9.4c-3.5-2.7-8.8-4.1-15.8-4.1c-7.8,0-17.6,3.7-29.3,11.1
	s-22.6,18.1-32.8,32.2c-10.2,14-18.9,31-26.3,50.9c-7.4,19.9-11.1,42.3-11.1,67.3v299.4h92.5v16.4h-311.6v-16.4h76.1v-469h-76.1
	v-16.4L3664.8,1050.8L3664.8,1050.8z"/>
<path fill="#5B4E60" d="M236.4,1897.3v-152.2h25.7v127.8h69.5v24.4L236.4,1897.3L236.4,1897.3z M466.6,1745.1v24.2h-81.2v40.3h73
	v22.9h-73v40.7h83.8v24.2H359.7v-152.2L466.6,1745.1L466.6,1745.1z M566.8,1768.2v-23.1h74v100.4c0,17.7-4.5,31-13.5,39.9
	c-9,8.8-20.6,13.3-34.6,13.3c-17.7,0-32.8-6.2-45.3-18.7l14.6-20.3c9.9,9.5,19.5,14.2,29,14.2c6.6,0,12.4-2.3,17.1-6.8
	c4.7-4.5,7.1-11.2,7.1-20.3v-78.6H566.8L566.8,1768.2z M788.7,1745.1v24.2h-81.2v40.3h73v22.9h-73v40.7h83.8v24.2H681.8v-152.2
	L788.7,1745.1z M858.4,1862.5c7,8.2,16.4,12.2,28.3,12.2s21.3-4,28.3-12.2s10.5-19.2,10.5-33.1v-84.3h25.7v85.4
	c0,21.9-6,38.8-18.1,50.6c-12.1,11.9-27.5,17.7-46.4,17.7s-34.3-5.9-46.4-17.7c-12.1-11.9-18.1-28.7-18.1-50.6v-85.4h25.7v84.3
	C847.9,1843.3,851.4,1854.3,858.4,1862.5z M1166.3,1765c14.7,13.3,22,31.8,22,55.4s-7.1,42.4-21.3,56.2s-36,20.7-65.3,20.7h-50.5
	v-152.2h52.3C1130.7,1745.1,1151.6,1751.7,1166.3,1765z M1162.4,1821.1c0-34.8-19.9-52.3-59.9-52.3h-25.7v104.3h28.5
	c18.4,0,32.6-4.4,42.4-13.2C1157.5,1851.1,1162.4,1838.2,1162.4,1821.1z M1328.4,1745.1v24.2h-81.2v40.3h73v22.9h-73v40.7h83.8v24.2
	h-109.5v-152.2L1328.4,1745.1L1328.4,1745.1z M1423.5,1897.3v-152.2h25.7v127.8h69.5v24.4L1423.5,1897.3L1423.5,1897.3z
	 M1568.4,1862.7l-15.2,34.6h-27.4l67.1-152.2h27.4l67.1,152.2H1660l-15.2-34.6H1568.4z M1634.1,1838.9l-27.7-62.7l-27.7,62.7H1634.1
	L1634.1,1838.9z M1837.5,1874c8.8,0,16.4-1.5,22.9-4.5s13.1-7.7,20-14.3l16.6,17c-16.1,17.9-35.7,26.8-58.7,26.8
	s-42.1-7.4-57.3-22.2c-15.1-14.8-22.8-33.5-22.8-56.2s7.7-41.5,23.2-56.6s35-22.6,58.6-22.6s43.3,8.7,59.1,26.1l-16.3,17.9
	c-7.3-7-14.2-11.9-20.6-14.6s-14-4.1-22.8-4.1c-15.4,0-28.3,5-38.8,14.9s-15.7,22.6-15.7,38.1s5.2,28.4,15.6,38.8
	C1811,1868.8,1823.3,1874,1837.5,1874L1837.5,1874z M2049.9,1794.5c0,25.2-11,40.9-32.9,47.5l39.9,55.3h-32.7l-36.4-51.2H1954v51.2
	h-25.7v-152.2h56.6c23.2,0,39.9,3.9,49.9,11.8S2049.9,1777.2,2049.9,1794.5L2049.9,1794.5z M2015.7,1816.1
	c5.2-4.5,7.8-11.8,7.8-21.7s-2.7-16.8-8.1-20.5c-5.3-3.7-14.9-5.6-28.7-5.6H1954v54.4h32C2000.5,1822.8,2010.4,1820.5,2015.7,1816.1
	L2015.7,1816.1z M2193.8,1745.1v24.2h-81.2v40.3h73v22.9h-73v40.7h83.8v24.2h-109.5v-152.2L2193.8,1745.1z M2152,1732.4h-22.2
	l23.1-31.6l25.7,10.7L2152,1732.4z M2250.9,1862.7l-15.2,34.6h-27.4l67.1-152.2h27.4l67.1,152.2h-27.4l-15.2-34.6H2250.9
	L2250.9,1862.7z M2316.6,1838.9l-27.7-62.7l-27.7,62.7H2316.6z M2436.4,1768.6v128.7h-25.7v-128.7h-46.2v-23.5h118v23.5H2436.4z
	 M2510.5,1745.1h25.7v152.2h-25.7V1745.1z M2647.9,1897.3h-28.7l-61.2-152.2h28.7l46.8,113.7l46.8-113.7h28.7L2647.9,1897.3z
	 M2730.8,1745.1h25.7v152.2h-25.7V1745.1z M2856.3,1768.6v128.7h-25.7v-128.7h-46.2v-23.5h118v23.5H2856.3z M3037.3,1745.1v24.2
	H2956v40.3h73v22.9h-73v40.7h83.8v24.2h-109.5v-152.2L3037.3,1745.1z M2995.4,1732.4h-22.2l23.1-31.6l25.7,10.7L2995.4,1732.4z"/>
</svg>
