<?xml version="1.0" encoding="utf-8"?>
<!-- Generator: Adobe Illustrator 18.0.0, SVG Export Plug-In . SVG Version: 6.00 Build 0)  -->
<!DOCTYPE svg PUBLIC "-//W3C//DTD SVG 1.1//EN" "http://www.w3.org/Graphics/SVG/1.1/DTD/svg11.dtd">
<svg version="1.1" id="Calque_1" xmlns="http://www.w3.org/2000/svg" xmlns:xlink="http://www.w3.org/1999/xlink" x="0px" y="0px"
	 viewBox="0 0 1041.7 563.4" enable-background="new 0 0 1041.7 563.4" xml:space="preserve">
<g>
	<g>
		<path fill="none" stroke="#FFFFFF" stroke-miterlimit="10" d="M872.8,120.5c-18.1-28.7,60.8,142.2,54.3,176.6
			c-6.5,34.4-47.6,65.3-94.4,25"/>
		<path fill="none" stroke="#FFFFFF" stroke-miterlimit="10" d="M871.5,120.5c-18.1-28.8,61.5,141.3,55.4,176.2
			c-6.2,34.9-48,65.9-94.8,25.3"/>
		<path fill="none" stroke="#FFFFFF" stroke-miterlimit="10" d="M869.5,120.4c-18.1-28.9,62.3,140.4,56.5,175.9
			c-5.9,35.4-48.5,66.5-95.1,25.6"/>
		<path fill="none" stroke="#FFFFFF" stroke-miterlimit="10" d="M866.7,120.4c-18.1-29,63.1,139.5,57.6,175.5
			c-5.6,35.9-48.9,67.2-95.5,25.9"/>
		<path fill="none" stroke="#FFFFFF" stroke-miterlimit="10" d="M863.2,120.4c-18.1-29.1,63.9,138.6,58.7,175.1
			c-5.3,36.5-49.4,67.8-95.8,26.2"/>
		<path fill="none" stroke="#FFFFFF" stroke-miterlimit="10" d="M859,120.5c-18.1-29.2,64.7,137.7,59.8,174.7
			c-4.9,37-49.8,68.4-96.2,26.5"/>
		<path fill="none" stroke="#FFFFFF" stroke-miterlimit="10" d="M854.3,120.6c-18.1-29.2,65.5,136.8,60.9,174.3
			c-4.6,37.5-50.3,69-96.6,26.8"/>
		<path fill="none" stroke="#FFFFFF" stroke-miterlimit="10" d="M849,120.7c-18.1-29.3,66.3,135.9,62,174
			c-4.3,38-50.7,69.6-96.9,27.1"/>
		<path fill="none" stroke="#FFFFFF" stroke-miterlimit="10" d="M843.1,120.8c-18.1-29.4,67,135,63.1,173.6
			c-4,38.6-51.1,70.2-97.3,27.4"/>
		<path fill="none" stroke="#FFFFFF" stroke-miterlimit="10" d="M836.8,121C818.7,91.5,904.6,255,901,294.2
			c-3.7,39.1-51.6,70.9-97.6,27.7"/>
		<path fill="none" stroke="#FFFFFF" stroke-miterlimit="10" d="M830,121.2c-18.1-29.6,68.6,133.1,65.3,172.8
			c-3.4,39.6-52,71.5-98,27.9"/>
		<path fill="none" stroke="#FFFFFF" stroke-miterlimit="10" d="M822.8,121.5c-18.1-29.7,69.4,132.2,66.4,172.4
			c-3.1,40.1-52.5,72.1-98.3,28.2"/>
		<path fill="none" stroke="#FFFFFF" stroke-miterlimit="10" d="M815.3,121.9c-18.1-29.8,70.2,131.3,67.5,172.1
			c-2.8,40.6-52.9,72.7-98.7,28.5"/>
		<path fill="none" stroke="#FFFFFF" stroke-miterlimit="10" d="M807.4,122.3c-18.1-29.8,71,130.4,68.6,171.7
			c-2.4,41.2-53.4,73.3-99,28.8"/>
		<path fill="none" stroke="#FFFFFF" stroke-miterlimit="10" d="M799.3,122.8c-18.1-29.9,71.8,129.5,69.7,171.3
			c-2.1,41.7-53.8,73.9-99.4,29.1"/>
		<path fill="none" stroke="#FFFFFF" stroke-miterlimit="10" d="M790.9,123.4c-18.1-30,72.6,128.6,70.8,170.9
			c-1.8,42.2-54.3,74.6-99.7,29.4"/>
		<path fill="none" stroke="#FFFFFF" stroke-miterlimit="10" d="M782.2,124.1c-18.1-30.1,73.3,127.7,71.9,170.6
			c-1.5,42.7-54.7,75.2-100.1,29.7"/>
		<path fill="none" stroke="#FFFFFF" stroke-miterlimit="10" d="M773.5,124.9c-18.1-30.2,74.1,126.8,73,170.2
			c-1.2,43.3-55.1,75.8-100.5,30"/>
		<path fill="none" stroke="#FFFFFF" stroke-miterlimit="10" d="M764.6,125.7c-18.1-30.3,74.9,125.9,74.1,169.8
			c-0.9,43.8-55.6,76.4-100.8,30.3"/>
		<path fill="none" stroke="#FFFFFF" stroke-miterlimit="10" d="M755.6,126.7c-18.1-30.3,75.7,125,75.2,169.4
			c-0.6,44.3-56,77-101.2,30.6"/>
		<path fill="none" stroke="#FFFFFF" stroke-miterlimit="10" d="M746.6,127.7c-18.1-30.4,76.5,124.1,76.3,169
			c-0.3,44.8-56.5,77.7-101.5,30.9"/>
		<path fill="none" stroke="#FFFFFF" stroke-miterlimit="10" d="M737.6,128.9c-18.1-30.5,77.3,123.2,77.4,168.7
			c0.1,45.3-56.9,78.3-101.9,31.2"/>
		<path fill="none" stroke="#FFFFFF" stroke-miterlimit="10" d="M728.6,130.2c-18.1-30.6,78.1,122.3,78.5,168.3
			c0.4,45.9-57.4,78.9-102.2,31.5"/>
		<path fill="none" stroke="#FFFFFF" stroke-miterlimit="10" d="M719.7,131.6c-18.1-30.7,78.8,121.3,79.6,167.9
			c0.7,46.4-57.8,79.5-102.6,31.8"/>
		<path fill="none" stroke="#FFFFFF" stroke-miterlimit="10" d="M710.9,133.2c-18.1-30.8,79.6,120.4,80.7,167.5
			c1,46.9-58.3,80.1-102.9,32"/>
		<path fill="none" stroke="#FFFFFF" stroke-miterlimit="10" d="M702.3,134.8C684.2,104,782.7,254.4,784.1,302
			c1.3,47.4-58.7,80.7-103.3,32.3"/>
		<path fill="none" stroke="#FFFFFF" stroke-miterlimit="10" d="M693.9,136.6c-18.1-30.9,81.2,118.6,82.9,166.8
			c1.6,47.9-59.1,81.4-103.6,32.6"/>
		<path fill="none" stroke="#FFFFFF" stroke-miterlimit="10" d="M685.7,138.6c-18.1-31,82,117.7,84,166.4c1.9,48.5-59.6,82-104,32.9
			"/>
		<path fill="none" stroke="#FFFFFF" stroke-miterlimit="10" d="M677.8,140.7c-18.1-31.1,82.8,116.8,85.1,166
			c2.2,49-60,82.6-104.3,33.2"/>
		<path fill="none" stroke="#FFFFFF" stroke-miterlimit="10" d="M670.2,143c-18.1-31.2,83.6,115.9,86.2,165.6
			c2.5,49.5-60.5,83.2-104.7,33.5"/>
		<path fill="none" stroke="#FFFFFF" stroke-miterlimit="10" d="M663,145.4c-18.1-31.3,84.3,115,87.3,165.3
			c2.9,50-60.9,83.8-105.1,33.8"/>
		<path fill="none" stroke="#FFFFFF" stroke-miterlimit="10" d="M656.2,148C638,116.6,741.3,262,744.6,312.9
			c3.2,50.6-61.4,84.5-105.4,34.1"/>
		<path fill="none" stroke="#FFFFFF" stroke-miterlimit="10" d="M649.8,150.7c-18.1-31.4,85.9,113.2,89.5,164.5
			c3.5,51.1-61.8,85.1-105.8,34.4"/>
		<path fill="none" stroke="#FFFFFF" stroke-miterlimit="10" d="M643.9,153.7c-18.1-31.5,86.7,112.3,90.6,164.1
			c3.8,51.6-62.3,85.7-106.1,34.7"/>
		<path fill="none" stroke="#FFFFFF" stroke-miterlimit="10" d="M638.5,156.8c-18.1-31.6,87.5,111.4,91.7,163.8
			c4.1,52.1-62.7,86.3-106.5,35"/>
		<path fill="none" stroke="#FFFFFF" stroke-miterlimit="10" d="M633.7,160.1c-18.1-31.7,88.3,110.4,92.8,163.4
			c4.4,52.6-63.1,86.9-106.8,35.3"/>
		<path fill="none" stroke="#FFFFFF" stroke-miterlimit="10" d="M629.5,163.6c-18.1-31.8,89.1,109.5,93.9,163
			c4.7,53.2-63.6,87.5-107.2,35.6"/>
		<path fill="none" stroke="#FFFFFF" stroke-miterlimit="10" d="M626,167.3c-18.1-31.8,89.9,108.6,95,162.6
			c5,53.7-64,88.2-107.5,35.8"/>
		<path fill="none" stroke="#FFFFFF" stroke-miterlimit="10" d="M623.1,171.2c-18.2-31.9,90.6,107.7,96.1,162.2
			c5.4,54.2-64.5,88.8-107.9,36.1"/>
		<path fill="none" stroke="#FFFFFF" stroke-miterlimit="10" d="M620.9,175.3c-18.2-32,91.4,106.8,97.2,161.9
			c5.7,54.7-64.9,89.4-108.2,36.4"/>
		<path fill="none" stroke="#FFFFFF" stroke-miterlimit="10" d="M619.6,179.6c-18.2-32.1,92.2,105.9,98.3,161.5
			c6,55.2-65.4,90-108.6,36.7"/>
		<path fill="none" stroke="#FFFFFF" stroke-miterlimit="10" d="M619,184.1c-18.2-32.2,93,105,99.4,161.1c6.3,55.8-65.8,90.6-109,37
			"/>
		<path fill="none" stroke="#FFFFFF" stroke-miterlimit="10" d="M619.3,188.9c-18.2-32.3,93.8,104.1,100.5,160.7
			c6.6,56.3-66.3,91.3-109.3,37.3"/>
		<path fill="none" stroke="#FFFFFF" stroke-miterlimit="10" d="M620.4,193.9C602.3,161.5,715,297,722.1,354.2
			c6.9,56.8-66.7,91.9-109.7,37.6"/>
		<path fill="none" stroke="#FFFFFF" stroke-miterlimit="10" d="M622.5,199.1c-18.2-32.4,95.4,102.3,102.7,160
			c7.2,57.3-67.2,92.5-110,37.9"/>
		<path fill="none" stroke="#FFFFFF" stroke-miterlimit="10" d="M625.6,204.6c-18.2-32.5,96.1,101.4,103.8,159.6
			c7.5,57.9-67.6,93.1-110.4,38.2"/>
		<path fill="none" stroke="#FFFFFF" stroke-miterlimit="10" d="M629.7,210.3c-18.2-32.6,96.9,100.5,104.9,159.2
			c7.9,58.4-68,93.7-110.7,38.5"/>
		<path fill="none" stroke="#FFFFFF" stroke-miterlimit="10" d="M634.8,216.2c-18.2-32.7,97.7,99.5,106,158.8
			c8.2,58.9-68.5,94.3-111.1,38.8"/>
		<path fill="none" stroke="#FFFFFF" stroke-miterlimit="10" d="M639.5,221.3c-18.2-32.8,98.5,98.6,107.2,158.5
			c8.5,59.4-68.9,95-111.4,39.1"/>
		<path fill="none" stroke="#FFFFFF" stroke-miterlimit="10" d="M641.2,223.4c-18.2-32.8,99.3,97.7,108.3,158.1
			c8.8,59.9-69.4,95.6-111.8,39.4"/>
		<path fill="none" stroke="#FFFFFF" stroke-miterlimit="10" d="M642.1,225C624,192,742.2,321.8,751.5,382.7
			c9.1,60.5-69.8,96.2-112.1,39.6"/>
		<path fill="none" stroke="#FFFFFF" stroke-miterlimit="10" d="M642.5,226c-18.2-33,100.9,95.9,110.5,157.3
			c9.4,61-70.3,96.8-112.5,39.9"/>
		<path fill="none" stroke="#FFFFFF" stroke-miterlimit="10" d="M642.6,226.5c-18.2-33.1,101.6,95,111.6,156.9
			c9.7,61.5-70.7,97.4-112.9,40.2"/>
		<path fill="none" stroke="#FFFFFF" stroke-miterlimit="10" d="M642.2,226.4C624,193.3,744.6,320.5,754.9,383
			c10,62-71.2,98-113.2,40.5"/>
		<path fill="none" stroke="#FFFFFF" stroke-miterlimit="10" d="M641.3,225.9c-18.2-33.3,103.2,93.2,113.8,156.2
			c10.3,62.6-71.6,98.7-113.6,40.8"/>
		<path fill="none" stroke="#FFFFFF" stroke-miterlimit="10" d="M639.8,224.9c-18.2-33.3,104,92.3,114.9,155.8
			c10.7,63.1-72,99.3-113.9,41.1"/>
		<path fill="none" stroke="#FFFFFF" stroke-miterlimit="10" d="M637.8,223.5c-18.2-33.4,104.8,91.4,116,155.4
			c11,63.6-72.5,99.9-114.3,41.4"/>
		<path fill="none" stroke="#FFFFFF" stroke-miterlimit="10" d="M635.3,221.6c-18.2-33.5,105.6,90.5,117.1,155.1
			c11.3,64.1-72.9,100.5-114.6,41.7"/>
		<path fill="none" stroke="#FFFFFF" stroke-miterlimit="10" d="M632.4,219.3c-18.2-33.6,106.4,89.6,118.2,154.7
			c11.6,64.6-73.4,101.1-115,42"/>
		<path fill="none" stroke="#FFFFFF" stroke-miterlimit="10" d="M629.1,216.6c-18.2-33.7,107.2,88.7,119.3,154.3
			c11.9,65.2-73.8,101.8-115.3,42.3"/>
		<path fill="none" stroke="#FFFFFF" stroke-miterlimit="10" d="M625.3,213.6c-18.2-33.8,107.9,87.7,120.4,153.9
			c12.2,65.7-74.3,102.4-115.7,42.6"/>
		<path fill="none" stroke="#FFFFFF" stroke-miterlimit="10" d="M621.1,210.2c-18.2-33.8,108.7,86.8,121.5,153.5
			c12.5,66.2-74.7,103-116,42.9"/>
		<path fill="none" stroke="#FFFFFF" stroke-miterlimit="10" d="M616.6,206.4c-18.2-33.9,109.5,85.9,122.6,153.2
			c12.8,66.7-75.2,103.6-116.4,43.2"/>
		<path fill="none" stroke="#FFFFFF" stroke-miterlimit="10" d="M611.7,202.4c-18.2-34,110.3,85,123.7,152.8
			c13.2,67.2-75.6,104.2-116.8,43.5"/>
		<path fill="none" stroke="#FFFFFF" stroke-miterlimit="10" d="M606.4,198c-18.2-34.1,111.1,84.1,124.8,152.4
			c13.5,67.8-76,104.8-117.1,43.7"/>
		<path fill="none" stroke="#FFFFFF" stroke-miterlimit="10" d="M600.9,193.4c-18.2-34.2,111.9,83.2,125.9,152
			c13.8,68.3-76.5,105.5-117.5,44"/>
		<path fill="none" stroke="#FFFFFF" stroke-miterlimit="10" d="M595,188.5c-18.2-34.3,112.7,82.3,127,151.6
			c14.1,68.8-76.9,106.1-117.8,44.3"/>
		<path fill="none" stroke="#FFFFFF" stroke-miterlimit="10" d="M588.9,183.4C570.7,149,702.4,264.8,717,334.7
			c14.4,69.3-77.4,106.7-118.2,44.6"/>
		<path fill="none" stroke="#FFFFFF" stroke-miterlimit="10" d="M582.6,178.1c-18.2-34.4,114.2,80.5,129.2,150.9
			c14.7,69.9-77.8,107.3-118.5,44.9"/>
		<path fill="none" stroke="#FFFFFF" stroke-miterlimit="10" d="M576,172.5C557.7,138,691,252.1,706.3,323
			c15,70.4-78.3,107.9-118.9,45.2"/>
		<path fill="none" stroke="#FFFFFF" stroke-miterlimit="10" d="M569.2,166.8C550.9,132.2,685,245.5,700.6,317
			c15.3,70.9-78.7,108.6-119.2,45.5"/>
		<path fill="none" stroke="#FFFFFF" stroke-miterlimit="10" d="M562.2,161c-18.2-34.7,116.6,77.8,132.5,149.8
			c15.6,71.4-79.2,109.2-119.6,45.8"/>
		<path fill="none" stroke="#FFFFFF" stroke-miterlimit="10" d="M555.1,155c-18.2-34.8,117.4,76.8,133.6,149.4
			c16,71.9-79.6,109.8-119.9,46.1"/>
		<path fill="none" stroke="#FFFFFF" stroke-miterlimit="10" d="M547.8,148.9c-18.2-34.9,118.2,75.9,134.7,149
			c16.3,72.5-80.1,110.4-120.3,46.4"/>
		<path fill="none" stroke="#FFFFFF" stroke-miterlimit="10" d="M540.4,142.6c-18.2-34.9,118.9,75,135.8,148.6
			c16.6,73-80.5,111-120.6,46.7"/>
		<path fill="none" stroke="#FFFFFF" stroke-miterlimit="10" d="M532.9,136.4c-18.2-35,119.7,74.1,136.9,148.2
			c16.9,73.5-80.9,111.6-121,47"/>
		<path fill="none" stroke="#FFFFFF" stroke-miterlimit="10" d="M525.3,130c-18.2-35.1,120.5,73.2,138,147.9
			c17.2,74-81.4,112.3-121.4,47.3"/>
		<path fill="none" stroke="#FFFFFF" stroke-miterlimit="10" d="M517.6,123.6c-18.2-35.2,121.3,72.3,139.1,147.5
			c17.5,74.6-81.8,112.9-121.7,47.5"/>
		<path fill="none" stroke="#FFFFFF" stroke-miterlimit="10" d="M510,117.2C491.7,82,632,188.6,650.2,264.4
			c17.8,75.1-82.3,113.5-122.1,47.8"/>
		<path fill="none" stroke="#FFFFFF" stroke-miterlimit="10" d="M502.3,110.8C484,75.5,625.1,181.3,643.6,257.6
			c18.1,75.6-82.7,114.1-122.4,48.1"/>
		<path fill="none" stroke="#FFFFFF" stroke-miterlimit="10" d="M494.6,104.5C476.3,69,618.2,174,637,250.8
			c18.5,76.1-83.2,114.7-122.8,48.4"/>
		<path fill="none" stroke="#FFFFFF" stroke-miterlimit="10" d="M486.9,98.1c-18.3-35.5,124.5,68.7,143.5,146
			c18.8,76.6-83.6,115.3-123.1,48.7"/>
		<path fill="none" stroke="#FFFFFF" stroke-miterlimit="10" d="M479.3,91.9C461,56.3,604.5,159.6,623.9,237.5
			c19.1,77.2-84.1,116-123.5,49"/>
		<path fill="none" stroke="#FFFFFF" stroke-miterlimit="10" d="M471.7,85.7c-18.3-35.7,126,66.9,145.7,145.2
			c19.4,77.7-84.5,116.6-123.8,49.3"/>
		<path fill="none" stroke="#FFFFFF" stroke-miterlimit="10" d="M464.3,79.6C446,43.8,591.1,145.5,611.1,224.4
			c19.7,78.2-84.9,117.2-124.2,49.6"/>
		<path fill="none" stroke="#FFFFFF" stroke-miterlimit="10" d="M456.9,73.6c-18.3-35.9,127.6,65,147.9,144.5
			c20,78.7-85.4,117.8-124.5,49.9"/>
		<path fill="none" stroke="#FFFFFF" stroke-miterlimit="10" d="M449.7,67.8c-18.3-35.9,128.4,64.1,149,144.1
			c20.3,79.2-85.8,118.4-124.9,50.2"/>
		<path fill="none" stroke="#FFFFFF" stroke-miterlimit="10" d="M442.7,62.1c-18.3-36,129.2,63.2,150.1,143.7
			c20.6,79.8-86.3,119.1-125.3,50.5"/>
		<path fill="none" stroke="#FFFFFF" stroke-miterlimit="10" d="M435.8,56.6C417.5,20.5,565.7,119,587,200
			c21,80.3-86.7,119.7-125.6,50.8"/>
		<path fill="none" stroke="#FFFFFF" stroke-miterlimit="10" d="M429.1,51.4c-18.3-36.2,130.7,61.4,152.3,143
			c21.3,80.8-87.2,120.3-126,51.1"/>
		<path fill="none" stroke="#FFFFFF" stroke-miterlimit="10" d="M422.6,46.3C404.4,10,554.2,106.8,576.1,188.9
			c21.6,81.3-87.6,120.9-126.3,51.3"/>
		<path fill="none" stroke="#FFFFFF" stroke-miterlimit="10" d="M416.4,41.5c-18.3-36.4,132.3,59.6,154.5,142.2
			c21.9,81.9-88.1,121.5-126.7,51.6"/>
		<path fill="none" stroke="#FFFFFF" stroke-miterlimit="10" d="M410.4,36.9C392.1,0.5,543.5,95.6,566.1,178.7
			c22.2,82.4-88.5,122.1-127,51.9"/>
		<path fill="none" stroke="#FFFFFF" stroke-miterlimit="10" d="M404.7,32.6C386.5-3.9,538.6,90.4,561.5,174.1
			c22.5,82.9-88.9,122.8-127.4,52.2"/>
		<path fill="none" stroke="#FFFFFF" stroke-miterlimit="10" d="M399.3,28.6C381.1-8,534,85.5,557.2,169.7
			c22.8,83.4-89.4,123.4-127.7,52.5"/>
		<path fill="none" stroke="#FFFFFF" stroke-miterlimit="10" d="M394.3,25c-18.3-36.7,135.5,56,158.9,140.7
			c23.1,83.9-89.8,124-128.1,52.8"/>
		<path fill="none" stroke="#FFFFFF" stroke-miterlimit="10" d="M389.6,21.6c-18.3-36.8,136.2,55.1,160,140.3
			c23.4,84.5-90.3,124.6-128.4,53.1"/>
		<path fill="none" stroke="#FFFFFF" stroke-miterlimit="10" d="M385.2,18.7c-18.3-36.9,137,54.1,161.1,139.9
			c23.8,85-90.7,125.2-128.8,53.4"/>
		<path fill="none" stroke="#FFFFFF" stroke-miterlimit="10" d="M381.2,16.1c-18.3-36.9,137.8,53.2,162.2,139.5
			c24.1,85.5-91.2,125.9-129.2,53.7"/>
		<path fill="none" stroke="#FFFFFF" stroke-miterlimit="10" d="M377.7,13.9C359.4-23.2,516.3,66.2,541,153
			c24.4,86-91.6,126.5-129.5,54"/>
		<path fill="none" stroke="#FFFFFF" stroke-miterlimit="10" d="M374.5,12.1C356.2-25,513.9,63.5,539,150.9
			c24.7,86.6-92.1,127.1-129.9,54.3"/>
		<path fill="none" stroke="#FFFFFF" stroke-miterlimit="10" d="M371.9,10.7C353.6-26.4,512,61.3,537.4,149.2
			c25,87.1-92.5,127.7-130.2,54.6"/>
		<path fill="none" stroke="#FFFFFF" stroke-miterlimit="10" d="M369.7,9.9c-18.3-37.3,141,49.6,166.7,138
			c25.3,87.6-93,128.3-130.6,54.9"/>
		<path fill="none" stroke="#FFFFFF" stroke-miterlimit="10" d="M367.9,9.5c-18.3-37.4,141.8,48.7,167.8,137.7
			c25.6,88.1-93.4,128.9-130.9,55.2"/>
		<path fill="none" stroke="#FFFFFF" stroke-miterlimit="10" d="M365.5,10.4C347.2-27.1,508,58.1,534.4,147.6
			c25.9,88.6-93.8,129.6-131.3,55.4"/>
		<path fill="none" stroke="#FFFFFF" stroke-miterlimit="10" d="M355.2,16.9c-18.3-37.5,143.3,46.9,170,136.9
			c26.3,89.2-94.3,130.2-131.6,55.7"/>
		<path fill="none" stroke="#FFFFFF" stroke-miterlimit="10" d="M345.2,23.3c-18.3-37.6,144.1,46,171.1,136.5
			c26.6,89.7-94.7,130.8-132,56"/>
		<path fill="none" stroke="#FFFFFF" stroke-miterlimit="10" d="M335.3,29.7C317-8,480.2,74.8,507.5,165.9
			c26.9,90.2-95.2,131.4-132.3,56.3"/>
		<path fill="none" stroke="#FFFFFF" stroke-miterlimit="10" d="M325.7,36.1C307.4-1.7,471.4,80.2,499,171.8
			c27.2,90.7-95.6,132-132.7,56.6"/>
		<path fill="none" stroke="#FFFFFF" stroke-miterlimit="10" d="M316.3,42.4C298,4.5,462.8,85.6,490.7,177.7
			c27.5,91.2-96.1,132.7-133,56.9"/>
		<path fill="none" stroke="#FFFFFF" stroke-miterlimit="10" d="M307.1,48.6c-18.3-37.9,147.3,42.3,175.5,135
			c27.8,91.8-96.5,133.3-133.4,57.2"/>
		<path fill="none" stroke="#FFFFFF" stroke-miterlimit="10" d="M298.1,54.8c-18.3-38,148,41.4,176.6,134.6
			c28.1,92.3-97,133.9-133.8,57.5"/>
		<path fill="none" stroke="#FFFFFF" stroke-miterlimit="10" d="M289.4,60.9C271,22.8,438.2,101.4,467,195.2
			c28.4,92.8-97.4,134.5-134.1,57.8"/>
		<path fill="none" stroke="#FFFFFF" stroke-miterlimit="10" d="M280.8,67c-18.3-38.2,149.6,39.6,178.8,133.9
			c28.8,93.3-97.8,135.1-134.5,58.1"/>
		<path fill="none" stroke="#FFFFFF" stroke-miterlimit="10" d="M272.5,73c-18.3-38.3,150.4,38.7,179.9,133.5
			c29.1,93.9-98.3,135.7-134.8,58.4"/>
		<path fill="none" stroke="#FFFFFF" stroke-miterlimit="10" d="M264.3,79c-18.3-38.4,151.2,37.8,181,133.1
			c29.4,94.4-98.7,136.4-135.2,58.7"/>
		<path fill="none" stroke="#FFFFFF" stroke-miterlimit="10" d="M256.4,84.9c-18.3-38.5,152,36.9,182.1,132.7
			c29.7,94.9-99.2,137-135.5,59"/>
		<path fill="none" stroke="#FFFFFF" stroke-miterlimit="10" d="M248.7,90.7c-18.3-38.5,152.8,36,183.2,132.4
			c30,95.4-99.6,137.6-135.9,59.2"/>
		<path fill="none" stroke="#FFFFFF" stroke-miterlimit="10" d="M241.2,96.5c-18.3-38.6,153.5,35.1,184.3,132
			c30.3,95.9-100.1,138.2-136.2,59.5"/>
		<path fill="none" stroke="#FFFFFF" stroke-miterlimit="10" d="M233.8,102.3c-18.4-38.7,154.3,34.2,185.4,131.6
			c30.6,96.5-100.5,138.8-136.6,59.8"/>
		<path fill="none" stroke="#FFFFFF" stroke-miterlimit="10" d="M226.7,107.9c-18.4-38.8,155.1,33.3,186.5,131.2
			c30.9,97-101,139.4-136.9,60.1"/>
		<path fill="none" stroke="#FFFFFF" stroke-miterlimit="10" d="M219.8,113.6c-18.4-38.9,155.9,32.3,187.6,130.9
			c31.2,97.5-101.4,140.1-137.3,60.4"/>
		<path fill="none" stroke="#FFFFFF" stroke-miterlimit="10" d="M213.1,119.1c-18.4-39,156.7,31.4,188.7,130.5
			c31.6,98-101.8,140.7-137.7,60.7"/>
		<path fill="none" stroke="#FFFFFF" stroke-miterlimit="10" d="M206.6,124.6c-18.4-39,157.5,30.5,189.8,130.1
			c31.9,98.6-102.3,141.3-138,61"/>
		<path fill="none" stroke="#FFFFFF" stroke-miterlimit="10" d="M200.3,130c-18.4-39.1,158.3,29.6,190.9,129.7
			c32.2,99.1-102.7,141.9-138.4,61.3"/>
		<path fill="none" stroke="#FFFFFF" stroke-miterlimit="10" d="M194.1,135.4c-18.4-39.2,159.1,28.7,192,129.3
			c32.5,99.6-103.2,142.5-138.7,61.6"/>
		<path fill="none" stroke="#FFFFFF" stroke-miterlimit="10" d="M188.2,140.7c-18.4-39.3,159.8,27.8,193.1,129
			c32.8,100.1-103.6,143.2-139.1,61.9"/>
		<path fill="none" stroke="#FFFFFF" stroke-miterlimit="10" d="M182.5,145.9c-18.4-39.4,160.6,26.9,194.2,128.6
			c33.1,100.6-104.1,143.8-139.4,62.2"/>
		<path fill="none" stroke="#FFFFFF" stroke-miterlimit="10" d="M176.9,151.1c-18.4-39.5,161.4,26,195.3,128.2
			c33.4,101.2-104.5,144.4-139.8,62.5"/>
		<path fill="none" stroke="#FFFFFF" stroke-miterlimit="10" d="M171.6,156.2c-18.4-39.5,162.2,25.1,196.4,127.8
			c33.7,101.7-105,145-140.1,62.8"/>
		<path fill="none" stroke="#FFFFFF" stroke-miterlimit="10" d="M166.4,161.3c-18.4-39.6,163,24.2,197.5,127.4
			c34.1,102.2-105.4,145.6-140.5,63"/>
		<path fill="none" stroke="#FFFFFF" stroke-miterlimit="10" d="M161.4,166.3C143,126.6,325.2,189.5,360,293.3
			c34.4,102.7-105.8,146.2-140.8,63.3"/>
		<path fill="none" stroke="#FFFFFF" stroke-miterlimit="10" d="M156.6,171.2c-18.4-39.8,164.6,22.4,199.7,126.7
			C391,401.1,250,444.7,215.1,361.5"/>
		<path fill="none" stroke="#FFFFFF" stroke-miterlimit="10" d="M152,176c-18.4-39.9,165.3,21.5,200.8,126.3
			c35,103.8-106.7,147.5-141.6,63.9"/>
		<path fill="none" stroke="#FFFFFF" stroke-miterlimit="10" d="M147.6,180.8c-18.4-40,166.1,20.5,201.9,125.9
			C384.8,411,242.3,454.8,207.6,371"/>
		<path fill="none" stroke="#FFFFFF" stroke-miterlimit="10" d="M143.3,185.5c-18.4-40,166.9,19.6,203,125.6
			c35.6,104.8-107.6,148.7-142.3,64.5"/>
		<path fill="none" stroke="#FFFFFF" stroke-miterlimit="10" d="M139.3,190.2C120.9,150,307,208.9,343.4,315.3
			c35.9,105.3-108.1,149.3-142.6,64.8"/>
		<path fill="none" stroke="#FFFFFF" stroke-miterlimit="10" d="M135.4,194.7c-18.4-40.2,168.5,17.8,205.2,124.8
			c36.2,105.9-108.5,150-143,65.1"/>
		<path fill="none" stroke="#FFFFFF" stroke-miterlimit="10" d="M131.7,199.2c-18.4-40.3,169.3,16.9,206.3,124.4
			C374.5,430,229,474.2,194.7,389"/>
		<path fill="none" stroke="#FFFFFF" stroke-miterlimit="10" d="M128.1,203.7c-18.4-40.4,170.1,16,207.4,124
			c36.9,106.9-109.4,151.2-143.7,65.7"/>
		<path fill="none" stroke="#FFFFFF" stroke-miterlimit="10" d="M124.8,208c-18.4-40.5,170.8,15.1,208.5,123.7
			c37.2,107.4-109.9,151.8-144,66"/>
		<path fill="none" stroke="#FFFFFF" stroke-miterlimit="10" d="M121.6,212.3c-18.4-40.5,171.6,14.2,209.6,123.3
			c37.5,107.9-110.3,152.4-144.4,66.3"/>
		<path fill="none" stroke="#FFFFFF" stroke-miterlimit="10" d="M118.6,216.5c-18.4-40.6,172.4,13.3,210.7,122.9
			c37.8,108.5-110.7,153-144.7,66.6"/>
		<path fill="none" stroke="#FFFFFF" stroke-miterlimit="10" d="M115.8,220.7C97.4,180,289,233.1,327.6,343.2
			c38.1,109-111.2,153.7-145.1,66.9"/>
		<path fill="none" stroke="#FFFFFF" stroke-miterlimit="10" d="M113.1,224.8C94.7,184,287.1,236.2,326,346.9
			c38.4,109.5-111.6,154.3-145.4,67.1"/>
		<path fill="none" stroke="#FFFFFF" stroke-miterlimit="10" d="M110.6,228.8c-18.4-40.9,174.8,10.6,214,121.8
			c38.7,110-112.1,154.9-145.8,67.4"/>
		<path fill="none" stroke="#FFFFFF" stroke-miterlimit="10" d="M108.3,232.7c-18.4-41,175.6,9.6,215.1,121.4
			c39,110.6-112.5,155.5-146.2,67.7"/>
		<path fill="none" stroke="#FFFFFF" stroke-miterlimit="10" d="M106.1,236.5c-18.4-41,176.3,8.7,216.2,121
			c39.4,111.1-113,156.1-146.5,68"/>
		<path fill="none" stroke="#FFFFFF" stroke-miterlimit="10" d="M104.1,240.3c-18.4-41.1,177.1,7.8,217.3,120.6
			c39.7,111.6-113.4,156.8-146.9,68.3"/>
		<path fill="none" stroke="#FFFFFF" stroke-miterlimit="10" d="M102.3,244c-18.4-41.2,177.9,6.9,218.4,120.3
			c40,112.1-113.9,157.4-147.2,68.6"/>
		<path fill="none" stroke="#FFFFFF" stroke-miterlimit="10" d="M100.6,247.6c-18.4-41.3,178.7,6,219.5,119.9
			c40.3,112.6-114.3,158-147.6,68.9"/>
		<path fill="none" stroke="#FFFFFF" stroke-miterlimit="10" d="M99.1,251.2c-18.4-41.4,179.5,5.1,220.6,119.5
			c40.6,113.2-114.7,158.6-147.9,69.2"/>
		<path fill="none" stroke="#FFFFFF" stroke-miterlimit="10" d="M97.8,254.6c-18.4-41.5,180.3,4.2,221.7,119.1
			c40.9,113.7-115.2,159.2-148.3,69.5"/>
		<path fill="none" stroke="#FFFFFF" stroke-miterlimit="10" d="M96.6,258c-18.4-41.5,181.1,3.3,222.8,118.7
			c41.2,114.2-115.6,159.8-148.6,69.8"/>
		<path fill="none" stroke="#FFFFFF" stroke-miterlimit="10" d="M95.5,261.3c-18.4-41.6,181.9,2.4,223.9,118.4
			c41.5,114.7-116.1,160.5-149,70.1"/>
		<path fill="none" stroke="#FFFFFF" stroke-miterlimit="10" d="M94.7,264.6c-18.4-41.7,182.6,1.5,225.1,118
			c41.9,115.2-116.5,161.1-149.3,70.4"/>
		<path fill="none" stroke="#FFFFFF" stroke-miterlimit="10" d="M93.9,267.7c-18.4-41.8,183.4,0.6,226.2,117.6
			c42.2,115.8-117,161.7-149.7,70.7"/>
		<path fill="none" stroke="#FFFFFF" stroke-miterlimit="10" d="M93.4,270.8c-18.4-41.9,184.2-0.3,227.3,117.2
			c42.5,116.3-117.4,162.3-150.1,70.9"/>
		<path fill="none" stroke="#FFFFFF" stroke-miterlimit="10" d="M93,273.8c-18.4-42,185-1.3,228.4,116.9
			c42.8,116.8-117.9,162.9-150.4,71.2"/>
		<path fill="none" stroke="#FFFFFF" stroke-miterlimit="10" d="M92.7,276.7c-18.5-42,185.8-2.2,229.5,116.5
			c43.1,117.3-118.3,163.5-150.8,71.5"/>
		<path fill="none" stroke="#FFFFFF" stroke-miterlimit="10" d="M92.6,279.5c-18.5-42.1,186.6-3.1,230.6,116.1
			c43.4,117.9-118.7,164.2-151.1,71.8"/>
		<path fill="none" stroke="#FFFFFF" stroke-miterlimit="10" d="M92.6,282.2C74.1,240,280,278.3,324.3,398
			c43.7,118.4-119.2,164.8-151.5,72.1"/>
		<path fill="none" stroke="#FFFFFF" stroke-miterlimit="10" d="M92.8,284.9c-18.5-42.3,188.1-4.9,232.8,115.3
			c44,118.9-119.6,165.4-151.8,72.4"/>
		<path fill="none" stroke="#FFFFFF" stroke-miterlimit="10" d="M93.1,287.5c-18.5-42.4,188.9-5.8,233.9,115
			c44.3,119.4-120.1,166-152.2,72.7"/>
		<path fill="none" stroke="#FFFFFF" stroke-miterlimit="10" d="M93.6,289.9c-18.5-42.5,189.7-6.7,235,114.6
			c44.7,119.9-120.5,166.6-152.5,73"/>
		<path fill="none" stroke="#FFFFFF" stroke-miterlimit="10" d="M94.2,292.4c-18.5-42.5,190.5-7.6,236.1,114.2
			c45,120.5-121,167.3-152.9,73.3"/>
		<path fill="none" stroke="#FFFFFF" stroke-miterlimit="10" d="M94.9,294.7c-18.5-42.6,191.3-8.5,237.2,113.8
			c45.3,121-121.4,167.9-153.2,73.6"/>
		<path fill="none" stroke="#FFFFFF" stroke-miterlimit="10" d="M95.8,296.9c-18.5-42.7,192.1-9.4,238.3,113.5
			c45.6,121.5-121.9,168.5-153.6,73.9"/>
		<path fill="none" stroke="#FFFFFF" stroke-miterlimit="10" d="M96.9,299c-18.5-42.8,192.9-10.3,239.4,113.1
			c45.9,122-122.3,169.1-154,74.2"/>
		<path fill="none" stroke="#FFFFFF" stroke-miterlimit="10" d="M98,301.1c-18.5-42.9,193.6-11.2,240.5,112.7
			c46.2,122.6-122.8,169.7-154.3,74.5"/>
		<path fill="none" stroke="#FFFFFF" stroke-miterlimit="10" d="M99.3,303.1c-18.5-43,194.4-12.1,241.6,112.3
			c46.5,123.1-123.2,170.3-154.7,74.8"/>
		<path fill="none" stroke="#FFFFFF" stroke-miterlimit="10" d="M100.8,304.9C82.3,261.9,296,291.9,343.5,416.9
			c46.8,123.6-123.6,171-155,75"/>
		<path fill="none" stroke="#FFFFFF" stroke-miterlimit="10" d="M102.4,306.7c-18.5-43.1,196-14,243.8,111.6
			c47.2,124.1-124.1,171.6-155.4,75.3"/>
		<path fill="none" stroke="#FFFFFF" stroke-miterlimit="10" d="M104.1,308.4c-18.5-43.2,196.8-14.9,244.9,111.2
			c47.5,124.6-124.5,172.2-155.7,75.6"/>
		<path fill="none" stroke="#FFFFFF" stroke-miterlimit="10" d="M105.9,310c-18.5-43.3,197.6-15.8,246,110.8
			c47.8,125.2-125,172.8-156.1,75.9"/>
		<path fill="none" stroke="#FFFFFF" stroke-miterlimit="10" d="M107.9,311.5C89.4,268.1,306.2,294.8,355,422
			c48.1,125.7-125.4,173.4-156.4,76.2"/>
		<path fill="none" stroke="#FFFFFF" stroke-miterlimit="10" d="M110,313C91.5,269.5,309.1,295.4,358.2,423
			c48.4,126.2-125.9,174.1-156.8,76.5"/>
		<path fill="none" stroke="#FFFFFF" stroke-miterlimit="10" d="M112.2,314.3C93.7,270.7,312.1,295.8,361.5,424
			c48.7,126.7-126.3,174.7-157.1,76.8"/>
		<path fill="none" stroke="#FFFFFF" stroke-miterlimit="10" d="M114.5,315.5C96,271.9,315.3,296.1,364.9,424.8
			c49,127.2-126.8,175.3-157.5,77.1"/>
		<path fill="none" stroke="#FFFFFF" stroke-miterlimit="10" d="M117,316.7c-18.5-43.7,201.5-20.3,251.5,108.9
			c49.3,127.8-127.2,175.9-157.8,77.4"/>
		<path fill="none" stroke="#FFFFFF" stroke-miterlimit="10" d="M119.6,317.7c-18.5-43.8,202.3-21.2,252.6,108.5
			c49.7,128.3-127.6,176.5-158.2,77.7"/>
		<path fill="none" stroke="#FFFFFF" stroke-miterlimit="10" d="M122.3,318.7c-18.5-43.9,203.1-22.1,253.7,108.2
			c50,128.8-128.1,177.1-158.6,78"/>
		<path fill="none" stroke="#FFFFFF" stroke-miterlimit="10" d="M125.2,319.5c-18.5-44,203.9-23,254.8,107.8
			c50.3,129.3-128.5,177.8-158.9,78.3"/>
		<path fill="none" stroke="#FFFFFF" stroke-miterlimit="10" d="M128.1,320.3c-18.5-44.1,204.7-24,255.9,107.4
			c50.6,129.9-129,178.4-159.3,78.6"/>
		<path fill="none" stroke="#FFFFFF" stroke-miterlimit="10" d="M131.2,321c-18.5-44.1,205.4-24.9,257,107
			c50.9,130.4-129.4,179-159.6,78.8"/>
		<path fill="none" stroke="#FFFFFF" stroke-miterlimit="10" d="M134.4,321.5c-18.5-44.2,206.2-25.8,258.1,106.6
			c51.2,130.9-129.9,179.6-160,79.1"/>
		<path fill="none" stroke="#FFFFFF" stroke-miterlimit="10" d="M137.7,322c-18.5-44.3,207-26.7,259.2,106.3
			c51.5,131.4-130.3,180.2-160.3,79.4"/>
		<path fill="none" stroke="#FFFFFF" stroke-miterlimit="10" d="M141.1,322.4c-18.5-44.4,207.8-27.6,260.3,105.9
			c51.8,131.9-130.8,180.9-160.7,79.7"/>
		<path fill="none" stroke="#FFFFFF" stroke-miterlimit="10" d="M144.7,322.7c-18.5-44.5,208.6-28.5,261.4,105.5
			c52.1,132.5-131.2,181.5-161,80"/>
		<path fill="none" stroke="#FFFFFF" stroke-miterlimit="10" d="M148.3,322.8c-18.5-44.6,209.4-29.4,262.5,105.1
			c52.5,133-131.6,182.1-161.4,80.3"/>
		<path fill="none" stroke="#FFFFFF" stroke-miterlimit="10" d="M152.1,322.9c-18.5-44.6,210.2-30.3,263.6,104.8
			c52.8,133.5-132.1,182.7-161.7,80.6"/>
		<path fill="none" stroke="#FFFFFF" stroke-miterlimit="10" d="M156,322.9c-18.5-44.7,210.9-31.2,264.7,104.4
			c53.1,134-132.5,183.3-162.1,80.9"/>
		<path fill="none" stroke="#FFFFFF" stroke-miterlimit="10" d="M159.9,322.8c-18.5-44.8,211.7-32.1,265.8,104
			c53.4,134.6-133,183.9-162.5,81.2"/>
		<path fill="none" stroke="#FFFFFF" stroke-miterlimit="10" d="M164,322.5c-18.5-44.9,212.5-33,266.9,103.6
			c53.7,135.1-133.4,184.6-162.8,81.5"/>
		<path fill="none" stroke="#FFFFFF" stroke-miterlimit="10" d="M168.2,322.2c-18.5-45,213.3-33.9,268,103.2
			c54,135.6-133.9,185.2-163.2,81.8"/>
		<path fill="none" stroke="#FFFFFF" stroke-miterlimit="10" d="M172.5,321.8c-18.5-45.1,214.1-34.9,269.1,102.9
			c54.3,136.1-134.3,185.8-163.5,82.1"/>
		<path fill="none" stroke="#FFFFFF" stroke-miterlimit="10" d="M176.9,321.2c-18.5-45.1,214.9-35.8,270.2,102.5
			c54.6,136.6-134.8,186.4-163.9,82.4"/>
		<path fill="none" stroke="#FFFFFF" stroke-miterlimit="10" d="M181.4,320.6c-18.5-45.2,215.7-36.7,271.3,102.1
			c55,137.2-135.2,187-164.2,82.6"/>
		<path fill="none" stroke="#FFFFFF" stroke-miterlimit="10" d="M186,319.9c-18.5-45.3,216.5-37.6,272.4,101.7
			c55.3,137.7-135.7,187.6-164.6,82.9"/>
		<path fill="none" stroke="#FFFFFF" stroke-miterlimit="10" d="M190.7,319c-18.5-45.4,217.2-38.5,273.5,101.4
			c55.6,138.2-136.1,188.3-164.9,83.2"/>
		<path fill="none" stroke="#FFFFFF" stroke-miterlimit="10" d="M195.4,318c-18.6-45.5,218-39.4,274.6,101
			c55.9,138.7-136.5,188.9-165.3,83.5"/>
		<path fill="none" stroke="#FFFFFF" stroke-miterlimit="10" d="M200.3,317c-18.6-45.6,218.8-40.3,275.7,100.6
			c56.2,139.2-137,189.5-165.6,83.8"/>
		<path fill="none" stroke="#FFFFFF" stroke-miterlimit="10" d="M205.3,315.8c-18.6-45.6,219.6-41.2,276.8,100.2
			c56.5,139.8-137.4,190.1-166,84.1"/>
		<path fill="none" stroke="#FFFFFF" stroke-miterlimit="10" d="M210.4,314.5c-18.6-45.7,220.4-42.1,277.9,99.8
			c56.8,140.3-137.9,190.7-166.4,84.4"/>
		<path fill="none" stroke="#FFFFFF" stroke-miterlimit="10" d="M215.5,313.2c-18.6-45.8,221.2-43,279,99.5
			c57.1,140.8-138.3,191.4-166.7,84.7"/>
		<path fill="none" stroke="#FFFFFF" stroke-miterlimit="10" d="M220.8,311.7c-18.6-45.9,222-43.9,280.1,99.1
			c57.4,141.3-138.8,192-167.1,85"/>
		<path fill="none" stroke="#FFFFFF" stroke-miterlimit="10" d="M226.1,310.1c-18.6-46,222.7-44.8,281.2,98.7
			C565.2,550.6,368.2,601.4,340,494"/>
		<path fill="none" stroke="#FFFFFF" stroke-miterlimit="10" d="M231.6,308.3c-18.6-46.1,223.5-45.7,282.3,98.3
			c58.1,142.4-139.7,193.2-167.8,85.6"/>
		<path fill="none" stroke="#FFFFFF" stroke-miterlimit="10" d="M237.1,306.5c-18.6-46.1,224.3-46.7,283.5,97.9
			c58.4,142.9-140.1,193.8-168.1,85.9"/>
		<path fill="none" stroke="#FFFFFF" stroke-miterlimit="10" d="M242.7,304.6c-18.6-46.2,225.1-47.6,284.6,97.6
			c58.7,143.4-140.5,194.4-168.5,86.2"/>
		<path fill="none" stroke="#FFFFFF" stroke-miterlimit="10" d="M248.4,302.5c-18.6-46.3,225.9-48.5,285.7,97.2
			c59,143.9-141,195.1-168.8,86.5"/>
		<path fill="none" stroke="#FFFFFF" stroke-miterlimit="10" d="M254.2,300.4C235.6,254,480.8,251,540.9,397.2
			c59.3,144.5-141.4,195.7-169.2,86.7"/>
		<path fill="none" stroke="#FFFFFF" stroke-miterlimit="10" d="M260,298.1c-18.6-46.5,227.5-50.3,287.9,96.4
			c59.6,145-141.9,196.3-169.5,87"/>
		<path fill="none" stroke="#FFFFFF" stroke-miterlimit="10" d="M265.9,295.7c-18.6-46.6,228.2-51.2,289,96.1
			c59.9,145.5-142.3,196.9-169.9,87.3"/>
		<path fill="none" stroke="#FFFFFF" stroke-miterlimit="10" d="M272,293.2c-18.6-46.6,229-52.1,290.1,95.7
			c60.3,146-142.8,197.5-170.2,87.6"/>
		<path fill="none" stroke="#FFFFFF" stroke-miterlimit="10" d="M278,290.6c-18.6-46.7,229.8-53,291.2,95.3
			c60.6,146.6-143.2,198.2-170.6,87.9"/>
		<path fill="none" stroke="#FFFFFF" stroke-miterlimit="10" d="M284.2,287.9c-18.6-46.8,230.6-53.9,292.3,94.9
			c60.9,147.1-143.7,198.8-171,88.2"/>
		<path fill="none" stroke="#FFFFFF" stroke-miterlimit="10" d="M290.4,285c-18.6-46.9,231.4-54.8,293.4,94.5
			C645,527.2,439.7,579,412.5,468.1"/>
		<path fill="none" stroke="#FFFFFF" stroke-miterlimit="10" d="M296.8,282.1c-18.6-47,232.2-55.7,294.5,94.2
			c61.5,148.1-144.5,200-171.7,88.8"/>
		<path fill="none" stroke="#FFFFFF" stroke-miterlimit="10" d="M303.1,279c-18.6-47.1,233-56.6,295.6,93.8
			c61.8,148.6-145,200.6-172,89.1"/>
		<path fill="none" stroke="#FFFFFF" stroke-miterlimit="10" d="M309.6,275.8c-18.6-47.2,233.8-57.6,296.7,93.4
			c62.1,149.2-145.4,201.2-172.4,89.4"/>
		<path fill="none" stroke="#FFFFFF" stroke-miterlimit="10" d="M316.1,272.5c-18.6-47.2,234.5-58.5,297.8,93
			c62.4,149.7-145.9,201.9-172.7,89.7"/>
		<path fill="none" stroke="#FFFFFF" stroke-miterlimit="10" d="M322.7,269.1c-18.6-47.3,235.3-59.4,298.9,92.7
			c62.8,150.2-146.3,202.5-173.1,90"/>
		<path fill="none" stroke="#FFFFFF" stroke-miterlimit="10" d="M329.4,265.5c-18.6-47.4,236.1-60.3,300,92.3
			c63.1,150.7-146.8,203.1-173.4,90.3"/>
		<path fill="none" stroke="#FFFFFF" stroke-miterlimit="10" d="M336.1,261.8c-18.6-47.5,236.9-61.2,301.1,91.9
			C700.6,505,490,557.5,463.4,444.3"/>
		<path fill="none" stroke="#FFFFFF" stroke-miterlimit="10" d="M342.9,258c-18.6-47.6,237.7-62.1,302.2,91.5
			c63.7,151.8-147.7,204.3-174.1,90.8"/>
		<path fill="none" stroke="#FFFFFF" stroke-miterlimit="10" d="M349.8,254.1c-18.6-47.7,238.5-63,303.3,91.1
			c64,152.3-148.1,204.9-174.5,91.1"/>
		<path fill="none" stroke="#FFFFFF" stroke-miterlimit="10" d="M356.7,250.1c-18.6-47.7,239.3-63.9,304.4,90.8
			c64.3,152.8-148.5,205.6-174.9,91.4"/>
		<path fill="none" stroke="#FFFFFF" stroke-miterlimit="10" d="M363.7,245.9c-18.6-47.8,240-64.8,305.5,90.4
			c64.6,153.3-149,206.2-175.2,91.7"/>
		<path fill="none" stroke="#FFFFFF" stroke-miterlimit="10" d="M370.7,241.7c-18.6-47.9,240.8-65.7,306.6,90
			c64.9,153.9-149.4,206.8-175.6,92"/>
		<path fill="none" stroke="#FFFFFF" stroke-miterlimit="10" d="M377.8,237.3c-18.6-48,241.6-66.6,307.7,89.6
			c65.2,154.4-149.9,207.4-175.9,92.3"/>
		<path fill="none" stroke="#FFFFFF" stroke-miterlimit="10" d="M384.9,232.7c-18.6-48.1,242.4-67.5,308.8,89.3
			c65.6,154.9-150.3,208-176.3,92.6"/>
		<path fill="none" stroke="#FFFFFF" stroke-miterlimit="10" d="M392.1,228.1c-18.6-48.2,243.2-68.5,309.9,88.9
			c65.9,155.4-150.8,208.7-176.6,92.9"/>
		<path fill="none" stroke="#FFFFFF" stroke-miterlimit="10" d="M399.4,223.3c-18.6-48.2,244-69.4,311,88.5
			c66.2,155.9-151.2,209.3-177,93.2"/>
		<path fill="none" stroke="#FFFFFF" stroke-miterlimit="10" d="M406.7,218.4c-18.6-48.3,244.8-70.3,312.1,88.1
			C785.3,463,567.1,516.4,541.5,400"/>
		<path fill="none" stroke="#FFFFFF" stroke-miterlimit="10" d="M414.1,213.4c-18.6-48.4,245.5-71.2,313.2,87.7
			c66.8,157-152.1,210.5-177.7,93.8"/>
		<path fill="none" stroke="#FFFFFF" stroke-miterlimit="10" d="M421.5,208.2c-18.6-48.5,246.3-72.1,314.3,87.4
			c67.1,157.5-152.6,211.1-178,94.1"/>
		<path fill="none" stroke="#FFFFFF" stroke-miterlimit="10" d="M429.6,202.7c-18.6-48.6,247.1-73,315.4,87
			c67.4,158-153,211.7-178.4,94.3"/>
		<path fill="none" stroke="#FFFFFF" stroke-miterlimit="10" d="M436.7,198.6c-18.6-48.7,247.9-73.9,316.5,86.6
			c67.7,158.6-153.4,212.4-178.8,94.6"/>
		<path fill="none" stroke="#FFFFFF" stroke-miterlimit="10" d="M442.4,196.1c-18.6-48.7,248.7-74.8,317.6,86.2
			c68.1,159.1-153.9,213-179.1,94.9"/>
		<path fill="none" stroke="#FFFFFF" stroke-miterlimit="10" d="M446.8,195.2c-18.7-48.8,249.5-75.7,318.7,85.8
			c68.4,159.6-154.3,213.6-179.5,95.2"/>
		<path fill="none" stroke="#FFFFFF" stroke-miterlimit="10" d="M449.9,195.7c-18.7-48.9,250.3-76.6,319.8,85.5
			c68.7,160.1-154.8,214.2-179.8,95.5"/>
		<path fill="none" stroke="#FFFFFF" stroke-miterlimit="10" d="M451.8,197.5c-18.7-49,251.1-77.5,320.9,85.1
			c69,160.6-155.2,214.8-180.2,95.8"/>
		<path fill="none" stroke="#FFFFFF" stroke-miterlimit="10" d="M452.7,200.5c-18.7-49.1,251.8-78.4,322,84.7
			c69.3,161.2-155.7,215.5-180.5,96.1"/>
		<path fill="none" stroke="#FFFFFF" stroke-miterlimit="10" d="M452.6,204.5c-18.7-49.2,252.6-79.3,323.1,84.3
			c69.6,161.7-156.1,216.1-180.9,96.4"/>
		<path fill="none" stroke="#FFFFFF" stroke-miterlimit="10" d="M451.7,209.5c-18.7-49.2,253.4-80.3,324.2,84
			c69.9,162.2-156.6,216.7-181.2,96.7"/>
		<path fill="none" stroke="#FFFFFF" stroke-miterlimit="10" d="M450,215.2c-18.7-49.3,254.2-81.2,325.3,83.6
			c70.2,162.7-157,217.3-181.6,97"/>
		<path fill="none" stroke="#FFFFFF" stroke-miterlimit="10" d="M447.6,221.6c-18.7-49.4,255-82.1,326.4,83.2
			C844.6,468,616.6,522.7,592.1,402"/>
		<path fill="none" stroke="#FFFFFF" stroke-miterlimit="10" d="M444.6,228.5c-18.7-49.5,255.8-83,327.5,82.8
			c70.9,163.8-157.9,218.5-182.3,97.6"/>
		<path fill="none" stroke="#FFFFFF" stroke-miterlimit="10" d="M441.2,235.8c-18.7-49.6,256.6-83.9,328.6,82.4
			c71.2,164.3-158.3,219.2-182.6,97.9"/>
		<path fill="none" stroke="#FFFFFF" stroke-miterlimit="10" d="M437.3,243.4c-18.7-49.7,257.3-84.8,329.7,82.1
			c71.5,164.8-158.8,219.8-183,98.2"/>
		<path fill="none" stroke="#FFFFFF" stroke-miterlimit="10" d="M433.2,251.1c-18.7-49.7,258.1-85.7,330.8,81.7
			c71.8,165.3-159.2,220.4-183.4,98.4"/>
		<path fill="none" stroke="#FFFFFF" stroke-miterlimit="10" d="M428.9,258.8c-18.7-49.8,258.9-86.6,331.9,81.3
			c72.1,165.9-159.7,221-183.7,98.7"/>
		<path fill="none" stroke="#FFFFFF" stroke-miterlimit="10" d="M424.4,266.4c-18.7-49.9,259.7-87.5,333,80.9
			c72.4,166.4-160.1,221.6-184.1,99"/>
		<path fill="none" stroke="#FFFFFF" stroke-miterlimit="10" d="M420,273.8c-18.7-50,260.5-88.4,334.1,80.6
			c72.7,166.9-160.6,222.3-184.4,99.3"/>
		<path fill="none" stroke="#FFFFFF" stroke-miterlimit="10" d="M415.7,280.8C397,230.7,676.9,191.5,750.9,361
			c73,167.4-161,222.9-184.8,99.6"/>
		<path fill="none" stroke="#FFFFFF" stroke-miterlimit="10" d="M411.5,287.3c-18.7-50.2,262.1-90.2,336.3,79.8
			C821.2,535,586.4,590.6,562.7,467"/>
		<path fill="none" stroke="#FFFFFF" stroke-miterlimit="10" d="M407.7,293.2C389,242.9,670.5,202,745.1,372.6
			c73.7,168.5-161.9,224.1-185.5,100.2"/>
		<path fill="none" stroke="#FFFFFF" stroke-miterlimit="10" d="M404.2,298.3c-18.7-50.3,263.6-92.1,338.5,79
			c74,169-162.3,224.7-185.8,100.5"/>
		<path fill="none" stroke="#FFFFFF" stroke-miterlimit="10" d="M401.2,302.5c-18.7-50.4,264.4-93,339.6,78.7
			C815.1,550.7,578,606.5,554.6,482"/>
		<path fill="none" stroke="#FFFFFF" stroke-miterlimit="10" d="M398.7,305.8C380,255.3,663.9,211.9,739.5,384
			c74.6,170-163.2,226-186.5,101.1"/>
		<path fill="none" stroke="#FFFFFF" stroke-miterlimit="10" d="M397,307.8c-18.7-50.6,266-94.8,341.8,77.9
			c74.9,170.6-163.7,226.6-186.9,101.4"/>
		<path fill="none" stroke="#FFFFFF" stroke-miterlimit="10" d="M396,308.7c-18.7-50.7,266.8-95.7,343,77.5
			c75.2,171.1-164.1,227.2-187.3,101.7"/>
	</g>
	<g>
		<path fill="none" stroke="#CDCED0" stroke-miterlimit="10" d="M732,242.5c0,0-272.4-195-461.4-111
			C-300.5,385.4,2466.8,396.1,0,185.4"/>
		<path fill="none" stroke="#CECFD1" stroke-miterlimit="10" d="M0,187c145.7,12.4,272.2,22.5,384,32.2
			c389.7,33.5,571.3,68.4,628.2,88.7c137.8,49.1-494.6,27.1-730.7-49.6c-97.7-31.7-127.6-73.7-6.7-126.6
			C462,50.2,731.5,244.9,732,244.9"/>
		<path fill="none" stroke="#CECFD1" stroke-miterlimit="10" d="M0,188.5c144.3,12.3,268.6,20.7,380.6,29
			c386.6,28.5,564.7,69.3,622.1,91.1c136.7,51.8-485.9,22-718.1-53.3c-96.2-31.2-125.3-72.1-5.7-123.4
			c185.4-78.9,452,115.5,453,115.5"/>
		<path fill="none" stroke="#CFD0D2" stroke-miterlimit="10" d="M0,190c142.9,12.1,265.1,18.9,377.2,25.8
			c383.3,23.5,558,70.3,616,93.5c135.6,54.3-477.2,17-705.4-57c-94.6-30.7-123.2-70.7-4.7-120.3C466.6,55.2,730.5,249.7,732,249.7"
			/>
		<path fill="none" stroke="#CFD0D2" stroke-miterlimit="10" d="M0,191.6c141.5,11.9,261.5,17.1,373.8,22.6
			c380,18.6,551.4,71.1,610,95.9c134.6,56.8-468.5,12-692.8-60.7c-93.1-30.2-121-69.1-3.7-117.2C468.9,57.7,730,252.1,732,252.1"/>
		<path fill="none" stroke="#D0D1D3" stroke-miterlimit="10" d="M0,193.1c140,11.8,257.9,15.3,370.4,19.5
			c376.7,13.8,544.7,72,603.9,98.3c133.5,59.2-459.8,7-680.1-64.4c-91.5-29.7-118.8-67.6-2.7-114.1c179.7-72,438,122.2,440.5,122.2"
			/>
		<path fill="none" stroke="#D1D2D3" stroke-miterlimit="10" d="M0,194.6c138.6,11.6,254.8,4.3,367,16.3
			c371.3,39.6,538,72.9,597.8,100.7c132.4,61.6-451.1,1.9-667.4-68.2c-89.9-29.2-116.6-66-1.7-111C473.6,62.8,729,256.8,732,256.8"
			/>
		<path fill="none" stroke="#D1D2D4" stroke-miterlimit="10" d="M0,196.2c137.2,11.5,251.2,1,363.6,13.1
			c367.8,39.5,531.3,73.7,591.7,103c131.3,63.8-442.4-3.1-654.8-71.9c-88.4-28.6-114.4-64.4-0.7-107.9
			C476,65.3,728.5,259.2,732,259.2"/>
		<path fill="none" stroke="#D2D3D5" stroke-miterlimit="10" d="M0,197.7c135.8,11.3,247.5-2.2,360.2,9.9
			c364.3,39.3,524.6,74.5,585.7,105.4c130.3,66.1-433.7-8.1-642.1-75.6c-86.8-28.1-112.2-62.9,0.3-104.8
			C478.3,67.9,728,261.6,732,261.6"/>
		<path fill="none" stroke="#D3D3D5" stroke-miterlimit="10" d="M0,199.2c134.4,11.2,243.8-5.5,356.8,6.7
			c360.8,39,517.9,75.3,579.6,107.8c129.2,68.2-425-13.2-629.5-79.3c-85.3-27.6-110-61.3,1.3-101.6C480.6,70.4,727.5,264,732,264"/>
		<path fill="none" stroke="#D3D4D6" stroke-miterlimit="10" d="M0,200.8c132.9,11,240.1-8.7,353.4,3.6
			c357.4,38.7,511.2,76.1,573.5,110.2c128.2,70.3-416.3-18.2-616.8-83c-83.7-27.1-107.8-59.7,2.3-98.5C483,72.9,727,266.4,732,266.4
			"/>
		<path fill="none" stroke="#D4D5D6" stroke-miterlimit="10" d="M0,202.3c131.5,10.9,236.3-11.9,350,0.4
			c353.9,38.2,504.5,76.8,567.4,112.6c127.1,72.3-407.6-23.2-604.1-86.7c-82.2-26.6-105.6-58.1,3.3-95.4
			C485.3,75.5,726.5,268.7,732,268.7"/>
		<path fill="none" stroke="#D4D5D7" stroke-miterlimit="10" d="M0,203.8c130.1,10.7,232.5-15.1,346.6-2.8
			c350.5,37.7,497.8,77.5,561.3,115c126.1,74.3-398.8-28.3-591.5-90.4c-80.6-26-103.4-56.6,4.3-92.3C487.7,78,726,271.1,732,271.1"
			/>
		<path fill="none" stroke="#D5D6D8" stroke-miterlimit="10" d="M0,205.3c128.7,10.6,228.6-18.2,343.2-6
			c347.1,37.1,491.1,78.3,555.3,117.4c125.1,76.3-390.1-33.3-578.8-94.2c-79-25.5-101.2-55,5.3-89.2c165-52.9,400.4,140.1,407,140.1
			"/>
		<path fill="none" stroke="#D6D6D8" stroke-miterlimit="10" d="M0,206.9c127.3,10.4,224.7-21.3,339.8-9.1
			c343.8,36.4,484.4,79,549.2,119.8c124.1,78.2-381.4-38.3-566.2-97.9c-77.5-25-99-53.5,6.3-86.1C492.4,83,724.9,275.9,732,275.9"/>
		<path fill="none" stroke="#D6D7D9" stroke-miterlimit="10" d="M0,208.4c125.8,10.2,220.7-24.4,336.4-12.3
			c340.4,35.6,477.7,79.7,543.1,122.2c123.1,80-372.7-43.4-553.5-101.6c-75.9-24.5-96.8-51.9,7.3-83
			C494.8,85.6,724.4,278.3,732,278.3"/>
		<path fill="none" stroke="#D7D8D9" stroke-miterlimit="10" d="M0,209.9c124.4,10.1,216.7-27.5,333-15.5
			c337.1,34.8,471,80.3,537,124.6c122.1,81.8-364-48.4-540.8-105.3c-74.4-24-94.6-50.3,8.3-79.8C497.2,88.1,723.9,280.6,732,280.6"
			/>
		<path fill="none" stroke="#D7D8DA" stroke-miterlimit="10" d="M0,211.5c123,9.9,212.8-5.6,329.6-18.7c333.4-37.5,464.3,81,531,127
			c121.2,83.6-355.3-53.4-528.2-109c-72.8-23.5-92.3-48.8,9.3-76.7C499.6,90.6,723.4,283,732,283"/>
		<path fill="none" stroke="#D8D9DA" stroke-miterlimit="10" d="M0,213c121.6,9.8,208.9-7.2,326.2-21.8
			c329.6-41.1,457.6,81.6,524.9,129.4c120.2,85.3-346.6-58.4-515.5-112.7c-71.2-22.9-90.1-47.2,10.3-73.6
			c156-41,377,151.2,386.1,151.2"/>
		<path fill="none" stroke="#D9D9DB" stroke-miterlimit="10" d="M0,214.5c120.1,9.6,205-8.9,322.8-25
			c325.8-44.7,450.9,82.2,518.8,131.7c119.3,87-337.9-63.5-502.9-116.4c-69.7-22.4-87.9-45.6,11.3-70.5
			C504.3,95.7,722.4,287.8,732,287.8"/>
		<path fill="none" stroke="#D9DADC" stroke-miterlimit="10" d="M0,216.1c118.7,9.5,201.1-10.5,319.4-28.2
			c321.9-48.2,444.3,82.8,512.7,134.1C950.6,410.7,503,253.5,342,201.8c-68.1-21.9-85.7-44.1,12.3-67.4
			C506.7,98.2,721.9,290.2,732,290.2"/>
		<path fill="none" stroke="#DADBDC" stroke-miterlimit="10" d="M0,217.6c117.3,9.3,197.2-12.1,316-31.4
			c318.1-51.6,437.6,83.4,506.6,136.5c117.5,90.4-320.5-73.5-477.5-123.9c-66.6-21.4-83.4-42.5,13.3-64.3
			C509.1,100.7,721.4,292.5,732,292.5"/>
		<path fill="none" stroke="#DBDBDD" stroke-miterlimit="10" d="M0,219.1c115.9,9.2,193.3-13.7,312.6-34.6
			c314.2-54.9,430.9,84,500.6,138.9c116.7,92-311.8-78.6-464.9-127.6c-65-20.9-81.2-40.9,14.3-61.1
			C511.5,103.3,720.9,294.9,732,294.9"/>
		<path fill="none" stroke="#DBDCDD" stroke-miterlimit="10" d="M0,220.7c114.5,9,189.3-15.3,309.2-37.7
			c310.3-58.2,424.3,84.6,494.5,141.3c115.8,93.6-303.1-83.6-452.2-131.3c-63.4-20.3-79-39.4,15.3-58
			C514,105.8,720.4,297.3,732,297.3"/>
		<path fill="none" stroke="#DCDDDE" stroke-miterlimit="10" d="M0,222.2c113,8.8,185.3-16.8,305.8-40.9
			C612.2,120,723.5,266.4,794.3,325c115,95.1-294.4-88.6-439.6-135C292.8,170.1,278,152.2,371,135c145.3-26.7,348.8,164.6,361,164.6
			"/>
		<path fill="none" stroke="#DCDDDF" stroke-miterlimit="10" d="M0,223.7c111.6,8.7,181.4-18.4,302.4-44.1
			c302.5-64.3,411,85.7,482.3,146.1c114.1,96.7-285.6-93.7-426.9-138.7c-60.3-19.3-74.5-36.2,17.3-51.8
			C518.8,110.8,719.4,302.1,732,302.1"/>
		<path fill="none" stroke="#DDDEDF" stroke-miterlimit="10" d="M0,225.2c110.2,8.5,177.4-19.9,299-47.3
			c298.6-67.3,404.4,86.2,476.3,148.5c113.3,98.2-276.9-98.7-414.3-142.4c-58.8-18.8-72.2-34.7,18.3-48.7
			c141.8-22,339.5,169.1,352.6,169.1"/>
		<path fill="none" stroke="#DEDEE0" stroke-miterlimit="10" d="M0,226.8c108.8,8.4,173.4-21.4,295.6-50.4
			c294.6-70.1,397.7,86.7,470.2,150.9c112.5,99.7-268.2-103.7-401.6-146.1c-57.2-18.3-70-33.1,19.4-45.6
			C523.7,115.9,718.4,306.8,732,306.8"/>
		<path fill="none" stroke="#DEDFE0" stroke-miterlimit="10" d="M0,228.3c107.3,8.2,169.4-22.8,292.2-53.6
			C583,101.8,683.4,261.9,756.4,328c111.8,101.2-259.5-108.8-388.9-149.9c-55.6-17.8-67.7-31.5,20.4-42.5
			C526.1,118.4,717.8,309.2,732,309.2"/>
		<path fill="none" stroke="#DFE0E1" stroke-miterlimit="10" d="M0,229.8c105.9,8.1,165.4-24.3,288.8-56.8
			c286.8-75.6,384.5,87.7,458,155.7c111,102.7-250.8-113.8-376.3-153.6c-54.1-17.2-65.4-29.9,21.4-39.3
			C528.6,121,717.3,311.6,732,311.6"/>
		<path fill="none" stroke="#E0E0E1" stroke-miterlimit="10" d="M0,231.4c104.5,7.9,161.4-25.7,285.4-60
			c282.9-78.2,378,88.2,451.9,158c110.3,104.1-242.1-118.8-363.6-157.3c-52.5-16.7-63.2-28.4,22.4-36.2C531,123.5,716.8,314,732,314
			"/>
		<path fill="none" stroke="#E0E1E2" stroke-miterlimit="10" d="M0,232.9c103.1,7.8,157.4-27.1,282-63.2
			C561,89,653.4,258.4,727.9,330.2c109.5,105.6-233.4-123.8-351-161c-51-16.2-60.9-26.8,23.4-33.1c133.2-10,316,180.3,331.7,180.3"
			/>
		<path fill="none" stroke="#E1E1E3" stroke-miterlimit="10" d="M0,234.4c101.7,7.6,153.4-28.5,278.6-66.3
			C553.7,85,643.5,257.2,718.4,330.9c108.8,107-224.7-128.9-338.3-164.7c-49.4-15.7-58.6-25.2,24.4-30
			C536,128.6,715.8,318.7,732,318.7"/>
		<path fill="none" stroke="#E1E2E3" stroke-miterlimit="10" d="M0,236c100.2,7.4,149.4-29.8,275.2-69.5
			C546.4,80.9,633.5,256,709,331.7c108.1,108.4-216-133.9-325.6-168.4c-47.8-15.2-56.3-30.4,25.4-26.9
			C538.5,142,715.3,321.1,732,321.1"/>
		<path fill="none" stroke="#E2E3E4" stroke-miterlimit="10" d="M0,237.5c98.8,7.3,145.4-31.2,271.8-72.7
			c267.3-87.8,351.7,90,427.6,167.6c107.4,109.8-207.3-138.9-313-172.1c-46.3-14.7-53.9-29,26.4-23.8c127.9,8.3,301.9,187,319.2,187
			"/>
		<path fill="none" stroke="#E3E3E4" stroke-miterlimit="10" d="M0,239c97.4,7.1,141.4-32.5,268.4-75.9
			c263.4-90,345.2,90.4,421.6,170c106.8,111.2-198.6-144-300.3-175.9c-44.7-14.1-51.4-27.5,27.4-20.7
			c125.9,11,297.2,189.2,315,189.2"/>
		<path fill="none" stroke="#E3E4E5" stroke-miterlimit="10" d="M0,240.6c96,7,137.4-33.7,265-79c259.6-92.2,338.7,90.9,415.5,172.4
			c106.1,112.6-189.9-149-287.7-179.6c-43.2-13.6-49-26.1,28.4-17.5c124,13.7,292.6,191.5,310.8,191.5"/>
		<path fill="none" stroke="#E4E4E5" stroke-miterlimit="10" d="M0,242.1c94.6,6.8,133.4-35,261.6-82.2
			c255.8-94.2,332.2,91.3,409.4,174.8c105.4,114-181.1-154-275-183.3c-41.6-13.1-46.5-24.6,29.4-14.4
			C547.5,153.3,713.3,330.7,732,330.7"/>
		<path fill="none" stroke="#E4E5E6" stroke-miterlimit="10" d="M0,243.6c93.1,6.7,129.4-36.2,258.2-85.4
			C510.2,62,583.9,249.9,661.6,335.4c104.8,115.4-172.4-159.1-262.3-187c-40-12.6-44.8-15.6,30.4-11.3C551,144,712.8,333,732,333"/>
		<path fill="none" stroke="#E5E6E7" stroke-miterlimit="10" d="M0,245.1c91.7,6.5,125.4-37.4,254.8-88.6
			C503,58.4,574.1,248.7,652.1,336.1c104.2,116.8-163.7-164.1-249.7-190.7c-38.5-12.1-42.5-14,31.4-8.2
			c119.8,9.4,278.5,198.2,298.3,198.2"/>
		<path fill="none" stroke="#E6E6E7" stroke-miterlimit="10" d="M0,246.7c90.3,6.4,121.5-38.5,251.4-91.7
			c244.4-100.1,312.7,92.5,391.2,182c103.6,118.1-155-169.1-237-194.4c-36.9-11.5-40.2-12.3,32.4-5.1
			C556.1,149.2,711.8,337.8,732,337.8"/>
		<path fill="none" stroke="#E6E7E8" stroke-miterlimit="10" d="M0,248.2c88.9,6.2,117.5-39.7,248-94.9
			c240.6-101.9,306.3,92.9,385.1,184.4c103,119.5-146.4-174-224.4-198.1c-35.4-11-37.9-10.7,33.4-2
			C558.7,151.8,711.3,340.2,732,340.2"/>
		<path fill="none" stroke="#E7E7E8" stroke-miterlimit="10" d="M0,249.7c87.4,6.1,113.6-40.8,244.6-98.1
			c236.9-103.7,299.8,93.3,379,186.7C726.1,459.2,486,159.4,412,136.5c-33.8-10.4-35.6-9.1,34.4,1.2
			C561.2,154.5,710.7,342.6,732,342.6"/>
		<path fill="none" stroke="#E8E8E9" stroke-miterlimit="10" d="M0,251.3c86,5.9,109.6-41.8,241.2-101.3
			c233.2-105.4,293.4,93.7,372.9,189.1c101.8,122.2-129-184-199-205.6c-32.3-9.9-33.2-7.4,35.4,4.3
			C563.8,157.1,710.2,344.9,732,344.9"/>
		<path fill="none" stroke="#E8E9EA" stroke-miterlimit="10" d="M0,252.8c84.6,5.7,105.7-42.9,237.8-104.5
			c229.5-107,287,94,366.9,191.5C706,463.4,484.5,150.8,418.3,130.6c-30.7-9.4-30.9-5.8,36.4,7.4c111.7,21.8,255,209.3,277.3,209.3"
			/>
		<path fill="none" stroke="#E9E9EA" stroke-miterlimit="10" d="M0,254.3c83.2,5.6,101.8-43.9,234.4-107.6
			C460.3,38.1,515,241.1,595.2,340.6c100.7,124.9-111.5-194.1-173.7-213c-29.2-8.9-28.6-4.1,37.4,10.5
			c110,24.3,250.3,211.6,273.2,211.6"/>
		<path fill="none" stroke="#E9EAEB" stroke-miterlimit="10" d="M0,255.9c81.8,5.4,98-44.8,231-110.8
			c222.2-110.2,274.2,94.8,354.7,196.3c100.2,126.2-102.8-199.1-161.1-216.7c-27.6-8.3-26.2-2.4,38.4,13.6
			c108.4,26.9,245.6,213.8,269,213.8"/>
		<path fill="none" stroke="#EAEAEB" stroke-miterlimit="10" d="M0,257.4c80.3,5.3,94.1-45.8,227.6-114
			c218.6-111.7,267.8,95.1,348.6,198.7c99.6,127.6-94.1-204.1-148.4-220.4c-26-7.8-23.9-0.7,39.4,16.7
			c106.8,29.4,241,216.1,264.8,216.1"/>
		<path fill="none" stroke="#EBEBEC" stroke-miterlimit="10" d="M0,258.9C79,264,90.3,212.3,224.2,141.8
			c215-113.2,261.4,95.5,342.6,201.1c99.1,128.9-85.4-209.1-135.8-224.1c-24.5-7.3-21.6,1,40.4,19.8
			c105.2,32,236.3,218.3,260.6,218.3"/>
		<path fill="none" stroke="#EBECEC" stroke-miterlimit="10" d="M0,260.5c77.5,5,86.4-47.5,220.8-120.3
			c211.5-114.6,255,95.9,336.5,203.5c98.6,130.3-76.7-214.2-123.1-227.8c-22.9-6.8-19.2,2.7,41.4,23
			C579.2,173.3,707.2,359.2,732,359.2"/>
		<path fill="none" stroke="#ECECED" stroke-miterlimit="10" d="M0,262c76.1,4.8,82.7-48.4,217.4-123.5
			c208-116,248.7,96.2,330.4,205.9c98.1,131.6-68-219.2-110.4-231.6c-21.4-6.2-16.9,4.4,42.4,26.1c102,37.2,226.9,222.8,252.2,222.8
			"/>
		<path fill="none" stroke="#ECEDEE" stroke-miterlimit="10" d="M0,263.5c74.7,4.7,78.9-49.2,214-126.7
			c204.5-117.4,242.3,96.5,324.3,208.3c97.6,133-59.3-224.2-97.8-235.3C420.8,104.1,426,116,484,139C584.4,178.8,706.2,364,732,364"
			/>
		<path fill="none" stroke="#EDEDEE" stroke-miterlimit="10" d="M0,265c73.2,4.5,75.2-49.9,210.6-129.9
			c201.1-118.7,236,96.9,318.2,210.7c97.1,134.3-50.6-229.2-85.1-239c-18.3-5.2-12.3,7.9,44.4,32.3
			c98.8,42.5,217.5,227.2,243.9,227.2"/>
		<path fill="none" stroke="#EEEEEF" stroke-miterlimit="10" d="M0,266.6c71.8,4.3,71.5-50.7,207.2-133
			c197.7-120,229.6,97.2,312.2,213c96.6,135.7-41.9-234.2-72.5-242.7c-16.7-4.6-9.9,9.7,45.4,35.4
			c97.1,45.2,212.8,229.5,239.7,229.5"/>
		<path fill="none" stroke="#EEEFEF" stroke-miterlimit="10" d="M0,268.1c70.4,4.2,67.8-51.4,203.8-136.2
			c194.4-121.2,223.3,97.6,306.1,215.4c96.2,137-33.2-239.2-59.8-246.4c-15.1-4.1-7.6,11.5,46.4,38.5
			C592,187.3,704.7,371.1,732,371.1"/>
		<path fill="none" stroke="#EFEFF0" stroke-miterlimit="10" d="M0,269.6c69,4,64.2-52,200.4-139.4c191-122.5,217,97.9,300,217.8
			c95.7,138.3-24.5-244.2-47.1-250.1c-13.6-3.6-5.3,13.2,47.4,41.6c93.8,50.6,203.4,233.9,231.3,233.9"/>
		<path fill="none" stroke="#F0F0F0" stroke-miterlimit="10" d="M0,271.2c67.5,3.9,60.6-52.7,197-142.6
			C384.8,4.9,407.8,226.8,491,348.8C586.3,488.5,475.2,99.6,456.5,95c-12-3-3,15,48.4,44.8C597.1,193,703.6,375.9,732,375.9"/>
		<path fill="none" stroke="#F0F0F1" stroke-miterlimit="10" d="M0,272.7c66.1,3.7,57-53.3,193.6-145.8
			C378.2,2,398.1,225.5,481.5,349.6c94.8,141-7.1-254.2-21.8-257.6c-10.5-2.4-0.7,16.8,49.4,47.9c90.5,56,194.1,238.4,223,238.4"/>
		<path fill="none" stroke="#F1F1F2" stroke-miterlimit="10" d="M0,274.2c64.7,3.6,53.5-53.8,190.2-148.9
			C371.5-0.8,388.4,224.2,472,350.3c94.4,142.4,1.6-259.1-9.2-261.3c-9-1.8,1.5,18.6,50.4,51c88.8,58.8,189.4,240.6,218.8,240.6"/>
		<path fill="none" stroke="#F1F2F2" stroke-miterlimit="10" d="M0,275.8c63.3,3.4,50-54.4,186.8-152.1
			C365-3.6,378.7,222.8,462.5,351c94,143.7,10.4-264.1,3.5-265c-7.4-1,3.8,20.5,51.4,54.1C604.5,201.7,702.1,383,732,383"/>
		<path fill="none" stroke="#F2F2F3" stroke-miterlimit="10" d="M0,277.3c61.9,3.3,46.5-54.9,183.4-155.3
			c175-128.4,185.6,99.5,269.6,229.8c93.5,145.1,19.1-269.7,16.2-268.7c-5.7-1.2,6.1,22.3,52.4,57.2
			c85.3,64.4,180,245.1,210.4,245.1"/>
		<path fill="none" stroke="#F3F3F3" stroke-miterlimit="10" d="M0,278.8c60.4,3.1,43.1-55.3,180-158.5
			C352-9.2,359.4,220.2,443.6,352.5C536.7,499,471.4,77.8,472.4,80.1c-4.2-0.7,8.3,24.1,53.4,60.3
			c83.6,67.2,175.3,247.4,206.2,247.4"/>
		<path fill="none" stroke="#F3F4F4" stroke-miterlimit="10" d="M0,280.4c59,2.9,39.8-55.7,176.6-161.6
			C345.6-12,349.8,218.9,434.1,353.3c92.7,147.8,36.5-279.8,41.5-276.1c-2.6-0.2,10.6,25.9,54.4,63.5c81.8,70,170.6,249.6,202,249.6
			"/>
		<path fill="none" stroke="#F4F4F5" stroke-miterlimit="10" d="M0,281.9c57.6,2.8,36.5-56.1,173.2-164.8
			C339.2-14.8,340.1,217.5,424.6,354C517,503.2,469.9,69.2,478.8,74.2c-1.1,0.4,12.8,27.8,55.4,66.6
			c80,72.8,165.9,251.8,197.9,251.8"/>
		<path fill="none" stroke="#F5F5F5" stroke-miterlimit="10" d="M0,283.4c56.2,2.6,33.2-56.5,169.8-168
			c163-133,160.7,100.8,245.3,239.3c91.9,150.5,54-289.9,66.8-283.6c0.5,0.9,15,29.6,56.4,69.7C616.5,216.5,699.6,395,732,395"/>
		<path fill="none" stroke="#F5F5F6" stroke-miterlimit="10" d="M0,284.9c54.7,2.5,30-56.9,166.4-171.2
			C326.5-20.3,320.9,214.9,405.7,355.5c91.5,151.9,63.4-296.3,79.5-287.3c2.2,1.2,17.2,31.4,57.4,72.8
			c76.3,78.4,156.5,256.3,189.5,256.3"/>
		<path fill="none" stroke="#F6F6F6" stroke-miterlimit="10" d="M0,286.5c53.3,2.3,26.8-57.2,163-174.3
			C320.2-23.1,311.3,213.5,396.2,356.3c91.1,153.2,71.8-300.8,92.1-291c3.7,1.8,19.4,33.3,58.4,75.9
			c74.4,81.3,151.8,258.5,185.3,258.5"/>
		<path fill="none" stroke="#F6F7F7" stroke-miterlimit="10" d="M0,288c51.9,2.2,23.7-57.5,159.6-177.5
			C314-25.9,301.7,212.2,386.7,357c90.8,154.6,80.3-305.5,104.8-294.7c5.2,2.3,21.6,35.1,59.4,79c72.5,84.1,147.2,260.8,181.1,260.8
			"/>
		<path fill="none" stroke="#F7F7F7" stroke-miterlimit="10" d="M0,289.5c50.5,2,20.7-57.7,156.2-180.7
			c151.6-137.6,135.9,102,221,248.9c90.4,156,89-310.4,117.4-298.4c6.8,2.9,23.7,36.9,60.4,82.1c70.6,86.9,142.5,263,176.9,263"/>
		<path fill="none" stroke="#F8F8F8" stroke-miterlimit="10" d="M0,291.1c49.1,1.9,17.6-57.9,152.8-183.9
			C301.7-31.5,282.5,209.5,367.8,358.5c90,157.3,97.6-315.3,130.1-302.1c8.3,3.4,25.9,38.8,61.4,85.3
			c68.6,89.7,137.8,265.2,172.8,265.2"/>
		<path fill="none" stroke="#F8F8F9" stroke-miterlimit="10" d="M0,292.6c47.6,1.7,14.7-58.2,149.4-187.1
			C295.6-34.3,272.9,208.2,358.3,359.2C448,517.9,464.6,38.9,501,53.4c9.9,3.9,28,40.6,62.4,88.4c66.6,92.5,133.1,267.5,168.6,267.5
			"/>
		<path fill="none" stroke="#F9F9F9" stroke-miterlimit="10" d="M0,294.1c46.2,1.6,11.8-58.3,146-190.2
			C289.6-37.2,263.4,206.8,348.8,360c89.3,160.1,115-325.3,155.4-309.6c11.4,4.5,30.1,42.4,63.4,91.5
			C632.3,237.3,696,411.6,732,411.6"/>
		<path fill="none" stroke="#F9FAFA" stroke-miterlimit="10" d="M0,295.7c44.8,1.4,8.9-58.5,142.6-193.4
			C283.6-40,253.8,205.5,339.3,360.7C428.3,522.2,463,30.5,507.4,47.5c13,5,32.3,44.2,64.4,94.6C634.5,240.2,695.5,414,732,414"/>
		<path fill="none" stroke="#FAFAFA" stroke-miterlimit="10" d="M0,297.2c43.4,1.2,6.2-58.7,139.2-196.6
			c138.4-143.5,105,103.5,190.6,260.9c88.6,162.8,132.4-335.3,180.7-317c14.5,5.5,34.4,46,65.4,97.7c60.6,100.9,119,274.2,156,274.2
			"/>
		<path fill="none" stroke="#FBFBFB" stroke-miterlimit="10" d="M0,298.7c42,1.1,3.4-58.8,135.8-199.8
			c135.9-144.7,98.9,103.9,184.5,263.3C408.7,526.5,461.5,21.9,513.8,41.5c16.1,6,36.5,47.8,66.4,100.8
			C638.7,246,694.5,418.8,732,418.8"/>
		<path fill="none" stroke="#FBFBFC" stroke-miterlimit="10" d="M0,300.3c40.5,0.9,0.8-58.9,132.4-202.9
			c133.4-146,92.7,104.2,178.5,265.7C398.8,528.6,460.7,17.8,517,38.6c17.7,6.6,38.6,49.6,67.4,103.9
			C640.9,248.9,694,421.2,732,421.2"/>
		<path fill="none" stroke="#FCFCFC" stroke-miterlimit="10" d="M0,301.8c39.1,0.8-1.9-59,129-206.1c131-147.3,86.6,104.5,172.4,268
			C389,530.7,459.9,13.5,520.1,35.6c19.2,7.1,40.7,51.3,68.4,107.1C643,251.8,693.5,423.5,732,423.5"/>
		<path fill="none" stroke="#FDFDFD" stroke-miterlimit="10" d="M0,303.3c37.7,0.6-4.4-59.1,125.6-209.3
			C254.3-54.6,206.1,198.8,292,364.5C379.2,532.9,459.1,9.2,523.3,32.6c20.8,7.6,42.8,53.1,69.4,110.2
			C645.1,254.7,693,425.9,732,425.9"/>
		<path fill="none" stroke="#FDFDFD" stroke-miterlimit="10" d="M0,304.8c36.3,0.5-6.9-59.2,122.2-212.5
			c126.3-150,74.3,105.1,160.2,272.8C369.4,535,458.4,4.9,526.5,29.7c22.3,8.1,44.8,54.9,70.4,113.3
			c50.2,114.6,95.6,285.4,135.1,285.4"/>
		<path fill="none" stroke="#FEFEFE" stroke-miterlimit="10" d="M0,306.4c34.8,0.3-9.4-59.2,118.8-215.6
			C242.9-60.6,187.1,196.1,273,366C359.6,537.1,457.6,0.6,529.7,26.7c23.9,8.7,46.9,56.6,71.4,116.4
			C649.3,260.4,692,430.7,732,430.7"/>
		<path fill="none" stroke="#FEFEFE" stroke-miterlimit="10" d="M0,307.9c33.4,0.2-11.8-59.3,115.4-218.8
			c121.8-152.7,62.4,105.5,148.1,277.6c86.7,172.4,193.3-370.4,269.3-343c25.4,9.2,49,58.4,72.4,119.5
			c46,120,86.2,289.8,126.7,289.8"/>
		<path fill="none" stroke="#FFFFFF" stroke-miterlimit="10" d="M0,309.4c32,0-14.2-59.4,112-222c119.6-154.2,56,106,142,280
			S456-7.9,536,20.7c80,28.7,134,414.7,196,414.7"/>
	</g>
</g>
</svg>
