<?xml version="1.0" encoding="utf-8"?>
<!-- Generator: Adobe Illustrator 18.0.0, SVG Export Plug-In . SVG Version: 6.00 Build 0)  -->
<!DOCTYPE svg PUBLIC "-//W3C//DTD SVG 1.1//EN" "http://www.w3.org/Graphics/SVG/1.1/DTD/svg11.dtd">
<svg version="1.1" id="Calque_1" xmlns="http://www.w3.org/2000/svg" xmlns:xlink="http://www.w3.org/1999/xlink" x="0px" y="0px"
	 viewBox="0 0 4000 2500" enable-background="new 0 0 4000 2500" xml:space="preserve">
<g>
	<g>
		<path fill="none" stroke="#FFFFFF" stroke-miterlimit="10" d="M1789.6,1097.5c-18.1-28.7,60.8,142.2,54.3,176.6
			c-6.5,34.4-47.6,65.3-94.4,25"/>
		<path fill="none" stroke="#FFFFFF" stroke-miterlimit="10" d="M1788.3,1097.5c-18.1-28.8,61.5,141.3,55.4,176.2
			c-6.2,34.9-48,65.9-94.8,25.3"/>
		<path fill="none" stroke="#FFFFFF" stroke-miterlimit="10" d="M1786.2,1097.4c-18.1-28.9,62.3,140.4,56.5,175.9
			c-5.9,35.4-48.5,66.5-95.1,25.6"/>
		<path fill="none" stroke="#FFFFFF" stroke-miterlimit="10" d="M1783.4,1097.4c-18.1-29,63.1,139.5,57.6,175.5
			c-5.6,35.9-48.9,67.2-95.5,25.9"/>
		<path fill="none" stroke="#FFFFFF" stroke-miterlimit="10" d="M1780,1097.4c-18.1-29.1,63.9,138.6,58.7,175.1
			c-5.3,36.5-49.4,67.8-95.8,26.2"/>
		<path fill="none" stroke="#FFFFFF" stroke-miterlimit="10" d="M1775.8,1097.5c-18.1-29.2,64.7,137.7,59.8,174.7
			c-4.9,37-49.8,68.4-96.2,26.5"/>
		<path fill="none" stroke="#FFFFFF" stroke-miterlimit="10" d="M1771.1,1097.6c-18.1-29.2,65.5,136.8,60.9,174.3
			c-4.6,37.5-50.3,69-96.6,26.8"/>
		<path fill="none" stroke="#FFFFFF" stroke-miterlimit="10" d="M1765.8,1097.7c-18.1-29.3,66.3,135.9,62,174
			c-4.3,38-50.7,69.6-96.9,27.1"/>
		<path fill="none" stroke="#FFFFFF" stroke-miterlimit="10" d="M1759.9,1097.8c-18.1-29.4,67,135,63.1,173.6
			c-4,38.6-51.1,70.2-97.3,27.4"/>
		<path fill="none" stroke="#FFFFFF" stroke-miterlimit="10" d="M1753.6,1098c-18.1-29.5,67.8,134.1,64.2,173.2
			c-3.7,39.1-51.6,70.9-97.6,27.7"/>
		<path fill="none" stroke="#FFFFFF" stroke-miterlimit="10" d="M1746.8,1098.2c-18.1-29.6,68.6,133.1,65.3,172.8
			c-3.4,39.6-52,71.5-98,27.9"/>
		<path fill="none" stroke="#FFFFFF" stroke-miterlimit="10" d="M1739.6,1098.5c-18.1-29.7,69.4,132.2,66.4,172.4
			c-3.1,40.1-52.5,72.1-98.3,28.2"/>
		<path fill="none" stroke="#FFFFFF" stroke-miterlimit="10" d="M1732.1,1098.9c-18.1-29.8,70.2,131.3,67.5,172.1
			c-2.8,40.6-52.9,72.7-98.7,28.5"/>
		<path fill="none" stroke="#FFFFFF" stroke-miterlimit="10" d="M1724.2,1099.3c-18.1-29.8,71,130.4,68.6,171.7
			c-2.4,41.2-53.4,73.3-99,28.8"/>
		<path fill="none" stroke="#FFFFFF" stroke-miterlimit="10" d="M1716,1099.8c-18.1-29.9,71.8,129.5,69.7,171.3
			c-2.1,41.7-53.8,73.9-99.4,29.1"/>
		<path fill="none" stroke="#FFFFFF" stroke-miterlimit="10" d="M1707.6,1100.4c-18.1-30,72.6,128.6,70.8,170.9
			c-1.8,42.2-54.3,74.6-99.7,29.4"/>
		<path fill="none" stroke="#FFFFFF" stroke-miterlimit="10" d="M1699,1101.1c-18.1-30.1,73.3,127.7,71.9,170.6
			c-1.5,42.7-54.7,75.2-100.1,29.7"/>
		<path fill="none" stroke="#FFFFFF" stroke-miterlimit="10" d="M1690.3,1101.9c-18.1-30.2,74.1,126.8,73,170.2
			c-1.2,43.3-55.1,75.8-100.5,30"/>
		<path fill="none" stroke="#FFFFFF" stroke-miterlimit="10" d="M1681.4,1102.7c-18.1-30.3,74.9,125.9,74.1,169.8
			c-0.9,43.8-55.6,76.4-100.8,30.3"/>
		<path fill="none" stroke="#FFFFFF" stroke-miterlimit="10" d="M1672.4,1103.7c-18.1-30.3,75.7,125,75.2,169.4
			c-0.6,44.3-56,77-101.2,30.6"/>
		<path fill="none" stroke="#FFFFFF" stroke-miterlimit="10" d="M1663.4,1104.7c-18.1-30.4,76.5,124.1,76.3,169
			c-0.3,44.8-56.5,77.7-101.5,30.9"/>
		<path fill="none" stroke="#FFFFFF" stroke-miterlimit="10" d="M1654.4,1105.9c-18.1-30.5,77.3,123.2,77.4,168.7
			c0.1,45.3-56.9,78.3-101.9,31.2"/>
		<path fill="none" stroke="#FFFFFF" stroke-miterlimit="10" d="M1645.4,1107.2c-18.1-30.6,78.1,122.3,78.5,168.3
			c0.4,45.9-57.4,78.9-102.2,31.5"/>
		<path fill="none" stroke="#FFFFFF" stroke-miterlimit="10" d="M1636.5,1108.6c-18.1-30.7,78.8,121.3,79.6,167.9
			c0.7,46.4-57.8,79.5-102.6,31.8"/>
		<path fill="none" stroke="#FFFFFF" stroke-miterlimit="10" d="M1627.7,1110.2c-18.1-30.8,79.6,120.4,80.7,167.5
			c1,46.9-58.3,80.1-102.9,32"/>
		<path fill="none" stroke="#FFFFFF" stroke-miterlimit="10" d="M1619.1,1111.8c-18.1-30.8,80.4,119.5,81.8,167.2
			c1.3,47.4-58.7,80.7-103.3,32.3"/>
		<path fill="none" stroke="#FFFFFF" stroke-miterlimit="10" d="M1610.6,1113.6c-18.1-30.9,81.2,118.6,82.9,166.8
			c1.6,47.9-59.1,81.4-103.6,32.6"/>
		<path fill="none" stroke="#FFFFFF" stroke-miterlimit="10" d="M1602.5,1115.6c-18.1-31,82,117.7,84,166.4
			c1.9,48.5-59.6,82-104,32.9"/>
		<path fill="none" stroke="#FFFFFF" stroke-miterlimit="10" d="M1594.6,1117.7c-18.1-31.1,82.8,116.8,85.1,166
			c2.2,49-60,82.6-104.3,33.2"/>
		<path fill="none" stroke="#FFFFFF" stroke-miterlimit="10" d="M1587,1120c-18.1-31.2,83.6,115.9,86.2,165.6
			c2.5,49.5-60.5,83.2-104.7,33.5"/>
		<path fill="none" stroke="#FFFFFF" stroke-miterlimit="10" d="M1579.8,1122.4c-18.1-31.3,84.3,115,87.3,165.3
			c2.9,50-60.9,83.8-105.1,33.8"/>
		<path fill="none" stroke="#FFFFFF" stroke-miterlimit="10" d="M1572.9,1125c-18.1-31.3,85.1,114.1,88.4,164.9
			c3.2,50.6-61.4,84.5-105.4,34.1"/>
		<path fill="none" stroke="#FFFFFF" stroke-miterlimit="10" d="M1566.6,1127.7c-18.1-31.4,85.9,113.2,89.5,164.5
			c3.5,51.1-61.8,85.1-105.8,34.4"/>
		<path fill="none" stroke="#FFFFFF" stroke-miterlimit="10" d="M1560.7,1130.7c-18.1-31.5,86.7,112.3,90.6,164.1
			c3.8,51.6-62.3,85.7-106.1,34.7"/>
		<path fill="none" stroke="#FFFFFF" stroke-miterlimit="10" d="M1555.3,1133.8c-18.1-31.6,87.5,111.4,91.7,163.8
			c4.1,52.1-62.7,86.3-106.5,35"/>
		<path fill="none" stroke="#FFFFFF" stroke-miterlimit="10" d="M1550.5,1137.1c-18.1-31.7,88.3,110.4,92.8,163.4
			c4.4,52.6-63.1,86.9-106.8,35.3"/>
		<path fill="none" stroke="#FFFFFF" stroke-miterlimit="10" d="M1546.3,1140.6c-18.1-31.8,89.1,109.5,93.9,163
			c4.7,53.2-63.6,87.5-107.2,35.6"/>
		<path fill="none" stroke="#FFFFFF" stroke-miterlimit="10" d="M1542.7,1144.3c-18.1-31.8,89.9,108.6,95,162.6
			c5,53.7-64,88.2-107.5,35.8"/>
		<path fill="none" stroke="#FFFFFF" stroke-miterlimit="10" d="M1539.9,1148.2c-18.2-31.9,90.6,107.7,96.1,162.2
			c5.4,54.2-64.5,88.8-107.9,36.1"/>
		<path fill="none" stroke="#FFFFFF" stroke-miterlimit="10" d="M1537.7,1152.3c-18.2-32,91.4,106.8,97.2,161.9
			c5.7,54.7-64.9,89.4-108.2,36.4"/>
		<path fill="none" stroke="#FFFFFF" stroke-miterlimit="10" d="M1536.4,1156.6c-18.2-32.1,92.2,105.9,98.3,161.5
			c6,55.2-65.4,90-108.6,36.7"/>
		<path fill="none" stroke="#FFFFFF" stroke-miterlimit="10" d="M1535.8,1161.1c-18.2-32.2,93,105,99.4,161.1
			c6.3,55.8-65.8,90.6-109,37"/>
		<path fill="none" stroke="#FFFFFF" stroke-miterlimit="10" d="M1536.1,1165.9c-18.2-32.3,93.8,104.1,100.5,160.7
			c6.6,56.3-66.3,91.3-109.3,37.3"/>
		<path fill="none" stroke="#FFFFFF" stroke-miterlimit="10" d="M1537.2,1170.9c-18.2-32.3,94.6,103.2,101.6,160.3
			c6.9,56.8-66.7,91.9-109.7,37.6"/>
		<path fill="none" stroke="#FFFFFF" stroke-miterlimit="10" d="M1539.3,1176.1c-18.2-32.4,95.4,102.3,102.7,160
			c7.2,57.3-67.2,92.5-110,37.9"/>
		<path fill="none" stroke="#FFFFFF" stroke-miterlimit="10" d="M1542.4,1181.6c-18.2-32.5,96.1,101.4,103.8,159.6
			c7.5,57.9-67.6,93.1-110.4,38.2"/>
		<path fill="none" stroke="#FFFFFF" stroke-miterlimit="10" d="M1546.4,1187.3c-18.2-32.6,96.9,100.5,104.9,159.2
			c7.9,58.4-68,93.7-110.7,38.5"/>
		<path fill="none" stroke="#FFFFFF" stroke-miterlimit="10" d="M1551.6,1193.2c-18.2-32.7,97.7,99.5,106,158.8
			c8.2,58.9-68.5,94.3-111.1,38.8"/>
		<path fill="none" stroke="#FFFFFF" stroke-miterlimit="10" d="M1556.3,1198.3c-18.2-32.8,98.5,98.6,107.2,158.5
			c8.5,59.4-68.9,95-111.4,39.1"/>
		<path fill="none" stroke="#FFFFFF" stroke-miterlimit="10" d="M1557.9,1200.4c-18.2-32.8,99.3,97.7,108.3,158.1
			c8.8,59.9-69.4,95.6-111.8,39.4"/>
		<path fill="none" stroke="#FFFFFF" stroke-miterlimit="10" d="M1558.9,1202c-18.2-32.9,100.1,96.8,109.4,157.7
			c9.1,60.5-69.8,96.2-112.1,39.6"/>
		<path fill="none" stroke="#FFFFFF" stroke-miterlimit="10" d="M1559.3,1203c-18.2-33,100.9,95.9,110.5,157.3
			c9.4,61-70.3,96.8-112.5,39.9"/>
		<path fill="none" stroke="#FFFFFF" stroke-miterlimit="10" d="M1559.4,1203.5c-18.2-33.1,101.6,95,111.6,156.9
			c9.7,61.5-70.7,97.4-112.9,40.2"/>
		<path fill="none" stroke="#FFFFFF" stroke-miterlimit="10" d="M1559,1203.4c-18.2-33.2,102.4,94.1,112.7,156.6
			c10,62-71.2,98-113.2,40.5"/>
		<path fill="none" stroke="#FFFFFF" stroke-miterlimit="10" d="M1558,1202.9c-18.2-33.3,103.2,93.2,113.8,156.2
			c10.3,62.6-71.6,98.7-113.6,40.8"/>
		<path fill="none" stroke="#FFFFFF" stroke-miterlimit="10" d="M1556.6,1201.9c-18.2-33.3,104,92.3,114.9,155.8
			c10.7,63.1-72,99.3-113.9,41.1"/>
		<path fill="none" stroke="#FFFFFF" stroke-miterlimit="10" d="M1554.6,1200.5c-18.2-33.4,104.8,91.4,116,155.4
			c11,63.6-72.5,99.9-114.3,41.4"/>
		<path fill="none" stroke="#FFFFFF" stroke-miterlimit="10" d="M1552.1,1198.6c-18.2-33.5,105.6,90.5,117.1,155.1
			c11.3,64.1-72.9,100.5-114.6,41.7"/>
		<path fill="none" stroke="#FFFFFF" stroke-miterlimit="10" d="M1549.2,1196.3c-18.2-33.6,106.4,89.6,118.2,154.7
			c11.6,64.6-73.4,101.1-115,42"/>
		<path fill="none" stroke="#FFFFFF" stroke-miterlimit="10" d="M1545.8,1193.6c-18.2-33.7,107.2,88.7,119.3,154.3
			c11.9,65.2-73.8,101.8-115.3,42.3"/>
		<path fill="none" stroke="#FFFFFF" stroke-miterlimit="10" d="M1542.1,1190.6c-18.2-33.8,107.9,87.7,120.4,153.9
			c12.2,65.7-74.3,102.4-115.7,42.6"/>
		<path fill="none" stroke="#FFFFFF" stroke-miterlimit="10" d="M1537.9,1187.2c-18.2-33.8,108.7,86.8,121.5,153.5
			c12.5,66.2-74.7,103-116,42.9"/>
		<path fill="none" stroke="#FFFFFF" stroke-miterlimit="10" d="M1533.3,1183.4c-18.2-33.9,109.5,85.9,122.6,153.2
			c12.8,66.7-75.2,103.6-116.4,43.2"/>
		<path fill="none" stroke="#FFFFFF" stroke-miterlimit="10" d="M1528.4,1179.4c-18.2-34,110.3,85,123.7,152.8
			c13.2,67.2-75.6,104.2-116.8,43.5"/>
		<path fill="none" stroke="#FFFFFF" stroke-miterlimit="10" d="M1523.2,1175c-18.2-34.1,111.1,84.1,124.8,152.4
			c13.5,67.8-76,104.8-117.1,43.7"/>
		<path fill="none" stroke="#FFFFFF" stroke-miterlimit="10" d="M1517.7,1170.4c-18.2-34.2,111.9,83.2,125.9,152
			c13.8,68.3-76.5,105.5-117.5,44"/>
		<path fill="none" stroke="#FFFFFF" stroke-miterlimit="10" d="M1511.8,1165.5c-18.2-34.3,112.7,82.3,127,151.6
			c14.1,68.8-76.9,106.1-117.8,44.3"/>
		<path fill="none" stroke="#FFFFFF" stroke-miterlimit="10" d="M1505.7,1160.4c-18.2-34.4,113.4,81.4,128.1,151.3
			c14.4,69.3-77.4,106.7-118.2,44.6"/>
		<path fill="none" stroke="#FFFFFF" stroke-miterlimit="10" d="M1499.3,1155.1c-18.2-34.4,114.2,80.5,129.2,150.9
			c14.7,69.9-77.8,107.3-118.5,44.9"/>
		<path fill="none" stroke="#FFFFFF" stroke-miterlimit="10" d="M1492.8,1149.5c-18.2-34.5,115,79.6,130.3,150.5
			c15,70.4-78.3,107.9-118.9,45.2"/>
		<path fill="none" stroke="#FFFFFF" stroke-miterlimit="10" d="M1486,1143.8c-18.2-34.6,115.8,78.7,131.4,150.1
			c15.3,70.9-78.7,108.6-119.2,45.5"/>
		<path fill="none" stroke="#FFFFFF" stroke-miterlimit="10" d="M1479,1138c-18.2-34.7,116.6,77.8,132.5,149.8
			c15.6,71.4-79.2,109.2-119.6,45.8"/>
		<path fill="none" stroke="#FFFFFF" stroke-miterlimit="10" d="M1471.8,1132c-18.2-34.8,117.4,76.8,133.6,149.4
			c16,71.9-79.6,109.8-119.9,46.1"/>
		<path fill="none" stroke="#FFFFFF" stroke-miterlimit="10" d="M1464.6,1125.9c-18.2-34.9,118.2,75.9,134.7,149
			c16.3,72.5-80.1,110.4-120.3,46.4"/>
		<path fill="none" stroke="#FFFFFF" stroke-miterlimit="10" d="M1457.2,1119.6c-18.2-34.9,118.9,75,135.8,148.6
			c16.6,73-80.5,111-120.6,46.7"/>
		<path fill="none" stroke="#FFFFFF" stroke-miterlimit="10" d="M1449.6,1113.4c-18.2-35,119.7,74.1,136.9,148.2
			c16.9,73.5-80.9,111.6-121,47"/>
		<path fill="none" stroke="#FFFFFF" stroke-miterlimit="10" d="M1442.1,1107c-18.2-35.1,120.5,73.2,138,147.9
			c17.2,74-81.4,112.3-121.4,47.3"/>
		<path fill="none" stroke="#FFFFFF" stroke-miterlimit="10" d="M1434.4,1100.6c-18.2-35.2,121.3,72.3,139.1,147.5
			c17.5,74.6-81.8,112.9-121.7,47.5"/>
		<path fill="none" stroke="#FFFFFF" stroke-miterlimit="10" d="M1426.7,1094.2c-18.3-35.3,122.1,71.4,140.2,147.1
			c17.8,75.1-82.3,113.5-122.1,47.8"/>
		<path fill="none" stroke="#FFFFFF" stroke-miterlimit="10" d="M1419,1087.8c-18.3-35.4,122.9,70.5,141.3,146.7
			c18.1,75.6-82.7,114.1-122.4,48.1"/>
		<path fill="none" stroke="#FFFFFF" stroke-miterlimit="10" d="M1411.4,1081.5c-18.3-35.4,123.7,69.6,142.4,146.4
			c18.5,76.1-83.2,114.7-122.8,48.4"/>
		<path fill="none" stroke="#FFFFFF" stroke-miterlimit="10" d="M1403.7,1075.1c-18.3-35.5,124.5,68.7,143.5,146
			c18.8,76.6-83.6,115.3-123.1,48.7"/>
		<path fill="none" stroke="#FFFFFF" stroke-miterlimit="10" d="M1396.1,1068.9c-18.3-35.6,125.2,67.8,144.6,145.6
			c19.1,77.2-84.1,116-123.5,49"/>
		<path fill="none" stroke="#FFFFFF" stroke-miterlimit="10" d="M1388.5,1062.7c-18.3-35.7,126,66.9,145.7,145.2
			c19.4,77.7-84.5,116.6-123.8,49.3"/>
		<path fill="none" stroke="#FFFFFF" stroke-miterlimit="10" d="M1381.1,1056.6c-18.3-35.8,126.8,65.9,146.8,144.8
			c19.7,78.2-84.9,117.2-124.2,49.6"/>
		<path fill="none" stroke="#FFFFFF" stroke-miterlimit="10" d="M1373.7,1050.6c-18.3-35.9,127.6,65,147.9,144.5
			c20,78.7-85.4,117.8-124.5,49.9"/>
		<path fill="none" stroke="#FFFFFF" stroke-miterlimit="10" d="M1366.5,1044.8c-18.3-35.9,128.4,64.1,149,144.1
			c20.3,79.2-85.8,118.4-124.9,50.2"/>
		<path fill="none" stroke="#FFFFFF" stroke-miterlimit="10" d="M1359.5,1039.1c-18.3-36,129.2,63.2,150.1,143.7
			c20.6,79.8-86.3,119.1-125.3,50.5"/>
		<path fill="none" stroke="#FFFFFF" stroke-miterlimit="10" d="M1352.6,1033.6c-18.3-36.1,130,62.3,151.2,143.3
			c21,80.3-86.7,119.7-125.6,50.8"/>
		<path fill="none" stroke="#FFFFFF" stroke-miterlimit="10" d="M1345.9,1028.4c-18.3-36.2,130.7,61.4,152.3,143
			c21.3,80.8-87.2,120.3-126,51.1"/>
		<path fill="none" stroke="#FFFFFF" stroke-miterlimit="10" d="M1339.4,1023.3c-18.3-36.3,131.5,60.5,153.4,142.6
			c21.6,81.3-87.6,120.9-126.3,51.3"/>
		<path fill="none" stroke="#FFFFFF" stroke-miterlimit="10" d="M1333.2,1018.5c-18.3-36.4,132.3,59.6,154.5,142.2
			c21.9,81.9-88.1,121.5-126.7,51.6"/>
		<path fill="none" stroke="#FFFFFF" stroke-miterlimit="10" d="M1327.2,1013.9c-18.3-36.4,133.1,58.7,155.6,141.8
			c22.2,82.4-88.5,122.1-127,51.9"/>
		<path fill="none" stroke="#FFFFFF" stroke-miterlimit="10" d="M1321.5,1009.6c-18.3-36.5,133.9,57.8,156.7,141.4
			c22.5,82.9-88.9,122.8-127.4,52.2"/>
		<path fill="none" stroke="#FFFFFF" stroke-miterlimit="10" d="M1316.1,1005.6c-18.3-36.6,134.7,56.9,157.8,141.1
			c22.8,83.4-89.4,123.4-127.7,52.5"/>
		<path fill="none" stroke="#FFFFFF" stroke-miterlimit="10" d="M1311.1,1002c-18.3-36.7,135.5,56,158.9,140.7
			c23.1,83.9-89.8,124-128.1,52.8"/>
		<path fill="none" stroke="#FFFFFF" stroke-miterlimit="10" d="M1306.4,998.6c-18.3-36.8,136.2,55.1,160,140.3
			c23.4,84.5-90.3,124.6-128.4,53.1"/>
		<path fill="none" stroke="#FFFFFF" stroke-miterlimit="10" d="M1302,995.7c-18.3-36.9,137,54.1,161.1,139.9
			c23.8,85-90.7,125.2-128.8,53.4"/>
		<path fill="none" stroke="#FFFFFF" stroke-miterlimit="10" d="M1298,993.1c-18.3-36.9,137.8,53.2,162.2,139.5
			c24.1,85.5-91.2,125.9-129.2,53.7"/>
		<path fill="none" stroke="#FFFFFF" stroke-miterlimit="10" d="M1294.5,990.9c-18.3-37,138.6,52.3,163.3,139.2
			c24.4,86-91.6,126.5-129.5,54"/>
		<path fill="none" stroke="#FFFFFF" stroke-miterlimit="10" d="M1291.3,989.1c-18.3-37.1,139.4,51.4,164.4,138.8
			c24.7,86.6-92.1,127.1-129.9,54.3"/>
		<path fill="none" stroke="#FFFFFF" stroke-miterlimit="10" d="M1288.7,987.7c-18.3-37.2,140.2,50.5,165.6,138.4
			c25,87.1-92.5,127.7-130.2,54.6"/>
		<path fill="none" stroke="#FFFFFF" stroke-miterlimit="10" d="M1286.4,986.9c-18.3-37.3,141,49.6,166.7,138
			c25.3,87.6-93,128.3-130.6,54.9"/>
		<path fill="none" stroke="#FFFFFF" stroke-miterlimit="10" d="M1284.7,986.5c-18.3-37.4,141.8,48.7,167.8,137.7
			c25.6,88.1-93.4,128.9-130.9,55.2"/>
		<path fill="none" stroke="#FFFFFF" stroke-miterlimit="10" d="M1282.3,987.4c-18.3-37.4,142.5,47.8,168.9,137.3
			c25.9,88.6-93.8,129.6-131.3,55.4"/>
		<path fill="none" stroke="#FFFFFF" stroke-miterlimit="10" d="M1272,993.9c-18.3-37.5,143.3,46.9,170,136.9
			c26.3,89.2-94.3,130.2-131.6,55.7"/>
		<path fill="none" stroke="#FFFFFF" stroke-miterlimit="10" d="M1262,1000.3c-18.3-37.6,144.1,46,171.1,136.5
			c26.6,89.7-94.7,130.8-132,56"/>
		<path fill="none" stroke="#FFFFFF" stroke-miterlimit="10" d="M1252.1,1006.7c-18.3-37.7,144.9,45.1,172.2,136.1
			c26.9,90.2-95.2,131.4-132.3,56.3"/>
		<path fill="none" stroke="#FFFFFF" stroke-miterlimit="10" d="M1242.5,1013.1c-18.3-37.8,145.7,44.2,173.3,135.8
			c27.2,90.7-95.6,132-132.7,56.6"/>
		<path fill="none" stroke="#FFFFFF" stroke-miterlimit="10" d="M1233.1,1019.4c-18.3-37.9,146.5,43.2,174.4,135.4
			c27.5,91.2-96.1,132.7-133,56.9"/>
		<path fill="none" stroke="#FFFFFF" stroke-miterlimit="10" d="M1223.9,1025.6c-18.3-37.9,147.3,42.3,175.5,135
			c27.8,91.8-96.5,133.3-133.4,57.2"/>
		<path fill="none" stroke="#FFFFFF" stroke-miterlimit="10" d="M1214.9,1031.8c-18.3-38,148,41.4,176.6,134.6
			c28.1,92.3-97,133.9-133.8,57.5"/>
		<path fill="none" stroke="#FFFFFF" stroke-miterlimit="10" d="M1206.2,1037.9c-18.3-38.1,148.8,40.5,177.7,134.3
			c28.4,92.8-97.4,134.5-134.1,57.8"/>
		<path fill="none" stroke="#FFFFFF" stroke-miterlimit="10" d="M1197.6,1044c-18.3-38.2,149.6,39.6,178.8,133.9
			c28.8,93.3-97.8,135.1-134.5,58.1"/>
		<path fill="none" stroke="#FFFFFF" stroke-miterlimit="10" d="M1189.3,1050c-18.3-38.3,150.4,38.7,179.9,133.5
			c29.1,93.9-98.3,135.7-134.8,58.4"/>
		<path fill="none" stroke="#FFFFFF" stroke-miterlimit="10" d="M1181.1,1056c-18.3-38.4,151.2,37.8,181,133.1
			c29.4,94.4-98.7,136.4-135.2,58.7"/>
		<path fill="none" stroke="#FFFFFF" stroke-miterlimit="10" d="M1173.2,1061.9c-18.3-38.5,152,36.9,182.1,132.7
			c29.7,94.9-99.2,137-135.5,59"/>
		<path fill="none" stroke="#FFFFFF" stroke-miterlimit="10" d="M1165.5,1067.7c-18.3-38.5,152.8,36,183.2,132.4
			c30,95.4-99.6,137.6-135.9,59.2"/>
		<path fill="none" stroke="#FFFFFF" stroke-miterlimit="10" d="M1157.9,1073.5c-18.3-38.6,153.5,35.1,184.3,132
			c30.3,95.9-100.1,138.2-136.2,59.5"/>
		<path fill="none" stroke="#FFFFFF" stroke-miterlimit="10" d="M1150.6,1079.3c-18.4-38.7,154.3,34.2,185.4,131.6
			c30.6,96.5-100.5,138.8-136.6,59.8"/>
		<path fill="none" stroke="#FFFFFF" stroke-miterlimit="10" d="M1143.5,1084.9c-18.4-38.8,155.1,33.3,186.5,131.2
			c30.9,97-101,139.4-136.9,60.1"/>
		<path fill="none" stroke="#FFFFFF" stroke-miterlimit="10" d="M1136.6,1090.6c-18.4-38.9,155.9,32.3,187.6,130.9
			c31.2,97.5-101.4,140.1-137.3,60.4"/>
		<path fill="none" stroke="#FFFFFF" stroke-miterlimit="10" d="M1129.9,1096.1c-18.4-39,156.7,31.4,188.7,130.5
			c31.6,98-101.8,140.7-137.7,60.7"/>
		<path fill="none" stroke="#FFFFFF" stroke-miterlimit="10" d="M1123.4,1101.6c-18.4-39,157.5,30.5,189.8,130.1
			c31.9,98.6-102.3,141.3-138,61"/>
		<path fill="none" stroke="#FFFFFF" stroke-miterlimit="10" d="M1117,1107c-18.4-39.1,158.3,29.6,190.9,129.7
			c32.2,99.1-102.7,141.9-138.4,61.3"/>
		<path fill="none" stroke="#FFFFFF" stroke-miterlimit="10" d="M1110.9,1112.4c-18.4-39.2,159.1,28.7,192,129.3
			c32.5,99.6-103.2,142.5-138.7,61.6"/>
		<path fill="none" stroke="#FFFFFF" stroke-miterlimit="10" d="M1105,1117.7c-18.4-39.3,159.8,27.8,193.1,129
			c32.8,100.1-103.6,143.2-139.1,61.9"/>
		<path fill="none" stroke="#FFFFFF" stroke-miterlimit="10" d="M1099.3,1122.9c-18.4-39.4,160.6,26.9,194.2,128.6
			c33.1,100.6-104.1,143.8-139.4,62.2"/>
		<path fill="none" stroke="#FFFFFF" stroke-miterlimit="10" d="M1093.7,1128.1c-18.4-39.5,161.4,26,195.3,128.2
			c33.4,101.2-104.5,144.4-139.8,62.5"/>
		<path fill="none" stroke="#FFFFFF" stroke-miterlimit="10" d="M1088.3,1133.2c-18.4-39.5,162.2,25.1,196.4,127.8
			c33.7,101.7-105,145-140.1,62.8"/>
		<path fill="none" stroke="#FFFFFF" stroke-miterlimit="10" d="M1083.2,1138.3c-18.4-39.6,163,24.2,197.5,127.4
			c34.1,102.2-105.4,145.6-140.5,63"/>
		<path fill="none" stroke="#FFFFFF" stroke-miterlimit="10" d="M1078.2,1143.3c-18.4-39.7,163.8,23.3,198.6,127.1
			c34.4,102.7-105.8,146.2-140.8,63.3"/>
		<path fill="none" stroke="#FFFFFF" stroke-miterlimit="10" d="M1073.4,1148.2c-18.4-39.8,164.6,22.4,199.7,126.7
			c34.7,103.2-106.3,146.9-141.2,63.6"/>
		<path fill="none" stroke="#FFFFFF" stroke-miterlimit="10" d="M1068.8,1153c-18.4-39.9,165.3,21.5,200.8,126.3
			c35,103.8-106.7,147.5-141.6,63.9"/>
		<path fill="none" stroke="#FFFFFF" stroke-miterlimit="10" d="M1064.4,1157.8c-18.4-40,166.1,20.5,201.9,125.9
			c35.3,104.3-107.2,148.1-141.9,64.2"/>
		<path fill="none" stroke="#FFFFFF" stroke-miterlimit="10" d="M1060.1,1162.5c-18.4-40,166.9,19.6,203,125.6
			c35.6,104.8-107.6,148.7-142.3,64.5"/>
		<path fill="none" stroke="#FFFFFF" stroke-miterlimit="10" d="M1056.1,1167.2c-18.4-40.1,167.7,18.7,204.1,125.2
			c35.9,105.3-108.1,149.3-142.6,64.8"/>
		<path fill="none" stroke="#FFFFFF" stroke-miterlimit="10" d="M1052.2,1171.7c-18.4-40.2,168.5,17.8,205.2,124.8
			c36.2,105.9-108.5,150-143,65.1"/>
		<path fill="none" stroke="#FFFFFF" stroke-miterlimit="10" d="M1048.5,1176.2c-18.4-40.3,169.3,16.9,206.3,124.4
			c36.5,106.4-109,150.6-143.3,65.4"/>
		<path fill="none" stroke="#FFFFFF" stroke-miterlimit="10" d="M1044.9,1180.7c-18.4-40.4,170.1,16,207.4,124
			c36.9,106.9-109.4,151.2-143.7,65.7"/>
		<path fill="none" stroke="#FFFFFF" stroke-miterlimit="10" d="M1041.6,1185c-18.4-40.5,170.8,15.1,208.5,123.7
			c37.2,107.4-109.9,151.8-144,66"/>
		<path fill="none" stroke="#FFFFFF" stroke-miterlimit="10" d="M1038.4,1189.3c-18.4-40.5,171.6,14.2,209.6,123.3
			c37.5,107.9-110.3,152.4-144.4,66.3"/>
		<path fill="none" stroke="#FFFFFF" stroke-miterlimit="10" d="M1035.4,1193.5c-18.4-40.6,172.4,13.3,210.7,122.9
			c37.8,108.5-110.7,153-144.7,66.6"/>
		<path fill="none" stroke="#FFFFFF" stroke-miterlimit="10" d="M1032.6,1197.7c-18.4-40.7,173.2,12.4,211.8,122.5
			c38.1,109-111.2,153.7-145.1,66.9"/>
		<path fill="none" stroke="#FFFFFF" stroke-miterlimit="10" d="M1029.9,1201.8c-18.4-40.8,174,11.5,212.9,122.2
			c38.4,109.5-111.6,154.3-145.4,67.1"/>
		<path fill="none" stroke="#FFFFFF" stroke-miterlimit="10" d="M1027.4,1205.8c-18.4-40.9,174.8,10.6,214,121.8
			c38.7,110-112.1,154.9-145.8,67.4"/>
		<path fill="none" stroke="#FFFFFF" stroke-miterlimit="10" d="M1025.1,1209.7c-18.4-41,175.6,9.6,215.1,121.4
			c39,110.6-112.5,155.5-146.2,67.7"/>
		<path fill="none" stroke="#FFFFFF" stroke-miterlimit="10" d="M1022.9,1213.5c-18.4-41,176.3,8.7,216.2,121
			c39.4,111.1-113,156.1-146.5,68"/>
		<path fill="none" stroke="#FFFFFF" stroke-miterlimit="10" d="M1020.9,1217.3c-18.4-41.1,177.1,7.8,217.3,120.6
			c39.7,111.6-113.4,156.8-146.9,68.3"/>
		<path fill="none" stroke="#FFFFFF" stroke-miterlimit="10" d="M1019.1,1221c-18.4-41.2,177.9,6.9,218.4,120.3
			c40,112.1-113.9,157.4-147.2,68.6"/>
		<path fill="none" stroke="#FFFFFF" stroke-miterlimit="10" d="M1017.4,1224.6c-18.4-41.3,178.7,6,219.5,119.9
			c40.3,112.6-114.3,158-147.6,68.9"/>
		<path fill="none" stroke="#FFFFFF" stroke-miterlimit="10" d="M1015.9,1228.2c-18.4-41.4,179.5,5.1,220.6,119.5
			c40.6,113.2-114.7,158.6-147.9,69.2"/>
		<path fill="none" stroke="#FFFFFF" stroke-miterlimit="10" d="M1014.5,1231.6c-18.4-41.5,180.3,4.2,221.7,119.1
			c40.9,113.7-115.2,159.2-148.3,69.5"/>
		<path fill="none" stroke="#FFFFFF" stroke-miterlimit="10" d="M1013.4,1235c-18.4-41.5,181.1,3.3,222.8,118.7
			c41.2,114.2-115.6,159.8-148.6,69.8"/>
		<path fill="none" stroke="#FFFFFF" stroke-miterlimit="10" d="M1012.3,1238.3c-18.4-41.6,181.9,2.4,223.9,118.4
			c41.5,114.7-116.1,160.5-149,70.1"/>
		<path fill="none" stroke="#FFFFFF" stroke-miterlimit="10" d="M1011.5,1241.6c-18.4-41.7,182.6,1.5,225.1,118
			c41.9,115.2-116.5,161.1-149.3,70.4"/>
		<path fill="none" stroke="#FFFFFF" stroke-miterlimit="10" d="M1010.7,1244.7c-18.4-41.8,183.4,0.6,226.2,117.6
			c42.2,115.8-117,161.7-149.7,70.7"/>
		<path fill="none" stroke="#FFFFFF" stroke-miterlimit="10" d="M1010.2,1247.8c-18.4-41.9,184.2-0.3,227.3,117.2
			c42.5,116.3-117.4,162.3-150.1,70.9"/>
		<path fill="none" stroke="#FFFFFF" stroke-miterlimit="10" d="M1009.7,1250.8c-18.4-42,185-1.3,228.4,116.9
			c42.8,116.8-117.9,162.9-150.4,71.2"/>
		<path fill="none" stroke="#FFFFFF" stroke-miterlimit="10" d="M1009.5,1253.7c-18.5-42,185.8-2.2,229.5,116.5
			c43.1,117.3-118.3,163.5-150.8,71.5"/>
		<path fill="none" stroke="#FFFFFF" stroke-miterlimit="10" d="M1009.4,1256.5c-18.5-42.1,186.6-3.1,230.6,116.1
			c43.4,117.9-118.7,164.2-151.1,71.8"/>
		<path fill="none" stroke="#FFFFFF" stroke-miterlimit="10" d="M1009.4,1259.2c-18.5-42.2,187.4-4,231.7,115.7
			c43.7,118.4-119.2,164.8-151.5,72.1"/>
		<path fill="none" stroke="#FFFFFF" stroke-miterlimit="10" d="M1009.6,1261.9c-18.5-42.3,188.1-4.9,232.8,115.3
			c44,118.9-119.6,165.4-151.8,72.4"/>
		<path fill="none" stroke="#FFFFFF" stroke-miterlimit="10" d="M1009.9,1264.5c-18.5-42.4,188.9-5.8,233.9,115
			c44.3,119.4-120.1,166-152.2,72.7"/>
		<path fill="none" stroke="#FFFFFF" stroke-miterlimit="10" d="M1010.4,1267c-18.5-42.5,189.7-6.7,235,114.6
			c44.7,119.9-120.5,166.6-152.5,73"/>
		<path fill="none" stroke="#FFFFFF" stroke-miterlimit="10" d="M1011,1269.4c-18.5-42.5,190.5-7.6,236.1,114.2
			c45,120.5-121,167.3-152.9,73.3"/>
		<path fill="none" stroke="#FFFFFF" stroke-miterlimit="10" d="M1011.7,1271.7c-18.5-42.6,191.3-8.5,237.2,113.8
			c45.3,121-121.4,167.9-153.2,73.6"/>
		<path fill="none" stroke="#FFFFFF" stroke-miterlimit="10" d="M1012.6,1273.9c-18.5-42.7,192.1-9.4,238.3,113.5
			c45.6,121.5-121.9,168.5-153.6,73.9"/>
		<path fill="none" stroke="#FFFFFF" stroke-miterlimit="10" d="M1013.7,1276c-18.5-42.8,192.9-10.3,239.4,113.1
			c45.9,122-122.3,169.1-154,74.2"/>
		<path fill="none" stroke="#FFFFFF" stroke-miterlimit="10" d="M1014.8,1278.1c-18.5-42.9,193.6-11.2,240.5,112.7
			c46.2,122.6-122.8,169.7-154.3,74.5"/>
		<path fill="none" stroke="#FFFFFF" stroke-miterlimit="10" d="M1016.1,1280.1c-18.5-43,194.4-12.1,241.6,112.3
			c46.5,123.1-123.2,170.3-154.7,74.8"/>
		<path fill="none" stroke="#FFFFFF" stroke-miterlimit="10" d="M1017.6,1281.9c-18.5-43.1,195.2-13.1,242.7,111.9
			c46.8,123.6-123.6,171-155,75"/>
		<path fill="none" stroke="#FFFFFF" stroke-miterlimit="10" d="M1019.1,1283.7c-18.5-43.1,196-14,243.8,111.6
			c47.2,124.1-124.1,171.6-155.4,75.3"/>
		<path fill="none" stroke="#FFFFFF" stroke-miterlimit="10" d="M1020.9,1285.4c-18.5-43.2,196.8-14.9,244.9,111.2
			c47.5,124.6-124.5,172.2-155.7,75.6"/>
		<path fill="none" stroke="#FFFFFF" stroke-miterlimit="10" d="M1022.7,1287c-18.5-43.3,197.6-15.8,246,110.8
			c47.8,125.2-125,172.8-156.1,75.9"/>
		<path fill="none" stroke="#FFFFFF" stroke-miterlimit="10" d="M1024.7,1288.5c-18.5-43.4,198.4-16.7,247.1,110.4
			c48.1,125.7-125.4,173.4-156.4,76.2"/>
		<path fill="none" stroke="#FFFFFF" stroke-miterlimit="10" d="M1026.8,1290c-18.5-43.5,199.2-17.6,248.2,110.1
			c48.4,126.2-125.9,174.1-156.8,76.5"/>
		<path fill="none" stroke="#FFFFFF" stroke-miterlimit="10" d="M1029,1291.3c-18.5-43.6,199.9-18.5,249.3,109.7
			c48.7,126.7-126.3,174.7-157.1,76.8"/>
		<path fill="none" stroke="#FFFFFF" stroke-miterlimit="10" d="M1031.3,1292.5c-18.5-43.6,200.7-19.4,250.4,109.3
			c49,127.2-126.8,175.3-157.5,77.1"/>
		<path fill="none" stroke="#FFFFFF" stroke-miterlimit="10" d="M1033.8,1293.7c-18.5-43.7,201.5-20.3,251.5,108.9
			c49.3,127.8-127.2,175.9-157.8,77.4"/>
		<path fill="none" stroke="#FFFFFF" stroke-miterlimit="10" d="M1036.4,1294.7c-18.5-43.8,202.3-21.2,252.6,108.5
			c49.7,128.3-127.6,176.5-158.2,77.7"/>
		<path fill="none" stroke="#FFFFFF" stroke-miterlimit="10" d="M1039.1,1295.7c-18.5-43.9,203.1-22.1,253.7,108.2
			c50,128.8-128.1,177.1-158.6,78"/>
		<path fill="none" stroke="#FFFFFF" stroke-miterlimit="10" d="M1042,1296.5c-18.5-44,203.9-23,254.8,107.8
			c50.3,129.3-128.5,177.8-158.9,78.3"/>
		<path fill="none" stroke="#FFFFFF" stroke-miterlimit="10" d="M1044.9,1297.3c-18.5-44.1,204.7-24,255.9,107.4
			c50.6,129.9-129,178.4-159.3,78.6"/>
		<path fill="none" stroke="#FFFFFF" stroke-miterlimit="10" d="M1048,1298c-18.5-44.1,205.4-24.9,257,107
			c50.9,130.4-129.4,179-159.6,78.8"/>
		<path fill="none" stroke="#FFFFFF" stroke-miterlimit="10" d="M1051.2,1298.5c-18.5-44.2,206.2-25.8,258.1,106.6
			c51.2,130.9-129.9,179.6-160,79.1"/>
		<path fill="none" stroke="#FFFFFF" stroke-miterlimit="10" d="M1054.5,1299c-18.5-44.3,207-26.7,259.2,106.3
			c51.5,131.4-130.3,180.2-160.3,79.4"/>
		<path fill="none" stroke="#FFFFFF" stroke-miterlimit="10" d="M1057.9,1299.4c-18.5-44.4,207.8-27.6,260.3,105.9
			c51.8,131.9-130.8,180.9-160.7,79.7"/>
		<path fill="none" stroke="#FFFFFF" stroke-miterlimit="10" d="M1061.5,1299.7c-18.5-44.5,208.6-28.5,261.4,105.5
			c52.1,132.5-131.2,181.5-161,80"/>
		<path fill="none" stroke="#FFFFFF" stroke-miterlimit="10" d="M1065.1,1299.8c-18.5-44.6,209.4-29.4,262.5,105.1
			c52.5,133-131.6,182.1-161.4,80.3"/>
		<path fill="none" stroke="#FFFFFF" stroke-miterlimit="10" d="M1068.9,1299.9c-18.5-44.6,210.2-30.3,263.6,104.8
			c52.8,133.5-132.1,182.7-161.7,80.6"/>
		<path fill="none" stroke="#FFFFFF" stroke-miterlimit="10" d="M1072.7,1299.9c-18.5-44.7,210.9-31.2,264.7,104.4
			c53.1,134-132.5,183.3-162.1,80.9"/>
		<path fill="none" stroke="#FFFFFF" stroke-miterlimit="10" d="M1076.7,1299.8c-18.5-44.8,211.7-32.1,265.8,104
			c53.4,134.6-133,183.9-162.5,81.2"/>
		<path fill="none" stroke="#FFFFFF" stroke-miterlimit="10" d="M1080.8,1299.5c-18.5-44.9,212.5-33,266.9,103.6
			c53.7,135.1-133.4,184.6-162.8,81.5"/>
		<path fill="none" stroke="#FFFFFF" stroke-miterlimit="10" d="M1085,1299.2c-18.5-45,213.3-33.9,268,103.2
			c54,135.6-133.9,185.2-163.2,81.8"/>
		<path fill="none" stroke="#FFFFFF" stroke-miterlimit="10" d="M1089.3,1298.8c-18.5-45.1,214.1-34.9,269.1,102.9
			c54.3,136.1-134.3,185.8-163.5,82.1"/>
		<path fill="none" stroke="#FFFFFF" stroke-miterlimit="10" d="M1093.7,1298.2c-18.5-45.1,214.9-35.8,270.2,102.5
			c54.6,136.6-134.8,186.4-163.9,82.4"/>
		<path fill="none" stroke="#FFFFFF" stroke-miterlimit="10" d="M1098.2,1297.6c-18.5-45.2,215.7-36.7,271.3,102.1
			c55,137.2-135.2,187-164.2,82.6"/>
		<path fill="none" stroke="#FFFFFF" stroke-miterlimit="10" d="M1102.8,1296.9c-18.5-45.3,216.5-37.6,272.4,101.7
			c55.3,137.7-135.7,187.6-164.6,82.9"/>
		<path fill="none" stroke="#FFFFFF" stroke-miterlimit="10" d="M1107.4,1296c-18.5-45.4,217.2-38.5,273.5,101.4
			c55.6,138.2-136.1,188.3-164.9,83.2"/>
		<path fill="none" stroke="#FFFFFF" stroke-miterlimit="10" d="M1112.2,1295.1c-18.6-45.5,218-39.4,274.6,101
			c55.9,138.7-136.5,188.9-165.3,83.5"/>
		<path fill="none" stroke="#FFFFFF" stroke-miterlimit="10" d="M1117.1,1294c-18.6-45.6,218.8-40.3,275.7,100.6
			c56.2,139.2-137,189.5-165.6,83.8"/>
		<path fill="none" stroke="#FFFFFF" stroke-miterlimit="10" d="M1122.1,1292.8c-18.6-45.6,219.6-41.2,276.8,100.2
			c56.5,139.8-137.4,190.1-166,84.1"/>
		<path fill="none" stroke="#FFFFFF" stroke-miterlimit="10" d="M1127.2,1291.5c-18.6-45.7,220.4-42.1,277.9,99.8
			c56.8,140.3-137.9,190.7-166.4,84.4"/>
		<path fill="none" stroke="#FFFFFF" stroke-miterlimit="10" d="M1132.3,1290.2c-18.6-45.8,221.2-43,279,99.5
			c57.1,140.8-138.3,191.4-166.7,84.7"/>
		<path fill="none" stroke="#FFFFFF" stroke-miterlimit="10" d="M1137.6,1288.7c-18.6-45.9,222-43.9,280.1,99.1
			c57.4,141.3-138.8,192-167.1,85"/>
		<path fill="none" stroke="#FFFFFF" stroke-miterlimit="10" d="M1142.9,1287.1c-18.6-46,222.7-44.8,281.2,98.7
			c57.8,141.9-139.2,192.6-167.4,85.3"/>
		<path fill="none" stroke="#FFFFFF" stroke-miterlimit="10" d="M1148.4,1285.4c-18.6-46.1,223.5-45.7,282.3,98.3
			c58.1,142.4-139.7,193.2-167.8,85.6"/>
		<path fill="none" stroke="#FFFFFF" stroke-miterlimit="10" d="M1153.9,1283.5c-18.6-46.1,224.3-46.7,283.5,97.9
			c58.4,142.9-140.1,193.8-168.1,85.9"/>
		<path fill="none" stroke="#FFFFFF" stroke-miterlimit="10" d="M1159.5,1281.6c-18.6-46.2,225.1-47.6,284.6,97.6
			c58.7,143.4-140.5,194.4-168.5,86.2"/>
		<path fill="none" stroke="#FFFFFF" stroke-miterlimit="10" d="M1165.2,1279.5c-18.6-46.3,225.9-48.5,285.7,97.2
			c59,143.9-141,195.1-168.8,86.5"/>
		<path fill="none" stroke="#FFFFFF" stroke-miterlimit="10" d="M1170.9,1277.4c-18.6-46.4,226.7-49.4,286.8,96.8
			c59.3,144.5-141.4,195.7-169.2,86.7"/>
		<path fill="none" stroke="#FFFFFF" stroke-miterlimit="10" d="M1176.8,1275.1c-18.6-46.5,227.5-50.3,287.9,96.4
			c59.6,145-141.9,196.3-169.5,87"/>
		<path fill="none" stroke="#FFFFFF" stroke-miterlimit="10" d="M1182.7,1272.7c-18.6-46.6,228.2-51.2,289,96.1
			c59.9,145.5-142.3,196.9-169.9,87.3"/>
		<path fill="none" stroke="#FFFFFF" stroke-miterlimit="10" d="M1188.7,1270.2c-18.6-46.6,229-52.1,290.1,95.7
			c60.3,146-142.8,197.5-170.2,87.6"/>
		<path fill="none" stroke="#FFFFFF" stroke-miterlimit="10" d="M1194.8,1267.6c-18.6-46.7,229.8-53,291.2,95.3
			c60.6,146.6-143.2,198.2-170.6,87.9"/>
		<path fill="none" stroke="#FFFFFF" stroke-miterlimit="10" d="M1201,1264.9c-18.6-46.8,230.6-53.9,292.3,94.9
			c60.9,147.1-143.7,198.8-171,88.2"/>
		<path fill="none" stroke="#FFFFFF" stroke-miterlimit="10" d="M1207.2,1262c-18.6-46.9,231.4-54.8,293.4,94.5
			c61.2,147.6-144.1,199.4-171.3,88.5"/>
		<path fill="none" stroke="#FFFFFF" stroke-miterlimit="10" d="M1213.5,1259.1c-18.6-47,232.2-55.7,294.5,94.2
			c61.5,148.1-144.5,200-171.7,88.8"/>
		<path fill="none" stroke="#FFFFFF" stroke-miterlimit="10" d="M1219.9,1256c-18.6-47.1,233-56.6,295.6,93.8
			c61.8,148.6-145,200.6-172,89.1"/>
		<path fill="none" stroke="#FFFFFF" stroke-miterlimit="10" d="M1226.4,1252.8c-18.6-47.2,233.8-57.6,296.7,93.4
			c62.1,149.2-145.4,201.2-172.4,89.4"/>
		<path fill="none" stroke="#FFFFFF" stroke-miterlimit="10" d="M1232.9,1249.5c-18.6-47.2,234.5-58.5,297.8,93
			c62.4,149.7-145.9,201.9-172.7,89.7"/>
		<path fill="none" stroke="#FFFFFF" stroke-miterlimit="10" d="M1239.5,1246.1c-18.6-47.3,235.3-59.4,298.9,92.7
			c62.8,150.2-146.3,202.5-173.1,90"/>
		<path fill="none" stroke="#FFFFFF" stroke-miterlimit="10" d="M1246.2,1242.5c-18.6-47.4,236.1-60.3,300,92.3
			c63.1,150.7-146.8,203.1-173.4,90.3"/>
		<path fill="none" stroke="#FFFFFF" stroke-miterlimit="10" d="M1252.9,1238.8c-18.6-47.5,236.9-61.2,301.1,91.9
			c63.4,151.2-147.2,203.7-173.8,90.5"/>
		<path fill="none" stroke="#FFFFFF" stroke-miterlimit="10" d="M1259.7,1235.1c-18.6-47.6,237.7-62.1,302.2,91.5
			c63.7,151.8-147.7,204.3-174.1,90.8"/>
		<path fill="none" stroke="#FFFFFF" stroke-miterlimit="10" d="M1266.5,1231.1c-18.6-47.7,238.5-63,303.3,91.1
			c64,152.3-148.1,204.9-174.5,91.1"/>
		<path fill="none" stroke="#FFFFFF" stroke-miterlimit="10" d="M1273.5,1227.1c-18.6-47.7,239.3-63.9,304.4,90.8
			c64.3,152.8-148.5,205.6-174.9,91.4"/>
		<path fill="none" stroke="#FFFFFF" stroke-miterlimit="10" d="M1280.4,1222.9c-18.6-47.8,240-64.8,305.5,90.4
			c64.6,153.3-149,206.2-175.2,91.7"/>
		<path fill="none" stroke="#FFFFFF" stroke-miterlimit="10" d="M1287.5,1218.7c-18.6-47.9,240.8-65.7,306.6,90
			c64.9,153.9-149.4,206.8-175.6,92"/>
		<path fill="none" stroke="#FFFFFF" stroke-miterlimit="10" d="M1294.6,1214.3c-18.6-48,241.6-66.6,307.7,89.6
			c65.2,154.4-149.9,207.4-175.9,92.3"/>
		<path fill="none" stroke="#FFFFFF" stroke-miterlimit="10" d="M1301.7,1209.7c-18.6-48.1,242.4-67.5,308.8,89.3
			c65.6,154.9-150.3,208-176.3,92.6"/>
		<path fill="none" stroke="#FFFFFF" stroke-miterlimit="10" d="M1308.9,1205.1c-18.6-48.2,243.2-68.5,309.9,88.9
			c65.9,155.4-150.8,208.7-176.6,92.9"/>
		<path fill="none" stroke="#FFFFFF" stroke-miterlimit="10" d="M1316.2,1200.3c-18.6-48.2,244-69.4,311,88.5
			c66.2,155.9-151.2,209.3-177,93.2"/>
		<path fill="none" stroke="#FFFFFF" stroke-miterlimit="10" d="M1323.5,1195.4c-18.6-48.3,244.8-70.3,312.1,88.1
			c66.5,156.5-151.7,209.9-177.3,93.5"/>
		<path fill="none" stroke="#FFFFFF" stroke-miterlimit="10" d="M1330.9,1190.4c-18.6-48.4,245.5-71.2,313.2,87.7
			c66.8,157-152.1,210.5-177.7,93.8"/>
		<path fill="none" stroke="#FFFFFF" stroke-miterlimit="10" d="M1338.3,1185.2c-18.6-48.5,246.3-72.1,314.3,87.4
			c67.1,157.5-152.6,211.1-178,94.1"/>
		<path fill="none" stroke="#FFFFFF" stroke-miterlimit="10" d="M1346.4,1179.7c-18.6-48.6,247.1-73,315.4,87
			c67.4,158-153,211.7-178.4,94.3"/>
		<path fill="none" stroke="#FFFFFF" stroke-miterlimit="10" d="M1353.5,1175.6c-18.6-48.7,247.9-73.9,316.5,86.6
			c67.7,158.6-153.4,212.4-178.8,94.6"/>
		<path fill="none" stroke="#FFFFFF" stroke-miterlimit="10" d="M1359.2,1173.1c-18.6-48.7,248.7-74.8,317.6,86.2
			c68.1,159.1-153.9,213-179.1,94.9"/>
		<path fill="none" stroke="#FFFFFF" stroke-miterlimit="10" d="M1363.6,1172.2c-18.7-48.8,249.5-75.7,318.7,85.8
			c68.4,159.6-154.3,213.6-179.5,95.2"/>
		<path fill="none" stroke="#FFFFFF" stroke-miterlimit="10" d="M1366.7,1172.7c-18.7-48.9,250.3-76.6,319.8,85.5
			c68.7,160.1-154.8,214.2-179.8,95.5"/>
		<path fill="none" stroke="#FFFFFF" stroke-miterlimit="10" d="M1368.6,1174.5c-18.7-49,251.1-77.5,320.9,85.1
			c69,160.6-155.2,214.8-180.2,95.8"/>
		<path fill="none" stroke="#FFFFFF" stroke-miterlimit="10" d="M1369.5,1177.5c-18.7-49.1,251.8-78.4,322,84.7
			c69.3,161.2-155.7,215.5-180.5,96.1"/>
		<path fill="none" stroke="#FFFFFF" stroke-miterlimit="10" d="M1369.4,1181.5c-18.7-49.2,252.6-79.3,323.1,84.3
			c69.6,161.7-156.1,216.1-180.9,96.4"/>
		<path fill="none" stroke="#FFFFFF" stroke-miterlimit="10" d="M1368.5,1186.5c-18.7-49.2,253.4-80.3,324.2,84
			c69.9,162.2-156.6,216.7-181.2,96.7"/>
		<path fill="none" stroke="#FFFFFF" stroke-miterlimit="10" d="M1366.8,1192.2c-18.7-49.3,254.2-81.2,325.3,83.6
			c70.2,162.7-157,217.3-181.6,97"/>
		<path fill="none" stroke="#FFFFFF" stroke-miterlimit="10" d="M1364.4,1198.6c-18.7-49.4,255-82.1,326.4,83.2
			c70.6,163.2-157.4,217.9-181.9,97.3"/>
		<path fill="none" stroke="#FFFFFF" stroke-miterlimit="10" d="M1361.4,1205.5c-18.7-49.5,255.8-83,327.5,82.8
			c70.9,163.8-157.9,218.5-182.3,97.6"/>
		<path fill="none" stroke="#FFFFFF" stroke-miterlimit="10" d="M1358,1212.8c-18.7-49.6,256.6-83.9,328.6,82.4
			c71.2,164.3-158.3,219.2-182.6,97.9"/>
		<path fill="none" stroke="#FFFFFF" stroke-miterlimit="10" d="M1354.1,1220.4c-18.7-49.7,257.3-84.8,329.7,82.1
			c71.5,164.8-158.8,219.8-183,98.2"/>
		<path fill="none" stroke="#FFFFFF" stroke-miterlimit="10" d="M1350,1228.1c-18.7-49.7,258.1-85.7,330.8,81.7
			c71.8,165.3-159.2,220.4-183.4,98.4"/>
		<path fill="none" stroke="#FFFFFF" stroke-miterlimit="10" d="M1345.7,1235.8c-18.7-49.8,258.9-86.6,331.9,81.3
			c72.1,165.9-159.7,221-183.7,98.7"/>
		<path fill="none" stroke="#FFFFFF" stroke-miterlimit="10" d="M1341.2,1243.4c-18.7-49.9,259.7-87.5,333,80.9
			c72.4,166.4-160.1,221.6-184.1,99"/>
		<path fill="none" stroke="#FFFFFF" stroke-miterlimit="10" d="M1336.8,1250.8c-18.7-50,260.5-88.4,334.1,80.6
			c72.7,166.9-160.6,222.3-184.4,99.3"/>
		<path fill="none" stroke="#FFFFFF" stroke-miterlimit="10" d="M1332.5,1257.8c-18.7-50.1,261.3-89.3,335.2,80.2
			c73,167.4-161,222.9-184.8,99.6"/>
		<path fill="none" stroke="#FFFFFF" stroke-miterlimit="10" d="M1328.3,1264.3c-18.7-50.2,262.1-90.2,336.3,79.8
			c73.4,167.9-161.4,223.5-185.1,99.9"/>
		<path fill="none" stroke="#FFFFFF" stroke-miterlimit="10" d="M1324.4,1270.2c-18.7-50.2,262.8-91.2,337.4,79.4
			c73.7,168.5-161.9,224.1-185.5,100.2"/>
		<path fill="none" stroke="#FFFFFF" stroke-miterlimit="10" d="M1321,1275.3c-18.7-50.3,263.6-92.1,338.5,79
			c74,169-162.3,224.7-185.8,100.5"/>
		<path fill="none" stroke="#FFFFFF" stroke-miterlimit="10" d="M1318,1279.5c-18.7-50.4,264.4-93,339.6,78.7
			c74.3,169.5-162.8,225.3-186.2,100.8"/>
		<path fill="none" stroke="#FFFFFF" stroke-miterlimit="10" d="M1315.5,1282.8c-18.7-50.5,265.2-93.9,340.7,78.3
			c74.6,170-163.2,226-186.5,101.1"/>
		<path fill="none" stroke="#FFFFFF" stroke-miterlimit="10" d="M1313.8,1284.9c-18.7-50.6,266-94.8,341.8,77.9
			c74.9,170.6-163.7,226.6-186.9,101.4"/>
		<path fill="none" stroke="#FFFFFF" stroke-miterlimit="10" d="M1312.8,1285.7c-18.7-50.7,266.8-95.7,343,77.5
			c75.2,171.1-164.1,227.2-187.3,101.7"/>
	</g>
	<g>
		<path fill="none" stroke="#CDCED0" stroke-miterlimit="10" d="M1648.8,1219.5c0,0-272.4-195-461.4-111
			c-571.1,253.8,2196.2,264.6-270.6,53.9"/>
		<path fill="none" stroke="#CECFD1" stroke-miterlimit="10" d="M916.8,1164c145.7,12.4,272.2,22.5,384,32.2
			c389.7,33.5,571.3,68.4,628.2,88.7c137.8,49.1-494.6,27.1-730.7-49.6c-97.7-31.7-127.6-73.7-6.7-126.6
			c187.2-81.4,456.7,113.2,457.2,113.2"/>
		<path fill="none" stroke="#CECFD1" stroke-miterlimit="10" d="M916.8,1165.5c144.3,12.3,268.6,20.7,380.6,29
			c386.6,28.5,564.7,69.3,622.1,91.1c136.7,51.8-485.9,22-718.1-53.3c-96.2-31.2-125.3-72.1-5.7-123.4
			c185.4-78.9,452,115.5,453,115.5"/>
		<path fill="none" stroke="#CFD0D2" stroke-miterlimit="10" d="M916.8,1167c142.9,12.1,265.1,18.9,377.2,25.8
			c383.3,23.5,558,70.3,616,93.5c135.6,54.3-477.2,17-705.4-57c-94.6-30.7-123.2-70.7-4.7-120.3c183.4-76.8,447.3,117.7,448.9,117.7
			"/>
		<path fill="none" stroke="#CFD0D2" stroke-miterlimit="10" d="M916.8,1168.6c141.5,11.9,261.5,17.1,373.8,22.6
			c380,18.6,551.4,71.1,610,95.9c134.6,56.8-468.5,12-692.8-60.7c-93.1-30.2-121-69.1-3.7-117.2c181.6-74.4,442.6,119.9,444.7,119.9
			"/>
		<path fill="none" stroke="#D0D1D3" stroke-miterlimit="10" d="M916.8,1170.1c140,11.8,257.9,15.3,370.4,19.5
			c376.7,13.8,544.7,72,603.9,98.3c133.5,59.2-459.8,7-680.1-64.4c-91.5-29.7-118.8-67.6-2.7-114.1c179.7-72,438,122.2,440.5,122.2"
			/>
		<path fill="none" stroke="#D1D2D3" stroke-miterlimit="10" d="M916.8,1171.6c138.6,11.6,254.8,4.3,367,16.3
			c371.3,39.6,538,72.9,597.8,100.7c132.4,61.6-451.1,1.9-667.4-68.2c-89.9-29.2-116.6-66-1.7-111
			c177.9-69.6,433.3,124.4,436.3,124.4"/>
		<path fill="none" stroke="#D1D2D4" stroke-miterlimit="10" d="M916.8,1173.2c137.2,11.5,251.2,1,363.6,13.1
			c367.8,39.5,531.3,73.7,591.7,103c131.3,63.8-442.4-3.1-654.8-71.9c-88.4-28.6-114.4-64.4-0.7-107.9
			c176-67.2,428.6,126.6,432.1,126.6"/>
		<path fill="none" stroke="#D2D3D5" stroke-miterlimit="10" d="M916.8,1174.7c135.8,11.3,247.5-2.2,360.2,9.9
			c364.3,39.3,524.6,74.5,585.7,105.4c130.3,66.1-433.7-8.1-642.1-75.6c-86.8-28.1-112.2-62.9,0.3-104.8
			c174.2-64.9,423.9,128.9,427.9,128.9"/>
		<path fill="none" stroke="#D3D3D5" stroke-miterlimit="10" d="M916.8,1176.2c134.4,11.2,243.8-5.5,356.8,6.7
			c360.8,39,517.9,75.3,579.6,107.8c129.2,68.2-425-13.2-629.5-79.3c-85.3-27.6-110-61.3,1.3-101.6
			c172.4-62.5,419.2,131.1,423.8,131.1"/>
		<path fill="none" stroke="#D3D4D6" stroke-miterlimit="10" d="M916.8,1177.8c132.9,11,240.1-8.7,353.4,3.6
			c357.4,38.7,511.2,76.1,573.5,110.2c128.2,70.3-416.3-18.2-616.8-83c-83.7-27.1-107.8-59.7,2.3-98.5
			c170.5-60.1,414.5,133.3,419.6,133.3"/>
		<path fill="none" stroke="#D4D5D6" stroke-miterlimit="10" d="M916.8,1179.3c131.5,10.9,236.3-11.9,350,0.4
			c353.9,38.2,504.5,76.8,567.4,112.6c127.1,72.3-407.6-23.2-604.1-86.7c-82.2-26.6-105.6-58.1,3.3-95.4
			c168.7-57.7,409.8,135.6,415.4,135.6"/>
		<path fill="none" stroke="#D4D5D7" stroke-miterlimit="10" d="M916.8,1180.8c130.1,10.7,232.5-15.1,346.6-2.8
			c350.5,37.7,497.8,77.5,561.3,115c126.1,74.3-398.8-28.3-591.5-90.4c-80.6-26-103.4-56.6,4.3-92.3
			c166.9-55.3,405.1,137.8,411.2,137.8"/>
		<path fill="none" stroke="#D5D6D8" stroke-miterlimit="10" d="M916.8,1182.3c128.7,10.6,228.6-18.2,343.2-6
			c347.1,37.1,491.1,78.3,555.3,117.4c125.1,76.3-390.1-33.3-578.8-94.2c-79-25.5-101.2-55,5.3-89.2c165-52.9,400.4,140.1,407,140.1
			"/>
		<path fill="none" stroke="#D6D6D8" stroke-miterlimit="10" d="M916.8,1183.9c127.3,10.4,224.7-21.3,339.8-9.1
			c343.8,36.4,484.4,79,549.2,119.8c124.1,78.2-381.4-38.3-566.2-97.9c-77.5-25-99-53.5,6.3-86.1
			c163.2-50.5,395.7,142.3,402.8,142.3"/>
		<path fill="none" stroke="#D6D7D9" stroke-miterlimit="10" d="M916.8,1185.4c125.8,10.2,220.7-24.4,336.4-12.3
			c340.4,35.6,477.7,79.7,543.1,122.2c123.1,80-372.7-43.4-553.5-101.6c-75.9-24.5-96.8-51.9,7.3-83
			c161.4-48.2,391.1,144.5,398.7,144.5"/>
		<path fill="none" stroke="#D7D8D9" stroke-miterlimit="10" d="M916.8,1186.9c124.4,10.1,216.7-27.5,333-15.5
			c337.1,34.8,471,80.3,537,124.6c122.1,81.8-364-48.4-540.8-105.3c-74.4-24-94.6-50.3,8.3-79.8c159.6-45.8,386.4,146.8,394.5,146.8
			"/>
		<path fill="none" stroke="#D7D8DA" stroke-miterlimit="10" d="M916.8,1188.5c123,9.9,212.8-5.6,329.6-18.7
			c333.4-37.5,464.3,81,531,127c121.2,83.6-355.3-53.4-528.2-109c-72.8-23.5-92.3-48.8,9.3-76.7c157.8-43.4,381.7,149,390.3,149"/>
		<path fill="none" stroke="#D8D9DA" stroke-miterlimit="10" d="M916.8,1190c121.6,9.8,208.9-7.2,326.2-21.8
			c329.6-41.1,457.6,81.6,524.9,129.4c120.2,85.3-346.6-58.4-515.5-112.7c-71.2-22.9-90.1-47.2,10.3-73.6
			c156-41,377,151.2,386.1,151.2"/>
		<path fill="none" stroke="#D9D9DB" stroke-miterlimit="10" d="M916.8,1191.5c120.1,9.6,205-8.9,322.8-25
			c325.8-44.7,450.9,82.2,518.8,131.7c119.3,87-337.9-63.5-502.9-116.4c-69.7-22.4-87.9-45.6,11.3-70.5
			c154.2-38.6,372.3,153.5,381.9,153.5"/>
		<path fill="none" stroke="#D9DADC" stroke-miterlimit="10" d="M916.8,1193.1c118.7,9.5,201.1-10.5,319.4-28.2
			c321.9-48.2,444.3,82.8,512.7,134.1c118.4,88.7-329.2-68.5-490.2-120.1c-68.1-21.9-85.7-44.1,12.3-67.4
			c152.4-36.3,367.6,155.7,377.7,155.7"/>
		<path fill="none" stroke="#DADBDC" stroke-miterlimit="10" d="M916.8,1194.6c117.3,9.3,197.2-12.1,316-31.4
			c318.1-51.6,437.6,83.4,506.6,136.5c117.5,90.4-320.5-73.5-477.5-123.9c-66.6-21.4-83.4-42.5,13.3-64.3
			c150.6-33.9,362.9,157.9,373.6,157.9"/>
		<path fill="none" stroke="#DBDBDD" stroke-miterlimit="10" d="M916.8,1196.1c115.9,9.2,193.3-13.7,312.6-34.6
			c314.2-54.9,430.9,84,500.6,138.9c116.7,92-311.8-78.6-464.9-127.6c-65-20.9-81.2-40.9,14.3-61.1
			c148.9-31.5,358.2,160.2,369.4,160.2"/>
		<path fill="none" stroke="#DBDCDD" stroke-miterlimit="10" d="M916.8,1197.7c114.5,9,189.3-15.3,309.2-37.7
			c310.3-58.2,424.3,84.6,494.5,141.3c115.8,93.6-303.1-83.6-452.2-131.3c-63.4-20.3-79-39.4,15.3-58
			c147.1-29.1,353.5,162.4,365.2,162.4"/>
		<path fill="none" stroke="#DCDDDE" stroke-miterlimit="10" d="M916.8,1199.2c113,8.8,185.3-16.8,305.8-40.9
			c306.4-61.3,417.6,85.1,488.4,143.7c115,95.1-294.4-88.6-439.6-135c-61.9-19.8-76.7-37.8,16.3-54.9
			c145.3-26.7,348.8,164.6,361,164.6"/>
		<path fill="none" stroke="#DCDDDF" stroke-miterlimit="10" d="M916.8,1200.7c111.6,8.7,181.4-18.4,302.4-44.1
			c302.5-64.3,411,85.7,482.3,146.1c114.1,96.7-285.6-93.7-426.9-138.7c-60.3-19.3-74.5-36.2,17.3-51.8
			c143.6-24.4,344.1,166.9,356.8,166.9"/>
		<path fill="none" stroke="#DDDEDF" stroke-miterlimit="10" d="M916.8,1202.2c110.2,8.5,177.4-19.9,299-47.3
			c298.6-67.3,404.4,86.2,476.3,148.5c113.3,98.2-276.9-98.7-414.3-142.4c-58.8-18.8-72.2-34.7,18.3-48.7
			c141.8-22,339.5,169.1,352.6,169.1"/>
		<path fill="none" stroke="#DEDEE0" stroke-miterlimit="10" d="M916.8,1203.8c108.8,8.4,173.4-21.4,295.6-50.4
			c294.6-70.1,397.7,86.7,470.2,150.9c112.5,99.7-268.2-103.7-401.6-146.1c-57.2-18.3-70-33.1,19.4-45.6
			c140.1-19.6,334.8,171.3,348.5,171.3"/>
		<path fill="none" stroke="#DEDFE0" stroke-miterlimit="10" d="M916.8,1205.3c107.3,8.2,169.4-22.8,292.2-53.6
			c290.7-72.9,391.1,87.2,464.1,153.3c111.8,101.2-259.5-108.8-388.9-149.9c-55.6-17.8-67.7-31.5,20.4-42.5
			c138.3-17.2,330.1,173.6,344.3,173.6"/>
		<path fill="none" stroke="#DFE0E1" stroke-miterlimit="10" d="M916.8,1206.8c105.9,8.1,165.4-24.3,288.8-56.8
			c286.8-75.6,384.5,87.7,458,155.7c111,102.7-250.8-113.8-376.3-153.6c-54.1-17.2-65.4-29.9,21.4-39.3
			c136.6-14.8,325.4,175.8,340.1,175.8"/>
		<path fill="none" stroke="#E0E0E1" stroke-miterlimit="10" d="M916.8,1208.4c104.5,7.9,161.4-25.7,285.4-60
			c282.9-78.2,378,88.2,451.9,158c110.3,104.1-242.1-118.8-363.6-157.3c-52.5-16.7-63.2-28.4,22.4-36.2
			c134.9-12.4,320.7,178.1,335.9,178.1"/>
		<path fill="none" stroke="#E0E1E2" stroke-miterlimit="10" d="M916.8,1209.9c103.1,7.8,157.4-27.1,282-63.2
			c279-80.7,371.4,88.7,445.9,160.4c109.5,105.6-233.4-123.8-351-161c-51-16.2-60.9-26.8,23.4-33.1c133.2-10,316,180.3,331.7,180.3"
			/>
		<path fill="none" stroke="#E1E1E3" stroke-miterlimit="10" d="M916.8,1211.4c101.7,7.6,153.4-28.5,278.6-66.3
			c275.1-83.1,364.8,89.1,439.8,162.8c108.8,107-224.7-128.9-338.3-164.7c-49.4-15.7-58.6-25.2,24.4-30
			c131.5-7.6,311.3,182.5,327.5,182.5"/>
		<path fill="none" stroke="#E1E2E3" stroke-miterlimit="10" d="M916.8,1213c100.2,7.4,149.4-29.8,275.2-69.5
			c271.2-85.5,358.3,89.6,433.7,165.2c108.1,108.4-216-133.9-325.6-168.4c-47.8-15.2-56.3-30.4,25.4-26.9
			c129.8,5.6,306.6,184.8,323.4,184.8"/>
		<path fill="none" stroke="#E2E3E4" stroke-miterlimit="10" d="M916.8,1214.5c98.8,7.3,145.4-31.2,271.8-72.7
			c267.3-87.8,351.7,90,427.6,167.6c107.4,109.8-207.3-138.9-313-172.1c-46.3-14.7-53.9-29,26.4-23.8c127.9,8.3,301.9,187,319.2,187
			"/>
		<path fill="none" stroke="#E3E3E4" stroke-miterlimit="10" d="M916.8,1216c97.4,7.1,141.4-32.5,268.4-75.9
			c263.4-90,345.2,90.4,421.6,170c106.8,111.2-198.6-144-300.3-175.9c-44.7-14.1-51.4-27.5,27.4-20.7
			c125.9,11,297.2,189.2,315,189.2"/>
		<path fill="none" stroke="#E3E4E5" stroke-miterlimit="10" d="M916.8,1217.6c96,7,137.4-33.7,265-79
			c259.6-92.2,338.7,90.9,415.5,172.4c106.1,112.6-189.9-149-287.7-179.6c-43.2-13.6-49-26.1,28.4-17.5
			c124,13.7,292.6,191.5,310.8,191.5"/>
		<path fill="none" stroke="#E4E4E5" stroke-miterlimit="10" d="M916.8,1219.1c94.6,6.8,133.4-35,261.6-82.2
			c255.8-94.2,332.2,91.3,409.4,174.8c105.4,114-181.1-154-275-183.3c-41.6-13.1-46.5-24.6,29.4-14.4
			c122.1,16.3,287.9,193.7,306.6,193.7"/>
		<path fill="none" stroke="#E4E5E6" stroke-miterlimit="10" d="M916.8,1220.6c93.1,6.7,129.4-36.2,258.2-85.4
			c251.9-96.2,325.7,91.7,403.3,177.2c104.8,115.4-172.4-159.1-262.3-187c-40-12.6-44.8-15.6,30.4-11.3
			c121.4,6.9,283.2,195.9,302.4,195.9"/>
		<path fill="none" stroke="#E5E6E7" stroke-miterlimit="10" d="M916.8,1222.1c91.7,6.5,125.4-37.4,254.8-88.6
			c248.1-98.2,319.2,92.1,397.3,179.6c104.2,116.8-163.7-164.1-249.7-190.7c-38.5-12.1-42.5-14,31.4-8.2
			c119.8,9.4,278.5,198.2,298.3,198.2"/>
		<path fill="none" stroke="#E6E6E7" stroke-miterlimit="10" d="M916.8,1223.7c90.3,6.4,121.5-38.5,251.4-91.7
			c244.4-100.1,312.7,92.5,391.2,182c103.6,118.1-155-169.1-237-194.4c-36.9-11.5-40.2-12.3,32.4-5.1
			c118.1,11.8,273.8,200.4,294.1,200.4"/>
		<path fill="none" stroke="#E6E7E8" stroke-miterlimit="10" d="M916.8,1225.2c88.9,6.2,117.5-39.7,248-94.9
			c240.6-101.9,306.3,92.9,385.1,184.4c103,119.5-146.4-174-224.4-198.1c-35.4-11-37.9-10.7,33.4-2
			c116.5,14.3,269.1,202.6,289.9,202.6"/>
		<path fill="none" stroke="#E7E7E8" stroke-miterlimit="10" d="M916.8,1226.7c87.4,6.1,113.6-40.8,244.6-98.1
			c236.9-103.7,299.8,93.3,379,186.7c102.4,120.8-137.7-179-211.7-201.9c-33.8-10.4-35.6-9.1,34.4,1.2
			c114.9,16.8,264.4,204.9,285.7,204.9"/>
		<path fill="none" stroke="#E8E8E9" stroke-miterlimit="10" d="M916.8,1228.3c86,5.9,109.6-41.8,241.2-101.3
			c233.2-105.4,293.4,93.7,372.9,189.1c101.8,122.2-129-184-199-205.6c-32.3-9.9-33.2-7.4,35.4,4.3
			c113.3,19.3,259.7,207.1,281.5,207.1"/>
		<path fill="none" stroke="#E8E9EA" stroke-miterlimit="10" d="M916.8,1229.8c84.6,5.7,105.7-42.9,237.8-104.5
			c229.5-107,287,94,366.9,191.5c101.3,123.5-120.2-189.1-186.4-209.3c-30.7-9.4-30.9-5.8,36.4,7.4
			c111.7,21.8,255,209.3,277.3,209.3"/>
		<path fill="none" stroke="#E9E9EA" stroke-miterlimit="10" d="M916.8,1231.3c83.2,5.6,101.8-43.9,234.4-107.6
			c225.8-108.6,280.6,94.4,360.8,193.9c100.7,124.9-111.5-194.1-173.7-213c-29.2-8.9-28.6-4.1,37.4,10.5
			c110,24.3,250.3,211.6,273.2,211.6"/>
		<path fill="none" stroke="#E9EAEB" stroke-miterlimit="10" d="M916.8,1232.9c81.8,5.4,98-44.8,231-110.8
			c222.2-110.2,274.2,94.8,354.7,196.3c100.2,126.2-102.8-199.1-161.1-216.7c-27.6-8.3-26.2-2.4,38.4,13.6
			c108.4,26.9,245.6,213.8,269,213.8"/>
		<path fill="none" stroke="#EAEAEB" stroke-miterlimit="10" d="M916.8,1234.4c80.3,5.3,94.1-45.8,227.6-114
			c218.6-111.7,267.8,95.1,348.6,198.7c99.6,127.6-94.1-204.1-148.4-220.4c-26-7.8-23.9-0.7,39.4,16.7
			c106.8,29.4,241,216.1,264.8,216.1"/>
		<path fill="none" stroke="#EBEBEC" stroke-miterlimit="10" d="M916.8,1235.9c78.9,5.1,90.3-46.7,224.2-117.2
			c215-113.2,261.4,95.5,342.6,201.1c99.1,128.9-85.4-209.1-135.8-224.1c-24.5-7.3-21.6,1,40.4,19.8
			c105.2,32,236.3,218.3,260.6,218.3"/>
		<path fill="none" stroke="#EBECEC" stroke-miterlimit="10" d="M916.8,1237.5c77.5,5,86.4-47.5,220.8-120.3
			c211.5-114.6,255,95.9,336.5,203.5c98.6,130.3-76.7-214.2-123.1-227.8c-22.9-6.8-19.2,2.7,41.4,23
			c103.6,34.6,231.6,220.5,256.4,220.5"/>
		<path fill="none" stroke="#ECECED" stroke-miterlimit="10" d="M916.8,1239c76.1,4.8,82.7-48.4,217.4-123.5
			c208-116,248.7,96.2,330.4,205.9c98.1,131.6-68-219.2-110.4-231.6c-21.4-6.2-16.9,4.4,42.4,26.1c102,37.2,226.9,222.8,252.2,222.8
			"/>
		<path fill="none" stroke="#ECEDEE" stroke-miterlimit="10" d="M916.8,1240.5c74.7,4.7,78.9-49.2,214-126.7
			c204.5-117.4,242.3,96.5,324.3,208.3c97.6,133-59.3-224.2-97.8-235.3c-19.8-5.7-14.6,6.2,43.4,29.2
			c100.4,39.8,222.2,225,248.1,225"/>
		<path fill="none" stroke="#EDEDEE" stroke-miterlimit="10" d="M916.8,1242c73.2,4.5,75.2-49.9,210.6-129.9
			c201.1-118.7,236,96.9,318.2,210.7c97.1,134.3-50.6-229.2-85.1-239c-18.3-5.2-12.3,7.9,44.4,32.3
			c98.8,42.5,217.5,227.2,243.9,227.2"/>
		<path fill="none" stroke="#EEEEEF" stroke-miterlimit="10" d="M916.8,1243.6c71.8,4.3,71.5-50.7,207.2-133
			c197.7-120,229.6,97.2,312.2,213c96.6,135.7-41.9-234.2-72.5-242.7c-16.7-4.6-9.9,9.7,45.4,35.4
			c97.1,45.2,212.8,229.5,239.7,229.5"/>
		<path fill="none" stroke="#EEEFEF" stroke-miterlimit="10" d="M916.8,1245.1c70.4,4.2,67.8-51.4,203.8-136.2
			c194.4-121.2,223.3,97.6,306.1,215.4c96.2,137-33.2-239.2-59.8-246.4c-15.1-4.1-7.6,11.5,46.4,38.5
			c95.5,47.9,208.1,231.7,235.5,231.7"/>
		<path fill="none" stroke="#EFEFF0" stroke-miterlimit="10" d="M916.8,1246.6c69,4,64.2-52,200.4-139.4
			c191-122.5,217,97.9,300,217.8c95.7,138.3-24.5-244.2-47.1-250.1c-13.6-3.6-5.3,13.2,47.4,41.6c93.8,50.6,203.4,233.9,231.3,233.9
			"/>
		<path fill="none" stroke="#F0F0F0" stroke-miterlimit="10" d="M916.8,1248.2c67.5,3.9,60.6-52.7,197-142.6
			c187.7-123.7,210.7,98.2,293.9,220.2c95.3,139.7-15.8-249.2-34.5-253.8c-12-3-3,15,48.4,44.8c92.2,53.3,198.7,236.2,227.1,236.2"
			/>
		<path fill="none" stroke="#F0F0F1" stroke-miterlimit="10" d="M916.8,1249.7c66.1,3.7,57-53.3,193.6-145.8
			c184.5-124.9,204.4,98.5,287.9,222.6c94.8,141-7.1-254.2-21.8-257.6c-10.5-2.4-0.7,16.8,49.4,47.9c90.5,56,194.1,238.4,223,238.4"
			/>
		<path fill="none" stroke="#F1F1F2" stroke-miterlimit="10" d="M916.8,1251.2c64.7,3.6,53.5-53.8,190.2-148.9
			c181.3-126.1,198.2,98.9,281.8,225c94.4,142.4,1.6-259.1-9.2-261.3c-9-1.8,1.5,18.6,50.4,51c88.8,58.8,189.4,240.6,218.8,240.6"/>
		<path fill="none" stroke="#F1F2F2" stroke-miterlimit="10" d="M916.8,1252.8c63.3,3.4,50-54.4,186.8-152.1
			c178.1-127.3,191.9,99.2,275.7,227.4c94,143.7,10.4-264.1,3.5-265c-7.4-1,3.8,20.5,51.4,54.1c87.1,61.6,184.7,242.9,214.6,242.9"
			/>
		<path fill="none" stroke="#F2F2F3" stroke-miterlimit="10" d="M916.8,1254.3c61.9,3.3,46.5-54.9,183.4-155.3
			c175-128.4,185.6,99.5,269.6,229.8c93.5,145.1,19.1-269.7,16.2-268.7c-5.7-1.2,6.1,22.3,52.4,57.2
			c85.3,64.4,180,245.1,210.4,245.1"/>
		<path fill="none" stroke="#F3F3F3" stroke-miterlimit="10" d="M916.8,1255.8c60.4,3.1,43.1-55.3,180-158.5
			c171.9-129.6,179.4,99.8,263.5,232.2c93.1,146.4,27.8-274.8,28.8-272.4c-4.2-0.7,8.3,24.1,53.4,60.3
			c83.6,67.2,175.3,247.4,206.2,247.4"/>
		<path fill="none" stroke="#F3F4F4" stroke-miterlimit="10" d="M916.8,1257.4c59,2.9,39.8-55.7,176.6-161.6
			c168.9-130.7,173.1,100.1,257.5,234.6c92.7,147.8,36.5-279.8,41.5-276.1c-2.6-0.2,10.6,25.9,54.4,63.5
			c81.8,70,170.6,249.6,202,249.6"/>
		<path fill="none" stroke="#F4F4F5" stroke-miterlimit="10" d="M916.8,1258.9c57.6,2.8,36.5-56.1,173.2-164.8
			c165.9-131.9,166.9,100.5,251.4,237c92.3,149.1,45.3-284.8,54.1-279.8c-1.1,0.4,12.8,27.8,55.4,66.6
			c80,72.8,165.9,251.8,197.9,251.8"/>
		<path fill="none" stroke="#F5F5F5" stroke-miterlimit="10" d="M916.8,1260.4c56.2,2.6,33.2-56.5,169.8-168
			c163-133,160.7,100.8,245.3,239.3c91.9,150.5,54-289.9,66.8-283.6c0.5,0.9,15,29.6,56.4,69.7c78.1,75.6,161.2,254.1,193.7,254.1"
			/>
		<path fill="none" stroke="#F5F5F6" stroke-miterlimit="10" d="M916.8,1262c54.7,2.5,30-56.9,166.4-171.2
			c160.1-134.1,154.5,101.1,239.2,241.7c91.5,151.9,63.4-296.3,79.5-287.3c2.2,1.2,17.2,31.4,57.4,72.8
			c76.3,78.4,156.5,256.3,189.5,256.3"/>
		<path fill="none" stroke="#F6F6F6" stroke-miterlimit="10" d="M916.8,1263.5c53.3,2.3,26.8-57.2,163-174.3
			c157.2-135.3,148.3,101.4,233.2,244.1c91.1,153.2,71.8-300.8,92.1-291c3.7,1.8,19.4,33.3,58.4,75.9
			c74.4,81.3,151.8,258.5,185.3,258.5"/>
		<path fill="none" stroke="#F6F7F7" stroke-miterlimit="10" d="M916.8,1265c51.9,2.2,23.7-57.5,159.6-177.5
			c154.4-136.4,142.1,101.7,227.1,246.5c90.8,154.6,80.3-305.5,104.8-294.7c5.2,2.3,21.6,35.1,59.4,79
			c72.5,84.1,147.2,260.8,181.1,260.8"/>
		<path fill="none" stroke="#F7F7F7" stroke-miterlimit="10" d="M916.8,1266.5c50.5,2,20.7-57.7,156.2-180.7
			c151.6-137.6,135.9,102,221,248.9c90.4,156,89-310.4,117.4-298.4c6.8,2.9,23.7,36.9,60.4,82.1c70.6,86.9,142.5,263,176.9,263"/>
		<path fill="none" stroke="#F8F8F8" stroke-miterlimit="10" d="M916.8,1268.1c49.1,1.9,17.6-57.9,152.8-183.9
			c148.9-138.7,129.7,102.3,214.9,251.3c90,157.3,97.6-315.3,130.1-302.1c8.3,3.4,25.9,38.8,61.4,85.3
			c68.6,89.7,137.8,265.2,172.8,265.2"/>
		<path fill="none" stroke="#F8F8F9" stroke-miterlimit="10" d="M916.8,1269.6c47.6,1.7,14.7-58.2,149.4-187.1
			c146.2-139.9,123.5,102.6,208.9,253.7c89.7,158.7,106.3-320.3,142.7-305.8c9.9,3.9,28,40.6,62.4,88.4
			c66.6,92.5,133.1,267.5,168.6,267.5"/>
		<path fill="none" stroke="#F9F9F9" stroke-miterlimit="10" d="M916.8,1271.1c46.2,1.6,11.8-58.3,146-190.2
			c143.6-141.1,117.3,102.9,202.8,256.1c89.3,160.1,115-325.3,155.4-309.6c11.4,4.5,30.1,42.4,63.4,91.5
			c64.6,95.3,128.4,269.7,164.4,269.7"/>
		<path fill="none" stroke="#F9FAFA" stroke-miterlimit="10" d="M916.8,1272.7c44.8,1.4,8.9-58.5,142.6-193.4
			c141-142.3,111.2,103.2,196.7,258.5c89,161.5,123.7-330.3,168.1-313.3c13,5,32.3,44.2,64.4,94.6
			c62.6,98.1,123.7,271.9,160.2,271.9"/>
		<path fill="none" stroke="#FAFAFA" stroke-miterlimit="10" d="M916.8,1274.2c43.4,1.2,6.2-58.7,139.2-196.6
			c138.4-143.5,105,103.5,190.6,260.9c88.6,162.8,132.4-335.3,180.7-317c14.5,5.5,34.4,46,65.4,97.7c60.6,100.9,119,274.2,156,274.2
			"/>
		<path fill="none" stroke="#FBFBFB" stroke-miterlimit="10" d="M916.8,1275.7c42,1.1,3.4-58.8,135.8-199.8
			c135.9-144.7,98.9,103.9,184.5,263.3c88.3,164.2,141.1-340.3,193.4-320.7c16.1,6,36.5,47.8,66.4,100.8
			c58.5,103.7,114.3,276.4,151.8,276.4"/>
		<path fill="none" stroke="#FBFBFC" stroke-miterlimit="10" d="M916.8,1277.3c40.5,0.9,0.8-58.9,132.4-202.9
			c133.4-146,92.7,104.2,178.5,265.7c87.9,165.6,149.8-345.2,206-324.4c17.7,6.6,38.6,49.6,67.4,103.9
			c56.5,106.4,109.6,278.6,147.7,278.6"/>
		<path fill="none" stroke="#FCFCFC" stroke-miterlimit="10" d="M916.8,1278.8c39.1,0.8-1.9-59,129-206.1
			c131-147.3,86.6,104.5,172.4,268c87.6,167,158.5-350.2,218.7-328.1c19.2,7.1,40.7,51.3,68.4,107.1
			c54.4,109.2,104.9,280.9,143.5,280.9"/>
		<path fill="none" stroke="#FDFDFD" stroke-miterlimit="10" d="M916.8,1280.3c37.7,0.6-4.4-59.1,125.6-209.3
			c128.7-148.6,80.5,104.8,166.3,270.4c87.3,168.4,167.2-355.3,231.4-331.8c20.8,7.6,42.8,53.1,69.4,110.2
			c52.3,111.9,100.2,283.1,139.3,283.1"/>
		<path fill="none" stroke="#FDFDFD" stroke-miterlimit="10" d="M916.8,1281.9c36.3,0.5-6.9-59.2,122.2-212.5
			c126.3-150,74.3,105.1,160.2,272.8c86.9,169.8,175.9-360.3,244-335.6c22.3,8.1,44.8,54.9,70.4,113.3
			c50.2,114.6,95.6,285.4,135.1,285.4"/>
		<path fill="none" stroke="#FEFEFE" stroke-miterlimit="10" d="M916.8,1283.4c34.8,0.3-9.4-59.2,118.8-215.6
			c124-151.3,68.2,105.4,154.2,275.2c86.6,171.2,184.6-365.3,256.7-339.3c23.9,8.7,46.9,56.6,71.4,116.4
			c48.1,117.3,90.9,287.6,130.9,287.6"/>
		<path fill="none" stroke="#FEFEFE" stroke-miterlimit="10" d="M916.8,1284.9c33.4,0.2-11.8-59.3,115.4-218.8
			c121.8-152.7,62.4,105.5,148.1,277.6c86.7,172.4,193.3-370.4,269.3-343c25.4,9.2,49,58.4,72.4,119.5
			c46,120,86.2,289.8,126.7,289.8"/>
		<path fill="none" stroke="#FFFFFF" stroke-miterlimit="10" d="M916.8,1286.4c32,0-14.2-59.4,112-222c119.6-154.2,56,106,142,280
			s202-375.4,282-346.7c80,28.7,134,414.7,196,414.7"/>
	</g>
</g>
</svg>
