<?xml version="1.0" encoding="utf-8"?>
<!-- Generator: Adobe Illustrator 16.0.0, SVG Export Plug-In . SVG Version: 6.00 Build 0)  -->
<!DOCTYPE svg PUBLIC "-//W3C//DTD SVG 1.1//EN" "http://www.w3.org/Graphics/SVG/1.1/DTD/svg11.dtd">
<svg version="1.1" id="Layer_1" xmlns="http://www.w3.org/2000/svg" xmlns:xlink="http://www.w3.org/1999/xlink" x="0px" y="0px"
	 width="37px" height="49px" viewBox="0 0 37 49" enable-background="new 0 0 37 49" xml:space="preserve">
<polygon fill="#FD5A40" points="30.913,23.957 7,23.957 7,21.556 16.396,12 30.913,12 "/>
<polygon fill="#D84B3D" points="16.274,21.589 16.339,12.057 7.121,21.525 "/>
<g>
	<path fill="#FFFFFF" d="M22.521,17.002c-0.22,0.182-0.473,0.272-0.76,0.272h-0.956v1.467h-0.515v-3.445h1.471
		c0.287,0,0.539,0.09,0.756,0.268c0.227,0.197,0.339,0.438,0.339,0.721C22.855,16.573,22.744,16.811,22.521,17.002z M22.158,15.942
		c-0.115-0.086-0.247-0.128-0.396-0.128h-0.956v0.946h0.956c0.149,0,0.281-0.044,0.396-0.129c0.117-0.089,0.176-0.204,0.176-0.344
		S22.275,16.032,22.158,15.942z"/>
	<path fill="#FFFFFF" d="M25.841,18.235c-0.334,0.338-0.737,0.507-1.208,0.507h-1.304v-3.445h1.304c0.471,0,0.874,0.167,1.208,0.501
		c0.341,0.331,0.513,0.737,0.513,1.218C26.352,17.488,26.182,17.895,25.841,18.235z M25.481,16.166
		c-0.234-0.235-0.518-0.354-0.849-0.354h-0.789v2.408h0.789c0.333,0,0.617-0.117,0.849-0.35c0.236-0.235,0.355-0.521,0.355-0.855
		C25.837,16.686,25.719,16.402,25.481,16.166z"/>
	<path fill="#FFFFFF" d="M27.446,15.813v0.946h1.506v0.515h-1.506v1.467h-0.516v-3.445h2.442v0.517H27.446z"/>
</g>
<rect x="7.374" y="22.835" fill="#FFFFFF" stroke="#FD5A40" stroke-width="0.7473" stroke-miterlimit="10" width="23.166" height="23.166"/>
<g opacity="0.71">
	<g>
		<path fill="#1A1A1A" d="M18.279,38.867c-4.011,0-7.421-3.324-7.421-7.357c0-4.053,3.39-7.378,7.421-7.378
			c4.033,0,7.422,3.325,7.422,7.378C25.699,35.541,22.29,38.867,18.279,38.867z M18.279,25.011c-3.561,0-6.457,2.96-6.457,6.499
			c0,3.518,2.917,6.499,6.457,6.499c3.539,0,6.457-2.96,6.457-6.499C24.734,27.972,21.839,25.011,18.279,25.011z"/>
	</g>
</g>
<g opacity="0.94">
	<path fill="#FD5A40" d="M18.954,38.631c-3.95,0-7.309-3.324-7.309-7.356c0-4.054,3.338-7.379,7.309-7.379s7.309,3.326,7.309,7.379
		C26.263,35.307,22.904,38.631,18.954,38.631z M18.954,24.774c-3.506,0-6.358,2.96-6.358,6.5c0,3.518,2.873,6.499,6.358,6.499
		s6.357-2.959,6.357-6.499C25.312,27.735,22.461,24.774,18.954,24.774z"/>
</g>
<g opacity="0.97">
	<g>
		<path fill="#FFFFFF" d="M19.858,38.631c-3.95,0-7.309-3.324-7.309-7.356c0-4.054,3.337-7.379,7.309-7.379
			c3.972,0,7.308,3.326,7.308,7.379C27.166,35.307,23.809,38.631,19.858,38.631z M19.858,24.774c-3.506,0-6.358,2.96-6.358,6.5
			c0,3.518,2.873,6.499,6.358,6.499s6.357-2.959,6.357-6.499C26.215,27.735,23.364,24.774,19.858,24.774z"/>
	</g>
</g>
<g opacity="0.94">
	<path fill="#FD5A40" d="M25.303,31.085c0.002,0.063,0.009,0.125,0.009,0.189c0,3.538-2.872,6.499-6.357,6.499
		s-6.358-2.981-6.358-6.499c0-0.114,0.011-0.225,0.018-0.337c-0.309,0.147-0.675,0.119-0.949-0.039
		c-0.006,0.124-0.02,0.249-0.02,0.376c0,4.032,3.359,7.357,7.309,7.357s7.309-3.325,7.309-7.357c0-0.101-0.012-0.198-0.016-0.296
		C25.964,31.206,25.591,31.279,25.303,31.085z"/>
</g>
<path id="download-icon" fill="#2A2A2A" d="M25.447,37.408h2.09l-4.545,4.552l-4.545-4.552h2.09v-5.719h4.91V37.408z M26.171,41.966
	h-6.359v1.42h6.359V41.966z"/>
</svg>
