<?xml version="1.0" encoding="utf-8"?>
<!-- Generator: Adobe Illustrator 18.0.0, SVG Export Plug-In . SVG Version: 6.00 Build 0)  -->
<!DOCTYPE svg PUBLIC "-//W3C//DTD SVG 1.1//EN" "http://www.w3.org/Graphics/SVG/1.1/DTD/svg11.dtd">
<svg version="1.1" id="Calque_1" xmlns="http://www.w3.org/2000/svg" xmlns:xlink="http://www.w3.org/1999/xlink" x="0px" y="0px"
	 viewBox="0 0 334.9 75.1" enable-background="new 0 0 334.9 75.1" xml:space="preserve">
<g>
	<path fill="#FFFFFF" d="M15.9,62.8c0.5,0,0.9-0.1,1.2-0.2c0.3-0.2,0.7-0.4,1.1-0.8l0.9,0.9c-0.9,0.9-1.9,1.4-3.1,1.4
		c-1.2,0-2.2-0.4-3-1.2c-0.8-0.8-1.2-1.8-1.2-3c0-1.2,0.4-2.2,1.2-3c0.8-0.8,1.8-1.2,3.1-1.2c1.2,0,2.3,0.5,3.1,1.4l-0.9,0.9
		c-0.4-0.4-0.7-0.6-1.1-0.8c-0.3-0.1-0.7-0.2-1.2-0.2c-0.8,0-1.5,0.3-2,0.8c-0.6,0.5-0.8,1.2-0.8,2c0,0.8,0.3,1.5,0.8,2
		C14.5,62.5,15.2,62.8,15.9,62.8L15.9,62.8z M27.5,62.9c-0.8,0.8-1.8,1.2-3,1.2c-1.2,0-2.2-0.4-3-1.2c-0.8-0.8-1.2-1.8-1.2-3
		c0-1.2,0.4-2.2,1.2-3c0.8-0.8,1.8-1.2,3-1.2s2.2,0.4,3,1.2c0.8,0.8,1.2,1.8,1.2,3C28.7,61.2,28.3,62.1,27.5,62.9z M26.5,57.9
		c-0.5-0.6-1.2-0.9-2-0.9c-0.8,0-1.5,0.3-2,0.9c-0.6,0.6-0.8,1.3-0.8,2.1c0,0.8,0.3,1.5,0.8,2.1c0.5,0.6,1.2,0.9,2,0.9
		c0.8,0,1.5-0.3,2-0.9c0.5-0.6,0.8-1.3,0.8-2.1C27.3,59.2,27.1,58.5,26.5,57.9z M36.7,56h1.4v8h-1.5L32,58.2V64h-1.4v-8H32l4.7,6
		L36.7,56L36.7,56z M44.2,62.8c0.5,0,0.9-0.1,1.2-0.2c0.3-0.2,0.7-0.4,1.1-0.8l0.9,0.9c-0.9,0.9-1.9,1.4-3.1,1.4s-2.2-0.4-3-1.2
		c-0.8-0.8-1.2-1.8-1.2-3c0-1.2,0.4-2.2,1.2-3c0.8-0.8,1.8-1.2,3.1-1.2c1.2,0,2.3,0.5,3.1,1.4l-0.9,0.9c-0.4-0.4-0.7-0.6-1.1-0.8
		c-0.3-0.1-0.7-0.2-1.2-0.2c-0.8,0-1.5,0.3-2,0.8c-0.6,0.5-0.8,1.2-0.8,2c0,0.8,0.3,1.5,0.8,2C42.8,62.5,43.4,62.8,44.2,62.8
		L44.2,62.8z M54.9,56v1.3h-4.3v2.1h3.9v1.2h-3.9v2.2H55V64h-5.8v-8L54.9,56L54.9,56z M63,56h1.4v8h-1.5l-4.6-5.9V64H57v-8h1.4
		l4.7,6L63,56L63,56z M69.9,57.2V64h-1.4v-6.8h-2.4V56h6.2v1.2H69.9z M80.4,58.6c0,1.3-0.6,2.2-1.7,2.5l2.1,2.9h-1.7l-1.9-2.7h-1.8
		V64H74v-8h3c1.2,0,2.1,0.2,2.6,0.6C80.2,57,80.4,57.7,80.4,58.6L80.4,58.6z M78.6,59.8c0.3-0.2,0.4-0.6,0.4-1.1s-0.1-0.9-0.4-1.1
		c-0.3-0.2-0.8-0.3-1.5-0.3h-1.7v2.9H77C77.8,60.1,78.3,60,78.6,59.8z M88.3,56v1.3H84v2.1h3.9v1.2H84v2.2h4.4V64h-5.8v-8L88.3,56
		L88.3,56z M86,55.3h-1.2l1.2-1.7l1.4,0.6L86,55.3z M99.8,57.1c0.8,0.7,1.2,1.7,1.2,2.9c0,1.2-0.4,2.2-1.1,3
		C99.1,63.7,98,64,96.4,64h-2.7v-8h2.8C97.9,56,99.1,56.4,99.8,57.1z M99.6,60c0-1.8-1.1-2.8-3.2-2.8h-1.4v5.5h1.5
		c1,0,1.7-0.2,2.2-0.7C99.4,61.6,99.6,60.9,99.6,60z M102.7,57.3c-0.2-0.1-0.3-0.3-0.3-0.5c0-0.2,0.1-0.4,0.2-0.6
		c0.1-0.1,0.3-0.2,0.5-0.2c0.2,0,0.4,0.1,0.5,0.2c0.1,0.1,0.2,0.3,0.2,0.5c0,0.2-0.1,0.4-0.2,0.6l-0.7,1h-0.7L102.7,57.3z
		 M106.1,62.2l-0.8,1.8h-1.4l3.5-8h1.4l3.5,8H111l-0.8-1.8H106.1L106.1,62.2z M109.6,61l-1.5-3.3l-1.5,3.3H109.6z M120.2,58.6
		c0,1.3-0.6,2.2-1.7,2.5l2.1,2.9h-1.7l-1.9-2.7h-1.8V64h-1.4v-8h3c1.2,0,2.1,0.2,2.6,0.6C119.9,57,120.2,57.7,120.2,58.6z
		 M118.4,59.8c0.3-0.2,0.4-0.6,0.4-1.1s-0.1-0.9-0.4-1.1c-0.3-0.2-0.8-0.3-1.5-0.3h-1.7v2.9h1.7C117.6,60.1,118.1,60,118.4,59.8z
		 M125.3,57.2V64h-1.4v-6.8h-2.4V56h6.2v1.2H125.3z M129.4,56h1.4v8h-1.4V56z M136.9,62.8c0.5,0,0.9-0.1,1.2-0.2
		c0.3-0.2,0.7-0.4,1.1-0.8l0.9,0.9c-0.9,0.9-1.9,1.4-3.1,1.4c-1.2,0-2.2-0.4-3-1.2c-0.8-0.8-1.2-1.8-1.2-3c0-1.2,0.4-2.2,1.2-3
		c0.8-0.8,1.8-1.2,3.1-1.2c1.2,0,2.3,0.5,3.1,1.4l-0.9,0.9c-0.4-0.4-0.7-0.6-1.1-0.8c-0.3-0.1-0.7-0.2-1.2-0.2c-0.8,0-1.5,0.3-2,0.8
		c-0.6,0.5-0.8,1.2-0.8,2c0,0.8,0.3,1.5,0.8,2C135.5,62.5,136.2,62.8,136.9,62.8z M142,64v-8h1.4v6.8h3.7V64H142z M154.3,56v1.3
		h-4.3v2.1h3.9v1.2h-3.9v2.2h4.4V64h-5.8v-8L154.3,56L154.3,56z M158.9,57.1c-0.4,0-0.7,0.1-1,0.2c-0.3,0.2-0.4,0.4-0.4,0.7
		c0,0.3,0.1,0.6,0.4,0.7c0.3,0.2,0.8,0.4,1.6,0.6c0.8,0.2,1.4,0.5,1.9,0.8c0.4,0.4,0.6,0.9,0.6,1.6c0,0.7-0.3,1.3-0.8,1.7
		c-0.5,0.4-1.2,0.7-2.1,0.7c-1.3,0-2.4-0.4-3.3-1.3l0.9-1c0.8,0.7,1.7,1.1,2.5,1.1c0.4,0,0.8-0.1,1-0.3c0.3-0.2,0.4-0.4,0.4-0.7
		c0-0.3-0.1-0.6-0.4-0.7c-0.2-0.2-0.7-0.3-1.2-0.5c-0.6-0.1-1-0.3-1.3-0.4c-0.3-0.1-0.6-0.3-0.8-0.5c-0.5-0.4-0.7-0.9-0.7-1.7
		c0-0.7,0.3-1.3,0.8-1.7c0.5-0.4,1.2-0.6,2-0.6c0.5,0,1,0.1,1.5,0.3c0.5,0.2,0.9,0.4,1.3,0.7l-0.7,1c-0.2-0.2-0.6-0.4-1-0.5
		C159.7,57.1,159.3,57.1,158.9,57.1L158.9,57.1z M170.5,57c-0.4,0-0.7,0.1-1,0.2c-0.2,0.2-0.4,0.4-0.4,0.7c0,0.3,0.1,0.6,0.4,0.7
		c0.3,0.2,0.8,0.4,1.6,0.6c0.8,0.2,1.4,0.5,1.9,0.8c0.4,0.4,0.6,0.9,0.6,1.6c0,0.7-0.3,1.3-0.8,1.7c-0.5,0.4-1.2,0.7-2.1,0.7
		c-1.3,0-2.4-0.4-3.3-1.3l0.9-1c0.8,0.7,1.7,1.1,2.5,1.1c0.4,0,0.8-0.1,1-0.3c0.3-0.2,0.4-0.4,0.4-0.7c0-0.3-0.1-0.6-0.4-0.7
		c-0.2-0.2-0.7-0.3-1.2-0.5c-0.6-0.1-1-0.3-1.3-0.4c-0.3-0.1-0.6-0.3-0.8-0.5c-0.5-0.4-0.7-0.9-0.7-1.7c0-0.7,0.3-1.3,0.8-1.7
		c0.5-0.4,1.2-0.6,2-0.6c0.5,0,1,0.1,1.5,0.3c0.5,0.2,0.9,0.4,1.3,0.7l-0.7,1c-0.2-0.2-0.6-0.4-1-0.5C171.3,57,170.9,57,170.5,57
		L170.5,57z M177.4,62.1c0.4,0.4,0.9,0.6,1.5,0.6c0.6,0,1.1-0.2,1.5-0.6c0.4-0.4,0.6-1,0.6-1.7v-4.5h1.4v4.5c0,1.2-0.3,2.1-1,2.7
		c-0.6,0.6-1.5,0.9-2.4,0.9s-1.8-0.3-2.5-0.9c-0.6-0.6-1-1.5-1-2.7v-4.5h1.4v4.5C176.8,61.1,177,61.7,177.4,62.1L177.4,62.1z
		 M191,58.5c0,1.3-0.6,2.2-1.7,2.5l2.1,2.9h-1.7l-1.9-2.7H186v2.7h-1.4v-8h3c1.2,0,2.1,0.2,2.6,0.6C190.8,56.9,191,57.6,191,58.5z
		 M189.2,59.6c0.3-0.2,0.4-0.6,0.4-1.1s-0.1-0.9-0.4-1.1c-0.3-0.2-0.8-0.3-1.5-0.3H186V60h1.7C188.4,60,188.9,59.9,189.2,59.6
		L189.2,59.6z M196.6,63.9v-8h1.4v6.8h3.7v1.3H196.6z M209,55.9v1.3h-4.3v2.1h3.9v1.2h-3.9v2.2h4.4v1.3h-5.8v-8H209L209,55.9z
		 M214.7,57.1v-1.2h3.9v5.3c0,0.9-0.2,1.6-0.7,2.1c-0.5,0.5-1.1,0.7-1.8,0.7c-0.9,0-1.7-0.3-2.4-1l0.8-1.1c0.5,0.5,1,0.7,1.5,0.7
		c0.4,0,0.7-0.1,0.9-0.4c0.2-0.2,0.4-0.6,0.4-1.1v-4.2L214.7,57.1L214.7,57.1z M226.7,55.9v1.3h-4.3v2.1h3.9v1.2h-3.9v2.2h4.4v1.3
		H221v-8H226.7z M230.6,62.1c0.4,0.4,0.9,0.6,1.5,0.6c0.6,0,1.1-0.2,1.5-0.6c0.4-0.4,0.6-1,0.6-1.7v-4.5h1.4v4.5
		c0,1.2-0.3,2.1-1,2.7c-0.6,0.6-1.5,0.9-2.4,0.9c-1,0-1.8-0.3-2.5-0.9c-0.6-0.6-1-1.5-1-2.7v-4.5h1.4v4.5
		C230.1,61.1,230.2,61.7,230.6,62.1z M244.9,62.7c0.5,0,0.9-0.1,1.2-0.2c0.3-0.2,0.7-0.4,1.1-0.8l0.9,0.9c-0.9,0.9-1.9,1.4-3.1,1.4
		s-2.2-0.4-3-1.2c-0.8-0.8-1.2-1.8-1.2-3c0-1.2,0.4-2.2,1.2-3c0.8-0.8,1.8-1.2,3.1-1.2c1.2,0,2.3,0.5,3.1,1.4l-0.9,0.9
		c-0.4-0.4-0.7-0.6-1.1-0.8c-0.3-0.1-0.7-0.2-1.2-0.2c-0.8,0-1.5,0.3-2.1,0.8c-0.6,0.5-0.8,1.2-0.8,2s0.3,1.5,0.8,2
		C243.5,62.4,244.2,62.7,244.9,62.7L244.9,62.7z M256.4,58.5c0,1.3-0.6,2.2-1.7,2.5l2.1,2.9H255l-1.9-2.7h-1.8v2.7h-1.4v-8h3
		c1.2,0,2.1,0.2,2.6,0.6C256.1,56.9,256.4,57.6,256.4,58.5L256.4,58.5z M254.6,59.6c0.3-0.2,0.4-0.6,0.4-1.1s-0.1-0.9-0.4-1.1
		c-0.3-0.2-0.8-0.3-1.5-0.3h-1.7V60h1.7C253.8,60,254.3,59.9,254.6,59.6z M264.2,55.9v1.3h-4.3v2.1h3.9v1.2h-3.9v2.2h4.4v1.3h-5.8
		v-8H264.2L264.2,55.9z M262,55.2h-1.2l1.2-1.7l1.4,0.6L262,55.2z M267.4,62.1l-0.8,1.8h-1.5l3.5-8h1.4l3.5,8h-1.4l-0.8-1.8H267.4
		L267.4,62.1z M270.9,60.9l-1.5-3.3l-1.5,3.3H270.9z M277.5,57.1v6.8h-1.4v-6.8h-2.4v-1.2h6.2v1.2L277.5,57.1L277.5,57.1z
		 M281.6,55.9h1.4v8h-1.4V55.9z M286.8,57.2v2.2h3.6v1.3h-3.6v3.3h-1.4v-8h5.4l0,1.3C290.8,57.2,286.8,57.2,286.8,57.2z"/>
</g>
<text transform="matrix(1 0 0 1 10.1562 45.9417)" fill="#FFFFFF" font-family="'Didot-Bold'" font-size="48" letter-spacing="-4">hacedor</text>
</svg>
