<?xml version="1.0" encoding="utf-8"?>
<!-- Generator: Adobe Illustrator 16.0.0, SVG Export Plug-In . SVG Version: 6.00 Build 0)  -->
<!DOCTYPE svg PUBLIC "-//W3C//DTD SVG 1.1//EN" "http://www.w3.org/Graphics/SVG/1.1/DTD/svg11.dtd">
<svg version="1.1" id="Layer_1" xmlns="http://www.w3.org/2000/svg" xmlns:xlink="http://www.w3.org/1999/xlink" x="0px" y="0px"
	 width="334.91px" height="75.078px" viewBox="78.68 107.918 334.91 75.078" enable-background="new 78.68 107.918 334.91 75.078"
	 xml:space="preserve">
<rect x="-12.321" y="-14" display="none" fill="#2A2A2A" stroke="#000000" stroke-miterlimit="10" width="764" height="441"/>
<g>
	<path fill="#FA2A4A" stroke="#FA2A4A" stroke-width="2.1066" stroke-miterlimit="10" d="M110.227,170.517
		c-16.48,0-30.494-13.87-30.494-30.696c0-16.916,13.927-30.789,30.494-30.789c16.569,0,30.494,13.873,30.494,30.789
		C140.72,156.647,126.708,170.517,110.227,170.517z M110.227,112.705c-14.631,0-26.529,12.351-26.529,27.118
		c0,14.675,11.987,27.118,26.529,27.118c14.539,0,26.527-12.351,26.527-27.118C136.752,125.054,124.855,112.705,110.227,112.705z"/>
</g>
<g>
	<g>
		<path fill="#FFFFFF" stroke="#FFFFFF" stroke-width="2.1066" stroke-miterlimit="10" d="M115.982,170.457
			c-16.48,0-30.496-13.871-30.496-30.699c0-16.913,13.928-30.787,30.496-30.787c16.57,0,30.494,13.875,30.494,30.787
			C146.476,156.581,132.464,170.457,115.982,170.457z M115.982,112.645c-14.631,0-26.527,12.348-26.527,27.117
			c0,14.675,11.985,27.113,26.527,27.113s26.527-12.351,26.527-27.113C142.509,124.991,130.613,112.645,115.982,112.645z"/>
	</g>
</g>
<g>
	<path fill="#FA2A4A" stroke="#FA2A4A" stroke-width="1.0533" stroke-miterlimit="10" d="M136.752,139.758
		c0,14.767-11.987,27.117-26.527,27.117c-14.542,0-26.529-12.438-26.529-27.117c0-0.474-3.968-0.531-3.968,0
		c0,16.823,14.015,30.699,30.494,30.699c16.482,0,30.494-13.875,30.494-30.699C140.717,139.338,136.752,139.492,136.752,139.758z"/>
</g>
<g>
	<path fill="#FFFFFF" d="M190.454,157.932c-3.026,2.497-6.512,3.747-10.46,3.747h-13.156v20.197h-7.104v-47.435h20.26
		c3.949,0,7.413,1.23,10.394,3.686c3.114,2.719,4.673,6.029,4.673,9.936C195.061,152.009,193.523,155.3,190.454,157.932z
		 M185.454,143.323c-1.579-1.182-3.4-1.775-5.461-1.775h-13.156v13.026h13.156c2.06,0,3.881-0.594,5.461-1.779
		c1.622-1.222,2.434-2.804,2.434-4.733S187.075,144.555,185.454,143.323z"/>
	<path fill="#FFFFFF" d="M242.555,175.692c-4.958,4.868-10.813,7.304-17.565,7.304c-6.843,0-12.695-2.436-17.565-7.304
		c-4.867-4.871-7.301-10.722-7.301-17.567c0-6.751,2.432-12.607,7.301-17.563c4.871-4.867,10.723-7.303,17.565-7.303
		c6.753,0,12.607,2.436,17.565,7.303c4.865,4.955,7.301,10.813,7.301,17.563C249.856,164.97,247.424,170.821,242.555,175.692z
		 M237.555,145.563c-3.507-3.42-7.695-5.133-12.565-5.133c-4.913,0-9.101,1.711-12.565,5.133c-3.464,3.554-5.196,7.743-5.196,12.565
		s1.731,9.013,5.196,12.565c3.551,3.466,7.74,5.198,12.565,5.198c4.824,0,9.014-1.732,12.565-5.198
		c3.421-3.464,5.131-7.655,5.131-12.565C242.686,153.258,240.976,149.07,237.555,145.563z"/>
	<path fill="#FFFFFF" d="M256.962,181.876v-47.436h7.105v47.436H256.962z"/>
	<path fill="#FFFFFF" d="M272.62,181.876v-47.436h33.615v7.107h-26.512v13.026h20.723v7.103h-20.723v13.025h26.512v7.168H272.62
		V181.876z"/>
	<path fill="#FFFFFF" d="M345.772,179.643c-3.685,2.233-7.871,3.353-12.563,3.353c-4.735,0-8.905-1.143-12.5-3.424
		c-4.388-2.673-6.579-6.513-6.579-11.512h7.107c0,2.982,1.38,5.089,4.144,6.316c2.279,1.011,4.888,1.512,7.829,1.512
		c3.025,0,5.654-0.501,7.896-1.512c2.717-1.272,4.074-3.16,4.074-5.655c0-3.161-2.412-5.267-7.232-6.315h0.063
		c-1.23-0.221-2.434-0.447-3.617-0.691c-1.185-0.244-2.393-0.493-3.619-0.756h0.063c-2.365-0.44-4.715-0.922-7.039-1.451
		c-5.697-2.106-8.553-6.139-8.553-12.102c0-4.386,1.996-7.94,5.988-10.658c3.506-2.324,7.5-3.488,11.973-3.488
		c4.516,0,8.508,1.164,11.975,3.488c3.991,2.675,5.985,6.47,5.985,11.383h-7.104c0-2.808-1.229-4.827-3.687-6.053
		c-2.058-1.098-4.45-1.647-7.167-1.647c-2.68,0-5.066,0.526-7.171,1.579h0.067c-2.457,1.271-3.684,3.07-3.684,5.396
		c0,3.29,2.409,5.458,7.232,6.513c1.185,0.262,2.382,0.515,3.589,0.756c1.202,0.243,2.42,0.494,3.649,0.756
		c1.185,0.266,2.346,0.528,3.485,0.79c1.142,0.262,2.324,0.502,3.551,0.722c5.613,2.104,8.421,6.03,8.421,11.774
		C352.351,173.326,350.159,176.962,345.772,179.643z"/>
	<path fill="#FFFFFF" d="M360.312,181.876v-47.436h7.104v47.436H360.312z"/>
	<path fill="#FFFFFF" d="M407.021,179.643c-3.685,2.233-7.873,3.353-12.567,3.353c-4.733,0-8.905-1.143-12.5-3.424
		c-4.386-2.673-6.577-6.513-6.577-11.512h7.105c0,2.982,1.381,5.089,4.145,6.316c2.281,1.011,4.893,1.512,7.827,1.512
		c3.024,0,5.657-0.501,7.897-1.512c2.715-1.272,4.074-3.16,4.074-5.655c0-3.161-2.41-5.267-7.236-6.315h0.063
		c-1.228-0.221-2.435-0.447-3.617-0.691c-1.184-0.244-2.389-0.493-3.62-0.756h0.065c-2.365-0.44-4.715-0.922-7.037-1.451
		c-5.702-2.106-8.555-6.139-8.555-12.102c0-4.386,1.995-7.94,5.987-10.658c3.508-2.324,7.498-3.488,11.974-3.488
		c4.516,0,8.507,1.164,11.973,3.488c3.991,2.675,5.984,6.47,5.984,11.383h-7.103c0-2.808-1.229-4.827-3.687-6.053
		c-2.062-1.098-4.453-1.647-7.169-1.647c-2.678,0-5.064,0.526-7.17,1.579h0.063c-2.459,1.271-3.683,3.07-3.683,5.396
		c0,3.29,2.409,5.458,7.235,6.513c1.184,0.262,2.381,0.515,3.584,0.756c1.205,0.243,2.424,0.494,3.654,0.756
		c1.182,0.266,2.346,0.528,3.484,0.79c1.142,0.262,2.324,0.502,3.553,0.722c5.613,2.104,8.421,6.03,8.421,11.774
		C413.593,173.326,411.401,176.962,407.021,179.643z"/>
</g>
<rect x="252.477" y="125.598" fill="#FFFFFF" width="5.143" height="4.283"/>
<rect x="263.099" y="125.598" fill="#FFFFFF" width="5.141" height="4.283"/>
<rect x="360.319" y="125.598" fill="#FFFFFF" width="7.109" height="4.283"/>
</svg>
