<?xml version="1.0" encoding="utf-8"?>
<!-- Generator: Adobe Illustrator 16.0.0, SVG Export Plug-In . SVG Version: 6.00 Build 0)  -->
<!DOCTYPE svg PUBLIC "-//W3C//DTD SVG 1.1//EN" "http://www.w3.org/Graphics/SVG/1.1/DTD/svg11.dtd">
<svg version="1.1" id="Layer_1" xmlns="http://www.w3.org/2000/svg" xmlns:xlink="http://www.w3.org/1999/xlink" x="0px" y="0px"
	 width="334.908px" height="75.079px" viewBox="2.347 -0.527 334.908 75.079" enable-background="new 2.347 -0.527 334.908 75.079"
	 xml:space="preserve">
<rect x="-12.321" y="-14" display="none" fill="#2A2A2A" stroke="#000000" stroke-miterlimit="10" width="764" height="441"/>
<g>
	<path fill="#FA2A4A" stroke="#FA2A4A" stroke-width="2.1066" stroke-miterlimit="10" d="M33.894,62.073
		C17.414,62.073,3.4,48.202,3.4,31.376c0-16.915,13.927-30.788,30.494-30.788c16.569,0,30.494,13.873,30.494,30.788
		C64.387,48.202,50.375,62.073,33.894,62.073z M33.894,4.261c-14.631,0-26.529,12.352-26.529,27.118
		c0,14.675,11.987,27.118,26.529,27.118c14.539,0,26.527-12.352,26.527-27.118C60.419,16.61,48.522,4.261,33.894,4.261z"/>
</g>
<g>
	<g>
		<path fill="#5B4E60" stroke="#5B4E60" stroke-width="2.1066" stroke-miterlimit="10" d="M39.649,62.013
			c-16.48,0-30.496-13.871-30.496-30.699c0-16.913,13.928-30.787,30.496-30.787c16.57,0,30.494,13.875,30.494,30.787
			C70.143,48.137,56.131,62.013,39.649,62.013z M39.649,4.2c-14.631,0-26.527,12.349-26.527,27.117
			c0,14.676,11.985,27.113,26.527,27.113s26.527-12.352,26.527-27.113C66.176,16.547,54.28,4.2,39.649,4.2z"/>
	</g>
</g>
<g>
	<path fill="#FA2A4A" stroke="#FA2A4A" stroke-width="1.0533" stroke-miterlimit="10" d="M60.419,31.313
		c0,14.768-11.987,27.117-26.527,27.117c-14.542,0-26.529-12.438-26.529-27.117c0-0.474-3.968-0.531-3.968,0
		c0,16.823,14.015,30.699,30.494,30.699c16.482,0,30.494-13.875,30.494-30.699C64.384,30.894,60.419,31.048,60.419,31.313z"/>
</g>
<g>
	<path fill="#5B4E60" d="M114.121,49.487c-3.026,2.498-6.513,3.748-10.46,3.748H90.505v20.196h-7.104V25.997h20.26
		c3.949,0,7.412,1.229,10.395,3.686c3.113,2.719,4.672,6.029,4.672,9.936C118.728,43.564,117.19,46.855,114.121,49.487z
		 M109.121,34.879c-1.579-1.183-3.399-1.775-5.461-1.775H90.504V46.13h13.156c2.06,0,3.881-0.594,5.461-1.779
		c1.622-1.222,2.435-2.804,2.435-4.732C111.556,37.688,110.742,36.11,109.121,34.879z"/>
	<path fill="#5B4E60" d="M166.222,67.247c-4.957,4.869-10.813,7.305-17.564,7.305c-6.844,0-12.695-2.436-17.565-7.305
		c-4.866-4.871-7.301-10.722-7.301-17.566c0-6.751,2.433-12.607,7.301-17.563c4.871-4.867,10.724-7.304,17.565-7.304
		c6.753,0,12.607,2.437,17.564,7.304c4.865,4.955,7.301,10.813,7.301,17.563C173.522,56.525,171.091,62.376,166.222,67.247z
		 M161.222,37.118c-3.507-3.42-7.695-5.133-12.564-5.133c-4.913,0-9.102,1.711-12.565,5.133c-3.464,3.555-5.196,7.744-5.196,12.565
		c0,4.822,1.731,9.013,5.196,12.565c3.552,3.466,7.74,5.197,12.565,5.197c4.824,0,9.014-1.731,12.564-5.197
		c3.422-3.465,5.131-7.655,5.131-12.565C166.353,44.813,164.644,40.626,161.222,37.118z"/>
	<path fill="#5B4E60" d="M180.629,73.432V25.995h7.104v47.437H180.629z"/>
	<path fill="#5B4E60" d="M196.287,73.432V25.995h33.614v7.107H203.39v13.026h20.723v7.103H203.39v13.025h26.512v7.168h-33.614
		V73.432z"/>
	<path fill="#5B4E60" d="M269.438,71.198c-3.685,2.233-7.871,3.354-12.563,3.354c-4.734,0-8.904-1.143-12.5-3.424
		c-4.389-2.674-6.579-6.514-6.579-11.512h7.106c0,2.981,1.381,5.088,4.145,6.315c2.279,1.011,4.889,1.513,7.829,1.513
		c3.024,0,5.654-0.502,7.896-1.513c2.718-1.272,4.074-3.16,4.074-5.655c0-3.16-2.412-5.267-7.231-6.314h0.063
		c-1.23-0.221-2.435-0.447-3.617-0.691c-1.186-0.244-2.394-0.492-3.619-0.756h0.063c-2.365-0.439-4.715-0.922-7.039-1.451
		c-5.697-2.105-8.553-6.139-8.553-12.102c0-4.387,1.996-7.94,5.988-10.658c3.506-2.324,7.5-3.488,11.973-3.488
		c4.516,0,8.508,1.164,11.975,3.488c3.991,2.675,5.985,6.47,5.985,11.383h-7.104c0-2.808-1.229-4.826-3.687-6.053
		c-2.058-1.098-4.45-1.646-7.167-1.646c-2.68,0-5.066,0.525-7.171,1.578h0.067c-2.457,1.271-3.685,3.07-3.685,5.396
		c0,3.289,2.409,5.458,7.231,6.513c1.186,0.263,2.383,0.515,3.59,0.756c1.201,0.243,2.42,0.494,3.648,0.757
		c1.186,0.266,2.346,0.527,3.485,0.789c1.142,0.262,2.324,0.502,3.551,0.723c5.613,2.104,8.421,6.029,8.421,11.773
		C276.019,64.882,273.826,68.518,269.438,71.198z"/>
	<path fill="#5B4E60" d="M283.979,73.432V25.995h7.104v47.437H283.979z"/>
	<path fill="#5B4E60" d="M330.688,71.198c-3.686,2.233-7.873,3.354-12.567,3.354c-4.733,0-8.905-1.143-12.5-3.424
		c-4.386-2.674-6.577-6.514-6.577-11.512h7.105c0,2.981,1.381,5.088,4.145,6.315c2.281,1.011,4.893,1.513,7.827,1.513
		c3.024,0,5.657-0.502,7.897-1.513c2.715-1.272,4.073-3.16,4.073-5.655c0-3.16-2.409-5.267-7.235-6.314h0.063
		c-1.229-0.221-2.436-0.447-3.617-0.691c-1.184-0.244-2.389-0.492-3.619-0.756h0.064c-2.365-0.439-4.715-0.922-7.037-1.451
		c-5.702-2.105-8.555-6.139-8.555-12.102c0-4.387,1.994-7.94,5.986-10.658c3.508-2.324,7.498-3.488,11.975-3.488
		c4.516,0,8.507,1.164,11.973,3.488c3.991,2.675,5.984,6.47,5.984,11.383h-7.104c0-2.808-1.229-4.826-3.687-6.053
		c-2.062-1.098-4.453-1.646-7.169-1.646c-2.678,0-5.064,0.525-7.17,1.578h0.063c-2.459,1.271-3.683,3.07-3.683,5.396
		c0,3.289,2.409,5.458,7.235,6.513c1.184,0.263,2.381,0.515,3.584,0.756c1.205,0.243,2.424,0.494,3.653,0.757
		c1.183,0.266,2.347,0.527,3.483,0.789c1.143,0.262,2.324,0.502,3.554,0.723c5.612,2.104,8.421,6.029,8.421,11.773
		C337.26,64.882,335.067,68.518,330.688,71.198z"/>
</g>
<rect x="176.144" y="17.153" fill="#5B4E60" width="5.144" height="4.283"/>
<rect x="186.767" y="17.153" fill="#5B4E60" width="5.141" height="4.283"/>
<rect x="283.985" y="17.153" fill="#5B4E60" width="7.109" height="4.283"/>
</svg>
