<?xml version="1.0" encoding="utf-8"?>
<!-- Generator: Adobe Illustrator 18.0.0, SVG Export Plug-In . SVG Version: 6.00 Build 0)  -->
<!DOCTYPE svg PUBLIC "-//W3C//DTD SVG 1.1//EN" "http://www.w3.org/Graphics/SVG/1.1/DTD/svg11.dtd">
<svg version="1.1" id="Calque_1" xmlns="http://www.w3.org/2000/svg" xmlns:xlink="http://www.w3.org/1999/xlink" x="0px" y="0px"
	 viewBox="0 0 321.6 155.2" enable-background="new 0 0 321.6 155.2" xml:space="preserve">
<circle fill="#FFFFFF" cx="311.3" cy="36.5" r="10.4"/>
<g>
	<path fill="#FFFFFF" d="M2,51.3h16.1v6.5c3.1-3.3,5.8-5.5,8-6.6c2.3-1.2,5.3-1.8,8.8-1.8c7.9,0,14.1,3.4,18.7,10.3
		c5.1-6.9,11.9-10.3,20.6-10.3c15.7,0,23.6,9.5,23.6,28.6v43.2H81.7V82.4c0-6.7-0.8-11.4-2.4-14.2c-1.7-2.8-4.4-4.2-8.3-4.2
		c-4.4,0-7.7,1.7-9.7,5c-2,3.3-3,8.7-3,16.1v36.1H42V82.6c0-12.4-3.6-18.7-10.8-18.7c-4.5,0-7.9,1.7-9.9,5.1
		c-2.1,3.4-3.1,8.8-3.1,16.1v36.1H2V51.3z"/>
	<path fill="#FFFFFF" d="M170.6,90h-50.1c0.4,5.7,2.3,10.3,5.6,13.7c3.3,3.3,7.5,5,12.7,5c4,0,7.3-1,10-2.9
		c2.6-1.9,5.5-5.5,8.8-10.6l13.6,7.6c-2.1,3.6-4.3,6.7-6.7,9.2c-2.3,2.6-4.9,4.7-7.5,6.3c-2.7,1.6-5.6,2.9-8.7,3.6
		c-3.1,0.8-6.5,1.1-10.1,1.1c-10.4,0-18.8-3.3-25.1-10c-6.3-6.7-9.5-15.7-9.5-26.8c0-11,3.1-20,9.2-26.8
		c6.2-6.7,14.3-10.1,24.5-10.1c10.3,0,18.4,3.3,24.4,9.8c5.9,6.5,8.9,15.5,8.9,27L170.6,90z M154,76.8c-2.2-8.6-7.7-12.9-16.3-12.9
		c-2,0-3.8,0.3-5.5,0.9c-1.7,0.6-3.3,1.5-4.7,2.6c-1.4,1.1-2.6,2.5-3.6,4.1c-1,1.6-1.8,3.4-2.3,5.4H154z"/>
	<path fill="#FFFFFF" d="M193.1,0v73.9l22.7-22.6h21.7l-30.3,29.3l32.6,40.5h-20.9l-23.1-29.5l-2.6,2.6v26.9h-16.1V0H193.1z"/>
	<path fill="#FFFFFF" d="M295.6,98.2H255l-10.6,23h-15.4l46.9-100.7l45.2,100.7h-15.6L295.6,98.2z M289.7,84.7l-14-32.2L261,84.7
		H289.7z"/>
</g>
<ellipse fill="#FFFFFF" cx="275.1" cy="96.4" rx="20" ry="8.4"/>
<circle fill="#FFFFFF" cx="239.9" cy="36.1" r="10.4"/>
<g>
	<path fill="#FFFFFF" d="M12.6,139v2.8c-1.4-1.2-2.8-1.7-4.3-1.7c-1.6,0-3,0.6-4.1,1.8c-1.1,1.2-1.7,2.6-1.7,4.3
		c0,1.7,0.6,3.1,1.7,4.2s2.5,1.7,4.1,1.7c0.8,0,1.6-0.1,2.2-0.4c0.3-0.1,0.7-0.3,1-0.6c0.4-0.2,0.7-0.5,1.1-0.8v2.9
		c-1.4,0.8-2.8,1.2-4.3,1.2c-2.3,0-4.2-0.8-5.8-2.4c-1.6-1.6-2.4-3.5-2.4-5.8c0-2,0.7-3.8,2-5.4c1.6-1.9,3.8-2.9,6.4-2.9
		C9.8,137.8,11.2,138.2,12.6,139z"/>
	<path fill="#FFFFFF" d="M22.7,147.3l4.9,6.8h-2.9l-4.5-6.5h-0.4v6.5h-2.4v-15.9h2.8c2.1,0,3.6,0.4,4.6,1.2c1,0.9,1.5,2,1.5,3.5
		c0,1.1-0.3,2.1-1,2.9C24.6,146.5,23.7,147,22.7,147.3z M19.7,145.4h0.8c2.3,0,3.4-0.9,3.4-2.6c0-1.6-1.1-2.4-3.3-2.4h-0.9V145.4z"
		/>
	<path fill="#FFFFFF" d="M40.5,140.4h-6.4v3.8h6.2v2.3h-6.2v5.3h6.4v2.3h-8.8v-15.9h8.8V140.4z"/>
	<path fill="#FFFFFF" d="M54.7,150.2h-6.8l-1.8,3.9h-2.6l7.9-16.9L59,154h-2.6L54.7,150.2z M53.7,147.9l-2.4-5.4l-2.5,5.4H53.7z"/>
	<path fill="#FFFFFF" d="M66.2,140.4V154h-2.4v-13.7h-3.7v-2.3h9.7v2.3H66.2z"/>
	<path fill="#FFFFFF" d="M76,138.1V154h-2.4v-15.9H76z"/>
	<path fill="#FFFFFF" d="M82.4,138.1l4.4,11l4.5-11h2.6l-7.1,17.1l-7-17.1H82.4z"/>
	<path fill="#FFFFFF" d="M106.3,140.4h-6.4v3.8h6.2v2.3h-6.2v5.3h6.4v2.3h-8.8v-15.9h8.8V140.4z"/>
	<path fill="#FFFFFF" d="M119.4,154v-15.9h2.4c1.1,0,1.9,0.1,2.5,0.2c0.6,0.2,1.2,0.4,1.6,0.8c0.4,0.4,0.8,0.9,1.1,1.5
		c0.3,0.6,0.4,1.2,0.4,1.9c0,1.1-0.4,2.1-1.3,2.9c0.8,0.3,1.5,0.8,2,1.5c0.5,0.7,0.7,1.5,0.7,2.5c0,1.2-0.4,2.3-1.3,3.2
		c-0.5,0.5-1.1,0.9-1.8,1.1c-0.7,0.2-1.6,0.3-2.7,0.3H119.4z M121.8,145h0.8c0.9,0,1.5-0.2,2-0.6c0.4-0.4,0.6-1,0.6-1.7
		c0-0.7-0.2-1.3-0.6-1.7c-0.4-0.4-1-0.6-1.9-0.6h-0.8V145z M121.8,151.8h1.5c1.1,0,1.9-0.2,2.4-0.6c0.5-0.5,0.8-1,0.8-1.8
		c0-0.7-0.3-1.3-0.8-1.7c-0.5-0.5-1.4-0.7-2.7-0.7h-1.2V151.8z"/>
	<path fill="#FFFFFF" d="M132.6,146c0-2.2,0.8-4.2,2.5-5.8c1.6-1.6,3.6-2.4,5.9-2.4c2.3,0,4.2,0.8,5.8,2.4c1.6,1.6,2.4,3.6,2.4,5.8
		c0,2.3-0.8,4.2-2.5,5.8c-1.6,1.6-3.6,2.4-5.9,2.4c-2.1,0-3.9-0.7-5.5-2.1C133.5,150.6,132.6,148.6,132.6,146z M135,146
		c0,1.8,0.6,3.2,1.8,4.3c1.2,1.1,2.5,1.7,4.1,1.7c1.7,0,3.1-0.6,4.2-1.7c1.1-1.2,1.7-2.6,1.7-4.3c0-1.7-0.6-3.1-1.7-4.3
		c-1.1-1.2-2.5-1.7-4.2-1.7c-1.7,0-3.1,0.6-4.2,1.7C135.6,143,135,144.4,135,146z"/>
	<path fill="#FFFFFF" d="M157.8,140.4V154h-2.4v-13.7h-3.7v-2.3h9.7v2.3H157.8z"/>
</g>
</svg>
