<?xml version="1.0" encoding="utf-8"?>
<!-- Generator: Adobe Illustrator 18.0.0, SVG Export Plug-In . SVG Version: 6.00 Build 0)  -->
<!DOCTYPE svg PUBLIC "-//W3C//DTD SVG 1.1//EN" "http://www.w3.org/Graphics/SVG/1.1/DTD/svg11.dtd">
<svg version="1.1" id="Calque_1" xmlns="http://www.w3.org/2000/svg" xmlns:xlink="http://www.w3.org/1999/xlink" x="0px" y="0px"
	 viewBox="0 0 1000 1000" enable-background="new 0 0 1000 1000" xml:space="preserve">
<path fill="none" stroke="#FFFFFF" stroke-width="19" stroke-miterlimit="10" d="M832.2,736.2L832.2,736.2
	c-20.1,12.4-46.7,6-59.1-14.2l0,0c-12.4-20.1-6-46.7,14.2-59.1l0,0c20.1-12.4,46.7-6,59.1,14.2l0,0
	C858.7,697.2,852.3,723.8,832.2,736.2z"/>
<circle fill="none" stroke="#FFFFFF" stroke-width="19" stroke-miterlimit="10" cx="779.8" cy="564.2" r="48"/>
<polygon fill="none" stroke="#FFFFFF" stroke-width="19" stroke-miterlimit="10" points="892.9,594.2 892.7,487.3 977.6,552.1 "/>
<path fill="none" stroke="#FFFFFF" stroke-width="19" stroke-miterlimit="10" d="M982.4,651.5c10.6,16.7-7.1,71.8-23.8,82.6
	c-16.7,10.6-39.6-3.7-50.2-20.5c-10.6-16.7-0.6-41.2,18-53.1C943,649.7,971.6,634.8,982.4,651.5z"/>
<g>
	<path fill="#FFFFFF" stroke="#FFFFFF" stroke-width="7" stroke-miterlimit="10" d="M225.2,850.2v87.3h-13.4v-83.9
		c0-28.2-13.4-47-37.4-47c-28.2,0-46.5,27.4-49,57.6v73.3H112v-83.9c0-28.2-13.7-47-37.7-47c-27.9,0-46.5,27.4-49,57.6v73.3H12
		V796.6h12.6l0.8,31.2c10.8-18,28.3-34,52.7-34c24,0,39.8,14.8,45.1,37.4c10.6-19.5,28.7-37.4,54.9-37.4
		C208.2,793.7,225.2,816.9,225.2,850.2z"/>
	<path fill="#FFFFFF" stroke="#FFFFFF" stroke-width="7" stroke-miterlimit="10" d="M396.3,871.1H268.7
		c1.1,34.3,25.6,56.8,59.3,56.8c28.2,0,44.9-16.1,51.2-31.2l11.9,1.9c-6.4,19.5-28.3,41.5-63.4,41.5c-41.2,0-72.5-30.1-72.5-74.1
		c0-39.6,29.3-72.5,70.5-72.5c43.2,0,70.5,35.1,70.5,74.4L396.3,871.1L396.3,871.1z M268.7,860.8h113.8c-1.6-29-23.2-54.9-56.8-54.9
		C293.5,805.9,269.8,830.4,268.7,860.8z"/>
	<path fill="#FFFFFF" stroke="#FFFFFF" stroke-width="7" stroke-miterlimit="10" d="M482.9,857.8l65.5,79.7h-17.1l-58.3-70.7
		L447.3,891v46.5h-13.4v-209h13.4v144.6l82.1-76.7h19L482.9,857.8z"/>
	<path fill="#FFFFFF" stroke="#FFFFFF" stroke-width="7" stroke-miterlimit="10" d="M635.9,793.7c28.7,0,53,17.1,63,40.7l0.5-37.8
		h13v140.9h-13l-0.5-38.2c-10,24-34.3,40.9-63,40.9c-40.4,0-72.8-32.9-72.8-73.6C563.1,826.5,595.4,793.7,635.9,793.7z M637.5,927.3
		c33.5,0,60.4-27.4,60.4-60.7c0-32.9-27.1-60.2-60.4-60.2c-33.7,0-61,27.4-61,60.2C576.4,900.1,603.8,927.3,637.5,927.3z"/>
</g>
<path fill="#FFFFFF" stroke="#FFFFFF" stroke-width="5" stroke-miterlimit="10" d="M384.2,750.7c0,0-114.3,0-114.5,0
	c0.2,3.4,0.3,6.9,0.3,10.3c0.2,0,0.5,0,0.6,0h113.8C384.3,757.6,384.3,754.2,384.2,750.7z"/>
<path fill="#FFFFFF" stroke="#FFFFFF" stroke-width="5" stroke-miterlimit="10" d="M703.2,750.7c0,0-114.3,0-114.5,0
	c0.2,3.4,0.3,6.9,0.3,10.3c0.2,0,0.5,0,0.6,0h113.8C703.5,757.6,703.3,754.2,703.2,750.7z"/>
<text transform="matrix(1 0 0 1 866 904)" fill="#FFFFFF" font-family="'MyriadPro-Regular'" font-size="120">hr</text>
</svg>
