<svg xmlns="http://www.w3.org/2000/svg" viewBox="41.9 73.6 180.9 180.9" enable-background="new 41.9 73.6 180.9 180.9"><path fill="#FF7473" d="M148.3 145.8c4.9 42.3-24.2 81.3-23.9 85.2-.7 5.6 9.2-25.5-19.1-60.4-27.3-34.7-63.3-51.5-39.2-63.8 10.7-5.6 31.4-7.9 48.4-1.8 17.4 5.8 31 20.1 33.8 40.8z"/><path fill="#ED9E6E" d="M82.7 218.6c.1 0 .1.1 0 0v-.4.4M202.8 196.2c0-.2 0-.4-.1-.5 0 .2 0 .3.1.5"/><linearGradient id="a" gradientUnits="userSpaceOnUse" x1="77.755" y1="193.196" x2="106.816" y2="193.196" gradientTransform="matrix(.983 -.184 .184 .983 -27.944 27.191)"><stop offset="0" stop-color="#FF7BAC"/><stop offset="1" stop-color="#FF7BAC" stop-opacity="0"/></linearGradient><path opacity=".56" fill="url(#a)" d="M112.6 197.4c1.5 7.9-3.7 15.5-11.6 17-7.9 1.5-15.5-3.7-17-11.6-1.5-7.9 3.7-15.5 11.6-17 8-1.5 15.6 3.7 17 11.6"/><linearGradient id="b" gradientUnits="userSpaceOnUse" x1="166.446" y1="193.196" x2="195.51" y2="193.196" gradientTransform="matrix(.983 -.184 .184 .983 -27.944 27.191)"><stop offset="0" stop-color="#FF7BAC"/><stop offset="1" stop-color="#FF7BAC" stop-opacity="0"/></linearGradient><path opacity=".56" fill="url(#b)" d="M199.8 181.1c1.5 7.9-3.7 15.5-11.6 17-7.9 1.5-15.5-3.7-17-11.6-1.5-7.9 3.7-15.5 11.6-17 7.9-1.5 15.5 3.7 17 11.6"/><linearGradient id="c" gradientUnits="userSpaceOnUse" x1="-26.21" y1="96.57" x2="5.521" y2="96.57" gradientTransform="matrix(-.983 .184 .184 .983 124.415 -1.369)"><stop offset="0" stop-color="#C2982E"/><stop offset="0" stop-color="#A2792C"/><stop offset=".461" stop-color="#CDA430"/><stop offset=".562" stop-color="#CDA430"/><stop offset=".82" stop-color="#F8D975"/><stop offset="1" stop-color="#C2982E"/><stop offset="1" stop-color="#A2792C"/></linearGradient><path opacity=".54" fill="url(#c)" d="M154.6 82.5c-13.2-5.4-26.9 1.5-14.2 12 5.1 4.2 12 6.5 18.1 7.3 12.3 1.4 11.3-3.5 11.3-3.5s-2-10.4-15.2-15.8"/><path fill="#2A262A" d="M107.7 164.4c-1.2-6.5-7.4-10.7-13.9-9.5-6.4 1.2-10.7 7.4-9.5 13.9 1.2 6.5 7.4 10.7 13.9 9.5 6.4-1.2 10.7-7.4 9.5-13.9M169.4 140.7c-6.4 1.2-10.7 7.4-9.5 13.9 1.2 6.5 7.4 10.7 13.9 9.5 6.5-1.2 10.7-7.4 9.5-13.9-1.2-6.4-7.4-10.7-13.9-9.5"/><path fill="#171C21" d="M150.9 206.7c-14.4 6.2-23.2 1-24.8-2.8-.5-1.1 0-2.3 1.1-2.7l36-15.5c1.1-.5 2.3 0 2.7 1.1 1.6 3.7-.7 13.7-15 19.9z"/><linearGradient id="d" gradientUnits="userSpaceOnUse" x1="41.877" y1="164.099" x2="222.822" y2="164.099" gradientTransform="matrix(.983 -.184 .184 .983 -27.944 27.191)"><stop offset="0" stop-color="#C2982E"/><stop offset="0" stop-color="#A2792C"/><stop offset=".461" stop-color="#CDA430"/><stop offset=".562" stop-color="#CDA430"/><stop offset=".82" stop-color="#F8D975"/><stop offset="1" stop-color="#C2982E"/><stop offset="1" stop-color="#A2792C"/></linearGradient><circle stroke="url(#d)" stroke-miterlimit="10" cx="132.4" cy="164.1" r="89.9" fill="none"/></svg>