<?xml version="1.0" encoding="utf-8"?>
<!-- Generator: Adobe Illustrator 18.0.0, SVG Export Plug-In . SVG Version: 6.00 Build 0)  -->
<!DOCTYPE svg PUBLIC "-//W3C//DTD SVG 1.1//EN" "http://www.w3.org/Graphics/SVG/1.1/DTD/svg11.dtd">
<svg version="1.1" id="Calque_1" xmlns="http://www.w3.org/2000/svg" xmlns:xlink="http://www.w3.org/1999/xlink" x="0px" y="0px"
	 viewBox="338.8 0 72.5 500" enable-background="new 338.8 0 72.5 500" xml:space="preserve">
<path fill="#FF616E" d="M379.7,481.8c-1.5,0-2.7,1.2-2.9,2.7c0,1.5,1.2,2.7,2.7,2.9c1.5,0,2.7-1.2,2.9-2.7
	C382.4,483.2,381.2,481.8,379.7,481.8z M379.7,472.4c-1.5,0-2.7,1.2-2.9,2.7c0,1.5,1.2,2.7,2.7,2.9c1.5,0,2.7-1.2,2.9-2.7
	C382.5,473.6,381.3,472.4,379.7,472.4z M369.9,467.6c-1.5,0-2.7,1.2-2.9,2.7c0,1.5,1.2,2.7,2.7,2.9c1.5,0,2.7-1.2,2.9-2.7
	C372.6,468.8,371.4,467.6,369.9,467.6z M389.6,477.2c-1.5,0-2.7,1.2-2.9,2.7c0,1.5,1.2,2.7,2.7,2.9c1.5,0,2.7-1.2,2.9-2.7
	C392.3,478.5,391.1,477.2,389.6,477.2z M389.6,486.8c-1.5,0-2.7,1.2-2.9,2.7c0,1.5,1.2,2.7,2.7,2.9c1.5,0,2.7-1.2,2.9-2.7
	C392.3,488,391.1,486.8,389.6,486.8z M379.8,462.9c-1.5,0-2.7,1.2-2.9,2.7c0,1.5,1.2,2.7,2.7,2.9c1.5,0,2.7-1.2,2.9-2.7
	C382.5,464.1,381.3,462.9,379.8,462.9z M360,472.2c-1.5,0-2.7,1.2-2.9,2.7c0,1.5,1.2,2.7,2.7,2.9c1.5,0,2.7-1.2,2.9-2.7
	C362.7,473.4,361.5,472.2,360,472.2z M359.8,481.7c-1.5,0-2.7,1.2-2.9,2.7c0,1.5,1.2,2.7,2.7,2.9c1.5,0,2.7-1.2,2.9-2.7
	C362.7,483,361.5,481.8,359.8,481.7z M369.7,477c-1.5,0-2.7,1.2-2.9,2.7c0,1.5,1.2,2.7,2.7,2.9c1.5,0,2.7-1.2,2.9-2.7
	C372.6,478.4,371.4,477,369.7,477z M341.2,461.1h5.1v19.7c0,10.5,8.4,19.1,18.8,19.1L384,500c10.5,0,19.1-8.4,19.1-18.8l0.2-19.7
	h5.3c1.4,0,2.6-1.1,2.6-2.4l0.3-34.7c0.2-13.2-10.5-24-23.7-24H378v-8.9c0-1.4-1.1-2.6-2.4-2.6c-1.4,0-2.6,1.1-2.6,2.4v8.9h-9.6
	c-13.2-0.2-24,10.5-24,23.7l-0.6,34.5C338.8,459.9,339.9,461.1,341.2,461.1z M398.1,481.1c0,7.7-6.5,14-14.1,14l-18.9-0.2
	c-7.7,0-14-6.5-14-14.1l0.2-19.7l15.8,0.2c0.2,1.4,1.4,2.3,2.7,2.3c1.4,0,2.6-0.9,2.7-2.3l14.3,0.2c0.2,1.4,1.4,2.3,2.7,2.3
	c1.4,0,2.6-0.9,2.7-2.3h5.9L398.1,481.1z M398.4,444.3h-7.1c0.8-0.5,1.2-1.4,1.2-2.3c0-1.5-1.2-2.7-2.7-2.9c-1.5,0-2.7,1.2-2.9,2.7
	c0,0.9,0.5,1.8,1.2,2.3h-7.1c-0.3-0.2-0.8-0.3-1.2-0.3c-0.5,0-0.9,0.2-1.2,0.3h-7.1c0.8-0.5,1.2-1.4,1.2-2.3c0-1.5-1.2-2.7-2.7-2.9
	c-1.5,0-2.7,1.2-2.9,2.7c0,0.9,0.5,1.8,1.2,2.3h-7.1c-0.3-0.2-0.8-0.3-1.2-0.3c-0.5,0-0.9,0.2-1.2,0.3h-7.4l0.2-17.4
	c0-7.7,6.5-14,14.1-14l18.9,0.2c7.7,0,14,6.5,14,14.1L398.4,444.3z M344.1,423.9c0-10.5,8.7-18.9,19.1-18.8l24.3,0.2
	c10.5,0,18.9,8.7,18.8,19.1l-0.2,20h-2.7l0.2-17.4c0-10.5-8.4-19.1-18.8-19.1l-18.9-0.2c-10.5,0-19.1,8.4-19.1,18.8l-0.2,17.4h-2.7
	L344.1,423.9z M360,462.8c-1.5,0-2.7,1.2-2.9,2.7c0,1.5,1.2,2.7,2.7,2.9c1.5,0,2.7-1.2,2.9-2.7C362.8,464,361.5,462.8,360,462.8z
	 M369.7,486.6c-1.5,0-2.7,1.2-2.9,2.7c0,1.5,1.2,2.7,2.7,2.9c1.5,0,2.7-1.2,2.9-2.7C372.4,487.8,371.2,486.6,369.7,486.6z
	 M380.1,424.8c-1.5,0-2.7,1.2-2.9,2.7c0,1.5,1.2,2.7,2.7,2.9c1.5,0,2.7-1.2,2.9-2.7C382.8,426.2,381.6,424.8,380.1,424.8z
	 M380.1,415.4c-1.5,0-2.7,1.2-2.9,2.7c0,1.5,1.2,2.7,2.7,2.9c1.5,0,2.7-1.2,2.9-2.7C383,416.6,381.6,415.4,380.1,415.4z M390,420.2
	c-1.5,0-2.7,1.2-2.9,2.7c0,1.5,1.2,2.7,2.7,2.9c1.5,0,2.7-1.2,2.9-2.7C392.7,421.4,391.5,420.2,390,420.2z M380,434.4
	c-1.5,0-2.7,1.2-2.9,2.7c0,1.5,1.2,2.7,2.7,2.9c1.5,0,2.7-1.2,2.9-2.7C382.8,435.6,381.5,434.4,380,434.4z M389.9,429.6
	c-1.5,0-2.7,1.2-2.9,2.7c0,1.5,1.2,2.7,2.7,2.9c1.5,0,2.7-1.2,2.9-2.7C392.7,431,391.4,429.6,389.9,429.6z M360.3,415.2
	c-1.5,0-2.7,1.2-2.9,2.7c0,1.5,1.2,2.7,2.7,2.9c1.5,0,2.7-1.2,2.9-2.7S361.9,415.2,360.3,415.2z M360.3,424.7
	c-1.5,0-2.7,1.2-2.9,2.7c0,1.5,1.2,2.7,2.7,2.9c1.5,0,2.7-1.2,2.9-2.7C363,426,361.8,424.7,360.3,424.7z M360.3,434.3
	c-1.5,0-2.7,1.2-2.9,2.7c0,1.5,1.2,2.7,2.7,2.9c1.5,0,2.7-1.2,2.9-2.7C363,435.5,361.8,434.3,360.3,434.3z M389.6,467.7
	c-1.5,0-2.7,1.2-2.9,2.7c0,1.5,1.2,2.7,2.7,2.9c1.5,0,2.7-1.2,2.9-2.7C392.4,468.9,391.2,467.7,389.6,467.7z M370.2,420
	c-1.5,0-2.7,1.2-2.9,2.7c0,1.5,1.2,2.7,2.7,2.9c1.5,0,2.7-1.2,2.9-2.7C372.9,421.2,371.7,420,370.2,420z M370.2,429.5
	c-1.5,0-2.7,1.2-2.9,2.7c0,1.5,1.2,2.7,2.7,2.9c1.5,0,2.7-1.2,2.9-2.7C372.9,430.8,371.7,429.5,370.2,429.5z"/>
<line fill="none" stroke="#FF616E" stroke-width="4" stroke-miterlimit="10" x1="375.5" y1="400.2" x2="375.9" y2="0"/>
</svg>
