<?xml version="1.0" encoding="utf-8"?>
<!-- Generator: Adobe Illustrator 18.0.0, SVG Export Plug-In . SVG Version: 6.00 Build 0)  -->
<!DOCTYPE svg PUBLIC "-//W3C//DTD SVG 1.1//EN" "http://www.w3.org/Graphics/SVG/1.1/DTD/svg11.dtd">
<svg version="1.1" id="Calque_1" xmlns="http://www.w3.org/2000/svg" xmlns:xlink="http://www.w3.org/1999/xlink" x="0px" y="0px"
	 viewBox="0 0 118.5 182" enable-background="new 0 0 118.5 182" xml:space="preserve">
<path fill="#231F20" d="M66.9,152.4c-2.5,0-4.5,2-4.6,4.5c0,2.5,2,4.5,4.5,4.6c2.5,0,4.5-2,4.6-4.5
	C71.4,154.4,69.4,152.4,66.9,152.4z M67,136.8c-2.5,0-4.5,2-4.6,4.5c0,2.5,2,4.5,4.5,4.6c2.5,0,4.5-2,4.6-4.5
	C71.5,138.8,69.5,136.8,67,136.8z M50.8,128.9c-2.5,0-4.5,2-4.6,4.5c0,2.5,2,4.5,4.5,4.6c2.5,0,4.5-2,4.6-4.5
	C55.4,130.9,53.3,128.9,50.8,128.9z M83.1,144.7c-2.5,0-4.5,2-4.6,4.5c0,2.5,2,4.5,4.5,4.6c2.5,0,4.5-2,4.6-4.5
	C87.6,146.8,85.6,144.7,83.1,144.7z M83,160.3c-2.5,0-4.5,2-4.6,4.5s2,4.5,4.5,4.6c2.5,0,4.5-2,4.6-4.5
	C87.5,162.3,85.5,160.3,83,160.3z M67.1,121.2c-2.5,0-4.5,2-4.6,4.5c0,2.5,2,4.5,4.5,4.6c2.5,0,4.5-2,4.6-4.5
	C71.6,123.3,69.6,121.2,67.1,121.2z M34.6,136.6c-2.5,0-4.5,2-4.6,4.5c0,2.5,2,4.5,4.5,4.6c2.5,0,4.5-2,4.6-4.5
	C39.1,138.6,37.1,136.6,34.6,136.6z M34.5,152.1c-2.5,0-4.5,2-4.6,4.5c0,2.5,2,4.5,4.5,4.6c2.5,0,4.5-2,4.6-4.5
	C39,154.2,37,152.2,34.5,152.1z M50.7,144.5c-2.5,0-4.5,2-4.6,4.5c0,2.5,2,4.5,4.5,4.6c2.5,0,4.5-2,4.6-4.5
	C55.2,146.5,53.2,144.5,50.7,144.5z M4,118.3l8.5,0.1l-0.2,32.2c-0.1,17.1,13.7,31.1,30.8,31.3L74,182c17.1,0.1,31.1-13.7,31.3-30.8
	l0.2-32.2l8.5,0.1c2.2,0,4.1-1.8,4.1-4l0.4-56.9c0.2-21.6-17.3-39.3-38.9-39.4l-15.8-0.1l0.1-14.6c0-2.2-1.8-4.1-4-4.1
	c-2.2,0-4.1,1.8-4.1,4l-0.1,14.6l-15.8-0.1C18.2,18.3,0.6,35.8,0.4,57.4L0,114.2C0,116.5,1.8,118.3,4,118.3z M97.2,151.1
	c-0.1,12.7-10.5,22.9-23.1,22.8l-30.9-0.2c-12.7-0.1-22.9-10.5-22.8-23.1l0.2-32.2l25.9,0.2c0.4,2.1,2.2,3.8,4.4,3.8
	c2.2,0,4.1-1.6,4.5-3.7l23.5,0.2c0.4,2.1,2.2,3.8,4.4,3.8c2.2,0,4.1-1.6,4.5-3.7l9.7,0.1L97.2,151.1z M97.6,90.7L86,90.7
	c1.2-0.8,2-2.2,2-3.7c0-2.5-2-4.5-4.5-4.6c-2.5,0-4.5,2-4.6,4.5c0,1.6,0.8,2.9,1.9,3.7l-11.6-0.1c-0.6-0.3-1.3-0.5-2-0.5
	c-0.7,0-1.4,0.2-2,0.5l-11.6-0.1c1.2-0.8,2-2.2,2-3.7c0-2.5-2-4.5-4.5-4.6c-2.5,0-4.5,2-4.6,4.5c0,1.6,0.8,2.9,1.9,3.7l-11.6-0.1
	c-0.6-0.3-1.3-0.5-2-0.5c-0.7,0-1.4,0.2-2,0.5l-12.1-0.1L21,61.7C21.1,49,31.5,38.8,44.1,38.9L75,39.1c12.7,0.1,22.9,10.5,22.8,23.1
	L97.6,90.7z M8.5,57.4c0.1-17.1,14.1-31,31.3-30.8l39.8,0.3c17.1,0.1,31,14.1,30.8,31.3l-0.2,32.7l-4.4,0l0.2-28.5
	C106,45.2,92.2,31.1,75.1,31l-30.9-0.2C27,30.7,13,44.5,12.9,61.6l-0.2,28.5l-4.4,0L8.5,57.4z M34.7,121c-2.5,0-4.5,2-4.6,4.5
	c0,2.5,2,4.5,4.5,4.6c2.5,0,4.5-2,4.6-4.5C39.2,123,37.2,121,34.7,121z M50.6,160c-2.5,0-4.5,2-4.6,4.5s2,4.5,4.5,4.6
	c2.5,0,4.5-2,4.6-4.5C55.1,162.1,53.1,160.1,50.6,160z M67.5,58.9c-2.5,0-4.5,2-4.6,4.5c0,2.5,2,4.5,4.5,4.6c2.5,0,4.5-2,4.6-4.5
	C72,61,70,58.9,67.5,58.9z M67.6,43.3c-2.5,0-4.5,2-4.6,4.5c0,2.5,2,4.5,4.5,4.6c2.5,0,4.5-2,4.6-4.5C72.1,45.4,70.1,43.3,67.6,43.3
	z M83.7,51.2c-2.5,0-4.5,2-4.6,4.5c0,2.5,2,4.5,4.5,4.6c2.5,0,4.5-2,4.6-4.5C88.3,53.3,86.3,51.2,83.7,51.2z M67.4,74.5
	c-2.5,0-4.5,2-4.6,4.5c0,2.5,2,4.5,4.5,4.6c2.5,0,4.5-2,4.6-4.5C71.9,76.5,69.9,74.5,67.4,74.5z M83.6,66.8c-2.5,0-4.5,2-4.6,4.5
	c0,2.5,2,4.5,4.5,4.6c2.5,0,4.5-2,4.6-4.5C88.2,68.9,86.1,66.8,83.6,66.8z M35.3,43.1c-2.5,0-4.5,2-4.6,4.5c0,2.5,2,4.5,4.5,4.6
	c2.5,0,4.5-2,4.6-4.5C39.8,45.2,37.8,43.1,35.3,43.1z M35.1,58.7c-2.5,0-4.5,2-4.6,4.5c0,2.5,2,4.5,4.5,4.6c2.5,0,4.5-2,4.6-4.5
	C39.7,60.7,37.7,58.7,35.1,58.7z M35,74.3c-2.5,0-4.5,2-4.6,4.5c0,2.5,2,4.5,4.5,4.6c2.5,0,4.5-2,4.6-4.5
	C39.6,76.3,37.5,74.3,35,74.3z M83.2,129.1c-2.5,0-4.5,2-4.6,4.5c0,2.5,2,4.5,4.5,4.6c2.5,0,4.5-2,4.6-4.5
	C87.7,131.2,85.7,129.1,83.2,129.1z M51.4,51c-2.5,0-4.5,2-4.6,4.5c0,2.5,2,4.5,4.5,4.6c2.5,0,4.5-2,4.6-4.5
	C55.9,53.1,53.9,51,51.4,51z M51.3,66.6c-2.5,0-4.5,2-4.6,4.5c0,2.5,2,4.5,4.5,4.6c2.5,0,4.5-2,4.6-4.5
	C55.8,68.6,53.8,66.6,51.3,66.6z"/>
</svg>
