<?xml version="1.0" encoding="utf-8"?>
<!-- Generator: Adobe Illustrator 22.0.0, SVG Export Plug-In . SVG Version: 6.00 Build 0)  -->
<svg version="1.1" id="Calque_1" xmlns="http://www.w3.org/2000/svg" xmlns:xlink="http://www.w3.org/1999/xlink" x="0px" y="0px"
	 viewBox="0 0 72.5 500" style="enable-background:new 0 0 72.5 500;" xml:space="preserve">
<style type="text/css">
	.st0{fill:none;stroke:#FF616E;stroke-width:4;stroke-miterlimit:10;}
	.st1{fill:#FFFFFF;stroke:#FF616E;stroke-width:4;stroke-miterlimit:10;}
</style>
<line class="st0" x1="33.7" y1="400.2" x2="34.1" y2="0"/>
<path class="st1" d="M30,405l0-5.8l8.2,0l0,5.9c0,8.1,3.9,12.4,8.3,18.8l-24.7,0C26.2,417.5,30,413.2,30,405z M17.7,444.6
	c2.3,0,4.1,1.8,4.1,4.1c0,2.3-1.8,4.1-4.1,4.1l-8.2,0l0,8.2l8.2,0c2.3,0,4.1,1.8,4.1,4.1s-1.8,4.1-4.1,4.1l-8.2,0l0,8.2l8.2,0
	c2.3,0,4.1,1.8,4.1,4.1s-1.8,4.1-4.1,4.1l-7.7,0c1.9,7.1,8.3,12.3,15.9,12.3l16.5,0c7.7,0,14.1-5.3,15.9-12.4l-7.7,0
	c-2.3,0-4.1-1.8-4.1-4.1c0-2.3,1.8-4.1,4.1-4.1l8.2,0l0-8.2l-8.2,0c-2.3,0-4.1-1.8-4.1-4.1c0-2.3,1.8-4.1,4.1-4.1l8.2,0l0-8.2
	l-8.2,0c-2.3,0-4.1-1.8-4.1-4.1c0-2.3,1.8-4.1,4.1-4.1l7.7,0c-1.9-7.1-8.3-12.3-15.9-12.3l-16.5,0c-7.7,0-14.1,5.3-15.9,12.4
	C10.1,444.6,17.7,444.6,17.7,444.6z"/>
</svg>
