<?xml version="1.0" encoding="utf-8"?>
<!-- Generator: Adobe Illustrator 18.0.0, SVG Export Plug-In . SVG Version: 6.00 Build 0)  -->
<!DOCTYPE svg PUBLIC "-//W3C//DTD SVG 1.1//EN" "http://www.w3.org/Graphics/SVG/1.1/DTD/svg11.dtd">
<svg version="1.1" id="Calque_1" xmlns="http://www.w3.org/2000/svg" xmlns:xlink="http://www.w3.org/1999/xlink" x="0px" y="0px"
	 viewBox="0 0 162.8 162.8" enable-background="new 0 0 162.8 162.8" xml:space="preserve">
<path fill="#FF7473" d="M160.6,150.2L118.4,108c8.9-11.1,14.8-25.9,14.8-41.4c0-37-29.6-66.6-66.6-66.6S0,29.6,0,66.6
	s29.6,66.6,66.6,66.6c15.5,0,30.3-5.2,41.4-14.8l42.2,42.2c1.5,1.5,3.7,2.2,5.2,2.2s3.7-0.7,5.2-2.2
	C163.5,157.6,163.5,153.2,160.6,150.2z M66.6,118.4c-28.9,0-51.8-22.9-51.8-51.8s22.9-51.8,51.8-51.8s51.8,22.9,51.8,51.8
	S95.5,118.4,66.6,118.4z"/>
</svg>
