<?xml version="1.0" encoding="utf-8"?>
<!-- Generator: Adobe Illustrator 16.0.0, SVG Export Plug-In . SVG Version: 6.00 Build 0)  -->
<!DOCTYPE svg PUBLIC "-//W3C//DTD SVG 1.1//EN" "http://www.w3.org/Graphics/SVG/1.1/DTD/svg11.dtd">
<svg version="1.1" id="Layer_1" xmlns="http://www.w3.org/2000/svg" xmlns:xlink="http://www.w3.org/1999/xlink" x="0px" y="0px"
	 width="467.424px" height="656.651px" viewBox="0 0 467.424 656.651" enable-background="new 0 0 467.424 656.651"
	 xml:space="preserve">
<g>
	<path fill-rule="evenodd" clip-rule="evenodd" fill="#FFFFFF" d="M234.328,0c50.626,6.813,102.461,13.541,142.695,47.08
		c54.197,45.172,87.269,104.054,90.269,176.376c1.366,32.889-7.823,63.472-27.678,90.451c-1.942,2.64-2.592,7.914-1.328,10.908
		c3.336,7.906,8.07,15.225,12.217,22.791c7.915,14.443,7.145,27.757-2.668,41.641c-5.804,8.212-9.377,18.319-12.485,28.043
		c-4.904,15.338-13.505,25.031-30.425,26.737c-3.894,0.393-8.632,4.269-10.817,7.86c-15.965,26.224-17.242,54.016-7.36,82.655
		c1.01,2.932,2.502,5.693,3.625,8.589c9.034,23.271,2.454,41.416-21.11,48.855c-30.722,9.702-56.407,26.658-81.182,46.474
		c-30.891,24.71-79.117,24.095-109.913-0.916c-23.248-18.879-47.356-35.003-76.547-44.071C74.336,585,67.345,567.38,78.648,540.679
		c12.597-29.753,11.933-58.285-3.514-86.607c-3.516-6.447-7.788-10.635-15.873-11.209c-13.164-0.936-20.536-9.203-25.324-21.254
		c-5.166-13.002-11.274-25.717-18.034-37.971c-5.574-10.105-5.676-19.792-0.985-29.702c4.426-9.353,9.921-18.211,14.086-27.666
		c1.417-3.218,1.819-8.793-0.028-11.253c-27.126-36.108-33.928-77.009-25.7-119.969C15.131,133.151,45.753,81.271,95.979,42.796
		c29.11-22.299,65.105-29.531,100.235-37.256C208.619,2.812,221.407,1.826,234.328,0z M256.566,470.393
		c-1.321-0.35-2.867-0.371-3.926-1.101c-12.229-8.426-27.102-8.471-34.539-2.882c-21.37,2.045-38.664,3.699-55.957,5.352
		c0.009,0.929,0.019,1.859,0.028,2.785c5.436,0,12.066,1.975,16.043-0.437c6.888-4.172,11.825-5.237,16.267,1.216
		c11.647-7.574,24.157-3.772,35.906-5.076c0.26-0.028,0.564,0.535,0.849,0.537c1.832,0.006,3.668-0.176,5.495-0.096
		c4.284,0.191,8.561,0.668,12.843,0.689c2.305,0.011,4.613-0.685,6.923-1.063c9.254-1.878,18.061,6.396,27.499,1.236
		c0.413-0.224,1.51,0.169,1.891,0.613c6.602,7.683,13.131,2.175,19.75,0.047c-1.761-1.185-4.167-2.459-5.332-1.737
		c-4.696,2.914-7.943,0.337-12.474-0.752c-9.576-2.299-20.034-0.937-30.131-0.972C257.326,468.753,256.945,469.821,256.566,470.393z
		 M357.5,364.944c1.822-0.911,3.646-1.824,5.47-2.736c9.372,1.069,17.067-0.719,25.148-7.171c11.12-8.877,28.151-7.227,38.005,3.457
		c6.668,7.229,10.058,17.479,14.954,26.45c-1.638,0.916-0.915,0.733-0.543,0.271c10.641-13.276,6.175-26.043-1.904-38.198
		c-13.826-20.809-19.148-43.738-15.976-68.136c3.19-24.51,1.718-47.539-13.516-68.149c-0.195-0.265,0.439-1.142,0.985-2.435
		c18.863,14.788,22.887,34.947,21.726,58.33c5.55-11.68,8.898-0.638,13.943-1.594c-2.931,8.68-5.416,16.039-7.901,23.395
		c0.543,0.206,1.09,0.414,1.631,0.622c5.045-10.9,10.088-21.799,16.09-34.766c-4.604,3.277-6.988,4.973-9.795,6.97
		c-2.172-6.684-3.091-13.078-6.144-18.203c-7.408-12.439-11.273-24.802-6.711-39.394c2.245-7.175-4.201-12.117-11.385-9.066
		c-8.403,3.568-16.31,8.285-24.558,12.244c-9.35,4.485-12.96,2.9-12.149-6.918c1.327-16.093-10.197-23.272-20.257-30.881
		c-8.645-6.539-11.381-13.072-4.517-21.554c4.198-5.188,9.762-9.271,14.26-13.434c-11.361-2.502-23.021-5.067-32.386-7.129
		c-10.032,7.161-18.965,13.539-28.536,20.368c-1.971-4.22-3.311-7.095-4.802-10.287c-9.861,12.353-10.543,24.566-2.436,34.551
		c7.039,8.669,21.043,11.938,31.08,7.253c10.015-4.675,13.797-17.741,6.332-24.85c-2.83-2.694-8.646-3.511-12.838-3.007
		c-2.25,0.269-3.945,5.158-5.89,7.962c0.81,0.661,1.619,1.318,2.431,1.979c1.108-0.563,2.165-1.399,3.336-1.629
		c2.426-0.476,5.056-1.206,7.306-0.641c0.93,0.233,2.109,4.201,1.39,5.265c-1.365,2.027-4.38,4.778-6.063,4.393
		c-4.332-0.988-10.216-2.53-11.883-5.725c-1.645-3.153-0.321-10.917,2.275-12.546c4.623-2.896,11.632-4.564,16.844-3.341
		c7.994,1.879,11.601,9.133,12.208,17.437c0.64,8.736-3.804,14.37-11.049,18.299c-12.526,6.792-24.624,4.046-36.257-2.317
		c-3.37,4.006-6.307,7.499-10.183,12.106c-2.672-8.202-6.47-14.666-6.393-21.085c0.077-6.371,4.051-12.698,6.316-19.042
		c-1.244-0.476-2.486-0.954-3.73-1.432c-1.83,5.087-3.916,10.097-5.426,15.275c-2.192,7.536-2.8,15.78-6.235,22.643
		c-3.789,7.566-15.515,9.028-21.816,3.911c-5.979-4.854-7.154-11.311-2.609-17.388c1.789-2.392,6.272-3.251,9.67-3.676
		c1.117-0.138,2.68,3.287,4.036,5.081c-2.741,1.351-5.505,2.659-8.205,4.084c-0.543,0.288-0.85,1.029-1.245,1.573
		c3.272,8.298,8.527,9.938,14.07,4.389c7.058-7.068,9.572-33.819,2.798-43.083c7.358-5.214,14.955-14.998,22.119-14.694
		c12.243,0.522,18.885-5.713,27.35-11.809c-15.506-2.127-23.056-11.378-22.332-27.407c4.561,0.273,9.157,0.548,13.315,0.8
		c2.726-7.54,7.767-14.573,7.096-21.013c-1.602-15.4,10.472-19.065,19.498-28.946c1.565,6.662,3.934,11.126,3.257,15.065
		c-1.265,7.362-0.327,13.13,5.074,18.587c1.576,1.591,0.886,5.431,1.076,6.979c-4.785-3.624-9.292-9.697-13.208-9.337
		c-5.067,0.466-11.479,5.031-14.111,9.652c-7.121,12.506,0.628,30.034,14.008,35.186c1.589-5.291,3.19-10.612,5.143-17.105
		c7.337,6.7,13.895,11.396,18.743,17.457c5.296,6.618,10.275,11.519,18.665,8.49c-5.819-5.071-12.566-9.537-17.425-15.531
		c-7.14-8.807-6.513-23.287,2.016-26.592c9.901-3.833,11.697-12.779,18.024-18.578C304.571-6.263,162.162-7.06,83.015,65.074
		c3.398,4.837,5.741,11.511,10.384,14.177c16.45,9.447,18.767,23.112,4.598,36.1c-4.039,3.704-8.943,6.464-15.112,10.832
		c20.911,0.873,25.237-19.67,40.617-25.53c1.495,5.516,2.957,10.915,4.408,16.266c15.577-4.747,19.872-26.275,13.503-36.189
		c-2.854-4.441-9.258-8.55-14.427-9.073c-6.94-0.701-9.357,5.625-8.989,12.316c0.01,0.183-1.111,0.43-5.468,2.03
		c6.545-15.415,8.667-29.595,12.832-44.043c7.231,6.423,14.275,12.494,17.654,20.177c3.838,8.73,4.4,18.902,6.408,28.554
		c5.718-0.493,10.042-0.868,14.382-1.241c0.716,16.173-6.513,25.15-23.069,27.734c7.077,4.271,13.928,11.885,19.101,10.879
		c16.166-3.145,21.331,9.479,30.979,16.47c-2.586,3.407-6.613,6.394-6.22,8.587c1.93,10.773,4.565,21.499,8.088,31.851
		c0.786,2.308,6.263,4.366,9.382,4.111c2.457-0.203,4.608-4.135,6.087-5.605c-4.24-3.492-6.955-5.728-9.67-7.963
		c1.655-1.549,4.001-4.727,4.842-4.37c3.703,1.577,8.499,3.406,10.085,6.557c3.474,6.902,0.521,12.804-6.522,16.088
		c-9.683,4.514-20.127-1.037-22.895-12.477c-1.455-6.015-1.368-12.412-2.927-18.391c-1.114-4.274-3.809-8.141-5.799-12.187
		c-1.441,0.396-2.884,0.792-4.327,1.187c10.296,13.281,9.091,26.092,0.222,39.535c-3.19-4.012-6.085-7.649-9.234-11.608
		c-13.199,7.854-26.37,9.164-39.358,0.723c-9.125-5.93-10.781-17.958-4.177-27.427c6.066-8.7,17.071-11.229,24.146-4.591
		c2.791,2.619,4.843,7.884,4.351,11.558c-0.401,3.001-4.691,6.701-7.992,7.728c-2.882,0.895-6.974-1.138-10.106-2.723
		c-0.729-0.364,0.267-4.147,0.47-6.358c3.303,0.625,6.599,1.3,9.917,1.83c0.539,0.085,1.18-0.477,2.168-0.914
		c1.234-7.155-2.592-10.892-9.074-9.672c-3.93,0.737-9.823,4.729-10.184,7.805c-0.683,5.804,0.167,13.511,3.648,17.728
		c7.544,9.135,26.585,6.419,35.191-3.637c9.085-10.62,7.789-25.887-2.779-33.901c-1.331,2.96-2.674,5.951-4.273,9.511
		c-9.639-7.143-18.558-13.752-27.941-20.707c-10.181,2.244-21.764,4.795-33.571,7.4c4.11,3.212,8.452,6.047,12.125,9.579
		c10.509,10.102,7.971,18.04-3.75,26.518c-8.816,6.375-19.312,13.355-18.16,27.926c0.94,11.884-2.583,13.504-13.418,7.966
		c-9.535-4.87-18.917-10.04-31.389-16.69c-1.194,7.926-3.355,13.082-2.37,17.543c2.474,11.19,0.414,20.982-4.848,30.886
		c-3.346,6.295-5.154,13.406-7.715,20.125c-0.327,0.858-1.026,1.576-1.8,2.727c-2.565-1.903-4.829-3.585-7.092-5.266
		c-0.436,0.356-0.871,0.713-1.309,1.069c5.089,10.797,10.178,21.598,15.266,32.398c0.146-5.294-2.076-9.661-2.948-14.282
		c-0.729-3.863,0.122-8.023,0.272-12.053c3.538,0.444,7.076,0.891,11.009,1.388c-1.97-21.479,2.807-40.888,21.674-54.612
		c-14.557,19.738-16.641,42.104-13.637,65.332c3.166,24.469-0.08,47.462-13.213,68.732c-2.89,4.68-5.526,9.615-7.536,14.726
		c-5.013,12.746-3.086,19.991,7.357,29.829c-3.132-14.087,2.355-24.61,13.566-32.256c11.33-7.728,24.304-8.842,35.016-0.813
		c8.095,6.064,15.629,8.477,25.042,7.302c1.585,0.731,3.169,1.462,4.754,2.191c2.621,3.606,5.241,7.214,7.785,10.713
		c18.539-6.006,18.539-6.006,19.543,10.081c7.16,0.603,14.394,0.713,21.444,1.911c13.724,2.333,24.072,13.503,26.144,27.344
		c1.948,13.002-5.418,28.212-16.641,34.362c-10.934,5.99-21.847,3.845-34.171-6.269c-2.801-2.301-6.396-3.632-8.718-4.91
		c0,8.383,0.762,15.93-0.195,23.251c-1.16,8.88,4.681,14.776,13.368,12.042c8.381-2.64,16.682-5.536,25.049-8.222
		c1.266-0.405,2.703-0.301,4.064-0.386c10.284-0.642,20.627-0.796,30.84-2.04c9.74-1.184,19.282-4.074,29.029-5.111
		c6.283-0.668,12.814,0.357,19.169,1.146c9.743,1.207,19.399,3.122,29.148,4.253c10,1.163,20.07,1.714,30.102,2.625
		c0.969,0.085,1.845,0.949,2.827,1.225c8.211,2.307,16.313,5.396,24.685,6.63c12.573,1.854,9.687-9.211,12.475-15.731
		c-6.241-1.614-6.241-1.614,1.271-22.704c-5.881,4.097-10.806,7.506-15.708,10.949c-12.357,8.674-25.549,9.081-35.227-0.073
		c-10.186-9.629-14.828-21.52-10.561-35.679c4.139-13.734,13.781-21.125,27.669-23.054c6.348-0.884,12.807-0.977,19.13-1.42
		c0.503-15.741,0.503-15.741,19.249-10.434C353.078,371.792,355.289,368.367,357.5,364.944z M106.7,523.191
		c-0.4-1.382-0.801-2.766-1.201-4.146c2.218-1.867,4.435-3.739,6.693-5.638c-6.194-6.023-8.315-5.799-11.15,0.721
		c-3.613,8.315,1.7,23.575,10.177,29.462c4.456,3.095,8.813,6.327,13.337,9.585c14.835-7.553,21.763-6.709,26.037,3.696
		c-1.245,0.486-2.997,0.611-3.635,1.518c-2.671,3.795-7.478,8.207-6.941,11.688c1.041,6.736,7.45,8.767,13.849,6.641
		c4.827-1.604,9.75-3.76,13.771-6.807c18.341-13.883,41.712-10.991,54.697,7.17c11.443,16.007,6.067,37.615-12.686,50.108
		c-4.732,3.152-9.929,5.608-15.208,8.547c19.483,13.578,65.851,12.872,79.114-0.761c-4.072-1.898-8.262-3.539-12.147-5.714
		c-21.389-11.97-27.946-33.958-15.759-52.471c10.756-16.343,38.815-21.78,54.905-6.538c3.759,3.56,9.693,6.178,14.81,6.521
		c4.019,0.271,10.728-2.79,11.819-5.917c1.116-3.194-2.903-8.417-5.215-12.442c-0.784-1.369-3.208-1.799-5.907-3.187
		c9.532-11.383,18.99-5.985,27.133-2.31c5.072-3.455,9.27-6.369,13.522-9.199c8.553-5.687,14.207-22.551,9.61-30.425
		c-1.229-2.106-4.679-2.915-7.107-4.317c0.287,2.373,0.5,4.759,0.887,7.115c0.299,1.821,1.459,3.787,1.015,5.342
		c-0.304,1.07-3.913,2.287-3.983,2.17c-2.416-3.922-6.586-8.188-6.223-11.999c0.362-3.831,5.267-7.233,6.585-8.854
		c-2.248-10.292-4.847-19.117-5.724-28.111c-0.256-2.615,4.409-5.71,6.821-8.586c2.756,2.794,5.515,5.586,8.271,8.378
		c-0.792,0.713-1.584,1.427-2.376,2.139c-1.951-1.64-3.902-3.28-6.218-5.224c-3.168,13.171,0.634,22.678,12.103,30.928
		c1.211-10.202,2.383-20.076,3.577-30.139c-1.622,1.42-3.123,2.734-5.061,4.428c-2.204-15.537-3.23-16.373-18.02-14.67
		c-0.856,6.892-2.094,14.01-2.562,21.177c-1.055,16.172-1.658,32.375-2.589,48.556c-0.422,7.323-3.634,12.807-11.568,13.568
		c-19.747,1.9-39.513,3.591-59.286,5.205c-7.592,0.618-15.873-0.977-22.703,1.532c-18.681,6.854-36.748-0.855-55.073-0.549
		c-8.632,0.146-17.288-1.905-25.951-2.791c-13.368-1.368-26.864-1.951-40.046-4.318c-3.311-0.594-7.61-6.48-8.063-10.334
		c-1.966-16.737-2.578-33.628-3.887-50.446c-0.581-7.473-1.644-14.906-2.444-21.969c-5.77-0.749-10.216-1.327-14.651-1.916
		c-0.729,3.418-1.458,6.836-1.98,9.289c4.714-0.628,11.072-2.945,12.306-1.338c2.755,3.592,4.609,9.446,3.814,13.831
		c-1.252,6.909-4.986,13.367-7.717,20.138c9.261,7.238,12.087,13.56,7.294,18.818C113.921,522.366,109.79,522.305,106.7,523.191z
		 M94.46,525.524c-3.883,10.464-7.782,19.219-10.356,28.354c-3.18,11.283,0.961,20.394,11.131,26.313
		c4.141,2.414,8.867,3.804,13.134,6.029c18.241,9.517,36.268,19.455,54.676,28.632c7.408,3.691,15.598,5.822,23.432,8.661
		c0.327-0.945,0.655-1.892,0.983-2.839c-17.648-2.397-22.288-7.853-28.398-33.702c-1.285,0.494-2.535,0.901-3.729,1.441
		c-22.674,10.247-38.428-0.575-36.789-25.216c0.132-1.989,0.297-4.863-0.842-5.882c-3.114-2.782-7.104-6.831-10.396-6.532
		c-3.315,0.303-7.1,4.779-8.912,8.326c-0.89,1.745,2.209,5.529,3.739,8.911c1.856-5.245,3.006-8.498,4.155-11.747
		c2.438,1.273,7.104,3.104,6.95,3.724c-0.993,3.932-2.044,9.028-4.953,11.068c-6.981,4.897-16.701-0.539-15.693-9.174
		c0.794-6.815,5.18-13.211,8.806-21.763C100.193,537.595,97.743,532.434,94.46,525.524z M364.277,543.618
		c8.242,4.934,13.46,11.565,10.478,20.709c-1.182,3.629-6.104,7.832-9.778,8.314c-3.201,0.422-8.125-3.337-10.189-6.58
		c-1.214-1.909,1.138-6.776,3.001-9.566c0.631-0.941,4.691,0.407,7.184,0.708c-0.618,2.964-1.234,5.93-1.946,9.35
		c6.612,0.347,8.53-4.305,5.501-9.474c-1.898-3.238-9.879-6.92-10.841-5.984c-3.671,3.569-8.004,9.044-7.775,13.593
		c1.032,20.511-13.749,32.444-33.315,25.761c-2.151-0.738-4.399-1.194-7.126-1.921c-3.08,16.408-10.376,28.659-26.907,33.667
		c8.303-1.85,16.327-4.367,23.571-8.313c9.966-5.428,18.979-12.649,29.077-17.772c9.795-4.965,20.548-8.001,30.695-12.321
		c16.856-7.173,21.994-18.711,16.139-35.765c-2.533-7.379-5.445-14.628-8.387-22.478
		C370.497,531.632,367.667,537.084,364.277,543.618z M90.784,166.83c4.59-2.874,13.137-6.465,12.777-8.328
		c-1.1-5.682-4.504-12.227-9.094-15.626c-7.25-5.374-16.19-8.464-24.415-12.518c-0.439,0.666-0.878,1.333-1.315,2
		c3.022,1.762,6.046,3.524,9.069,5.284c-0.729,0.895-1.461,1.791-2.191,2.686c-2.849-0.598-5.7-1.197-9.732-2.042
		c4.575,3.85,7.962,6.701,11.35,9.551c-0.525,0.709-1.05,1.416-1.573,2.125c-4.419-1.766-8.839-3.53-14.199-5.67
		c2.605,4.866,4.562,8.521,6.517,12.175c-0.641,0.442-1.281,0.886-1.922,1.332c-3.512-2.742-7.025-5.484-10.538-8.225
		c1.575,7.6,3.68,15.054,8.438,19.907c4.554,4.644,11.663,8.09,18.067,8.955C84.495,178.766,88.124,170.542,90.784,166.83z
		 M376.022,166.477c3.249,4.403,6.645,12.315,9.435,12.105c6.067-0.453,13.167-3.795,17.366-8.276
		c4.922-5.255,7.215-12.977,10.646-19.629c-0.636-0.304-1.272-0.608-1.909-0.912c-3.522,2.68-7.045,5.359-10.57,8.038
		c-0.465-0.535-0.931-1.07-1.398-1.604c1.399-3.222,2.801-6.446,4.701-10.821c-5.293,1.758-9.175,3.046-13.057,4.338
		c-0.376-0.721-0.75-1.442-1.125-2.164c3.562-2.902,7.124-5.803,11.157-9.088c-3.686,0.603-6.773,1.108-11.343,1.854
		c2.077-3.176,3.217-4.917,4.358-6.659c-8.656,2.305-16.79,5.489-23.286,10.709c-3.917,3.152-7.187,9.519-7.059,14.342
		C364.006,161.382,371.674,163.852,376.022,166.477z M402.829,97.175c1.029-0.588,2.059-1.174,3.086-1.762
		c-3.82-6.995-6.912-14.547-11.681-20.825c-4.386-5.774-8.304-3.933-11.125,2.849c-1.362,3.277-4.969,6.41-8.321,7.909
		c-7.585,3.39-10.746,9.405-7.863,17.458c3.513,9.816,20.762,21.18,31.334,20.38c1.807-0.138,4.988-1.54,4.983-2.342
		c-0.013-1.984-1.075-4.365-2.489-5.852c-2.849-2.998-6.214-5.504-9.364-8.214c0.479-0.701,0.962-1.399,1.444-2.098
		c3.993,1.818,7.986,3.635,14.575,6.634c-7.646-8.258-13.245-14.305-18.843-20.353c0.604-0.667,1.207-1.336,1.812-2.005
		C394.527,91.697,398.679,94.435,402.829,97.175z M62.16,119.166c2.118,1.649,3.466,3.512,5.136,3.864
		c10.816,2.281,30.682-10.452,33.452-21.337c1.995-7.837-0.677-13.066-8.41-16.415c-3.338-1.444-6.626-4.747-8.25-8.04
		C80.932,70.83,77.104,68.892,72.793,75c-4.479,6.345-7.52,13.708-11.189,20.624c0.881,0.528,1.761,1.055,2.641,1.581
		c4.328-2.724,8.658-5.447,12.987-8.169c0.571,0.725,1.141,1.455,1.712,2.183c-5.698,5.986-11.395,11.973-17.092,17.96
		c0.289,0.324,0.577,0.648,0.866,0.972c3.987-1.851,7.976-3.702,11.963-5.553c0.459,0.771,0.917,1.542,1.377,2.312
		C71.625,110.818,67.193,114.729,62.16,119.166z M423.059,150.677c-0.992-0.097-1.987-0.195-2.979-0.29
		c-2.589,7.339-5.999,14.519-7.479,22.072c-1.013,5.172,0.663,10.871,1.136,16.335c4.697-1.774,9.386-3.57,14.102-5.29
		c0.584-0.215,1.314-0.03,1.977-0.03c-0.327,0.634-0.656,1.27-0.981,1.903c4.806,2.664,9.614,5.328,14.424,7.993
		c1.938-5.808,6.165-12.013,5.239-17.321c-1.145-6.568-6.56-12.394-11.292-20.537c0,7.93,0,13.771,0,19.61
		c-0.741,0.079-1.482,0.16-2.223,0.241c-1.338-6.335-2.676-12.669-4.286-20.281c-1.484,5.144-2.53,8.778-3.578,12.412
		c-0.787-0.136-1.569-0.271-2.353-0.406C424.196,161.617,423.627,156.147,423.059,150.677z M18.996,171.88
		c0.699,4.949-5.218,16.016,5.966,20.984c2.896,1.289,9.239-5.184,15.063-8.74c0.197,0.168,1.724,2.256,3.755,3.04
		c2.972,1.148,7.134,2.805,9.256,1.582c2.219-1.279,4.175-6.075,3.551-8.692c-2.419-10.133-5.912-20.008-9.006-29.979
		c-1.025,0.101-2.049,0.202-3.075,0.304c-0.656,5.611-1.313,11.223-1.968,16.834c-0.726,0.027-1.449,0.056-2.174,0.084
		c-1.179-3.69-2.357-7.38-3.827-11.981c-1.654,7.777-3.011,14.156-4.367,20.535c-0.76-0.13-1.518-0.263-2.277-0.393
		c0-5.96,0-11.918,0-17.631C26.791,161.823,23.796,165.687,18.996,171.88z M86.567,396.685c-5.223,5.385-7.872,10.184-11.83,11.824
		c-14.641,6.069-26.926-0.219-39.345-11.325c1.98,5.067,3.013,7.974,4.237,10.798c9.424,21.731,28.94,24.716,44.747,6.866
		c9.541-10.775,9.343-14.074-1.146-24.1c-1.448-1.382-2.057-3.71-3.591-4.921c-2.158-1.701-4.842-3.783-7.251-3.721
		c-1.461,0.038-4.333,4.23-3.895,5.821c0.749,2.714,3.177,5.6,5.688,7.021C76.576,396.306,79.977,395.883,86.567,396.685z
		 M384.638,396.252c3.33-0.397,6.965-0.072,9.822-1.408c2.352-1.103,5.162-4.132,5.233-6.388c0.078-2.359-2.435-5.553-4.697-6.906
		c-1.061-0.633-4.468,1.896-6.325,3.539c-3.029,2.676-6.247,5.447-8.284,8.84c-1.91,3.175-4.034,7.638-3.209,10.788
		c3.146,12.018,17.965,22.026,29.994,21.379c11.236-0.604,18.636-8.641,21.642-23.505
		C398.333,413.99,387.505,412.656,384.638,396.252z M17.244,197.927c0,11.177,0,21.386,0,31.593
		c-1.051,0.085-2.101,0.169-3.152,0.255c-1.201-9.493-2.401-18.984-3.588-28.363c-5.039,22.74-3.334,42.388,9.788,50.821
		c3.351-13.443,7.325-26.137,9.422-39.134C30.821,206.238,28.1,199.26,17.244,197.927z M449.962,198.54
		c-16.604,4.141-16.402,14.863-0.655,52.95c13.879-15.315,10.356-32.817,7.722-50.192c-1.31,9.487-2.617,18.975-3.926,28.464
		c-1.049-0.099-2.095-0.202-3.141-0.302C449.962,219.497,449.962,209.534,449.962,198.54z M200.452,616.631
		c3.496-3.213,7.465-6.045,10.385-9.716c6.202-7.793,4.428-23.262-2.883-29.331c-6.571-5.454-18.96-4.286-25.512,2.404
		c-6.825,6.971-6.448,20.517,1.25,24.313c2.479,1.225,6.457-0.596,9.75-1.023c-1.019-3.802-1.689-7.756-3.278-11.302
		c-0.45-1.007-3.576-0.813-5.476-1.169c-0.376-0.903-0.752-1.808-1.129-2.714c3.643-2.049,7.609-6.159,10.848-5.65
		c4.39,0.694,9.949,4.017,11.954,7.82C211.506,600.021,205.518,607.903,200.452,616.631z M283.56,589.854
		c-1.366,0.795-2.381,1.115-3.003,1.797c-2.378,2.607-5.355,5.041-6.606,8.146c-0.577,1.432,2.846,6.297,3.54,6.115
		c3.652-0.957,7.997-2.192,10.283-4.878c5.632-6.617,2.84-17.736-5.056-23.476c-7.481-5.441-17.253-4.187-23.049,2.954
		c-8.61,10.608-5.619,25.357,6.607,32.593c-9.19-14.455-8.988-23.99,0.929-29.147C274.415,580.211,280.247,581.241,283.56,589.854z
		 M178.103,539.467c-0.262,1.227-0.525,2.453-0.787,3.681c2.401,1.013,5.286,3.419,7.117,2.786c6.7-2.321,12.438-1.118,18.484,1.988
		c1.543,0.794,4.44-1.014,6.704-1.661c1.911-0.549,4.278-2.182,5.636-1.562c12.386,5.654,24.554,6.969,37.001,0.108
		c1.245-0.685,3.736,1.347,5.624,1.294c10.027-0.296,20.089-0.474,30.036-1.599c2.314-0.263,4.229-4.059,6.613-6.52
		c-19.799,7.193-39.489,3.138-58.405,5.281C217.17,545.416,197.474,541.005,178.103,539.467z M45.394,110.569
		c-5.365,10.48-10.068,19.67-15.081,29.46c11.022,3.726,18.275,1.684,22.485-6.481C57.145,125.12,54.811,117.671,45.394,110.569z
		 M421.706,110.934c-9.595,8.664-11.535,16.454-6.567,23.691c5.09,7.41,11.955,9.356,22.073,5.184
		C431.973,130.055,427.072,120.924,421.706,110.934z M236.366,491.037c0,1.726,0.109,3.46-0.019,5.176
		c-0.443,5.936,1.649,8.935,8.206,8.8c6.352-0.132,7.481-3.564,7.198-8.712c-0.171-3.1,0.623-6.56-0.498-9.231
		c-1.974-4.712-5.082-8.944-7.716-13.377c-2.387,4.744-4.836,9.463-7.106,14.265C236.03,488.804,236.374,490.001,236.366,491.037z
		 M230.911,491.516c0.084-0.005,0.169-0.007,0.254-0.01c-0.201-3.078,0.251-6.396-0.778-9.163c-1.076-2.898-3.575-5.269-5.452-7.87
		c-2.327,2.15-5.997,3.936-6.707,6.527c-1.603,5.856-2.347,12.133-2.132,18.192c0.071,1.985,4.244,5.419,6.435,5.335
		c2.849-0.105,6.359-2.506,8.125-4.97C231.954,497.749,230.911,494.255,230.911,491.516z M255.031,488.068
		c0.711,0.37,1.419,0.74,2.129,1.111c0,2.733,0.126,5.476-0.026,8.197c-0.327,5.874,2.858,8.829,8.041,7.203
		c2.85-0.893,5.626-4.587,6.739-7.637c0.924-2.531,0.09-6.35-1.263-8.915c-2.315-4.406-5.644-8.278-8.548-12.378
		C259.747,479.79,257.388,483.928,255.031,488.068z M191.909,489.997c0-1.434,0.543-3.399-0.111-4.805
		c-1.448-3.117-3.499-5.957-5.303-8.911c-2.39,2.185-5.894,3.939-6.926,6.642c-1.912,5.006-3.075,10.561-3.106,15.895
		c-0.014,2.106,3.634,5.805,5.953,6.099C195.082,506.518,190.408,496.375,191.909,489.997z M196.57,490.532
		c0,4.179-0.68,6.391,0.138,7.51c1.893,2.594,4.441,6.346,6.855,6.441c2.164,0.091,5.631-3.713,6.505-6.445
		c1.429-4.47,1.907-9.527,1.445-14.208c-0.282-2.861-2.557-6.256-4.967-7.843c-1.038-0.681-5.767,2.037-6.915,4.214
		C197.628,483.994,197.1,488.567,196.57,490.532z M290.099,505.955c1.037-1.078,2.072-2.15,3.108-3.229
		c-2.08-7.464-3.714-15.106-6.588-22.249c-0.638-1.581-5.668-1.394-8.676-2.021c-0.031,7.726-0.958,15.621,0.468,23.067
		C278.825,503.668,286.016,504.513,290.099,505.955z M246.942,510.504c-12.932-0.297-10.542,7.038-10.41,12.301
		c0.143,5.748-0.755,15.067,6.835,13.825c3.691-0.605,6.337-11.895,7.929-18.704C251.863,515.508,247.908,512.033,246.942,510.504z
		 M233.26,524.322c-2.66-5.063-3.91-11.709-7.433-13.288c-8.221-3.686-11.423,1.023-8.208,13.928
		c1.183,4.752,5.951,8.61,9.084,12.88C228.727,533.668,230.752,529.496,233.26,524.322z M396.71,403.189
		c9.029,3.712,16.413,2.44,22.045-4.401c6.589-8.001,5.444-16.815,0.072-24.885c-5.478-8.222-12.391-14.472-24.652-11.332
		c18.404,6.033,23.494,11.345,22.584,22.79C415.934,395.743,410.937,400.356,396.71,403.189z M135.052,431.684
		c6.736,3.978,14.906,6.079,18.705-0.389c3.499-5.962,4.93-15.322,2.919-21.842c-3.283-10.645-13.576-12.339-24.049-11.013
		c12.951,2.938,20.506,9.779,19.657,18.782C151.34,427.247,144.174,430.596,135.052,431.684z M334.499,398.39
		c-13.351-0.312-21.859,3.703-24.532,12.422c-2.452,8-2.159,16.775,5.13,21.504c4.366,2.836,11.438,1.499,17.292,2.037
		c0.185-1.146,0.367-2.292,0.553-3.439c-8.75-1.028-16.606-3.279-17.348-13.709C314.953,408.213,321.762,401.595,334.499,398.39z
		 M155.34,504.618c13.471,1.583,17.014-2.398,16.262-17.392c-0.13-2.61-2.87-6.187-5.288-7.196
		c-1.583-0.659-6.325,2.027-6.936,4.037C157.368,490.693,156.598,497.692,155.34,504.618z M97.955,506.167
		c6.083-11.04,17.375-19.535,11.317-34.693c-6.679,8.124-10.239,7.761-15.418-0.234C95.138,482.167,96.493,493.72,97.955,506.167z
		 M254.532,524.557c2.357,3.799,4.283,10.401,7.15,10.836c7.035,1.072,8.979-5.308,8.693-11.172
		c-0.248-5.068,3.888-12.88-5.928-13.627C254.27,509.821,258.155,518.093,254.532,524.557z M272.566,523.857
		c3.877,5.159,6.396,11.304,8.845,11.274c9.414-0.102,8.863-8.564,9.875-15.134c0.94-6.124-2.831-10.434-7.99-8.643
		C279.292,512.747,276.837,518.595,272.566,523.857z M70.602,403.5c-14.534-3.606-19.72-8.933-19.902-19.832
		c-0.17-10.255,5.41-15.622,23.333-21.143c-12.001-2.381-18.872,2.398-24.156,10.078c-5.7,8.281-7.338,17.361-0.97,25.869
		C54.166,405.496,61.628,406.95,70.602,403.5z M295.958,487.492c0.961,5.461,0.627,9.123,2.251,11.371
		c1.991,2.756,5.62,4.329,8.539,6.413c1.607-2.821,4.02-5.49,4.589-8.503c0.531-2.831-0.069-6.572-1.644-8.927
		c-2.139-3.197-5.679-5.452-8.616-8.11C299.066,482.783,297.055,485.828,295.958,487.492z M193.69,525.573
		c-2.205-7.577-1.208-14.765-10.352-13.173c-2.681,0.469-7.08,5.52-6.565,7.221c1.705,5.629,5.295,10.691,8.162,15.971
		C187.854,532.252,190.772,528.911,193.69,525.573z M196.384,509.473c1.298,9.116,1.613,15.609,3.271,21.741
		c1.594,5.894,7.982,6.896,9.777,2.254c2.244-5.801,1.3-13.333-0.085-19.726C208.939,511.865,202.367,511.318,196.384,509.473z
		 M371.546,389.314c-8.441,6.967-8.953,14.639-1.797,26.979c8.818,15.209,22.981,22.232,35.571,17.638
		C379.736,431.126,366.532,413.678,371.546,389.314z M96.142,389.24c3.852,11.583,2.154,22.732-6.455,30.675
		c-7.5,6.922-17.338,11.31-24.113,15.547c10.927,2.427,23.304-3.945,32.353-19.122C104.602,405.147,104.355,397.308,96.142,389.24z
		 M342.677,416.713c-1.85-4.256-3.536-8.14-6.203-14.278c-4.923,3.974-10.011,7.144-13.669,11.509
		c-1.41,1.681-0.648,7.212,1.121,8.914c1.572,1.517,6.156,0.876,8.955-0.104C336.205,421.587,339.042,419.041,342.677,416.713z
		 M125.803,416.521c3.447,2.419,6.501,5.046,9.97,6.893c6.254,3.335,13.314-2.547,9.736-8.402
		c-3.129-5.118-9.254-8.405-14.444-12.836C128.561,409.003,127.135,412.892,125.803,416.521z M311.899,514.53
		c-0.832-0.945-1.666-1.893-2.499-2.841c-3.485,1.18-8.967,1.439-10.026,3.734c-2.012,4.362-3.13,10.477-1.596,14.788
		c1.838,5.172,7.45,5.46,10.081-0.085C310.12,525.36,310.62,519.761,311.899,514.53z M331.34,499.728
		c-4.049-6.458-7.047-11.244-10.045-16.026c-1.672,1.942-5.153,4.632-4.71,5.7c2.356,5.702-3.773,14.86,6.183,17.061
		C324.628,506.875,327.453,502.908,331.34,499.728z M154.025,514.156c3.994,7.515,6.1,17.376,10.689,18.713
		c6.694,1.951,6.355-6.589,6.094-12.043C170.375,511.774,164.864,511.467,154.025,514.156z M152.891,489.552
		c-1.94-2.145-4.039-5.973-5.404-5.727c-9.183,1.655-6.281,9.978-7.329,15.762c-0.384,2.115,2.849,7.07,4.049,6.949
		C155.262,505.419,147.708,495.234,152.891,489.552z M399.106,182.646c-10.323,6.067-7.413,13.629-8.304,20.411
		c14.871-2.607,18.362-6.405,13.473-14.603c-1.235,1.316-2.28,2.612-3.514,3.696c-1.172,1.026-2.545,1.825-5.5,3.896
		c0.796-3.39,1.097-4.914,1.519-6.402C397.208,188.146,397.756,186.68,399.106,182.646z M75.755,203.213
		c0.838-15.865,0.749-16.1-6.519-17.815c0.743,2.975,1.478,5.914,2.826,11.308c-4.418-3.849-6.819-5.943-9.334-8.135
		C58.805,196.739,61.707,199.957,75.755,203.213z M327.778,514.7c-0.803-0.884-1.606-1.77-2.409-2.654
		c-2.582,1.301-6.981,2.18-7.396,3.976c-1.111,4.817-0.517,10.031-0.598,15.085c2.215-0.565,5.867-0.543,6.384-1.804
		C325.664,524.667,326.525,519.601,327.778,514.7z M145.617,534.218c5.773-5.593,6.775-18.413,2.776-20.212
		c-1.645-0.741-7.14,2.356-7.028,3.194C142.083,522.578,143.874,527.813,145.617,534.218z M344.459,500.634
		c-3.126-4.826-5.699-8.798-8.273-12.769c-1.293,1.938-4.055,4.35-3.61,5.729c1.479,4.582,4.11,8.796,6.303,13.149
		C340.454,505.018,342.03,503.296,344.459,500.634z M338.313,563.821c-1.405-0.13-2.812-0.259-4.219-0.39
		c0.582,10.939-3.352,18.499-14.465,21.625c5.857-0.732,12.554-1.633,15.608-5.448C338.206,575.9,337.439,569.203,338.313,563.821z
		 M133.077,564.524c-1.373,0.313-2.747,0.626-4.12,0.935c1.236,5.093,0.998,11.553,4.108,14.915
		c3.365,3.638,9.856,4.378,14.984,6.386c0.542-1.116,1.085-2.234,1.627-3.352C137.921,582.423,133.63,575.068,133.077,564.524z
		 M134.169,486.92c-9.239,3.877-8.184,10.791-8.225,16.911c-0.007,0.928,2.897,1.875,4.454,2.815
		c1.651-4.467,3.478-8.883,4.842-13.435C135.649,491.847,134.762,490.096,134.169,486.92z M382.607,380.37
		c-1.785-7.6-6.464-12.819-14.076-12.624c-4.161,0.106-8.233,3.695-12.346,5.715c0.336,1.131,0.671,2.266,1.008,3.396
		C367.136,370.161,375.143,372.965,382.607,380.37z M82.674,379.065c10.275-2.565,18.367-4.588,28.333-7.078
		c-4.935-1.621-9.949-5.132-13.334-3.954C92.313,369.896,88.044,374.895,82.674,379.065z M330.837,527.896
		c1.987,0.762,3.973,1.525,5.957,2.291c1.705-4.756,3.524-9.479,4.851-14.338c0.085-0.308-3.651-1.658-5.607-2.523
		C334.304,518.181,332.571,523.038,330.837,527.896z M130.152,529.636c1.709-0.326,3.418-0.652,5.127-0.977
		c-0.563-4.476-1.127-8.946-1.689-13.417c-2.259,0.68-6.521,1.673-6.472,1.991C127.773,521.423,129.039,525.517,130.152,529.636z
		 M175.521,431.191c6.137-12.196,5.054-22.132-2.232-28.608C173.951,411.084,174.821,422.223,175.521,431.191z M122.127,110.195
		c-0.366-0.179-0.73-0.36-1.097-0.539c-4.842,5.018-9.685,10.032-12.603,13.058C111.681,119.739,116.904,114.965,122.127,110.195z"
		/>
	<path fill-rule="evenodd" clip-rule="evenodd" fill="#FFFFFF" d="M104.503,362.275c-4.096-2.482-8.176-4.99-12.307-7.415
		c-0.549-0.321-1.368-0.143-2.034-0.309c-9.031-2.22-9.79-11.819-14.837-16.592c-5.687-5.376-13.851-7.379-12.042-17.544
		c0.061-0.339,0.261-0.853,0.11-1.002c-10.897-11.01-5.553-24.188-4.979-36.737c0.044-0.992-0.962-2.345-0.576-2.969
		c6.604-10.675,4.247-25.89,17.137-33.476c2.343-1.38,3.376-4.82,5.563-6.655c10.669-8.953,21.273-18.027,32.538-26.18
		c2.087-1.51,7.098,1.018,11.431,1.804c5.799-6.782,12.692-12.015,22.9-6.875c1.472,0.741,4.198,0.299,5.736-0.618
		c7.763-4.624,14.701-5.024,21.568,1.948c1.255,1.275,5.097,0.604,7.542,0.003c8.714-2.14,15.807-1.329,19.107,8.562
		c0.477,1.434,1.767,3.406,2.985,3.657c10.168,2.096,11.183,8.727,11.269,17.809c0.04,4.31,5.804,8.567,9.405,13.43
		c2.935-2.526,5.416-4.664,8.15-7.022c3.077,2.179,5.833,4.131,8.699,6.159c5.79-5.99,8.024-13.034,11.075-20.348
		c3.978-9.538,15.111-17.955,25.142-22.41c6.009-2.665,14.596-1.867,22.364-3.843c10.498-2.669,22.785,0.976,34.142,2.876
		c3.243,0.542,5.929,4.417,8.921,6.804c12.724-4.15,15.116-3.251,22.498,8.579c0.545,0.874,0.93,2.58,1.483,2.62
		c13.275,0.986,18.277,12.442,25.701,20.575c3.672,4.022,6.059,9.271,8.742,14.12c1.396,2.526,2.71,5.31,3.148,8.119
		c1.996,12.752,5.236,25.615,4.75,38.311c-0.226,5.822-3.969,13.631-6.854,18.763c-6.045,10.767-16.051,19.879-26.044,27.579
		c-3.85,2.964-11.273,1.753-13.974,8.211c-1.819,0.912-3.644,1.825-5.466,2.736c-9.199-0.935-18.601-5.191-27.216,2.467
		c-1.343,1.195-4.638,0.476-6.983,0.216c-6.206-0.692-12.382-2.266-18.583-2.316c-13.767-0.11-17.067-18.523-31.645-17.606
		c-1.975,0.124-4.337-5.572-6.483-8.596c-1.521-2.147-2.997-4.323-4.461-6.51c-3.43-5.116-6.669-10.368-10.291-15.341
		c-6.439-8.858-10.312-18.077-5.593-29.055c0.18-0.422-0.757-1.214-0.783-1.849c-0.206-4.947-0.135-9.916-0.519-14.849
		c-0.279-3.601-1.12-7.159-1.91-11.958c-4.083,3.254-6.352,5.065-8.831,7.042c-2.669-2.868-4.91-5.273-7.152-7.679
		c-1.001,0.084-2.002,0.172-3.002,0.259c-0.236,4.853-0.608,9.707-0.68,14.565c-0.153,10.263,0.12,20.542-0.414,30.781
		c-0.122,2.339-2.893,4.493-4.28,6.83c-1.315,2.215-2.159,4.742-3.65,6.816c-7.475,10.393-14.985,20.766-22.797,30.901
		c-0.993,1.292-4.005,0.829-5.771,1.765c-3.284,1.745-6.489,3.722-9.438,5.98c-2.406,1.841-4.116,5.655-6.608,6.138
		c-10.943,2.119-23.14,6.874-32.807,3.909c-9.941-3.051-18.754-3.292-28.346-2.386C107.673,363.737,106.088,363.006,104.503,362.275
		z M171.455,341.72c18.167,7.359,22.408,4.629,21.417-13.2c4.917-1.438,11.281-1.487,14.002-4.662
		c2.208-2.573,0.045-8.898-0.187-13.723c12.275-2.913,12.749-4.714,4.354-20.919c10.412-6.751,9.921-14.345,0.246-21.584
		c10.932-10.309,10.047-13.397-5.448-21.605c6.474-16.312,6.205-16.791-7.445-17.532c-3.499-5.553-5.765-12.973-9.037-13.447
		c-4.907-0.708-10.518,3.457-15.779,5.528c-7.603-13.394-7.603-13.394-22.848-2.823c-5.96-1.972-11.683-5.947-15.172-4.508
		c-4.616,1.904-7.483,8.046-11.103,12.368c-12.082-10.573-14.338-9.384-20.823,11.132c-15.341-3.691-18.097-1.625-18.614,13.963
		c-13.548,1.851-14.527,3.429-11.68,18.808c-11.23,6.241-11.243,6.311-4.244,21.524c-11.374,10.365-10.86,13.941,3.097,21.554
		c-6.016,15.817-6.016,15.817,11.744,19.122c-1.954,15.869,1.167,18.505,19.668,16.607c6.204,13.462,10.953,14.222,20.185,2.381
		c-2.724-0.973-5.155-1.888-7.619-2.705c-23.16-7.708-39.781-22.118-41.946-47.413c-2.187-25.553,6.866-47.785,30.406-59.955
		c13.778-7.122,29.653-11.107,45.055-13.988c42.288-7.909,59.103,22.403,56.226,56.118c-2.118,24.797-14.605,44.188-34.333,59.064
		c-9.702,3.326-19.403,6.651-29.433,10.089c-0.637,1.952-1.526,4.692-3.181,9.782c-3.148-5.412-4.812-8.27-6.475-11.127
		c-1.051,0.525-2.102,1.053-3.153,1.58c1.66,2.916,3.599,8.439,4.933,8.299c5.898-0.628,11.622-2.887,16.66-4.338
		c5.423,0.7,11.628,3.354,16.248,1.666C174.103,355.248,173.421,348.054,171.455,341.72z M329.552,358.14
		c-3.944-3.091-7.017-7.363-10.841-8.202c-35.785-7.823-55.123-37.314-57.597-71.147c-1.826-24.945,10.575-54.917,46.157-53.338
		c19.142,0.853,37.761,4.491,54.611,14.172c5.014,2.879,9.249,7.088,13.979,10.494c3.714,2.677,4.766,11.033,12.255,5.937
		c0.889,1.844,2.442,3.659,2.526,5.541c0.173,3.878-1.644,8.178-0.54,11.633c10.848,33.981-4.055,63.472-38.064,74.533
		c-2.756,0.897-5.482,1.89-8.635,2.98c9.338,11.002,13.766,10.134,20.713-2.962c16.998,3.574,20.139,0.819,19.385-17.014
		c16.688-0.338,16.688-0.338,11.708-18.732c13.393-5.665,13.869-9.458,2.749-21.985c7.635-12.32,7.602-12.466-4.869-21.361
		c4.461-13.369,3.655-14.677-9.211-18.124c-2.643-5.813-3.502-11.852-6.805-13.853c-3.539-2.143-9.381-0.484-14.202-0.484
		c-3.506-18.621-6.837-20.376-20.631-10.926c-11.404-15.684-11.404-15.684-24.862-6.452c-14.56-12.244-14.56-12.244-24.085,1.75
		c-19.905-8.436-19.905-8.436-22.299,8.146c-12.031-0.053-17.241-2.195-9.72,17.781c-14.877,6.624-15.81,10.036-5.453,21.627
		c-11.494,7.483-7.367,15.079-0.374,21.076c-1.868,5.713-5.224,10.658-4.225,14.465c0.93,3.557,6.479,5.903,10.153,8.91
		c-6.271,11.071-4.909,12.777,11.813,15.21c1.382,5.708,1.028,12.892,4.251,15.311c3.806,2.855,10.702,1.591,16.377,2.125
		c2.644,16.05,7.502,17.866,23.234,10.089c5.245,2.602,10.67,4.499,16.188,4.824c1.258,0.073,2.838-5.284,4.269-8.145
		c-1.041-0.403-2.08-0.807-3.122-1.211C332.654,353.44,330.919,356.071,329.552,358.14z M106.892,299.781
		c2.907-5.047,5.074-8.808,7.375-12.808c-17.292,0.266-17.292,0.266-24.521,18.815c7.165,1.986,6.066,16.13,16.999,12.051
		c6.893-2.575,12.77-7.871,19.102-11.943c-0.545-0.873-1.092-1.747-1.638-2.622c-4.098,1.47-8.196,2.938-12.293,4.408
		c-0.272-0.629-0.544-1.257-0.815-1.885c1.984-1.873,3.967-3.745,6.928-6.54C113.396,299.476,110.434,299.613,106.892,299.781z
		 M151.322,270.698c17.162-3.263,20.382-7.889,15.739-23.424c-7.17,8.922-8.2-2.61-12.025-3.305
		c-11.063,5.235-22.444,9.439-18.512,21.464c4.082,2.978,6.266,4.572,8.271,6.039c1.739-3.054,3.472-6.096,6.528-11.462
		C151.322,265.167,151.322,267.471,151.322,270.698z M330.887,265.609c3.993-12.886-8.054-16.608-16.32-20.437
		c-6.285,2.045-10.766,3.5-15.426,5.02c-2.386,15.245,1.548,20.062,16.35,19.58c0.275-2.403,0.546-4.767,1.104-9.624
		c2.992,5.545,4.72,8.752,6.013,11.151C325.041,269.627,327.069,268.232,330.887,265.609z M357.546,305.212
		c-0.83,0.881-1.659,1.766-2.488,2.647c-3.995-1.563-7.989-3.126-11.985-4.692c-0.583,1.031-1.166,2.064-1.749,3.096
		c6.998,4.015,13.807,10.618,21.065,11.155c4.986,0.369,10.598-7.677,14.746-11.008c-1.454-14.351-8.124-20.762-20.947-19.384
		c-0.38,2.102-0.807,4.446-1.277,7.051c1.754,0.984,4.456,2.499,7.157,4.017c-0.237,0.602-0.474,1.205-0.708,1.808
		c-3.538-0.169-7.076-0.336-10.616-0.505c-0.438,0.636-0.878,1.271-1.316,1.905C352.132,302.603,354.838,303.906,357.546,305.212z
		 M308.084,299.581c-0.312-0.626-0.623-1.251-0.936-1.876c-2.973,0.658-6.239,0.75-8.859,2.099
		c-4.657,2.397-8.927,5.559-13.357,8.399c3.578,5.229,6.505,11.138,10.973,15.447c2.855,2.751,7.987,3.144,13.769,5.182
		c2.125-3.474,4.782-7.813,8.151-13.321c-6.86-0.346-11.502-0.58-17.004-0.857c1.683-2.342,3.053-4.256,4.088-5.697
		c-2.354-0.835-4.188-1.49-7.456-2.653C302.003,303.424,305.042,301.503,308.084,299.581z M323.806,311.843
		c-0.831,2.481-2.253,5.028-2.44,7.663c-0.321,4.491-1.594,11.459,0.627,13.042c4.256,3.03,11.107,4.869,16.085,3.728
		c4.821-1.108,11.264-5.939,12.331-10.278c1.923-7.835-5.112-8.646-11.24-8.106c-0.256,2.555-0.52,5.147-0.889,8.826
		C332.831,321.116,328.684,316.854,323.806,311.843z M164.364,315.098c-3.524,0.238-8.26,0.56-12.994,0.879
		c-0.519,0.972-1.037,1.944-1.556,2.916c3.797,3.035,7.555,8.501,11.395,8.56c6.444,0.098,22.747-15.984,21.173-19.054
		c-4.701-9.179-14.025-8.729-23.022-8.937c3.039,1.925,6.078,3.854,8.802,5.583C166.859,308.492,165.702,311.553,164.364,315.098z
		 M122.376,316.981c-1.223,0.171-2.444,0.339-3.667,0.51c0,4.077-1.682,9.579,0.33,11.95c5.154,6.078,21.587,7.82,26.282,4.154
		c4.67-3.645,3.432-11.773-2.567-20.541c-4.064,4.057-8.235,8.22-12.584,12.557C127.603,322.768,124.99,319.873,122.376,316.981z
		 M355.702,280.833c1.849-2.349,4.923-6.254,7.568-9.612c-2.63-3.82-4.456-6.447-6.252-9.097c-1.488-2.203-2.812-6.187-4.43-6.305
		c-3.959-0.289-9.281-0.054-11.732,2.344c-2.355,2.303-2.115,7.573-2.338,11.576c-0.084,1.476,1.765,3.06,3.499,5.812
		c1.649-3.332,2.914-5.885,4.178-8.441c0.924,0.758,1.849,1.518,2.771,2.275c-1.042,3.184-2.085,6.372-2.529,7.73
		C349.224,278.233,351.361,279.09,355.702,280.833z M126.364,274.74c1.101-3.64,3.117-6.773,2.577-9.376
		c-0.752-3.625-3.075-9.394-5.336-9.7c-4.138-0.555-9.619,1.165-12.858,3.916c-2.929,2.487-3.615,7.615-5.899,13.023
		c2.423,2.757,5.691,6.473,9.715,11.05c0.623-3.392,0.947-5.154,1.308-7.119c2.305,1.024,4.017,1.786,5.897,2.62
		c-1.146-3.645-2.145-6.824-3.144-10.002c0.706-0.311,1.411-0.617,2.117-0.925C122.438,270.194,124.135,272.16,126.364,274.74z
		 M168.054,289.168c15.608,2.693,15.608,2.693,18.52-13.78c-3.306-2.847-6.098-5.245-10.152-8.734
		c-3.25,1.91-8.093,4.753-10.32,6.062c0.993,4.806,1.507,7.304,2.054,9.948c2.513-0.551,4.991-1.095,7.47-1.638
		c0.314,0.585,0.628,1.168,0.942,1.752C173.756,284.888,170.946,286.997,168.054,289.168z M298.119,282.451
		c1.634-3.48,2.825-6.016,4.469-9.52c-3.878-2.049-8.837-4.674-11.296-5.979c-5.091,3.873-7.92,6.026-10.934,8.316
		c1.133,4.362,1,10.566,4.029,13.447c2.566,2.443,8.79,1.037,14.903,1.434c-3.878-3.694-6.086-5.797-8.294-7.898
		c0.397-0.494,0.794-0.987,1.191-1.48C294.395,281.395,296.603,282.021,298.119,282.451z M338.926,292.748
		c-6.203-4.119-10.014-8.274-14.331-8.898c-2.534-0.365-5.88,4.896-8.862,7.623c4.108,4.004,7.962,8.379,12.625,11.568
		C328.984,303.464,333.704,297.903,338.926,292.748z M128.736,292.497c4.908,5.173,7.648,8.062,10.391,10.952
		c4.133-3.953,8.265-7.901,12.396-11.854c-2.833-2.862-6.125-8.405-8.405-8.017C138.707,284.332,134.866,288.427,128.736,292.497z"
		/>
	<path fill-rule="evenodd" clip-rule="evenodd" fill="#FFFFFF" d="M230.751,117.186c10.576,8.813,22.646,18.483,34.133,28.801
		c2.034,1.828,3.405,7.874,2.095,9.393c-9.32,10.795-19.417,20.92-30.072,32.106c-1.232-1.146-3.431-3.109-5.537-5.164
		c-8.072-7.876-16.098-15.796-24.172-23.67c-3.058-2.985-8.077-5.16-3.204-10.68C213.785,136.884,223.409,125.648,230.751,117.186z
		 M233.52,127.335c-7.049,8.51-13.759,16.611-19.807,23.911c8.293,8.253,16.454,16.372,24.559,24.434
		c5.567-7.173,11.979-15.44,18.444-23.771C248.606,143.318,240.893,135.146,233.52,127.335z"/>
	<path fill-rule="evenodd" clip-rule="evenodd" fill="#FFFFFF" d="M232.585,95.066c-6.534-18.931-14.345-37.78-10.956-58.551
		c0.738-4.522,6.633-8.204,10.151-12.272c3.508,4.157,10.068,8.362,10.003,12.462c-0.307,19.412-2.423,38.795-3.894,58.188
		C236.121,94.949,234.353,95.008,232.585,95.066z"/>
	<path fill-rule="evenodd" clip-rule="evenodd" fill="#FFFFFF" d="M256.809,107.967c0.259-19.012,17.422-40.882,35.195-44.237
		c6.029-1.137,13.339-2.391,15.918,5.281c2.511,7.464-3.665,10.826-9.162,14.049C284.914,91.182,271.148,99.441,256.809,107.967z"/>
	<path fill-rule="evenodd" clip-rule="evenodd" fill="#FFFFFF" d="M212.238,107.922c-15.684-9.284-30.973-17.811-45.57-27.392
		c-3.096-2.029-3.669-7.904-5.404-12.008c4.135-1.749,8.353-5.159,12.393-4.959C192.191,64.471,210.525,85.811,212.238,107.922z"/>
	<path fill-rule="evenodd" clip-rule="evenodd" fill="#FFFFFF" d="M243.863,98.659c0.155-18.594,5.835-32.121,17.903-42.377
		c2.558-2.174,8.026-0.921,12.155-1.247c-0.393,4.102,0.717,9.421-1.445,12.091C264.157,77.394,254.79,86.812,243.863,98.659z"/>
	<path fill-rule="evenodd" clip-rule="evenodd" fill="#FFFFFF" d="M222.967,96.3c-9.342-10.164-18.795-19.91-27.467-30.309
		c-1.894-2.272-2.139-7.351-0.937-10.211c0.661-1.572,6.301-2.401,9.038-1.519C215.518,58.102,226.889,82.969,222.967,96.3z"/>
	<path fill-rule="evenodd" clip-rule="evenodd" fill="#FFFFFF" d="M207.607,120.482c-12.151,0.697-21.732,2.111-31.156,1.414
		c-4.463-0.328-8.629-4.686-12.93-7.217c3.902-3.106,7.507-8.327,11.763-8.926C188.054,103.954,198.091,109.982,207.607,120.482z"/>
	<path fill-rule="evenodd" clip-rule="evenodd" fill="#FFFFFF" d="M261,120.622c9.931-10.46,20.166-16.814,33.372-14.725
		c3.96,0.626,7.232,5.59,10.819,8.566c-3.858,2.601-7.59,7.159-11.599,7.42C283.543,122.538,273.372,121.248,261,120.622z"/>
	<path fill-rule="evenodd" clip-rule="evenodd" fill="#FFFFFF" d="M235.709,235.754c-4.438-5.044-8.425-9.576-12.95-14.72
		c2.937-3.816,6.584-8.557,10.213-13.273C250.554,216.372,251.146,220.898,235.709,235.754z"/>
	<path fill-rule="evenodd" clip-rule="evenodd" fill="#FFFFFF" d="M233.102,421.717c-2.109,1.64-3.683,2.955-5.347,4.141
		c-7.142,5.092-14.7,10.523-23.685,5.719c-9.061-4.846-14.955-13.428-14.104-23.642c0.775-9.296,3.391-19.021,7.607-27.337
		c9.495-18.728,20.456-36.715,30.896-54.958c1.314-2.297,3.085-4.328,5.167-7.203c2.121,2.297,4.026,3.747,5.133,5.659
		c10.202,17.614,21.425,34.77,29.92,53.181c4.837,10.479,6.613,22.989,7.059,34.69c0.386,10.116-5.95,18.104-16.348,21.618
		c-10.427,3.525-17.096-2.019-23.102-9.363C235.673,423.463,234.72,422.968,233.102,421.717z M253.32,370.4
		c2.227,9.821,5.37,17.497,5.277,25.135c-0.082,6.907-3.699,13.772-5.383,19.402C266.384,410.621,267.731,394.596,253.32,370.4z
		 M214.369,370.813c-15.215,23.212-12.675,43.389,3.193,44.358C200.842,402.968,211.259,387.533,214.369,370.813z"/>
	<path fill-rule="evenodd" clip-rule="evenodd" fill="#FFFFFF" d="M243.485,442.823c-3.991,3.422-7.073,6.063-10.685,9.156
		c-2.384-3.434-5.049-7.273-8.024-11.563c1.225-1.041,4.269-3.63,7.923-6.739C236.051,436.516,239.107,439.107,243.485,442.823z"/>
	<path fill-rule="evenodd" clip-rule="evenodd" fill="#FFFFFF" d="M234.298,295.997c-2.31-4.082-4.708-6.465-4.6-8.73
		c0.081-1.704,3.837-4.883,5.136-4.516c2.282,0.646,5.284,3.395,5.46,5.477C240.456,290.143,237.296,292.338,234.298,295.997z"/>
	<path fill-rule="evenodd" clip-rule="evenodd" fill="#FFFFFF" d="M235.449,620.234c2.736,6.101,5.471,12.197,9.061,20.205
		c-4.674,0.619-9.417,1.853-14.126,1.727c-6.156-0.162-12.306-1.257-18.409-2.261c-1.898-0.311-4.391-1.181-5.214-2.604
		c-0.707-1.225-0.029-4.681,1.076-5.303c17.761-9.983,22.498-26.812,24.398-45.258c0.037-0.355,1.058-0.609,2.734-1.508
		c0.955,4.416,2.224,8.505,2.668,12.683c1.398,13.146,6.97,23.52,18.203,31.025c2.577,1.722,3.544,5.851,5.249,8.871
		c-4.028-0.37-9.405,0.752-11.808-1.418c-4.958-4.481-8.332-10.719-12.355-16.229C236.435,620.187,235.941,620.211,235.449,620.234z
		"/>
	<path fill-rule="evenodd" clip-rule="evenodd" fill="#FFFFFF" d="M241.211,569.294c-2.302,2.574-4.665,5.215-7.582,8.471
		c-3.166-3.338-5.65-5.96-8.08-8.523C232.951,560.101,232.951,560.101,241.211,569.294z"/>
	<path fill-rule="evenodd" clip-rule="evenodd" fill="#FFFFFF" d="M236.521,168.194c-18.168-13.169-18.179-13.297-0.862-33.765
		c5.467,5.656,10.737,11.104,16.101,16.652C245.389,158.236,240.943,163.229,236.521,168.194z"/>
</g>
</svg>
