<svg xmlns="http://www.w3.org/2000/svg" width="23.598" height="22.076" viewBox="50.792 66.444 23.598 22.076" enable-background="new 50.792 66.444 23.598 22.076"><path fill="#fff" d="M71.652 73.937h-2.98v-2.699l.653-2.229v-2.563h-4.175s-1.071 2.354-1.448 3.264c-1.241 2.995-2.521 6.088-5.173 6.604v-1.328h-7.737v13.068h7.737v-1.129h2.625l2.918 1.598h7.098l3.22-2.875v-9.927l-2.738-1.784zm-7.121 12.917l-2.834-1.599-3.159.003v-7.264l.086-.012c3.68-.551 5.239-4.318 6.616-7.643.258-.624.807-1.871.968-2.234h1.454v.851l-.653 2.229v4.414h4.203l1.516.967v8.453l-2.096 1.834h-6.101v.001z"/></svg>