<svg xmlns="http://www.w3.org/2000/svg" width="22.566" height="22.137" viewBox="51.314 66.421 22.566 22.137" enable-background="new 51.314 66.421 22.566 22.137"><path fill="#fff" d="M73.881 71.208h-2.99v2.992h-1.496v-2.992h-2.995v-1.496h2.992v-2.992h1.496v2.992h2.99l.003 1.496zm-8.458 12.374c0 2.244-2.048 4.977-7.198 4.977-3.77 0-6.91-1.625-6.91-4.357 0-2.109 1.336-4.85 7.578-4.85-.93-.758-1.154-1.813-.588-2.956-3.654 0-5.525-2.147-5.525-4.876 0-2.669 1.981-5.098 6.033-5.098h6.483l-1.448 1.521h-1.703c1.199.688 1.84 2.104 1.84 3.667 0 1.435-.789 2.597-1.916 3.468-2 1.545-1.486 2.407.605 3.938 2.066 1.543 2.749 2.737 2.749 4.566zm-4.046-11.875c-.301-2.295-1.797-4.179-3.543-4.229-1.748-.055-2.92 1.705-2.618 4 .304 2.296 1.966 3.896 3.711 3.949 1.746.052 2.753-1.426 2.45-3.72zm1.803 12.106c0-1.89-1.725-3.688-4.611-3.688-2.604-.026-4.813 1.646-4.813 3.586 0 1.98 1.883 3.629 4.485 3.629 3.329-.001 4.939-1.548 4.939-3.527z"/></svg>