<?xml version="1.0" encoding="utf-8"?>
<!-- Generator: Adobe Illustrator 16.0.0, SVG Export Plug-In . SVG Version: 6.00 Build 0)  -->
<!DOCTYPE svg PUBLIC "-//W3C//DTD SVG 1.1//EN" "http://www.w3.org/Graphics/SVG/1.1/DTD/svg11.dtd">
<svg version="1.1" id="Layer_1" xmlns="http://www.w3.org/2000/svg" xmlns:xlink="http://www.w3.org/1999/xlink" x="0px" y="0px"
	 width="16.893px" height="21.822px" viewBox="53.68 66.443 16.893 21.822" enable-background="new 53.68 66.443 16.893 21.822"
	 xml:space="preserve">
<path id="pinterest-icon" fill="#FA2A4A" d="M62.637,66.443c-5.955,0-8.957,4.27-8.957,7.831c0,2.156,0.815,4.074,2.566,4.789
	c0.287,0.117,0.544,0.004,0.627-0.314c0.059-0.22,0.195-0.774,0.256-1.006c0.084-0.313,0.053-0.425-0.18-0.699
	c-0.504-0.595-0.828-1.366-0.828-2.458c0-3.168,2.371-6.004,6.172-6.004c3.365,0,5.215,2.058,5.215,4.803
	c0,3.614-1.6,6.665-3.974,6.665c-1.312,0-2.293-1.085-1.979-2.415c0.377-1.588,1.107-3.302,1.107-4.447
	c0-1.025-0.551-1.882-1.691-1.882c-1.34,0-2.416,1.387-2.416,3.244c0,1.184,0.399,1.983,0.399,1.983s-1.372,5.813-1.613,6.831
	c-0.479,2.027-0.071,4.512-0.036,4.763c0.02,0.149,0.211,0.185,0.297,0.072c0.123-0.161,1.721-2.132,2.262-4.102
	c0.154-0.559,0.883-3.445,0.883-3.445c0.436,0.83,1.708,1.562,3.063,1.562c4.029,0,6.764-3.674,6.764-8.59
	C70.572,69.906,67.423,66.443,62.637,66.443z"/>
</svg>
