<?xml version="1.0" encoding="utf-8"?>
<!-- Generator: Adobe Illustrator 16.0.0, SVG Export Plug-In . SVG Version: 6.00 Build 0)  -->
<!DOCTYPE svg PUBLIC "-//W3C//DTD SVG 1.1//EN" "http://www.w3.org/Graphics/SVG/1.1/DTD/svg11.dtd">
<svg version="1.1" id="Layer_1" xmlns="http://www.w3.org/2000/svg" xmlns:xlink="http://www.w3.org/1999/xlink" x="0px" y="0px"
	 width="23.597px" height="22.076px" viewBox="50.792 66.444 23.597 22.076" enable-background="new 50.792 66.444 23.597 22.076"
	 xml:space="preserve">
<path id="facebook-like-icon" fill="#FA2A4A" d="M71.652,73.937h-2.98v-2.7l0.653-2.229v-2.563H65.15c0,0-1.071,2.354-1.448,3.263
	c-1.241,2.995-2.522,6.088-5.173,6.604v-1.328h-7.737v13.068h7.737v-1.129h2.625l2.918,1.598h7.098l3.219-2.876v-9.926
	L71.652,73.937z M64.531,86.855l-2.834-1.599l-3.159,0.003v-7.264c0.026-0.004,0.056-0.008,0.086-0.012
	c3.679-0.551,5.239-4.318,6.616-7.642c0.258-0.624,0.807-1.871,0.968-2.235h1.454v0.851l-0.653,2.229V75.6h4.203l1.515,0.967v8.453
	l-2.095,1.835H64.531L64.531,86.855z"/>
</svg>
