<?xml version="1.0" encoding="utf-8"?>
<!-- Generator: Adobe Illustrator 16.0.0, SVG Export Plug-In . SVG Version: 6.00 Build 0)  -->
<!DOCTYPE svg PUBLIC "-//W3C//DTD SVG 1.1//EN" "http://www.w3.org/Graphics/SVG/1.1/DTD/svg11.dtd">
<svg version="1.1" id="Layer_1" xmlns="http://www.w3.org/2000/svg" xmlns:xlink="http://www.w3.org/1999/xlink" x="0px" y="0px"
	 width="22.568px" height="22.136px" viewBox="51.313 66.421 22.568 22.136" enable-background="new 51.313 66.421 22.568 22.136"
	 xml:space="preserve">
<g id="google-plus-icon">
	<path fill="#FA2A4A" d="M73.881,71.208h-2.992V74.2h-1.496v-2.992H66.4v-1.496h2.992v-2.992h1.496v2.992h2.992V71.208z
		 M65.423,83.582c0,2.243-2.048,4.975-7.2,4.975c-3.768,0-6.91-1.625-6.91-4.359c0-2.109,1.336-4.848,7.578-4.848
		c-0.928-0.756-1.154-1.813-0.588-2.956c-3.654,0-5.525-2.148-5.525-4.876c0-2.669,1.983-5.097,6.033-5.097c1.021,0,6.485,0,6.485,0
		l-1.45,1.521h-1.703c1.201,0.688,1.84,2.104,1.84,3.667c0,1.434-0.789,2.595-1.916,3.466c-2,1.545-1.486,2.409,0.607,3.938
		C64.74,80.559,65.423,81.754,65.423,83.582z M61.377,71.706c-0.301-2.295-1.797-4.178-3.543-4.229c-1.748-0.053-2.92,1.705-2.618,4
		c0.302,2.296,1.964,3.898,3.711,3.951C60.673,75.479,61.68,74.002,61.377,71.706z M63.18,83.813c0-1.889-1.723-3.688-4.611-3.688
		c-2.604-0.028-4.813,1.646-4.813,3.586c0,1.98,1.881,3.628,4.485,3.628C61.57,87.34,63.18,85.792,63.18,83.813z"/>
</g>
</svg>
