<?xml version="1.0" encoding="utf-8"?>
<!-- Generator: Adobe Illustrator 16.0.0, SVG Export Plug-In . SVG Version: 6.00 Build 0)  -->
<!DOCTYPE svg PUBLIC "-//W3C//DTD SVG 1.1//EN" "http://www.w3.org/Graphics/SVG/1.1/DTD/svg11.dtd">
<svg version="1.1" id="Layer_1" xmlns="http://www.w3.org/2000/svg" xmlns:xlink="http://www.w3.org/1999/xlink" x="0px" y="0px"
	 width="25px" height="22.145px" viewBox="0 0 25 22.145" enable-background="new 0 0 25 22.145" xml:space="preserve">
<path id="twitter-icon" fill="#FA2A4A" d="M25,2.621c-0.92,0.444-1.908,0.746-2.946,0.881c1.059-0.692,1.873-1.788,2.256-3.093
	c-0.992,0.641-2.09,1.105-3.258,1.356C20.116,0.679,18.783,0,17.308,0c-3.311,0-5.744,3.368-4.996,6.865
	C8.049,6.632,4.271,4.406,1.74,1.024C0.397,3.536,1.044,6.824,3.327,8.489c-0.84-0.029-1.633-0.28-2.323-0.699
	c-0.056,2.59,1.647,5.012,4.114,5.551c-0.723,0.215-1.514,0.264-2.316,0.096c0.652,2.223,2.547,3.838,4.791,3.883
	C5.437,19.161,2.722,19.983,0,19.634c2.271,1.586,4.966,2.512,7.862,2.512c9.522,0,14.902-8.766,14.578-16.629
	C23.442,4.728,24.312,3.743,25,2.621z"/>
</svg>
