<svg xmlns="http://www.w3.org/2000/svg" width="24.998" height="22.146" viewBox="49.794 66.441 24.998 22.146" enable-background="new 49.794 66.441 24.998 22.146"><path fill="#fff" d="M74.792 69.064c-.92.442-1.908.746-2.946.881 1.059-.692 1.873-1.788 2.256-3.093-.992.641-2.09 1.104-3.258 1.354-.936-1.087-2.269-1.766-3.744-1.766-3.311 0-5.744 3.368-4.996 6.865-4.263-.233-8.041-2.459-10.569-5.844-1.345 2.515-.696 5.803 1.587 7.467-.842-.029-1.635-.28-2.323-.699-.056 2.59 1.646 5.012 4.114 5.552-.725.214-1.516.263-2.314.096.65 2.224 2.547 3.837 4.789 3.882-2.154 1.845-4.869 2.665-7.593 2.315 2.271 1.586 4.966 2.512 7.86 2.512 9.522 0 14.902-8.767 14.578-16.63 1.001-.785 1.871-1.77 2.559-2.892z"/></svg>