<svg xmlns="http://www.w3.org/2000/svg" width="16.896" height="21.823" viewBox="53.68 66.442 16.896 21.823" enable-background="new 53.68 66.442 16.896 21.823"><path fill="#fff" d="M62.637 66.442c-5.955 0-8.957 4.271-8.957 7.832 0 2.156.815 4.074 2.566 4.789.287.117.544.004.627-.314l.256-1.006c.084-.313.053-.426-.18-.699-.506-.595-.828-1.366-.828-2.458 0-3.168 2.371-6.004 6.172-6.004 3.365 0 5.215 2.058 5.215 4.803 0 3.614-1.6 6.665-3.974 6.665-1.313 0-2.293-1.085-1.979-2.415.377-1.588 1.107-3.302 1.107-4.446 0-1.024-.553-1.883-1.691-1.883-1.34 0-2.416 1.387-2.416 3.244 0 1.184.399 1.983.399 1.983l-1.613 6.831c-.479 2.027-.071 4.512-.036 4.763.021.149.211.185.297.072.123-.161 1.723-2.132 2.262-4.103.154-.56.885-3.445.885-3.445.436.83 1.708 1.563 3.063 1.563 4.029 0 6.766-3.674 6.766-8.59-.006-3.718-3.155-7.182-7.941-7.182z"/></svg>