<?xml version="1.0" encoding="utf-8"?>
<!-- Generator: Adobe Illustrator 18.0.0, SVG Export Plug-In . SVG Version: 6.00 Build 0)  -->
<!DOCTYPE svg PUBLIC "-//W3C//DTD SVG 1.1//EN" "http://www.w3.org/Graphics/SVG/1.1/DTD/svg11.dtd">
<svg version="1.1" id="Vector_Graphics" xmlns="http://www.w3.org/2000/svg" xmlns:xlink="http://www.w3.org/1999/xlink" x="0px"
	 y="0px" viewBox="0 0 411 411" enable-background="new 0 0 411 411" xml:space="preserve">
<g>
	<circle fill-rule="evenodd" clip-rule="evenodd" fill="#151E28" cx="205.5" cy="205.5" r="205.5"/>
	<path fill-rule="evenodd" clip-rule="evenodd" fill="#FF616E" d="M296.7,206c0,50.1-40.6,90.7-90.7,90.7s-90.7-40.6-90.7-90.7
		c0-50.1,40.6-90.7,90.7-90.7S296.7,155.8,296.7,206z"/>
	<circle display="none" fill-rule="evenodd" clip-rule="evenodd" fill="#151E28" cx="205.5" cy="205.5" r="10.4"/>
	<g>
		<g>
			<g>
				<linearGradient id="SVGID_1_" gradientUnits="userSpaceOnUse" x1="1.9067" y1="205.5114" x2="409.1162" y2="205.5114">
					<stop  offset="0" style="stop-color:#242C36"/>
					<stop  offset="0.5" style="stop-color:#61666D"/>
					<stop  offset="1" style="stop-color:#242C36"/>
				</linearGradient>
				<path fill-rule="evenodd" clip-rule="evenodd" fill="url(#SVGID_1_)" d="M408.4,205.5c0,27.4-5.4,54-15.9,79
					c-10.2,24.2-24.8,45.9-43.5,64.5c-18.6,18.6-40.3,33.3-64.5,43.5c-25,10.6-51.6,15.9-79,15.9s-54-5.4-79-15.9
					c-24.2-10.2-45.9-24.8-64.5-43.5c-18.6-18.6-33.3-40.3-43.5-64.5c-10.6-25-15.9-51.6-15.9-79s5.4-54,15.9-79
					c10.2-24.2,24.8-45.9,43.5-64.5c18.6-18.6,40.3-33.3,64.5-43.5c25-10.6,51.6-15.9,79-15.9s54,5.4,79,15.9
					c24.2,10.2,45.9,24.8,64.5,43.5c18.6,18.6,33.3,40.3,43.5,64.5C403,151.6,408.4,178.1,408.4,205.5z M205.5,1.9
					c-27.5,0-54.1,5.4-79.3,16c-24.2,10.3-46,24.9-64.7,43.6C42.8,80.2,28.2,102,17.9,126.3c-10.6,25.1-16,51.8-16,79.3
					c0,27.5,5.4,54.1,16,79.2c10.3,24.2,24.9,46,43.6,64.7c18.7,18.7,40.5,33.4,64.7,43.6c25.1,10.6,51.8,16,79.3,16
					c27.5,0,54.1-5.4,79.3-16c24.2-10.3,46-24.9,64.7-43.6c18.7-18.7,33.4-40.5,43.6-64.7c10.6-25.1,16-51.8,16-79.2
					c0-27.5-5.4-54.1-16-79.3c-10.3-24.2-24.9-46-43.6-64.7c-18.7-18.7-40.5-33.4-64.7-43.6C259.7,7.3,233,1.9,205.5,1.9z"/>
			</g>
		</g>
		<g>
			<linearGradient id="SVGID_2_" gradientUnits="userSpaceOnUse" x1="3.8843" y1="205.511" x2="407.1387" y2="205.511">
				<stop  offset="0" style="stop-color:#242C36"/>
				<stop  offset="0.5" style="stop-color:#61666D"/>
				<stop  offset="1" style="stop-color:#242C36"/>
			</linearGradient>
			<path fill-rule="evenodd" clip-rule="evenodd" fill="url(#SVGID_2_)" d="M406.4,205.5c0,27.1-5.3,53.4-15.8,78.2
				c-10.1,23.9-24.6,45.4-43.1,63.9c-18.5,18.5-39.9,32.9-63.9,43.1c-24.8,10.5-51.1,15.8-78.2,15.8c-27.1,0-53.4-5.3-78.2-15.8
				c-23.9-10.1-45.4-24.6-63.9-43.1c-18.5-18.5-32.9-39.9-43.1-63.9C9.9,258.9,4.6,232.6,4.6,205.5c0-27.1,5.3-53.4,15.8-78.2
				C30.5,103.4,45,81.9,63.4,63.5c18.5-18.5,39.9-32.9,63.9-43.1c24.8-10.5,51.1-15.8,78.2-15.8c27.1,0,53.4,5.3,78.2,15.8
				c23.9,10.1,45.4,24.6,63.9,43.1c18.5,18.5,32.9,39.9,43.1,63.9C401.1,152.1,406.4,178.4,406.4,205.5z M205.5,3.9
				c-27.2,0-53.6,5.3-78.5,15.8c-24,10.2-45.6,24.7-64.1,43.2C44.4,81.5,29.9,103,19.7,127C9.2,151.9,3.9,178.3,3.9,205.5
				c0,27.2,5.3,53.6,15.8,78.5c10.2,24,24.7,45.6,43.2,64.1c18.5,18.5,40.1,33.1,64.1,43.2c24.9,10.5,51.3,15.8,78.5,15.8
				c27.2,0,53.6-5.3,78.5-15.8c24-10.2,45.6-24.7,64.1-43.2c18.5-18.5,33.1-40.1,43.2-64.1c10.5-24.9,15.8-51.3,15.8-78.5
				c0-27.2-5.3-53.6-15.8-78.5c-10.2-24-24.7-45.6-43.2-64.1C329.6,44.4,308,29.9,284,19.7C259.1,9.2,232.7,3.9,205.5,3.9z"/>
		</g>
		<g>
			<linearGradient id="SVGID_3_" gradientUnits="userSpaceOnUse" x1="5.8623" y1="205.5078" x2="405.1572" y2="205.5078">
				<stop  offset="0" style="stop-color:#242C36"/>
				<stop  offset="0.5" style="stop-color:#61666D"/>
				<stop  offset="1" style="stop-color:#242C36"/>
			</linearGradient>
			<path fill-rule="evenodd" clip-rule="evenodd" fill="url(#SVGID_3_)" d="M404.4,205.5c0,26.9-5.3,52.9-15.6,77.4
				c-10,23.7-24.4,45-42.6,63.2c-18.3,18.3-39.5,32.6-63.2,42.6c-24.5,10.4-50.6,15.6-77.4,15.6c-26.9,0-52.9-5.3-77.4-15.6
				c-23.7-10-45-24.4-63.2-42.6c-18.3-18.3-32.6-39.5-42.6-63.2c-10.4-24.5-15.6-50.6-15.6-77.4c0-26.9,5.3-52.9,15.6-77.4
				c10-23.7,24.4-45,42.6-63.2c18.3-18.3,39.5-32.6,63.2-42.6c24.5-10.4,50.6-15.6,77.4-15.6c26.9,0,52.9,5.3,77.4,15.6
				c23.7,10,45,24.4,63.2,42.6c18.3,18.3,32.6,39.5,42.6,63.2C399.2,152.6,404.4,178.7,404.4,205.5z M205.5,5.9
				c-27,0-53.1,5.3-77.7,15.7C104,31.6,82.7,46,64.3,64.3C46,82.7,31.6,104,21.6,127.8c-10.4,24.6-15.7,50.8-15.7,77.7
				c0,27,5.3,53.1,15.7,77.7C31.6,307,46,328.3,64.3,346.7c18.3,18.3,39.7,32.7,63.5,42.8c24.6,10.4,50.8,15.7,77.7,15.7
				c27,0,53.1-5.3,77.7-15.7c23.8-10.1,45.1-24.5,63.5-42.8c18.3-18.3,32.7-39.7,42.8-63.5c10.4-24.6,15.7-50.8,15.7-77.7
				c0-27-5.3-53.1-15.7-77.7C379.4,104,365,82.7,346.7,64.3C328.3,46,307,31.6,283.2,21.5C258.6,11.1,232.5,5.9,205.5,5.9z"/>
		</g>
		<g>
			<linearGradient id="SVGID_4_" gradientUnits="userSpaceOnUse" x1="7.8432" y1="205.5085" x2="403.1797" y2="205.5085">
				<stop  offset="0" style="stop-color:#242C36"/>
				<stop  offset="0.5" style="stop-color:#61666D"/>
				<stop  offset="1" style="stop-color:#242C36"/>
			</linearGradient>
			<path fill-rule="evenodd" clip-rule="evenodd" fill="url(#SVGID_4_)" d="M402.5,205.5c0,26.6-5.2,52.4-15.5,76.7
				c-9.9,23.5-24.1,44.5-42.2,62.6c-18.1,18.1-39.2,32.3-62.6,42.2c-24.3,10.3-50.1,15.5-76.7,15.5c-26.6,0-52.4-5.2-76.7-15.5
				c-23.5-9.9-44.5-24.1-62.6-42.2C48.2,326.7,34,305.6,24,282.2c-10.3-24.3-15.5-50.1-15.5-76.7c0-26.6,5.2-52.4,15.5-76.7
				c9.9-23.4,24.1-44.5,42.2-62.6c18.1-18.1,39.2-32.3,62.6-42.2c24.3-10.3,50.1-15.5,76.7-15.5c26.6,0,52.4,5.2,76.7,15.5
				c23.5,9.9,44.5,24.1,62.6,42.2c18.1,18.1,32.3,39.2,42.2,62.6C397.3,153.1,402.5,178.9,402.5,205.5z M205.5,7.8
				c-26.7,0-52.6,5.2-76.9,15.5c-23.5,10-44.7,24.2-62.8,42.4C47.6,83.9,33.3,105,23.4,128.6c-10.3,24.4-15.5,50.3-15.5,76.9
				c0,26.7,5.2,52.6,15.5,76.9c10,23.5,24.2,44.7,42.4,62.8c18.2,18.2,39.3,32.4,62.8,42.4c24.4,10.3,50.3,15.5,76.9,15.5
				c26.7,0,52.6-5.2,76.9-15.5c23.5-10,44.7-24.2,62.8-42.4c18.2-18.2,32.4-39.3,42.4-62.8c10.3-24.4,15.5-50.3,15.5-76.9
				c0-26.7-5.2-52.6-15.5-76.9c-10-23.5-24.2-44.7-42.4-62.8c-18.2-18.2-39.3-32.4-62.8-42.4C258.1,13.1,232.2,7.8,205.5,7.8z"/>
		</g>
		<g>
			<linearGradient id="SVGID_5_" gradientUnits="userSpaceOnUse" x1="9.8247" y1="205.5114" x2="401.1982" y2="205.5114">
				<stop  offset="0" style="stop-color:#242C36"/>
				<stop  offset="0.5" style="stop-color:#61666D"/>
				<stop  offset="1" style="stop-color:#242C36"/>
			</linearGradient>
			<path fill-rule="evenodd" clip-rule="evenodd" fill="url(#SVGID_5_)" d="M400.5,205.5c0,26.3-5.2,51.9-15.3,75.9
				c-9.8,23.2-23.9,44.1-41.8,62c-17.9,17.9-38.8,32-62,41.8c-24,10.2-49.6,15.3-75.9,15.3s-51.9-5.2-75.9-15.3
				c-23.2-9.8-44.1-23.9-62-41.8c-17.9-17.9-32-38.8-41.8-62c-10.2-24-15.3-49.6-15.3-75.9c0-26.3,5.2-51.9,15.3-75.9
				c9.8-23.2,23.9-44.1,41.8-62c17.9-17.9,38.8-32,62-41.8c24-10.2,49.6-15.3,75.9-15.3s51.9,5.2,75.9,15.3
				c23.2,9.8,44.1,23.9,62,41.8c17.9,17.9,32,38.8,41.8,62C395.3,153.7,400.5,179.2,400.5,205.5z M205.5,9.8
				c-26.4,0-52,5.2-76.2,15.4c-23.3,9.9-44.2,24-62.2,41.9c-18,18-32.1,38.9-41.9,62.2C15,153.5,9.8,179.1,9.8,205.5
				s5.2,52,15.4,76.2c9.9,23.3,24,44.2,41.9,62.2c18,18,38.9,32.1,62.2,41.9c24.1,10.2,49.8,15.4,76.2,15.4c26.4,0,52-5.2,76.2-15.4
				c23.3-9.9,44.2-24,62.2-41.9c18-18,32.1-38.9,41.9-62.2c10.2-24.1,15.4-49.7,15.4-76.2s-5.2-52-15.4-76.2
				c-9.9-23.3-24-44.2-41.9-62.2c-18-18-38.9-32.1-62.2-41.9C257.6,15,231.9,9.8,205.5,9.8z"/>
		</g>
		<g>
			<linearGradient id="SVGID_6_" gradientUnits="userSpaceOnUse" x1="11.8061" y1="205.5083" x2="399.2207" y2="205.5083">
				<stop  offset="0" style="stop-color:#242C36"/>
				<stop  offset="0.5" style="stop-color:#61666D"/>
				<stop  offset="1" style="stop-color:#242C36"/>
			</linearGradient>
			<path fill-rule="evenodd" clip-rule="evenodd" fill="url(#SVGID_6_)" d="M398.5,205.5c0,26.1-5.1,51.3-15.2,75.1
				c-9.7,23-23.6,43.6-41.4,61.4c-17.7,17.7-38.4,31.6-61.4,41.4c-23.8,10.1-49.1,15.2-75.1,15.2s-51.3-5.1-75.1-15.2
				c-23-9.7-43.6-23.6-61.4-41.4c-17.7-17.7-31.6-38.4-41.4-61.4c-10.1-23.8-15.2-49.1-15.2-75.1s5.1-51.3,15.2-75.1
				c9.7-23,23.6-43.6,41.4-61.4c17.7-17.7,38.4-31.6,61.4-41.4c23.8-10.1,49.1-15.2,75.1-15.2s51.3,5.1,75.1,15.2
				c23,9.7,43.6,23.6,61.4,41.4c17.7,17.7,31.6,38.4,41.4,61.4C393.4,154.2,398.5,179.5,398.5,205.5z M205.5,11.8
				c-26.1,0-51.5,5.1-75.4,15.2C107,36.8,86.3,50.7,68.5,68.5C50.8,86.3,36.8,107,27,130.1c-10.1,23.9-15.2,49.3-15.2,75.4
				c0,26.2,5.1,51.5,15.2,75.4c9.8,23.1,23.7,43.8,41.5,61.6c17.8,17.8,38.5,31.8,61.6,41.5c23.9,10.1,49.2,15.2,75.4,15.2
				c26.2,0,51.5-5.1,75.4-15.2c23.1-9.8,43.8-23.7,61.6-41.5c17.8-17.8,31.8-38.5,41.5-61.6c10.1-23.9,15.2-49.2,15.2-75.4
				c0-26.1-5.1-51.5-15.2-75.4c-9.8-23.1-23.7-43.8-41.5-61.6C324.7,50.7,304,36.8,280.9,27C257,16.9,231.7,11.8,205.5,11.8z"/>
		</g>
		<g>
			<linearGradient id="SVGID_7_" gradientUnits="userSpaceOnUse" x1="13.7871" y1="205.5117" x2="397.2392" y2="205.5117">
				<stop  offset="0" style="stop-color:#242C36"/>
				<stop  offset="0.5" style="stop-color:#61666D"/>
				<stop  offset="1" style="stop-color:#242C36"/>
			</linearGradient>
			<path fill-rule="evenodd" clip-rule="evenodd" fill="url(#SVGID_7_)" d="M396.6,205.5c0,25.8-5.1,50.8-15,74.4
				c-9.6,22.7-23.4,43.2-40.9,60.7c-17.5,17.5-38,31.3-60.7,40.9c-23.6,10-48.6,15-74.4,15s-50.8-5-74.4-15
				c-22.8-9.6-43.2-23.4-60.7-40.9c-17.5-17.5-31.3-38-40.9-60.7c-10-23.5-15-48.6-15-74.4c0-25.8,5.1-50.8,15-74.4
				c9.6-22.8,23.4-43.2,40.9-60.7c17.5-17.5,38-31.3,60.7-40.9c23.6-10,48.6-15,74.4-15s50.8,5,74.4,15
				c22.7,9.6,43.2,23.4,60.7,40.9c17.5,17.5,31.3,38,40.9,60.7C391.5,154.7,396.6,179.7,396.6,205.5z M205.5,13.8
				c-25.9,0-51,5.1-74.6,15.1c-22.8,9.7-43.3,23.5-60.9,41.1c-17.6,17.6-31.4,38.1-41.1,60.9c-10,23.6-15.1,48.7-15.1,74.6
				c0,25.9,5.1,51,15.1,74.6c9.7,22.8,23.5,43.3,41.1,60.9c17.6,17.6,38.1,31.4,60.9,41.1c23.6,10,48.7,15.1,74.6,15.1
				s51-5.1,74.6-15.1c22.8-9.7,43.3-23.5,60.9-41.1c17.6-17.6,31.4-38.1,41.1-60.9c10-23.6,15.1-48.7,15.1-74.6
				c0-25.9-5.1-51-15.1-74.6c-9.7-22.8-23.5-43.3-41.1-60.9c-17.6-17.6-38.1-31.4-60.9-41.1C256.5,18.9,231.4,13.8,205.5,13.8z"/>
		</g>
		<g>
			<linearGradient id="SVGID_8_" gradientUnits="userSpaceOnUse" x1="15.7646" y1="205.5119" x2="395.2588" y2="205.5119">
				<stop  offset="0" style="stop-color:#242C36"/>
				<stop  offset="0.5" style="stop-color:#61666D"/>
				<stop  offset="1" style="stop-color:#242C36"/>
			</linearGradient>
			<path fill-rule="evenodd" clip-rule="evenodd" fill="url(#SVGID_8_)" d="M394.6,205.5c0,25.5-5,50.3-14.9,73.6
				c-9.5,22.5-23.2,42.7-40.5,60.1c-17.4,17.4-37.6,31-60.1,40.5c-23.3,9.9-48.1,14.9-73.6,14.9s-50.3-5-73.6-14.9
				c-22.5-9.5-42.7-23.2-60.1-40.5c-17.4-17.4-31-37.6-40.5-60.1c-9.9-23.3-14.9-48.1-14.9-73.6c0-25.5,5-50.3,14.9-73.6
				c9.5-22.5,23.2-42.7,40.5-60.1c17.4-17.4,37.6-31,60.1-40.5c23.3-9.9,48.1-14.9,73.6-14.9s50.3,5,73.6,14.9
				c22.5,9.5,42.7,23.2,60.1,40.5c17.4,17.4,31,37.6,40.5,60.1C389.6,155.2,394.6,180,394.6,205.5z M205.5,15.8
				c-25.6,0-50.5,5-73.9,14.9c-22.6,9.6-42.9,23.2-60.3,40.7c-17.4,17.4-31.1,37.7-40.7,60.3c-9.9,23.4-14.9,48.2-14.9,73.9
				c0,25.6,5,50.5,14.9,73.9c9.6,22.6,23.2,42.9,40.7,60.3c17.4,17.4,37.7,31.1,60.3,40.7c23.4,9.9,48.2,14.9,73.9,14.9
				c25.6,0,50.5-5,73.9-14.9c22.6-9.6,42.9-23.2,60.3-40.7c17.4-17.4,31.1-37.7,40.7-60.3c9.9-23.4,14.9-48.2,14.9-73.9
				c0-25.6-5-50.5-14.9-73.9c-9.6-22.6-23.2-42.9-40.7-60.3c-17.4-17.4-37.7-31.1-60.3-40.7C256,20.8,231.1,15.8,205.5,15.8z"/>
		</g>
		<g>
			<linearGradient id="SVGID_9_" gradientUnits="userSpaceOnUse" x1="17.7461" y1="205.5083" x2="393.2773" y2="205.5083">
				<stop  offset="0" style="stop-color:#242C36"/>
				<stop  offset="0.5" style="stop-color:#61666D"/>
				<stop  offset="1" style="stop-color:#242C36"/>
			</linearGradient>
			<path fill-rule="evenodd" clip-rule="evenodd" fill="url(#SVGID_9_)" d="M392.6,205.5c0,25.3-4.9,49.8-14.7,72.8
				c-9.4,22.3-22.9,42.3-40.1,59.5c-17.2,17.2-37.2,30.7-59.5,40.1c-23.1,9.8-47.6,14.7-72.8,14.7c-25.3,0-49.8-4.9-72.8-14.7
				c-22.3-9.4-42.3-22.9-59.5-40.1c-17.2-17.2-30.7-37.2-40.1-59.5c-9.8-23.1-14.7-47.6-14.7-72.8s4.9-49.8,14.7-72.8
				c9.4-22.3,22.9-42.3,40.1-59.5c17.2-17.2,37.2-30.7,59.5-40.1c23.1-9.8,47.6-14.7,72.8-14.7c25.3,0,49.8,4.9,72.8,14.7
				c22.3,9.4,42.3,22.9,59.5,40.1c17.2,17.2,30.7,37.2,40.1,59.5C387.7,155.8,392.6,180.3,392.6,205.5z M205.5,17.7
				c-25.3,0-49.9,5-73.1,14.8C110.1,42,90,55.5,72.7,72.7C55.5,90,42,110.1,32.5,132.4c-9.8,23.2-14.8,47.7-14.8,73.1
				s5,49.9,14.8,73.1c9.5,22.4,23,42.4,40.2,59.7c17.2,17.2,37.3,30.8,59.7,40.2c23.2,9.8,47.7,14.8,73.1,14.8
				c25.3,0,49.9-5,73.1-14.8c22.4-9.5,42.4-23,59.7-40.2c17.2-17.2,30.8-37.3,40.2-59.7c9.8-23.1,14.8-47.7,14.8-73.1
				s-5-49.9-14.8-73.1c-9.5-22.4-23-42.4-40.2-59.7C321,55.5,301,42,278.6,32.5C255.5,22.7,230.9,17.7,205.5,17.7z"/>
		</g>
		<g>
			<linearGradient id="SVGID_10_" gradientUnits="userSpaceOnUse" x1="19.7241" y1="205.5081" x2="391.2969" y2="205.5081">
				<stop  offset="0" style="stop-color:#242C36"/>
				<stop  offset="0.5" style="stop-color:#61666D"/>
				<stop  offset="1" style="stop-color:#242C36"/>
			</linearGradient>
			<path fill-rule="evenodd" clip-rule="evenodd" fill="url(#SVGID_10_)" d="M390.6,205.5c0,25-4.9,49.2-14.5,72.1
				c-9.3,22-22.7,41.8-39.7,58.8c-17,17-36.8,30.4-58.8,39.7c-22.8,9.7-47.1,14.5-72.1,14.5c-25,0-49.2-4.9-72.1-14.5
				c-22-9.3-41.8-22.7-58.8-39.7c-17-17-30.3-36.8-39.7-58.8c-9.7-22.8-14.5-47.1-14.5-72.1c0-25,4.9-49.2,14.5-72.1
				c9.3-22,22.7-41.8,39.7-58.8c17-17,36.8-30.3,58.8-39.7c22.8-9.7,47.1-14.6,72.1-14.6c25,0,49.2,4.9,72.1,14.6
				c22,9.3,41.8,22.7,58.8,39.7c17,17,30.3,36.8,39.7,58.8C385.7,156.3,390.6,180.5,390.6,205.5z M205.5,19.7
				c-25.1,0-49.4,4.9-72.3,14.6c-22.1,9.4-42,22.8-59.1,39.8c-17.1,17.1-30.5,36.9-39.8,59.1c-9.7,22.9-14.6,47.2-14.6,72.3
				c0,25.1,4.9,49.4,14.6,72.3c9.4,22.1,22.8,42,39.8,59.1c17.1,17.1,36.9,30.5,59.1,39.8c22.9,9.7,47.2,14.6,72.3,14.6
				c25.1,0,49.4-4.9,72.3-14.6c22.1-9.4,42-22.8,59.1-39.8c17.1-17.1,30.5-36.9,39.8-59.1c9.7-22.9,14.6-47.2,14.6-72.3
				c0-25.1-4.9-49.4-14.6-72.3c-9.4-22.1-22.8-42-39.8-59.1c-17.1-17.1-36.9-30.5-59.1-39.8C254.9,24.6,230.6,19.7,205.5,19.7z"/>
		</g>
		<g>
			<linearGradient id="SVGID_11_" gradientUnits="userSpaceOnUse" x1="21.7055" y1="205.5119" x2="389.3183" y2="205.5119">
				<stop  offset="0" style="stop-color:#242C36"/>
				<stop  offset="0.5" style="stop-color:#61666D"/>
				<stop  offset="1" style="stop-color:#242C36"/>
			</linearGradient>
			<path fill-rule="evenodd" clip-rule="evenodd" fill="url(#SVGID_11_)" d="M388.7,205.5c0,24.7-4.8,48.7-14.4,71.3
				c-9.2,21.8-22.4,41.4-39.2,58.2c-16.8,16.8-36.4,30-58.2,39.2c-22.6,9.6-46.6,14.4-71.3,14.4c-24.7,0-48.7-4.8-71.3-14.4
				C112.4,365,92.8,351.8,76,335c-16.8-16.8-30-36.4-39.2-58.2c-9.6-22.6-14.4-46.6-14.4-71.3s4.8-48.7,14.4-71.3
				C46,112.4,59.2,92.8,76,76c16.8-16.8,36.4-30,58.2-39.2c22.6-9.5,46.6-14.4,71.3-14.4c24.7,0,48.7,4.8,71.3,14.4
				C298.6,46,318.2,59.2,335,76c16.8,16.8,30,36.4,39.2,58.2C383.8,156.8,388.7,180.8,388.7,205.5z M205.5,21.7
				c-24.8,0-48.9,4.9-71.5,14.4c-21.9,9.3-41.5,22.5-58.4,39.4C58.7,92.4,45.4,112.1,36.1,134c-9.6,22.7-14.4,46.7-14.4,71.5
				c0,24.8,4.9,48.9,14.4,71.5c9.3,21.9,22.5,41.5,39.4,58.4c16.9,16.9,36.5,30.1,58.4,39.4c22.7,9.6,46.7,14.4,71.5,14.4
				s48.9-4.9,71.5-14.4c21.9-9.3,41.5-22.5,58.4-39.4c16.9-16.9,30.1-36.5,39.4-58.4c9.6-22.7,14.4-46.7,14.4-71.5
				c0-24.8-4.9-48.9-14.4-71.5c-9.3-21.9-22.5-41.5-39.4-58.4c-16.9-16.9-36.5-30.1-58.4-39.4C254.4,26.6,230.3,21.7,205.5,21.7z"/>
		</g>
		<g>
			<linearGradient id="SVGID_12_" gradientUnits="userSpaceOnUse" x1="23.6865" y1="205.5085" x2="387.3369" y2="205.5085">
				<stop  offset="0" style="stop-color:#242C36"/>
				<stop  offset="0.5" style="stop-color:#61666D"/>
				<stop  offset="1" style="stop-color:#242C36"/>
			</linearGradient>
			<path fill-rule="evenodd" clip-rule="evenodd" fill="url(#SVGID_12_)" d="M386.7,205.5c0,24.5-4.8,48.2-14.2,70.5
				c-9.1,21.6-22.2,41-38.8,57.6c-16.6,16.6-36,29.7-57.6,38.8c-22.3,9.4-46.1,14.2-70.5,14.2c-24.5,0-48.2-4.8-70.5-14.2
				c-21.6-9.1-40.9-22.2-57.6-38.8c-16.6-16.6-29.7-36-38.8-57.6c-9.4-22.3-14.2-46.1-14.2-70.5c0-24.5,4.8-48.2,14.2-70.5
				c9.1-21.6,22.2-40.9,38.8-57.6c16.6-16.6,36-29.7,57.6-38.8c22.3-9.4,46.1-14.2,70.5-14.2c24.5,0,48.2,4.8,70.5,14.2
				c21.6,9.1,40.9,22.2,57.6,38.8c16.6,16.6,29.7,36,38.8,57.6C381.9,157.3,386.7,181,386.7,205.5z M205.5,23.7
				c-24.5,0-48.4,4.8-70.8,14.3c-21.7,9.2-41.1,22.3-57.8,39c-16.7,16.7-29.8,36.1-39,57.8c-9.5,22.4-14.3,46.2-14.3,70.8
				c0,24.5,4.8,48.4,14.3,70.8c9.2,21.7,22.3,41.1,39,57.8c16.7,16.7,36.1,29.8,57.8,39c22.4,9.5,46.2,14.3,70.8,14.3
				c24.5,0,48.4-4.8,70.8-14.3c21.7-9.2,41.1-22.3,57.8-39c16.7-16.7,29.8-36.1,39-57.8c9.5-22.4,14.3-46.2,14.3-70.8
				c0-24.5-4.8-48.4-14.3-70.8c-9.2-21.6-22.3-41.1-39-57.8c-16.7-16.7-36.1-29.8-57.8-39C253.9,28.5,230.1,23.7,205.5,23.7z"/>
		</g>
		<g>
			<linearGradient id="SVGID_13_" gradientUnits="userSpaceOnUse" x1="25.664" y1="205.5083" x2="385.3555" y2="205.5083">
				<stop  offset="0" style="stop-color:#242C36"/>
				<stop  offset="0.5" style="stop-color:#61666D"/>
				<stop  offset="1" style="stop-color:#242C36"/>
			</linearGradient>
			<path fill-rule="evenodd" clip-rule="evenodd" fill="url(#SVGID_13_)" d="M384.7,205.5c0,24.2-4.7,47.7-14.1,69.8
				c-9,21.3-21.9,40.5-38.4,57c-16.5,16.5-35.6,29.4-57,38.4c-22.1,9.3-45.6,14.1-69.8,14.1c-24.2,0-47.7-4.7-69.8-14.1
				c-21.3-9-40.5-21.9-57-38.4c-16.5-16.5-29.4-35.6-38.4-57c-9.3-22.1-14.1-45.6-14.1-69.8c0-24.2,4.7-47.7,14.1-69.8
				c9-21.3,21.9-40.5,38.4-57c16.5-16.5,35.6-29.4,57-38.4c22.1-9.3,45.6-14.1,69.8-14.1c24.2,0,47.7,4.7,69.8,14.1
				c21.3,9,40.5,21.9,57,38.4c16.5,16.5,29.4,35.6,38.4,57C380,157.8,384.7,181.3,384.7,205.5z M205.5,25.7
				c-24.3,0-47.8,4.8-70,14.1c-21.4,9.1-40.6,22-57.2,38.5c-16.5,16.5-29.5,35.8-38.5,57.2c-9.4,22.2-14.1,45.7-14.1,70
				c0,24.3,4.8,47.8,14.1,70c9.1,21.4,22,40.7,38.5,57.2c16.5,16.5,35.8,29.5,57.2,38.5c22.2,9.4,45.7,14.1,70,14.1
				c24.3,0,47.8-4.8,70-14.1c21.4-9.1,40.6-22,57.2-38.5c16.5-16.5,29.5-35.8,38.5-57.2c9.4-22.2,14.1-45.7,14.1-70
				c0-24.3-4.8-47.8-14.1-70c-9.1-21.4-22-40.7-38.5-57.2c-16.5-16.5-35.8-29.5-57.2-38.5C253.3,30.4,229.8,25.7,205.5,25.7z"/>
		</g>
		<g>
			<linearGradient id="SVGID_14_" gradientUnits="userSpaceOnUse" x1="27.6455" y1="205.5117" x2="383.3779" y2="205.5117">
				<stop  offset="0" style="stop-color:#242C36"/>
				<stop  offset="0.5" style="stop-color:#61666D"/>
				<stop  offset="1" style="stop-color:#242C36"/>
			</linearGradient>
			<path fill-rule="evenodd" clip-rule="evenodd" fill="url(#SVGID_14_)" d="M382.7,205.5c0,23.9-4.7,47.1-13.9,69
				c-8.9,21.1-21.7,40.1-38,56.3c-16.3,16.3-35.2,29.1-56.3,38c-21.8,9.2-45.1,13.9-69,13.9s-47.1-4.7-69-13.9
				c-21.1-8.9-40.1-21.7-56.3-38c-16.3-16.3-29.1-35.2-38-56.3c-9.2-21.8-13.9-45.1-13.9-69s4.7-47.1,13.9-69
				c8.9-21.1,21.7-40.1,38-56.3c16.3-16.3,35.2-29.1,56.3-38c21.9-9.2,45.1-13.9,69-13.9s47.1,4.7,69,13.9
				c21.1,8.9,40.1,21.7,56.3,38c16.3,16.3,29.1,35.2,38,56.3C378,158.4,382.7,181.6,382.7,205.5z M205.5,27.6
				c-24,0-47.3,4.7-69.2,14c-21.2,9-40.2,21.8-56.5,38.1c-16.3,16.3-29.2,35.4-38.1,56.5c-9.3,21.9-14,45.2-14,69.2
				c0,24,4.7,47.3,14,69.2c9,21.2,21.8,40.2,38.1,56.5c16.3,16.3,35.4,29.2,56.5,38.1c21.9,9.3,45.2,14,69.2,14
				c24,0,47.3-4.7,69.2-14c21.2-9,40.2-21.8,56.5-38.1c16.3-16.3,29.2-35.4,38.1-56.5c9.3-21.9,14-45.2,14-69.2
				c0-24-4.7-47.3-14-69.2c-9-21.2-21.8-40.2-38.1-56.5c-16.3-16.3-35.4-29.2-56.5-38.1C252.8,32.3,229.5,27.6,205.5,27.6z"/>
		</g>
		<g>
			<linearGradient id="SVGID_15_" gradientUnits="userSpaceOnUse" x1="29.623" y1="205.5117" x2="381.3994" y2="205.5117">
				<stop  offset="0" style="stop-color:#242C36"/>
				<stop  offset="0.5" style="stop-color:#61666D"/>
				<stop  offset="1" style="stop-color:#242C36"/>
			</linearGradient>
			<path fill-rule="evenodd" clip-rule="evenodd" fill="url(#SVGID_15_)" d="M380.8,205.5c0,23.7-4.6,46.6-13.8,68.2
				c-8.8,20.9-21.5,39.6-37.6,55.7c-16.1,16.1-34.8,28.7-55.7,37.6c-21.6,9.1-44.6,13.8-68.2,13.8s-46.6-4.6-68.2-13.8
				c-20.9-8.8-39.6-21.5-55.7-37.6c-16.1-16.1-28.7-34.8-37.6-55.7c-9.1-21.6-13.8-44.6-13.8-68.2c0-23.7,4.6-46.6,13.8-68.2
				c8.8-20.9,21.5-39.6,37.6-55.7c16.1-16.1,34.8-28.7,55.7-37.6c21.6-9.1,44.6-13.8,68.2-13.8s46.6,4.6,68.2,13.8
				c20.9,8.8,39.6,21.5,55.7,37.6c16.1,16.1,28.7,34.8,37.6,55.7C376.1,158.9,380.8,181.9,380.8,205.5z M205.5,29.6
				c-23.7,0-46.8,4.7-68.5,13.8C116.1,52.3,97.3,65,81.1,81.1C65,97.3,52.3,116.1,43.4,137c-9.2,21.7-13.8,44.7-13.8,68.5
				c0,23.7,4.6,46.8,13.8,68.5c8.9,20.9,21.5,39.8,37.7,55.9c16.2,16.2,35,28.8,55.9,37.7c21.7,9.2,44.7,13.8,68.5,13.8
				s46.8-4.7,68.5-13.8c20.9-8.9,39.8-21.5,55.9-37.7c16.2-16.2,28.8-35,37.7-55.9c9.2-21.7,13.8-44.7,13.8-68.5
				c0-23.7-4.6-46.8-13.8-68.5c-8.9-20.9-21.5-39.8-37.7-55.9c-16.2-16.1-35-28.8-55.9-37.7C252.3,34.3,229.3,29.6,205.5,29.6z"/>
		</g>
		<g>
			<linearGradient id="SVGID_16_" gradientUnits="userSpaceOnUse" x1="31.6045" y1="205.5081" x2="379.4189" y2="205.5081">
				<stop  offset="0" style="stop-color:#242C36"/>
				<stop  offset="0.5" style="stop-color:#61666D"/>
				<stop  offset="1" style="stop-color:#242C36"/>
			</linearGradient>
			<path fill-rule="evenodd" clip-rule="evenodd" fill="url(#SVGID_16_)" d="M378.8,205.5c0,23.4-4.6,46.1-13.6,67.4
				c-8.7,20.6-21.2,39.2-37.1,55.1c-15.9,15.9-34.4,28.4-55.1,37.1c-21.4,9-44.1,13.6-67.4,13.6s-46.1-4.6-67.4-13.6
				C117.4,356.4,98.9,344,83,328c-15.9-15.9-28.4-34.4-37.1-55.1c-9-21.4-13.6-44.1-13.6-67.4c0-23.4,4.6-46.1,13.6-67.4
				C54.6,117.4,67.1,98.9,83,83c15.9-15.9,34.4-28.4,55.1-37.1c21.4-9,44.1-13.6,67.4-13.6s46.1,4.6,67.4,13.6
				c20.6,8.7,39.2,21.2,55.1,37.1c15.9,15.9,28.4,34.4,37.1,55.1C374.2,159.4,378.8,182.1,378.8,205.5z M205.5,31.6
				c-23.5,0-46.3,4.6-67.7,13.7C117.1,54,98.5,66.6,82.5,82.5c-16,16-28.5,34.6-37.3,55.3c-9.1,21.4-13.7,44.2-13.7,67.7
				s4.6,46.3,13.7,67.7c8.8,20.7,21.3,39.3,37.3,55.3c16,16,34.6,28.5,55.3,37.3c21.4,9.1,44.2,13.7,67.7,13.7s46.3-4.6,67.7-13.7
				c20.7-8.8,39.3-21.3,55.3-37.3c16-16,28.5-34.6,37.3-55.3c9.1-21.4,13.7-44.2,13.7-67.7s-4.6-46.3-13.7-67.7
				c-8.8-20.7-21.3-39.3-37.3-55.3c-16-16-34.6-28.5-55.3-37.3C251.8,36.2,229,31.6,205.5,31.6z"/>
		</g>
		<g>
			<linearGradient id="SVGID_17_" gradientUnits="userSpaceOnUse" x1="33.582" y1="205.5117" x2="377.4375" y2="205.5117">
				<stop  offset="0" style="stop-color:#242C36"/>
				<stop  offset="0.5" style="stop-color:#61666D"/>
				<stop  offset="1" style="stop-color:#242C36"/>
			</linearGradient>
			<path fill-rule="evenodd" clip-rule="evenodd" fill="url(#SVGID_17_)" d="M376.8,205.5c0,23.1-4.5,45.6-13.5,66.7
				c-8.6,20.4-21,38.7-36.7,54.5c-15.7,15.7-34.1,28.1-54.5,36.7c-21.1,8.9-43.6,13.5-66.7,13.5c-23.1,0-45.6-4.5-66.7-13.5
				c-20.4-8.6-38.7-21-54.5-36.7c-15.7-15.7-28.1-34.1-36.7-54.5c-8.9-21.1-13.5-43.6-13.5-66.7c0-23.1,4.5-45.6,13.5-66.7
				c8.6-20.4,21-38.7,36.7-54.4c15.7-15.7,34.1-28.1,54.5-36.7c21.1-8.9,43.6-13.5,66.7-13.5c23.1,0,45.6,4.5,66.7,13.5
				c20.4,8.6,38.7,21,54.5,36.7c15.7,15.7,28.1,34,36.7,54.4C372.3,159.9,376.8,182.4,376.8,205.5z M205.5,33.6
				c-23.2,0-45.7,4.5-66.9,13.5c-20.5,8.7-38.9,21.1-54.6,36.8c-15.8,15.8-28.2,34.2-36.8,54.6c-9,21.2-13.5,43.7-13.5,66.9
				c0,23.2,4.5,45.7,13.5,66.9c8.7,20.5,21.1,38.9,36.8,54.6c15.8,15.8,34.2,28.2,54.6,36.8c21.2,9,43.7,13.5,66.9,13.5
				c23.2,0,45.7-4.5,66.9-13.5c20.5-8.7,38.9-21.1,54.6-36.8c15.8-15.8,28.2-34.2,36.8-54.6c9-21.2,13.5-43.7,13.5-66.9
				c0-23.2-4.5-45.7-13.5-66.9c-8.7-20.5-21.1-38.9-36.8-54.6c-15.8-15.8-34.2-28.2-54.6-36.8C251.2,38.1,228.7,33.6,205.5,33.6z"/>
		</g>
		<g>
			<linearGradient id="SVGID_18_" gradientUnits="userSpaceOnUse" x1="35.563" y1="205.5117" x2="375.4599" y2="205.5117">
				<stop  offset="0" style="stop-color:#242C36"/>
				<stop  offset="0.5" style="stop-color:#61666D"/>
				<stop  offset="1" style="stop-color:#242C36"/>
			</linearGradient>
			<path fill-rule="evenodd" clip-rule="evenodd" fill="url(#SVGID_18_)" d="M374.8,205.5c0,22.9-4.5,45-13.3,65.9
				c-8.5,20.2-20.7,38.3-36.3,53.8c-15.6,15.6-33.7,27.8-53.8,36.3c-20.9,8.8-43.1,13.3-65.9,13.3s-45-4.5-65.9-13.3
				c-20.2-8.5-38.3-20.7-53.8-36.3c-15.6-15.6-27.8-33.7-36.3-53.8c-8.8-20.9-13.3-43-13.3-65.9c0-22.9,4.5-45,13.3-65.9
				c8.5-20.2,20.7-38.3,36.3-53.8c15.6-15.6,33.7-27.8,53.8-36.3c20.9-8.8,43.1-13.3,65.9-13.3s45,4.5,65.9,13.3
				c20.2,8.5,38.3,20.7,53.8,36.3c15.5,15.6,27.8,33.7,36.3,53.8C370.4,160.5,374.8,182.7,374.8,205.5z M205.5,35.6
				c-22.9,0-45.2,4.5-66.2,13.4c-20.2,8.6-38.4,20.8-54,36.4c-15.6,15.6-27.9,33.8-36.4,54c-8.9,20.9-13.4,43.2-13.4,66.2
				c0,22.9,4.5,45.2,13.4,66.2c8.6,20.2,20.8,38.4,36.4,54c15.6,15.6,33.8,27.9,54,36.4c21,8.9,43.2,13.4,66.2,13.4
				s45.2-4.5,66.1-13.4c20.2-8.6,38.4-20.8,54-36.4c15.6-15.6,27.9-33.8,36.4-54c8.9-21,13.4-43.2,13.4-66.2
				c0-22.9-4.5-45.2-13.4-66.2c-8.6-20.2-20.8-38.4-36.4-54c-15.6-15.6-33.8-27.9-54-36.4C250.7,40.1,228.5,35.6,205.5,35.6z"/>
		</g>
		<g>
			<linearGradient id="SVGID_19_" gradientUnits="userSpaceOnUse" x1="37.5444" y1="205.5085" x2="373.4785" y2="205.5085">
				<stop  offset="0" style="stop-color:#242C36"/>
				<stop  offset="0.5" style="stop-color:#61666D"/>
				<stop  offset="1" style="stop-color:#242C36"/>
			</linearGradient>
			<path fill-rule="evenodd" clip-rule="evenodd" fill="url(#SVGID_19_)" d="M372.9,205.5c0,22.6-4.4,44.5-13.2,65.1
				c-8.4,19.9-20.5,37.8-35.9,53.2c-15.4,15.4-33.3,27.4-53.2,35.9c-20.6,8.7-42.5,13.1-65.1,13.1s-44.5-4.4-65.1-13.1
				c-19.9-8.4-37.8-20.5-53.2-35.9c-15.4-15.4-27.4-33.3-35.9-53.2c-8.7-20.6-13.2-42.6-13.2-65.1c0-22.6,4.4-44.5,13.2-65.1
				c8.4-19.9,20.5-37.8,35.9-53.2c15.4-15.4,33.3-27.4,53.2-35.9c20.6-8.7,42.5-13.2,65.1-13.2s44.5,4.4,65.1,13.2
				c19.9,8.4,37.8,20.5,53.2,35.9c15.4,15.4,27.4,33.3,35.9,53.2C368.4,161,372.9,182.9,372.9,205.5z M205.5,37.5
				c-22.7,0-44.7,4.4-65.4,13.2c-20,8.5-38,20.6-53.4,36c-15.4,15.4-27.5,33.4-36,53.4c-8.8,20.7-13.2,42.7-13.2,65.4
				c0,22.7,4.4,44.7,13.2,65.4c8.5,20,20.6,38,36,53.4c15.4,15.4,33.4,27.5,53.4,36c20.7,8.8,42.7,13.2,65.4,13.2
				c22.7,0,44.7-4.4,65.4-13.2c20-8.5,38-20.6,53.4-36c15.4-15.4,27.5-33.4,36-53.4c8.8-20.7,13.2-42.7,13.2-65.4
				c0-22.7-4.4-44.7-13.2-65.4c-8.5-20-20.6-38-36-53.4c-15.4-15.4-33.4-27.5-53.4-36C250.2,42,228.2,37.5,205.5,37.5z"/>
		</g>
		<g>
			<linearGradient id="SVGID_20_" gradientUnits="userSpaceOnUse" x1="39.5259" y1="205.5119" x2="371.5019" y2="205.5119">
				<stop  offset="0" style="stop-color:#242C36"/>
				<stop  offset="0.5" style="stop-color:#61666D"/>
				<stop  offset="1" style="stop-color:#242C36"/>
			</linearGradient>
			<path fill-rule="evenodd" clip-rule="evenodd" fill="url(#SVGID_20_)" d="M370.9,205.5c0,22.3-4.4,44-13,64.4
				c-8.3,19.7-20.3,37.4-35.4,52.6c-15.2,15.2-32.9,27.1-52.6,35.4c-20.4,8.6-42,13-64.4,13c-22.3,0-44-4.4-64.4-13
				c-19.7-8.3-37.4-20.3-52.6-35.4c-15.2-15.2-27.1-32.9-35.4-52.6c-8.6-20.4-13-42-13-64.4c0-22.3,4.4-44,13-64.4
				c8.3-19.7,20.3-37.4,35.4-52.6c15.2-15.2,32.9-27.1,52.6-35.4c20.4-8.6,42-13,64.4-13c22.3,0,44,4.4,64.4,13
				c19.7,8.3,37.4,20.3,52.6,35.4c15.2,15.2,27.1,32.9,35.4,52.6C366.5,161.5,370.9,183.2,370.9,205.5z M205.5,39.5
				c-22.4,0-44.1,4.4-64.6,13c-19.8,8.4-37.5,20.3-52.8,35.6c-15.2,15.2-27.2,33-35.6,52.8c-8.7,20.5-13,42.2-13,64.6
				s4.4,44.1,13,64.6c8.4,19.8,20.3,37.5,35.6,52.8c15.2,15.2,33,27.2,52.8,35.6c20.5,8.7,42.2,13,64.6,13s44.1-4.4,64.6-13
				c19.8-8.4,37.5-20.3,52.8-35.6c15.2-15.2,27.2-33,35.6-52.8c8.7-20.5,13-42.2,13-64.6s-4.4-44.1-13-64.6
				c-8.4-19.8-20.3-37.5-35.6-52.8c-15.2-15.2-33-27.2-52.8-35.6C249.7,43.9,227.9,39.5,205.5,39.5z"/>
		</g>
		<g>
			<linearGradient id="SVGID_21_" gradientUnits="userSpaceOnUse" x1="41.5034" y1="205.5083" x2="369.5205" y2="205.5083">
				<stop  offset="0" style="stop-color:#242C36"/>
				<stop  offset="0.5" style="stop-color:#61666D"/>
				<stop  offset="1" style="stop-color:#242C36"/>
			</linearGradient>
			<path fill-rule="evenodd" clip-rule="evenodd" fill="url(#SVGID_21_)" d="M368.9,205.5c0,22.1-4.3,43.5-12.8,63.6
				c-8.2,19.5-20,36.9-35,51.9c-15,15-32.5,26.8-51.9,35c-20.1,8.5-41.5,12.8-63.6,12.8s-43.5-4.3-63.6-12.8
				c-19.5-8.2-36.9-20-51.9-35c-15-15-26.8-32.5-35-51.9c-8.5-20.1-12.8-41.5-12.8-63.6c0-22.1,4.3-43.5,12.8-63.6
				C63.2,122.4,75,105,90,90c15-15,32.5-26.8,51.9-35c20.1-8.5,41.5-12.8,63.6-12.8s43.5,4.3,63.6,12.8c19.5,8.2,36.9,20,51.9,35
				c15,15,26.8,32.5,35,51.9C364.6,162.1,368.9,183.5,368.9,205.5z M205.5,41.5c-22.1,0-43.6,4.3-63.8,12.9
				c-19.5,8.3-37.1,20.1-52.1,35.2c-15.1,15.1-26.9,32.6-35.1,52.1c-8.6,20.2-12.9,41.7-12.9,63.8c0,22.1,4.3,43.6,12.9,63.8
				c8.3,19.5,20.1,37.1,35.1,52.1c15.1,15.1,32.6,26.9,52.1,35.1c20.2,8.6,41.7,12.9,63.8,12.9c22.1,0,43.6-4.3,63.8-12.9
				c19.5-8.3,37.1-20.1,52.1-35.1c15.1-15.1,26.9-32.6,35.1-52.1c8.6-20.2,12.9-41.7,12.9-63.8c0-22.1-4.3-43.6-12.9-63.8
				c-8.3-19.5-20.1-37.1-35.1-52.1c-15.1-15.1-32.6-26.9-52.1-35.2C249.1,45.8,227.7,41.5,205.5,41.5z"/>
		</g>
		<g>
			<linearGradient id="SVGID_22_" gradientUnits="userSpaceOnUse" x1="43.4853" y1="205.5083" x2="367.5381" y2="205.5083">
				<stop  offset="0" style="stop-color:#242C36"/>
				<stop  offset="0.5" style="stop-color:#61666D"/>
				<stop  offset="1" style="stop-color:#242C36"/>
			</linearGradient>
			<path fill-rule="evenodd" clip-rule="evenodd" fill="url(#SVGID_22_)" d="M367,205.5c0,21.8-4.3,42.9-12.7,62.8
				c-8.1,19.2-19.8,36.5-34.6,51.3c-14.8,14.8-32.1,26.5-51.3,34.6c-19.9,8.4-41,12.7-62.8,12.7c-21.8,0-42.9-4.3-62.8-12.7
				c-19.2-8.1-36.5-19.8-51.3-34.6c-14.8-14.8-26.5-32.1-34.6-51.3c-8.4-19.9-12.7-41-12.7-62.8c0-21.8,4.3-42.9,12.7-62.8
				c8.1-19.2,19.8-36.5,34.6-51.3c14.8-14.8,32.1-26.5,51.3-34.6c19.9-8.4,41-12.7,62.8-12.7c21.8,0,42.9,4.3,62.8,12.7
				c19.2,8.1,36.5,19.8,51.3,34.6c14.8,14.8,26.5,32.1,34.6,51.3C362.7,162.6,367,183.7,367,205.5z M205.5,43.5
				c-21.9,0-43.1,4.3-63.1,12.7c-19.3,8.2-36.6,19.8-51.5,34.7c-14.9,14.9-26.6,32.2-34.7,51.5c-8.4,20-12.7,41.2-12.7,63.1
				c0,21.9,4.3,43.1,12.7,63.1c8.2,19.3,19.8,36.6,34.7,51.5c14.9,14.9,32.2,26.6,51.5,34.7c20,8.5,41.2,12.7,63.1,12.7
				c21.9,0,43.1-4.3,63.1-12.7c19.3-8.2,36.6-19.8,51.5-34.7c14.9-14.9,26.6-32.2,34.7-51.5c8.4-20,12.7-41.2,12.7-63.1
				c0-21.9-4.3-43.1-12.7-63.1c-8.2-19.3-19.8-36.6-34.7-51.5c-14.9-14.9-32.2-26.6-51.5-34.7C248.6,47.8,227.4,43.5,205.5,43.5z"/>
		</g>
		<g>
			<linearGradient id="SVGID_23_" gradientUnits="userSpaceOnUse" x1="45.4663" y1="205.5119" x2="365.5576" y2="205.5119">
				<stop  offset="0" style="stop-color:#242C36"/>
				<stop  offset="0.5" style="stop-color:#61666D"/>
				<stop  offset="1" style="stop-color:#242C36"/>
			</linearGradient>
			<path fill-rule="evenodd" clip-rule="evenodd" fill="url(#SVGID_23_)" d="M365,205.5c0,21.5-4.2,42.4-12.5,62.1
				c-8,19-19.5,36-34.2,50.7s-31.7,26.1-50.7,34.2c-19.7,8.3-40.5,12.5-62.1,12.5s-42.4-4.2-62.1-12.5c-19-8-36-19.5-50.7-34.2
				c-14.6-14.6-26.1-31.7-34.2-50.7C50.3,247.9,46,227,46,205.5s4.2-42.4,12.5-62.1c8-19,19.5-36,34.2-50.7
				c14.6-14.6,31.7-26.1,50.7-34.2C163.1,50.3,184,46,205.5,46s42.4,4.2,62.1,12.5c19,8,36,19.5,50.7,34.2
				c14.6,14.6,26.1,31.7,34.2,50.7C360.8,163.1,365,184,365,205.5z M205.5,45.5c-21.6,0-42.6,4.2-62.3,12.6
				c-19.1,8.1-36.2,19.6-50.9,34.3C77.6,107,66.1,124.2,58,143.2c-8.3,19.7-12.6,40.7-12.6,62.3s4.2,42.6,12.6,62.3
				c8.1,19.1,19.6,36.2,34.3,50.9c14.7,14.7,31.8,26.2,50.9,34.3c19.7,8.3,40.7,12.6,62.3,12.6c21.6,0,42.6-4.2,62.3-12.6
				c19.1-8.1,36.2-19.6,50.9-34.3c14.7-14.7,26.2-31.8,34.3-50.9c8.3-19.7,12.6-40.7,12.6-62.3s-4.2-42.6-12.6-62.3
				c-8.1-19.1-19.6-36.2-34.3-50.9C304,77.6,286.9,66.1,267.8,58C248.1,49.7,227.1,45.5,205.5,45.5z"/>
		</g>
		<g>
			<linearGradient id="SVGID_24_" gradientUnits="userSpaceOnUse" x1="47.4438" y1="205.5114" x2="363.5791" y2="205.5114">
				<stop  offset="0" style="stop-color:#242C36"/>
				<stop  offset="0.5" style="stop-color:#61666D"/>
				<stop  offset="1" style="stop-color:#242C36"/>
			</linearGradient>
			<path fill-rule="evenodd" clip-rule="evenodd" fill="url(#SVGID_24_)" d="M363,205.5c0,21.3-4.2,41.9-12.4,61.3
				c-7.9,18.8-19.3,35.6-33.8,50.1c-14.5,14.5-31.3,25.8-50.1,33.8c-19.4,8.2-40,12.4-61.3,12.4s-41.9-4.2-61.3-12.4
				c-18.8-7.9-35.6-19.3-50.1-33.8c-14.5-14.5-25.8-31.3-33.8-50.1c-8.2-19.4-12.4-40-12.4-61.3c0-21.3,4.2-41.9,12.4-61.3
				c7.9-18.8,19.3-35.6,33.8-50.1c14.5-14.5,31.3-25.8,50.1-33.8c19.4-8.2,40-12.4,61.3-12.4s41.9,4.2,61.3,12.4
				c18.8,7.9,35.6,19.3,50.1,33.8c14.5,14.5,25.8,31.3,33.8,50.1C358.8,163.6,363,184.2,363,205.5z M205.5,47.4
				c-21.3,0-42,4.2-61.5,12.4c-18.8,8-35.7,19.4-50.2,33.9c-14.5,14.5-25.9,31.4-33.9,50.2c-8.2,19.5-12.4,40.2-12.4,61.5
				c0,21.3,4.2,42,12.4,61.5c8,18.8,19.4,35.7,33.9,50.2c14.5,14.5,31.4,25.9,50.2,33.9c19.5,8.2,40.2,12.4,61.5,12.4
				c21.3,0,42-4.2,61.5-12.4c18.8-8,35.7-19.4,50.2-33.9c14.5-14.5,25.9-31.4,33.9-50.2c8.2-19.5,12.4-40.2,12.4-61.5
				c0-21.3-4.2-42-12.4-61.5c-8-18.8-19.4-35.7-33.9-50.2c-14.5-14.5-31.4-25.9-50.2-33.9C247.6,51.6,226.8,47.4,205.5,47.4z"/>
		</g>
		<g>
			<linearGradient id="SVGID_25_" gradientUnits="userSpaceOnUse" x1="49.4253" y1="205.5078" x2="361.5976" y2="205.5078">
				<stop  offset="0" style="stop-color:#242C36"/>
				<stop  offset="0.5" style="stop-color:#61666D"/>
				<stop  offset="1" style="stop-color:#242C36"/>
			</linearGradient>
			<path fill-rule="evenodd" clip-rule="evenodd" fill="url(#SVGID_25_)" d="M361,205.5c0,21-4.1,41.4-12.2,60.5
				c-7.8,18.5-19,35.2-33.3,49.4c-14.3,14.3-30.9,25.5-49.4,33.3c-19.2,8.1-39.5,12.2-60.5,12.2c-21,0-41.4-4.1-60.5-12.2
				c-18.5-7.8-35.1-19-49.4-33.3S70,284.6,62.2,266C54.1,246.9,50,226.5,50,205.5c0-21,4.1-41.4,12.2-60.5
				c7.8-18.5,19-35.2,33.3-49.4S126.5,70,145,62.2c19.2-8.1,39.5-12.2,60.5-12.2c21,0,41.4,4.1,60.5,12.2
				c18.5,7.8,35.1,19,49.4,33.3c14.3,14.3,25.5,30.9,33.3,49.4C356.9,164.1,361,184.5,361,205.5z M205.5,49.4
				c-21.1,0-41.5,4.1-60.8,12.3c-18.6,7.9-35.3,19.1-49.6,33.5c-14.3,14.3-25.6,31-33.5,49.6c-8.1,19.2-12.3,39.7-12.3,60.8
				c0,21.1,4.1,41.5,12.3,60.8c7.9,18.6,19.1,35.3,33.5,49.6c14.3,14.3,31,25.6,49.6,33.5c19.2,8.1,39.7,12.3,60.8,12.3
				c21.1,0,41.5-4.1,60.8-12.3c18.6-7.9,35.3-19.1,49.6-33.5c14.3-14.3,25.6-31,33.4-49.6c8.1-19.2,12.3-39.7,12.3-60.8
				c0-21.1-4.1-41.5-12.3-60.8c-7.9-18.6-19.1-35.3-33.4-49.6c-14.3-14.3-31-25.6-49.6-33.5C247,53.5,226.6,49.4,205.5,49.4z"/>
		</g>
		<g>
			<linearGradient id="SVGID_26_" gradientUnits="userSpaceOnUse" x1="51.4028" y1="205.5083" x2="359.6162" y2="205.5083">
				<stop  offset="0" style="stop-color:#242C36"/>
				<stop  offset="0.5" style="stop-color:#61666D"/>
				<stop  offset="1" style="stop-color:#242C36"/>
			</linearGradient>
			<path fill-rule="evenodd" clip-rule="evenodd" fill="url(#SVGID_26_)" d="M359.1,205.5c0,20.7-4.1,40.8-12.1,59.8
				c-7.7,18.3-18.8,34.7-32.9,48.8c-14.1,14.1-30.5,25.2-48.8,32.9c-18.9,8-39,12.1-59.8,12.1c-20.7,0-40.8-4.1-59.8-12.1
				c-18.3-7.7-34.7-18.8-48.8-32.9C82.8,300,71.8,283.6,64,265.3c-8-18.9-12.1-39-12.1-59.8S56,164.7,64,145.7
				c7.7-18.3,18.8-34.7,32.9-48.8C111,82.8,127.5,71.8,145.7,64c18.9-8,39-12.1,59.8-12.1c20.7,0,40.8,4.1,59.8,12.1
				c18.3,7.7,34.7,18.8,48.8,32.9c14.1,14.1,25.2,30.5,32.9,48.8C355,164.7,359.1,184.8,359.1,205.5z M205.5,51.4
				c-20.8,0-41,4.1-60,12.1c-18.3,7.8-34.8,18.9-49,33c-14.2,14.2-25.3,30.6-33,49c-8,19-12.1,39.2-12.1,60c0,20.8,4.1,41,12.1,60
				c7.8,18.4,18.9,34.8,33,49c14.2,14.1,30.6,25.3,49,33c19,8,39.2,12.1,60,12.1c20.8,0,41-4.1,60-12.1c18.3-7.8,34.8-18.9,49-33
				c14.2-14.2,25.3-30.6,33-49c8-19,12.1-39.2,12.1-60c0-20.8-4.1-41-12.1-60c-7.8-18.3-18.9-34.8-33-49c-14.2-14.2-30.6-25.3-49-33
				C246.5,55.5,226.3,51.4,205.5,51.4z"/>
		</g>
		<g>
			<linearGradient id="SVGID_27_" gradientUnits="userSpaceOnUse" x1="53.3804" y1="205.5119" x2="357.6396" y2="205.5119">
				<stop  offset="0" style="stop-color:#242C36"/>
				<stop  offset="0.5" style="stop-color:#61666D"/>
				<stop  offset="1" style="stop-color:#242C36"/>
			</linearGradient>
			<path fill-rule="evenodd" clip-rule="evenodd" fill="url(#SVGID_27_)" d="M357.1,205.5c0,20.5-4,40.3-11.9,59
				c-7.6,18-18.6,34.3-32.5,48.2c-13.9,13.9-30.1,24.9-48.2,32.5c-18.7,7.9-38.5,11.9-59,11.9s-40.3-4-59-11.9
				c-18.1-7.6-34.3-18.6-48.2-32.5c-13.9-13.9-24.8-30.1-32.5-48.2c-7.9-18.7-11.9-38.5-11.9-59c0-20.5,4-40.3,11.9-59
				c7.6-18,18.6-34.3,32.5-48.2c13.9-13.9,30.1-24.8,48.2-32.5c18.7-7.9,38.5-11.9,59-11.9s40.3,4,59,11.9
				c18,7.6,34.3,18.6,48.2,32.5c13.9,13.9,24.8,30.1,32.5,48.2C353.1,165.2,357.1,185,357.1,205.5z M205.5,53.4
				c-20.5,0-40.5,4-59.2,12C128.2,73,111.9,84,97.9,97.9c-14,14-24.9,30.2-32.6,48.4c-7.9,18.8-12,38.7-12,59.2s4,40.5,12,59.2
				c7.7,18.1,18.6,34.4,32.6,48.4c14,14,30.2,24.9,48.4,32.6c18.8,7.9,38.7,12,59.2,12c20.5,0,40.5-4,59.2-12
				c18.1-7.7,34.4-18.6,48.4-32.6c14-14,24.9-30.2,32.6-48.4c7.9-18.8,12-38.7,12-59.2s-4-40.5-12-59.2
				c-7.7-18.1-18.6-34.4-32.6-48.4c-14-14-30.2-24.9-48.4-32.6C246,57.4,226,53.4,205.5,53.4z"/>
		</g>
		<g>
			<linearGradient id="SVGID_28_" gradientUnits="userSpaceOnUse" x1="55.3613" y1="205.5081" x2="355.6621" y2="205.5081">
				<stop  offset="0" style="stop-color:#242C36"/>
				<stop  offset="0.5" style="stop-color:#61666D"/>
				<stop  offset="1" style="stop-color:#242C36"/>
			</linearGradient>
			<path fill-rule="evenodd" clip-rule="evenodd" fill="url(#SVGID_28_)" d="M355.1,205.5c0,20.2-4,39.8-11.8,58.2
				c-7.5,17.8-18.3,33.8-32.1,47.5c-13.7,13.7-29.7,24.5-47.6,32.1c-18.4,7.8-38,11.8-58.2,11.8c-20.2,0-39.8-4-58.2-11.8
				c-17.8-7.5-33.8-18.3-47.6-32.1c-13.7-13.7-24.5-29.7-32.1-47.5c-7.8-18.4-11.8-38-11.8-58.2s4-39.8,11.8-58.2
				c7.5-17.8,18.3-33.8,32.1-47.6c13.7-13.7,29.7-24.5,47.6-32.1c18.4-7.8,38-11.8,58.2-11.8c20.2,0,39.8,4,58.2,11.8
				c17.8,7.5,33.8,18.3,47.6,32.1c13.7,13.7,24.5,29.7,32.1,47.6C351.2,165.7,355.1,185.3,355.1,205.5z M205.5,55.4
				c-20.3,0-39.9,4-58.4,11.8c-17.9,7.6-33.9,18.4-47.7,32.2c-13.8,13.8-24.6,29.9-32.2,47.7c-7.8,18.5-11.8,38.2-11.8,58.4
				c0,20.3,4,39.9,11.8,58.4c7.6,17.9,18.4,33.9,32.2,47.7c13.8,13.8,29.8,24.6,47.7,32.2c18.5,7.8,38.2,11.8,58.4,11.8
				s39.9-4,58.4-11.8c17.9-7.6,33.9-18.4,47.7-32.2c13.8-13.8,24.6-29.8,32.2-47.7c7.8-18.5,11.8-38.2,11.8-58.4
				c0-20.3-4-39.9-11.8-58.4c-7.6-17.9-18.4-33.9-32.2-47.7c-13.8-13.8-29.8-24.6-47.7-32.2C245.4,59.3,225.8,55.4,205.5,55.4z"/>
		</g>
		<g>
			<linearGradient id="SVGID_29_" gradientUnits="userSpaceOnUse" x1="57.3428" y1="205.508" x2="353.6806" y2="205.508">
				<stop  offset="0" style="stop-color:#242C36"/>
				<stop  offset="0.5" style="stop-color:#61666D"/>
				<stop  offset="1" style="stop-color:#242C36"/>
			</linearGradient>
			<path fill-rule="evenodd" clip-rule="evenodd" fill="url(#SVGID_29_)" d="M353.1,205.5c0,19.9-3.9,39.3-11.6,57.5
				c-7.4,17.6-18.1,33.4-31.6,46.9c-13.6,13.6-29.3,24.2-46.9,31.6c-18.2,7.7-37.5,11.6-57.5,11.6c-19.9,0-39.3-3.9-57.5-11.6
				c-17.6-7.4-33.4-18.1-46.9-31.6c-13.6-13.6-24.2-29.3-31.6-46.9c-7.7-18.2-11.6-37.5-11.6-57.5c0-19.9,3.9-39.3,11.6-57.5
				c7.4-17.6,18.1-33.4,31.6-46.9c13.6-13.6,29.3-24.2,46.9-31.6c18.2-7.7,37.5-11.6,57.5-11.6c19.9,0,39.3,3.9,57.5,11.6
				c17.6,7.4,33.4,18.1,46.9,31.6c13.6,13.6,24.2,29.3,31.6,46.9C349.2,166.2,353.1,185.6,353.1,205.5z M205.5,57.3
				c-20,0-39.4,3.9-57.7,11.6c-17.6,7.5-33.5,18.1-47.1,31.8c-13.6,13.6-24.3,29.5-31.8,47.1c-7.7,18.3-11.6,37.7-11.6,57.7
				c0,20,3.9,39.4,11.6,57.7c7.5,17.6,18.1,33.5,31.8,47.1c13.6,13.6,29.5,24.3,47.1,31.8c18.3,7.7,37.7,11.6,57.7,11.6
				c20,0,39.4-3.9,57.7-11.6c17.6-7.5,33.5-18.1,47.1-31.8c13.6-13.6,24.3-29.5,31.8-47.1c7.7-18.3,11.6-37.7,11.6-57.7
				c0-20-3.9-39.4-11.6-57.7c-7.5-17.6-18.1-33.5-31.8-47.1c-13.6-13.6-29.5-24.3-47.1-31.8C244.9,61.3,225.5,57.3,205.5,57.3z"/>
		</g>
		<g>
			<linearGradient id="SVGID_30_" gradientUnits="userSpaceOnUse" x1="59.3242" y1="205.5117" x2="351.6992" y2="205.5117">
				<stop  offset="0" style="stop-color:#242C36"/>
				<stop  offset="0.5" style="stop-color:#61666D"/>
				<stop  offset="1" style="stop-color:#242C36"/>
			</linearGradient>
			<path fill-rule="evenodd" clip-rule="evenodd" fill="url(#SVGID_30_)" d="M351.2,205.5c0,19.7-3.8,38.7-11.4,56.7
				c-7.3,17.3-17.8,32.9-31.2,46.3c-13.4,13.4-29,23.9-46.3,31.2c-18,7.6-37,11.4-56.7,11.4c-19.7,0-38.7-3.8-56.7-11.4
				c-17.3-7.3-32.9-17.8-46.3-31.2c-13.4-13.4-23.9-29-31.2-46.3c-7.6-18-11.4-37-11.4-56.7c0-19.7,3.8-38.7,11.4-56.7
				c7.3-17.3,17.8-32.9,31.2-46.3c13.4-13.4,29-23.9,46.3-31.2c18-7.6,37-11.4,56.7-11.4c19.7,0,38.7,3.8,56.7,11.4
				c17.3,7.3,32.9,17.8,46.3,31.2c13.4,13.4,23.9,28.9,31.2,46.3C347.3,166.8,351.2,185.8,351.2,205.5z M205.5,59.3
				c-19.7,0-38.9,3.9-56.9,11.5c-17.4,7.4-33,17.9-46.5,31.3c-13.4,13.4-24,29.1-31.3,46.5c-7.6,18-11.5,37.2-11.5,56.9
				s3.9,38.9,11.5,56.9c7.4,17.4,17.9,33,31.3,46.5c13.4,13.4,29.1,24,46.5,31.3c18,7.6,37.2,11.5,56.9,11.5s38.9-3.9,56.9-11.5
				c17.4-7.4,33-17.9,46.5-31.3c13.4-13.4,24-29.1,31.3-46.5c7.6-18,11.5-37.2,11.5-56.9s-3.9-38.9-11.5-56.9
				c-7.4-17.4-17.9-33-31.3-46.5c-13.4-13.4-29.1-24-46.5-31.3C244.4,63.2,225.2,59.3,205.5,59.3z"/>
		</g>
		<g>
			<linearGradient id="SVGID_31_" gradientUnits="userSpaceOnUse" x1="61.3017" y1="205.5117" x2="349.7217" y2="205.5117">
				<stop  offset="0" style="stop-color:#242C36"/>
				<stop  offset="0.5" style="stop-color:#61666D"/>
				<stop  offset="1" style="stop-color:#242C36"/>
			</linearGradient>
			<path fill-rule="evenodd" clip-rule="evenodd" fill="url(#SVGID_31_)" d="M349.2,205.5c0,19.4-3.8,38.2-11.3,55.9
				c-7.2,17.1-17.6,32.5-30.8,45.7c-13.2,13.2-28.6,23.6-45.7,30.8c-17.7,7.5-36.5,11.3-55.9,11.3c-19.4,0-38.2-3.8-55.9-11.3
				c-17.1-7.2-32.5-17.6-45.7-30.8c-13.2-13.2-23.6-28.6-30.8-45.7c-7.5-17.7-11.3-36.5-11.3-55.9c0-19.4,3.8-38.2,11.3-55.9
				c7.2-17.1,17.6-32.5,30.8-45.7c13.2-13.2,28.6-23.6,45.7-30.8c17.7-7.5,36.5-11.3,55.9-11.3c19.4,0,38.2,3.8,55.9,11.3
				c17.1,7.2,32.5,17.6,45.7,30.8c13.2,13.2,23.6,28.6,30.8,45.7C345.4,167.3,349.2,186.1,349.2,205.5z M205.5,61.3
				c-19.5,0-38.4,3.8-56.1,11.3c-17.2,7.3-32.6,17.7-45.8,30.9c-13.2,13.2-23.6,28.7-30.9,45.8c-7.5,17.8-11.3,36.7-11.3,56.1
				c0,19.5,3.8,38.3,11.3,56.1c7.3,17.2,17.7,32.6,30.9,45.8c13.2,13.2,28.7,23.6,45.8,30.9c17.8,7.5,36.7,11.3,56.1,11.3
				c19.5,0,38.4-3.8,56.1-11.3c17.2-7.3,32.6-17.7,45.8-30.9c13.2-13.2,23.6-28.7,30.9-45.8c7.5-17.8,11.3-36.7,11.3-56.1
				c0-19.5-3.8-38.4-11.3-56.1c-7.3-17.2-17.7-32.6-30.9-45.8c-13.2-13.2-28.7-23.6-45.8-30.9C243.9,65.1,225,61.3,205.5,61.3z"/>
		</g>
		<g>
			<linearGradient id="SVGID_32_" gradientUnits="userSpaceOnUse" x1="63.2832" y1="205.5081" x2="347.7412" y2="205.5081">
				<stop  offset="0" style="stop-color:#242C36"/>
				<stop  offset="0.5" style="stop-color:#61666D"/>
				<stop  offset="1" style="stop-color:#242C36"/>
			</linearGradient>
			<path fill-rule="evenodd" clip-rule="evenodd" fill="url(#SVGID_32_)" d="M347.2,205.5c0,19.1-3.7,37.7-11.1,55.2
				c-7.1,16.9-17.4,32-30.4,45c-13,13-28.2,23.2-45,30.4c-17.5,7.4-36,11.1-55.2,11.1c-19.1,0-37.7-3.7-55.2-11.1
				c-16.9-7.1-32-17.4-45-30.4c-13-13-23.2-28.2-30.4-45c-7.4-17.5-11.1-36-11.1-55.2c0-19.1,3.7-37.7,11.1-55.2
				c7.1-16.9,17.4-32,30.4-45c13-13,28.2-23.2,45-30.4c17.5-7.4,36-11.1,55.2-11.1c19.1,0,37.7,3.7,55.2,11.1
				c16.9,7.1,32,17.4,45,30.4c13,13,23.2,28.2,30.4,45C343.5,167.8,347.2,186.4,347.2,205.5z M205.5,63.3
				c-19.2,0-37.8,3.8-55.4,11.2c-16.9,7.2-32.1,17.4-45.2,30.5c-13.1,13.1-23.3,28.3-30.5,45.2c-7.4,17.5-11.2,36.2-11.2,55.4
				c0,19.2,3.8,37.8,11.2,55.4c7.2,16.9,17.4,32.1,30.5,45.2c13.1,13.1,28.3,23.3,45.2,30.5c17.5,7.4,36.2,11.2,55.4,11.2
				s37.8-3.8,55.4-11.2c16.9-7.2,32.1-17.4,45.2-30.5c13.1-13.1,23.3-28.3,30.5-45.2c7.4-17.5,11.2-36.2,11.2-55.4
				c0-19.2-3.8-37.8-11.2-55.4c-7.2-16.9-17.4-32.1-30.5-45.2c-13.1-13.1-28.3-23.3-45.2-30.5C243.3,67,224.7,63.3,205.5,63.3z"/>
		</g>
		<g>
			<linearGradient id="SVGID_33_" gradientUnits="userSpaceOnUse" x1="65.2646" y1="205.5117" x2="345.7588" y2="205.5117">
				<stop  offset="0" style="stop-color:#242C36"/>
				<stop  offset="0.5" style="stop-color:#61666D"/>
				<stop  offset="1" style="stop-color:#242C36"/>
			</linearGradient>
			<path fill-rule="evenodd" clip-rule="evenodd" fill="url(#SVGID_33_)" d="M345.2,205.5c0,18.9-3.7,37.2-11,54.4
				c-7,16.6-17.1,31.6-29.9,44.4c-12.8,12.8-27.8,22.9-44.4,29.9c-17.2,7.3-35.5,11-54.4,11c-18.9,0-37.2-3.7-54.4-11
				c-16.6-7-31.6-17.1-44.4-29.9c-12.8-12.8-22.9-27.8-29.9-44.4c-7.3-17.2-11-35.5-11-54.4c0-18.9,3.7-37.2,11-54.4
				c7-16.6,17.1-31.6,29.9-44.4c12.8-12.8,27.8-22.9,44.4-29.9c17.2-7.3,35.5-11,54.4-11c18.9,0,37.2,3.7,54.4,11
				c16.6,7,31.6,17.1,44.4,29.9c12.8,12.8,22.9,27.8,29.9,44.4C341.5,168.3,345.2,186.6,345.2,205.5z M205.5,65.3
				c-18.9,0-37.3,3.7-54.6,11c-16.7,7.1-31.7,17.2-44.6,30.1c-12.9,12.9-23,27.9-30.1,44.6c-7.3,17.3-11,35.7-11,54.6
				c0,18.9,3.7,37.3,11,54.6c7.1,16.7,17.2,31.7,30.1,44.6c12.9,12.9,27.9,23,44.6,30.1c17.3,7.3,35.7,11,54.6,11s37.3-3.7,54.6-11
				c16.7-7.1,31.7-17.2,44.6-30.1c12.9-12.9,23-27.9,30.1-44.6c7.3-17.3,11-35.7,11-54.6c0-18.9-3.7-37.3-11-54.6
				c-7.1-16.7-17.2-31.7-30.1-44.6c-12.9-12.9-27.9-23-44.6-30.1C242.8,69,224.4,65.3,205.5,65.3z"/>
		</g>
		<g>
			<linearGradient id="SVGID_34_" gradientUnits="userSpaceOnUse" x1="67.2461" y1="205.5083" x2="343.7812" y2="205.5083">
				<stop  offset="0" style="stop-color:#242C36"/>
				<stop  offset="0.5" style="stop-color:#61666D"/>
				<stop  offset="1" style="stop-color:#242C36"/>
			</linearGradient>
			<path fill-rule="evenodd" clip-rule="evenodd" fill="url(#SVGID_34_)" d="M343.3,205.5c0,18.6-3.6,36.6-10.8,53.6
				c-6.9,16.4-16.9,31.1-29.5,43.8c-12.7,12.7-27.4,22.6-43.8,29.5c-17,7.2-35,10.8-53.6,10.8s-36.6-3.6-53.6-10.8
				c-16.4-6.9-31.1-16.9-43.8-29.5c-12.7-12.7-22.6-27.4-29.5-43.8c-7.2-17-10.8-35-10.8-53.6c0-18.6,3.6-36.6,10.8-53.6
				c6.9-16.4,16.9-31.1,29.5-43.8c12.6-12.6,27.4-22.6,43.8-29.5c17-7.2,35-10.8,53.6-10.8s36.6,3.6,53.6,10.8
				c16.4,6.9,31.1,16.9,43.8,29.5c12.7,12.7,22.6,27.4,29.5,43.8C339.6,168.9,343.3,186.9,343.3,205.5z M205.5,67.2
				c-18.7,0-36.8,3.7-53.8,10.9c-16.5,7-31.3,16.9-43.9,29.6c-12.7,12.7-22.7,27.5-29.6,43.9c-7.2,17-10.9,35.2-10.9,53.8
				c0,18.7,3.7,36.8,10.9,53.8c7,16.5,16.9,31.3,29.6,43.9c12.7,12.7,27.5,22.7,43.9,29.6c17,7.2,35.2,10.9,53.8,10.9
				c18.7,0,36.8-3.7,53.8-10.9c16.5-7,31.3-16.9,43.9-29.6c12.7-12.7,22.7-27.5,29.6-43.9c7.2-17,10.9-35.2,10.9-53.8
				c0-18.7-3.7-36.8-10.9-53.8c-7-16.5-16.9-31.2-29.6-43.9c-12.7-12.7-27.5-22.7-43.9-29.6C242.3,70.9,224.2,67.2,205.5,67.2z"/>
		</g>
		<g>
			<linearGradient id="SVGID_35_" gradientUnits="userSpaceOnUse" x1="69.2236" y1="205.5083" x2="341.7998" y2="205.5083">
				<stop  offset="0" style="stop-color:#242C36"/>
				<stop  offset="0.5" style="stop-color:#61666D"/>
				<stop  offset="1" style="stop-color:#242C36"/>
			</linearGradient>
			<path fill-rule="evenodd" clip-rule="evenodd" fill="url(#SVGID_35_)" d="M341.3,205.5c0,18.3-3.6,36.1-10.7,52.9
				c-6.8,16.2-16.6,30.7-29.1,43.2c-12.5,12.5-27,22.3-43.2,29.1c-16.7,7.1-34.5,10.7-52.9,10.7c-18.3,0-36.1-3.6-52.9-10.7
				c-16.2-6.8-30.7-16.6-43.2-29.1c-12.5-12.5-22.3-27-29.1-43.2c-7.1-16.7-10.7-34.5-10.7-52.9c0-18.3,3.6-36.1,10.7-52.9
				c6.8-16.2,16.6-30.7,29.1-43.2c12.5-12.5,27-22.3,43.2-29.1c16.7-7.1,34.5-10.7,52.9-10.7c18.3,0,36.1,3.6,52.9,10.7
				c16.2,6.8,30.7,16.6,43.2,29.1c12.5,12.5,22.3,27,29.1,43.2C337.7,169.4,341.3,187.2,341.3,205.5z M205.5,69.2
				c-18.4,0-36.2,3.6-53,10.7c-16.2,6.9-30.8,16.7-43.3,29.2c-12.5,12.5-22.3,27.1-29.2,43.3c-7.1,16.8-10.7,34.6-10.7,53.1
				c0,18.4,3.6,36.2,10.7,53c6.9,16.2,16.7,30.8,29.2,43.3c12.5,12.5,27.1,22.3,43.3,29.2c16.8,7.1,34.6,10.7,53,10.7
				s36.2-3.6,53-10.7c16.2-6.9,30.8-16.7,43.3-29.2c12.5-12.5,22.3-27.1,29.2-43.3c7.1-16.8,10.7-34.6,10.7-53
				c0-18.4-3.6-36.3-10.7-53.1c-6.9-16.2-16.7-30.8-29.2-43.3c-12.5-12.5-27.1-22.3-43.3-29.2C241.8,72.8,223.9,69.2,205.5,69.2z"/>
		</g>
		<g>
			<linearGradient id="SVGID_36_" gradientUnits="userSpaceOnUse" x1="71.2046" y1="205.5117" x2="339.8193" y2="205.5117">
				<stop  offset="0" style="stop-color:#242C36"/>
				<stop  offset="0.5" style="stop-color:#61666D"/>
				<stop  offset="1" style="stop-color:#242C36"/>
			</linearGradient>
			<path fill-rule="evenodd" clip-rule="evenodd" fill="url(#SVGID_36_)" d="M339.3,205.5c0,18.1-3.5,35.6-10.5,52.1
				c-6.7,15.9-16.4,30.2-28.7,42.5c-12.3,12.3-26.6,21.9-42.5,28.7c-16.5,7-34,10.5-52.1,10.5c-18.1,0-35.6-3.5-52.1-10.5
				c-15.9-6.7-30.2-16.4-42.5-28.7c-12.3-12.3-21.9-26.6-28.7-42.5c-7-16.5-10.5-34-10.5-52.1c0-18.1,3.5-35.6,10.5-52.1
				c6.7-15.9,16.4-30.2,28.7-42.5c12.3-12.3,26.6-21.9,42.5-28.7c16.5-7,34-10.5,52.1-10.5c18.1,0,35.6,3.5,52.1,10.5
				c15.9,6.7,30.2,16.4,42.5,28.7c12.3,12.3,21.9,26.6,28.7,42.5C335.8,169.9,339.3,187.4,339.3,205.5z M205.5,71.2
				c-18.1,0-35.7,3.6-52.3,10.6c-16,6.8-30.4,16.4-42.7,28.8c-12.3,12.3-22,26.7-28.8,42.7c-7,16.6-10.6,34.1-10.6,52.3
				c0,18.1,3.6,35.7,10.6,52.3c6.8,16,16.4,30.4,28.8,42.7c12.3,12.3,26.7,22,42.7,28.8c16.6,7,34.1,10.6,52.3,10.6
				c18.1,0,35.7-3.6,52.3-10.6c16-6.8,30.4-16.5,42.7-28.8c12.3-12.3,22-26.7,28.8-42.7c7-16.6,10.6-34.1,10.6-52.3
				c0-18.1-3.6-35.7-10.6-52.3c-6.8-16-16.4-30.4-28.8-42.7c-12.3-12.3-26.7-22-42.7-28.8C241.2,74.8,223.6,71.2,205.5,71.2z"/>
		</g>
		<g>
			<linearGradient id="SVGID_37_" gradientUnits="userSpaceOnUse" x1="73.1821" y1="205.5081" x2="337.8398" y2="205.5081">
				<stop  offset="0" style="stop-color:#242C36"/>
				<stop  offset="0.5" style="stop-color:#61666D"/>
				<stop  offset="1" style="stop-color:#242C36"/>
			</linearGradient>
			<path fill-rule="evenodd" clip-rule="evenodd" fill="url(#SVGID_37_)" d="M337.3,205.5c0,17.8-3.5,35.1-10.4,51.3
				c-6.6,15.7-16.1,29.8-28.3,41.9c-12.1,12.1-26.2,21.6-41.9,28.2c-16.2,6.9-33.5,10.4-51.3,10.4c-17.8,0-35.1-3.5-51.3-10.4
				c-15.7-6.6-29.8-16.1-41.9-28.2c-12.1-12.1-21.6-26.2-28.3-41.9c-6.9-16.3-10.4-33.5-10.4-51.3c0-17.8,3.5-35.1,10.4-51.3
				c6.6-15.7,16.1-29.8,28.3-41.9c12.1-12.1,26.2-21.6,41.9-28.3c16.3-6.9,33.5-10.4,51.3-10.4c17.8,0,35.1,3.5,51.3,10.4
				c15.7,6.6,29.8,16.1,41.9,28.3c12.1,12.1,21.6,26.2,28.3,41.9C333.9,170.4,337.3,187.7,337.3,205.5z M205.5,73.2
				c-17.9,0-35.2,3.5-51.5,10.4c-15.8,6.7-29.9,16.2-42.1,28.4c-12.2,12.1-21.7,26.3-28.4,42.1c-6.9,16.3-10.4,33.6-10.4,51.5
				c0,17.9,3.5,35.2,10.4,51.5c6.7,15.8,16.2,29.9,28.4,42.1c12.2,12.1,26.3,21.7,42.1,28.4c16.3,6.9,33.6,10.4,51.5,10.4
				c17.9,0,35.2-3.5,51.5-10.4c15.8-6.7,29.9-16.2,42.1-28.4c12.2-12.2,21.7-26.3,28.4-42.1c6.9-16.3,10.4-33.6,10.4-51.5
				c0-17.9-3.5-35.2-10.4-51.5c-6.7-15.8-16.2-29.9-28.4-42.1c-12.2-12.2-26.3-21.7-42.1-28.4C240.7,76.7,223.4,73.2,205.5,73.2z"/>
		</g>
		<g>
			<linearGradient id="SVGID_38_" gradientUnits="userSpaceOnUse" x1="75.1601" y1="205.5117" x2="335.8633" y2="205.5117">
				<stop  offset="0" style="stop-color:#242C36"/>
				<stop  offset="0.5" style="stop-color:#61666D"/>
				<stop  offset="1" style="stop-color:#242C36"/>
			</linearGradient>
			<path fill-rule="evenodd" clip-rule="evenodd" fill="url(#SVGID_38_)" d="M335.4,205.5c0,17.5-3.4,34.5-10.2,50.5
				c-6.5,15.5-15.9,29.3-27.8,41.3c-11.9,11.9-25.8,21.3-41.3,27.8c-16,6.8-33,10.2-50.5,10.2s-34.5-3.4-50.5-10.2
				c-15.5-6.5-29.3-15.9-41.3-27.8c-11.9-11.9-21.3-25.8-27.8-41.3c-6.8-16-10.2-33-10.2-50.5S79.1,171,85.9,155
				c6.5-15.5,15.9-29.4,27.8-41.3c11.9-11.9,25.8-21.3,41.3-27.8c16-6.8,33-10.2,50.5-10.2s34.5,3.4,50.5,10.2
				c15.5,6.5,29.4,15.9,41.3,27.8c11.9,11.9,21.3,25.8,27.8,41.3C331.9,171,335.4,188,335.4,205.5z M205.5,75.2
				c-17.6,0-34.7,3.5-50.7,10.2c-15.5,6.6-29.5,16-41.4,27.9c-12,12-21.4,25.9-27.9,41.4c-6.8,16.1-10.2,33.1-10.2,50.7
				c0,17.6,3.4,34.7,10.2,50.7c6.6,15.5,16,29.5,27.9,41.4c12,12,25.9,21.4,41.4,27.9c16.1,6.8,33.1,10.2,50.7,10.2
				c17.6,0,34.7-3.5,50.7-10.2c15.5-6.6,29.5-16,41.4-27.9c12-12,21.4-25.9,27.9-41.4c6.8-16.1,10.2-33.1,10.2-50.7
				c0-17.6-3.4-34.7-10.2-50.7c-6.6-15.5-16-29.5-27.9-41.4c-12-12-25.9-21.4-41.4-27.9C240.2,78.6,223.1,75.2,205.5,75.2z"/>
		</g>
		<g>
			<linearGradient id="SVGID_39_" gradientUnits="userSpaceOnUse" x1="77.1411" y1="205.5083" x2="333.8818" y2="205.5083">
				<stop  offset="0" style="stop-color:#242C36"/>
				<stop  offset="0.5" style="stop-color:#61666D"/>
				<stop  offset="1" style="stop-color:#242C36"/>
			</linearGradient>
			<path fill-rule="evenodd" clip-rule="evenodd" fill="url(#SVGID_39_)" d="M333.4,205.5c0,17.3-3.4,34-10,49.8
				c-6.4,15.2-15.7,28.9-27.4,40.7c-11.7,11.7-25.4,21-40.6,27.4c-15.8,6.7-32.5,10-49.8,10c-17.3,0-34-3.4-49.8-10
				c-15.2-6.4-28.9-15.7-40.7-27.4c-11.7-11.7-21-25.4-27.4-40.7c-6.7-15.8-10-32.5-10-49.8c0-17.3,3.4-34,10-49.8
				c6.4-15.2,15.7-28.9,27.4-40.7c11.7-11.7,25.4-21,40.7-27.4c15.8-6.7,32.5-10.1,49.8-10.1c17.3,0,34,3.4,49.8,10.1
				c15.2,6.4,28.9,15.7,40.6,27.4c11.7,11.7,21,25.4,27.4,40.7C330,171.5,333.4,188.2,333.4,205.5z M205.5,77.1
				c-17.3,0-34.1,3.4-50,10.1c-15.3,6.5-29,15.7-40.8,27.5c-11.8,11.8-21,25.5-27.5,40.8c-6.7,15.8-10.1,32.6-10.1,50
				c0,17.3,3.4,34.1,10.1,50c6.5,15.3,15.7,29,27.5,40.8c11.8,11.8,25.5,21,40.8,27.5c15.8,6.7,32.6,10.1,50,10.1s34.1-3.4,50-10.1
				c15.3-6.5,29-15.7,40.8-27.5c11.8-11.8,21-25.5,27.5-40.8c6.7-15.8,10.1-32.6,10.1-50c0-17.3-3.4-34.1-10.1-50
				c-6.5-15.3-15.7-29-27.5-40.8c-11.8-11.8-25.5-21-40.8-27.5C239.7,80.5,222.8,77.1,205.5,77.1z"/>
		</g>
		<g>
			<linearGradient id="SVGID_40_" gradientUnits="userSpaceOnUse" x1="79.1225" y1="205.5119" x2="331.9013" y2="205.5119">
				<stop  offset="0" style="stop-color:#242C36"/>
				<stop  offset="0.5" style="stop-color:#61666D"/>
				<stop  offset="1" style="stop-color:#242C36"/>
			</linearGradient>
			<path fill-rule="evenodd" clip-rule="evenodd" fill="url(#SVGID_40_)" d="M331.4,205.5c0,17-3.3,33.5-9.9,49
				c-6.3,15-15.4,28.5-27,40c-11.6,11.6-25,20.6-40,27c-15.5,6.6-32,9.9-49,9.9s-33.5-3.3-49-9.9c-15-6.3-28.5-15.4-40-27
				c-11.6-11.6-20.6-25-27-40c-6.6-15.5-9.9-32-9.9-49s3.3-33.5,9.9-49c6.3-15,15.4-28.5,27-40c11.6-11.6,25-20.6,40-27
				c15.5-6.6,32-9.9,49-9.9s33.5,3.3,49,9.9c15,6.3,28.5,15.4,40,27c11.6,11.6,20.6,25,27,40C328.1,172,331.4,188.5,331.4,205.5z
				 M205.5,79.1c-17.1,0-33.6,3.3-49.2,9.9c-15,6.4-28.6,15.5-40.2,27.1c-11.6,11.6-20.7,25.1-27.1,40.2
				c-6.6,15.6-9.9,32.1-9.9,49.2c0,17.1,3.3,33.6,9.9,49.2c6.4,15,15.5,28.6,27.1,40.2c11.6,11.6,25.1,20.7,40.2,27.1
				c15.6,6.6,32.1,9.9,49.2,9.9c17.1,0,33.6-3.3,49.2-9.9c15-6.4,28.6-15.5,40.2-27.1c11.6-11.6,20.7-25.1,27.1-40.2
				c6.6-15.6,9.9-32.1,9.9-49.2c0-17.1-3.3-33.6-9.9-49.2c-6.4-15-15.5-28.6-27.1-40.2c-11.6-11.6-25.1-20.7-40.2-27.1
				C239.1,82.5,222.6,79.1,205.5,79.1z"/>
		</g>
		<g>
			<linearGradient id="SVGID_41_" gradientUnits="userSpaceOnUse" x1="81.104" y1="205.5083" x2="329.9189" y2="205.5083">
				<stop  offset="0" style="stop-color:#242C36"/>
				<stop  offset="0.5" style="stop-color:#61666D"/>
				<stop  offset="1" style="stop-color:#242C36"/>
			</linearGradient>
			<path fill-rule="evenodd" clip-rule="evenodd" fill="url(#SVGID_41_)" d="M329.5,205.5c0,16.7-3.3,33-9.7,48.2
				c-6.2,14.8-15.2,28-26.6,39.4c-11.4,11.4-24.6,20.3-39.4,26.6c-15.3,6.5-31.5,9.7-48.2,9.7s-33-3.3-48.2-9.7
				c-14.8-6.2-28-15.2-39.4-26.6c-11.4-11.4-20.3-24.6-26.6-39.4c-6.5-15.3-9.7-31.5-9.7-48.2c0-16.7,3.3-33,9.7-48.2
				c6.2-14.8,15.2-28,26.6-39.4c11.4-11.4,24.6-20.3,39.4-26.6c15.3-6.5,31.5-9.7,48.2-9.7s33,3.3,48.2,9.7
				c14.8,6.2,28,15.2,39.4,26.6c11.4,11.4,20.3,24.6,26.6,39.4C326.2,172.6,329.5,188.8,329.5,205.5z M205.5,81.1
				c-16.8,0-33.1,3.3-48.4,9.8c-14.8,6.3-28.1,15.2-39.5,26.7c-11.4,11.4-20.4,24.7-26.7,39.5c-6.5,15.3-9.8,31.6-9.8,48.4
				s3.3,33.1,9.8,48.4c6.3,14.8,15.2,28.1,26.7,39.5c11.4,11.4,24.7,20.4,39.5,26.7c15.3,6.5,31.6,9.8,48.4,9.8
				c16.8,0,33.1-3.3,48.4-9.8c14.8-6.3,28.1-15.2,39.5-26.7c11.4-11.4,20.4-24.7,26.7-39.5c6.5-15.3,9.8-31.6,9.8-48.4
				s-3.3-33.1-9.8-48.4c-6.3-14.8-15.2-28.1-26.7-39.5c-11.4-11.4-24.7-20.4-39.5-26.7C238.6,84.4,222.3,81.1,205.5,81.1z"/>
		</g>
		<g>
			<linearGradient id="SVGID_42_" gradientUnits="userSpaceOnUse" x1="83.0815" y1="205.5085" x2="327.9424" y2="205.5085">
				<stop  offset="0" style="stop-color:#242C36"/>
				<stop  offset="0.5" style="stop-color:#61666D"/>
				<stop  offset="1" style="stop-color:#242C36"/>
			</linearGradient>
			<path fill-rule="evenodd" clip-rule="evenodd" fill="url(#SVGID_42_)" d="M327.5,205.5c0,16.5-3.2,32.4-9.6,47.5
				c-6.1,14.5-14.9,27.6-26.1,38.8c-11.2,11.2-24.2,20-38.8,26.1c-15,6.4-31,9.6-47.5,9.6c-16.5,0-32.4-3.2-47.5-9.6
				c-14.5-6.1-27.6-14.9-38.8-26.1c-11.2-11.2-20-24.2-26.1-38.8c-6.4-15-9.6-31-9.6-47.5c0-16.5,3.2-32.4,9.6-47.5
				c6.1-14.5,14.9-27.6,26.1-38.8c11.2-11.2,24.2-20,38.8-26.1c15-6.4,31-9.6,47.5-9.6c16.5,0,32.4,3.2,47.5,9.6
				c14.5,6.1,27.6,14.9,38.8,26.1c11.2,11.2,20,24.2,26.1,38.8C324.3,173.1,327.5,189,327.5,205.5z M205.5,83.1
				c-16.5,0-32.6,3.2-47.7,9.6c-14.6,6.2-27.7,15-38.9,26.2c-11.2,11.2-20.1,24.3-26.2,38.9c-6.4,15.1-9.6,31.1-9.6,47.7
				c0,16.5,3.2,32.6,9.6,47.6c6.2,14.6,15,27.7,26.2,38.9c11.2,11.3,24.3,20.1,38.9,26.2c15.1,6.4,31.1,9.6,47.7,9.6
				c16.5,0,32.6-3.2,47.7-9.6c14.6-6.2,27.7-15,38.9-26.2c11.2-11.2,20.1-24.3,26.2-38.9c6.4-15.1,9.6-31.1,9.6-47.6
				c0-16.5-3.2-32.6-9.6-47.7c-6.2-14.6-15-27.7-26.2-38.9c-11.2-11.2-24.3-20.1-38.9-26.2C238.1,86.3,222,83.1,205.5,83.1z"/>
		</g>
		<g>
			<linearGradient id="SVGID_43_" gradientUnits="userSpaceOnUse" x1="85.0625" y1="205.5117" x2="325.9609" y2="205.5117">
				<stop  offset="0" style="stop-color:#242C36"/>
				<stop  offset="0.5" style="stop-color:#61666D"/>
				<stop  offset="1" style="stop-color:#242C36"/>
			</linearGradient>
			<path fill-rule="evenodd" clip-rule="evenodd" fill="url(#SVGID_43_)" d="M325.5,205.5c0,16.2-3.2,31.9-9.4,46.7
				c-6,14.3-14.7,27.1-25.7,38.1c-11,11-23.9,19.7-38.1,25.7c-14.8,6.3-30.5,9.4-46.7,9.4s-31.9-3.2-46.7-9.4
				c-14.3-6-27.1-14.7-38.1-25.7c-11-11-19.7-23.9-25.7-38.1c-6.3-14.8-9.4-30.5-9.4-46.7s3.2-31.9,9.4-46.7
				c6-14.3,14.7-27.1,25.7-38.1c11-11,23.9-19.7,38.1-25.7c14.8-6.3,30.5-9.4,46.7-9.4s31.9,3.2,46.7,9.4
				c14.3,6,27.1,14.7,38.1,25.7c11,11,19.7,23.9,25.7,38.1C322.3,173.6,325.5,189.3,325.5,205.5z M205.5,85.1
				c-16.3,0-32,3.2-46.9,9.5c-14.3,6.1-27.2,14.8-38.3,25.8c-11.1,11.1-19.7,23.9-25.8,38.3c-6.3,14.9-9.5,30.6-9.5,46.9
				c0,16.3,3.2,32,9.5,46.9c6.1,14.3,14.8,27.2,25.8,38.3c11.1,11.1,23.9,19.7,38.3,25.8c14.9,6.3,30.6,9.5,46.9,9.5
				c16.3,0,32-3.2,46.9-9.5c14.3-6.1,27.2-14.8,38.3-25.8c11.1-11.1,19.7-23.9,25.8-38.3c6.3-14.9,9.5-30.6,9.5-46.9
				c0-16.3-3.2-32-9.5-46.9c-6.1-14.3-14.8-27.2-25.8-38.3c-11.1-11.1-23.9-19.7-38.3-25.8C237.5,88.2,221.8,85.1,205.5,85.1z"/>
		</g>
		<g>
			<linearGradient id="SVGID_44_" gradientUnits="userSpaceOnUse" x1="87.0439" y1="205.5083" x2="323.9795" y2="205.5083">
				<stop  offset="0" style="stop-color:#242C36"/>
				<stop  offset="0.5" style="stop-color:#61666D"/>
				<stop  offset="1" style="stop-color:#242C36"/>
			</linearGradient>
			<path fill-rule="evenodd" clip-rule="evenodd" fill="url(#SVGID_44_)" d="M323.5,205.5c0,15.9-3.1,31.4-9.3,45.9
				c-5.9,14.1-14.5,26.7-25.3,37.5c-10.8,10.8-23.5,19.3-37.5,25.3c-14.5,6.2-30,9.3-45.9,9.3s-31.4-3.1-45.9-9.3
				c-14.1-5.9-26.7-14.5-37.5-25.3c-10.8-10.8-19.3-23.5-25.3-37.5c-6.2-14.5-9.3-30-9.3-45.9c0-15.9,3.1-31.4,9.3-45.9
				c5.9-14,14.5-26.7,25.3-37.5s23.5-19.4,37.5-25.3c14.5-6.2,30-9.3,45.9-9.3s31.4,3.1,45.9,9.3c14.1,5.9,26.7,14.5,37.5,25.3
				c10.8,10.8,19.3,23.5,25.3,37.5C320.4,174.1,323.5,189.6,323.5,205.5z M205.5,87c-16,0-31.5,3.1-46.1,9.3
				c-14.1,6-26.8,14.5-37.7,25.4c-10.9,10.9-19.4,23.5-25.4,37.7C90.2,174,87,189.5,87,205.5c0,16,3.1,31.5,9.3,46.1
				c6,14.1,14.5,26.8,25.4,37.7c10.9,10.9,23.5,19.4,37.7,25.4c14.6,6.2,30.1,9.3,46.1,9.3c16,0,31.5-3.1,46.1-9.3
				c14.1-6,26.8-14.5,37.7-25.4c10.9-10.9,19.4-23.5,25.4-37.7c6.2-14.6,9.3-30.1,9.3-46.1c0-16-3.1-31.5-9.3-46.1
				c-6-14.1-14.5-26.8-25.4-37.7c-10.9-10.9-23.5-19.4-37.7-25.4C237,90.2,221.5,87,205.5,87z"/>
		</g>
		<g>
			<linearGradient id="SVGID_45_" gradientUnits="userSpaceOnUse" x1="89.022" y1="205.5085" x2="322.0019" y2="205.5085">
				<stop  offset="0" style="stop-color:#242C36"/>
				<stop  offset="0.5" style="stop-color:#61666D"/>
				<stop  offset="1" style="stop-color:#242C36"/>
			</linearGradient>
			<path fill-rule="evenodd" clip-rule="evenodd" fill="url(#SVGID_45_)" d="M321.6,205.5c0,15.7-3.1,30.9-9.1,45.2
				c-5.8,13.8-14.2,26.2-24.9,36.9c-10.7,10.7-23.1,19-36.9,24.9c-14.3,6-29.5,9.1-45.2,9.1s-30.9-3.1-45.2-9.1
				c-13.8-5.8-26.2-14.2-36.9-24.9c-10.7-10.7-19-23.1-24.9-36.9c-6-14.3-9.1-29.5-9.1-45.2s3.1-30.9,9.1-45.2
				c5.8-13.8,14.2-26.2,24.9-36.9c10.7-10.7,23.1-19,36.9-24.9c14.3-6.1,29.5-9.1,45.2-9.1s30.9,3.1,45.2,9.1
				c13.8,5.8,26.2,14.2,36.9,24.9c10.7,10.7,19,23.1,24.9,36.9C318.5,174.6,321.6,189.8,321.6,205.5z M205.5,89
				c-15.7,0-31,3.1-45.3,9.2c-13.9,5.9-26.3,14.3-37,25c-10.7,10.7-19.1,23.2-25,37c-6.1,14.4-9.2,29.6-9.2,45.3
				c0,15.7,3.1,31,9.2,45.3c5.9,13.9,14.3,26.3,25,37c10.7,10.7,23.2,19.1,37,25c14.4,6.1,29.6,9.2,45.3,9.2c15.7,0,31-3.1,45.3-9.2
				c13.9-5.9,26.3-14.3,37-25c10.7-10.7,19.1-23.2,25-37c6.1-14.4,9.2-29.6,9.2-45.3c0-15.7-3.1-31-9.2-45.3
				c-5.9-13.9-14.3-26.3-25-37c-10.7-10.7-23.2-19.1-37-25C236.5,92.1,221.2,89,205.5,89z"/>
		</g>
		<g>
			<linearGradient id="SVGID_46_" gradientUnits="userSpaceOnUse" x1="91.0034" y1="205.5117" x2="320.0205" y2="205.5117">
				<stop  offset="0" style="stop-color:#242C36"/>
				<stop  offset="0.5" style="stop-color:#61666D"/>
				<stop  offset="1" style="stop-color:#242C36"/>
			</linearGradient>
			<path fill-rule="evenodd" clip-rule="evenodd" fill="url(#SVGID_46_)" d="M319.6,205.5c0,15.4-3,30.3-9,44.4
				c-5.7,13.6-14,25.8-24.4,36.3c-10.5,10.5-22.7,18.7-36.3,24.4c-14.1,5.9-29,9-44.4,9c-15.4,0-30.3-3-44.4-9
				c-13.6-5.7-25.8-14-36.3-24.4c-10.5-10.5-18.7-22.7-24.4-36.3c-6-14.1-9-29-9-44.4c0-15.4,3-30.3,9-44.4
				c5.7-13.6,14-25.8,24.4-36.3c10.5-10.5,22.7-18.7,36.3-24.4c14.1-6,29-9,44.4-9c15.4,0,30.3,3,44.4,9c13.6,5.7,25.8,14,36.3,24.4
				c10.5,10.5,18.7,22.7,24.4,36.3C316.6,175.2,319.6,190.1,319.6,205.5z M205.5,91c-15.5,0-30.5,3-44.6,9
				c-13.6,5.8-25.9,14-36.4,24.5c-10.5,10.5-18.8,22.8-24.5,36.4c-6,14.1-9,29.1-9,44.6c0,15.5,3,30.5,9,44.6
				c5.8,13.6,14,25.9,24.5,36.4c10.5,10.5,22.8,18.8,36.4,24.5c14.1,6,29.1,9,44.6,9c15.5,0,30.5-3,44.6-9
				c13.6-5.8,25.9-14,36.4-24.5c10.5-10.5,18.8-22.8,24.5-36.4c6-14.1,9-29.1,9-44.6c0-15.5-3-30.5-9-44.6
				c-5.8-13.6-14-25.9-24.5-36.4C276,114,263.7,105.8,250.1,100C236,94,221,91,205.5,91z"/>
		</g>
		<g>
			<linearGradient id="SVGID_47_" gradientUnits="userSpaceOnUse" x1="92.9844" y1="205.508" x2="318.039" y2="205.508">
				<stop  offset="0" style="stop-color:#242C36"/>
				<stop  offset="0.5" style="stop-color:#61666D"/>
				<stop  offset="1" style="stop-color:#242C36"/>
			</linearGradient>
			<path fill-rule="evenodd" clip-rule="evenodd" fill="url(#SVGID_47_)" d="M317.6,205.5c0,15.1-3,29.8-8.8,43.6
				c-5.6,13.3-13.7,25.3-24,35.6c-10.3,10.3-22.3,18.4-35.6,24c-13.8,5.8-28.5,8.8-43.6,8.8c-15.1,0-29.8-3-43.6-8.8
				c-13.3-5.6-25.3-13.7-35.6-24c-10.3-10.3-18.4-22.3-24-35.6c-5.8-13.8-8.8-28.5-8.8-43.6c0-15.1,3-29.8,8.8-43.6
				c5.6-13.3,13.7-25.3,24-35.6c10.3-10.3,22.3-18.4,35.6-24c13.8-5.8,28.5-8.8,43.6-8.8c15.1,0,29.8,3,43.6,8.8
				c13.3,5.6,25.3,13.7,35.6,24c10.3,10.3,18.4,22.3,24,35.6C314.6,175.7,317.6,190.4,317.6,205.5z M205.5,93
				c-15.2,0-29.9,3-43.8,8.8c-13.4,5.7-25.4,13.8-35.8,24.1c-10.3,10.3-18.4,22.4-24.1,35.8C96,175.6,93,190.3,93,205.5
				c0,15.2,3,29.9,8.8,43.8c5.7,13.4,13.8,25.4,24.1,35.8c10.3,10.3,22.4,18.4,35.8,24.1c13.9,5.9,28.6,8.8,43.8,8.8
				c15.2,0,29.9-3,43.8-8.8c13.4-5.7,25.4-13.8,35.8-24.1c10.3-10.3,18.4-22.4,24.1-35.8c5.9-13.9,8.8-28.6,8.8-43.8
				c0-15.2-3-29.9-8.8-43.8c-5.7-13.4-13.8-25.4-24.1-35.8c-10.3-10.3-22.4-18.5-35.8-24.1C235.4,96,220.7,93,205.5,93z"/>
		</g>
		<g>
			<linearGradient id="SVGID_48_" gradientUnits="userSpaceOnUse" x1="94.9653" y1="205.5114" x2="316.0576" y2="205.5114">
				<stop  offset="0" style="stop-color:#242C36"/>
				<stop  offset="0.5" style="stop-color:#61666D"/>
				<stop  offset="1" style="stop-color:#242C36"/>
			</linearGradient>
			<path fill-rule="evenodd" clip-rule="evenodd" fill="url(#SVGID_48_)" d="M315.6,205.5c0,14.9-2.9,29.3-8.7,42.9
				c-5.5,13.1-13.5,24.9-23.6,35c-10.1,10.1-21.9,18.1-35,23.6c-13.6,5.7-28,8.7-42.9,8.7c-14.9,0-29.3-2.9-42.9-8.7
				c-13.1-5.5-24.9-13.5-35-23.6c-10.1-10.1-18.1-21.9-23.6-35c-5.7-13.6-8.7-28-8.7-42.9c0-14.9,2.9-29.3,8.7-42.9
				c5.5-13.1,13.5-24.9,23.6-35c10.1-10.1,21.9-18.1,35-23.6c13.6-5.7,28-8.7,42.9-8.7c14.9,0,29.3,2.9,42.9,8.7
				c13.1,5.5,24.9,13.5,35,23.6c10.1,10.1,18.1,21.9,23.6,35C312.7,176.2,315.6,190.6,315.6,205.5z M205.5,95
				c-14.9,0-29.4,2.9-43,8.7c-13.2,5.6-25,13.5-35.1,23.7c-10.2,10.2-18.1,22-23.7,35.1c-5.8,13.6-8.7,28.1-8.7,43
				c0,14.9,2.9,29.4,8.7,43c5.6,13.2,13.5,25,23.7,35.1c10.2,10.2,22,18.1,35.1,23.7c13.6,5.8,28.1,8.7,43,8.7
				c14.9,0,29.4-2.9,43-8.7c13.2-5.6,25-13.5,35.1-23.7c10.2-10.2,18.1-22,23.7-35.1c5.8-13.6,8.7-28.1,8.7-43
				c0-14.9-2.9-29.4-8.7-43c-5.6-13.2-13.5-25-23.7-35.1c-10.2-10.2-22-18.1-35.1-23.7C234.9,97.9,220.4,95,205.5,95z"/>
		</g>
		<g>
			<linearGradient id="SVGID_49_" gradientUnits="userSpaceOnUse" x1="96.9429" y1="205.5117" x2="314.0801" y2="205.5117">
				<stop  offset="0" style="stop-color:#242C36"/>
				<stop  offset="0.5" style="stop-color:#61666D"/>
				<stop  offset="1" style="stop-color:#242C36"/>
			</linearGradient>
			<path fill-rule="evenodd" clip-rule="evenodd" fill="url(#SVGID_49_)" d="M313.7,205.5c0,14.6-2.9,28.8-8.5,42.1
				c-5.4,12.9-13.2,24.4-23.2,34.4c-9.9,9.9-21.5,17.7-34.4,23.2c-13.3,5.6-27.5,8.5-42.1,8.5c-14.6,0-28.8-2.9-42.1-8.5
				c-12.9-5.4-24.4-13.2-34.4-23.2c-9.9-9.9-17.7-21.5-23.2-34.4c-5.6-13.3-8.5-27.5-8.5-42.1c0-14.6,2.9-28.8,8.5-42.1
				c5.4-12.9,13.2-24.4,23.2-34.4c9.9-9.9,21.5-17.7,34.4-23.2c13.3-5.6,27.5-8.5,42.1-8.5c14.6,0,28.8,2.9,42.1,8.5
				c12.9,5.5,24.4,13.2,34.4,23.2c9.9,9.9,17.7,21.5,23.2,34.4C310.8,176.7,313.7,190.9,313.7,205.5z M205.5,96.9
				c-14.7,0-28.9,2.9-42.3,8.5c-12.9,5.5-24.5,13.3-34.5,23.3c-10,10-17.8,21.6-23.3,34.5c-5.7,13.4-8.5,27.6-8.5,42.3
				c0,14.7,2.9,28.9,8.5,42.3c5.5,12.9,13.3,24.5,23.3,34.5c10,10,21.6,17.8,34.5,23.3c13.4,5.7,27.6,8.5,42.3,8.5
				c14.7,0,28.9-2.9,42.3-8.5c12.9-5.5,24.5-13.3,34.5-23.3c10-10,17.8-21.6,23.3-34.5c5.7-13.4,8.5-27.6,8.5-42.3
				c0-14.7-2.9-28.9-8.5-42.3c-5.5-12.9-13.3-24.5-23.3-34.5c-10-10-21.6-17.8-34.5-23.3C234.4,99.8,220.2,96.9,205.5,96.9z"/>
		</g>
		<g>
			<linearGradient id="SVGID_50_" gradientUnits="userSpaceOnUse" x1="98.9209" y1="205.5112" x2="312.1025" y2="205.5112">
				<stop  offset="0" style="stop-color:#242C36"/>
				<stop  offset="0.5" style="stop-color:#61666D"/>
				<stop  offset="1" style="stop-color:#242C36"/>
			</linearGradient>
			<path fill-rule="evenodd" clip-rule="evenodd" fill="url(#SVGID_50_)" d="M311.7,205.5c0,14.3-2.8,28.2-8.3,41.3
				c-5.3,12.6-13,24-22.8,33.8c-9.8,9.7-21.1,17.4-33.8,22.8c-13.1,5.5-27,8.3-41.3,8.3c-14.3,0-28.2-2.8-41.3-8.3
				c-12.6-5.4-24-13-33.8-22.8c-9.8-9.8-17.4-21.1-22.8-33.8c-5.5-13.1-8.3-27-8.3-41.3c0-14.3,2.8-28.2,8.3-41.3
				c5.3-12.6,13-24,22.8-33.7c9.8-9.8,21.1-17.4,33.8-22.8c13.1-5.5,27-8.3,41.3-8.3c14.3,0,28.2,2.8,41.3,8.3
				c12.6,5.3,24,13,33.8,22.8c9.8,9.8,17.4,21.1,22.8,33.7C308.9,177.3,311.7,191.2,311.7,205.5z M205.5,98.9
				c-14.4,0-28.3,2.8-41.5,8.4c-12.7,5.4-24.1,13-33.9,22.8c-9.8,9.8-17.5,21.2-22.8,33.9c-5.6,13.1-8.4,27.1-8.4,41.5
				c0,14.4,2.8,28.3,8.4,41.5c5.4,12.7,13.1,24.1,22.8,33.9c9.8,9.8,21.2,17.5,33.9,22.8c13.1,5.6,27.1,8.4,41.5,8.4
				c14.4,0,28.3-2.8,41.5-8.4c12.7-5.4,24.1-13.1,33.9-22.8c9.8-9.8,17.5-21.2,22.8-33.9c5.6-13.1,8.4-27.1,8.4-41.5
				c0-14.4-2.8-28.3-8.4-41.5c-5.4-12.7-13.1-24.1-22.8-33.9c-9.8-9.8-21.2-17.5-33.9-22.8C233.9,101.7,219.9,98.9,205.5,98.9z"/>
		</g>
		<g>
			<linearGradient id="SVGID_51_" gradientUnits="userSpaceOnUse" x1="100.9023" y1="205.5078" x2="310.1211" y2="205.5078">
				<stop  offset="0" style="stop-color:#242C36"/>
				<stop  offset="0.5" style="stop-color:#61666D"/>
				<stop  offset="1" style="stop-color:#242C36"/>
			</linearGradient>
			<path fill-rule="evenodd" clip-rule="evenodd" fill="url(#SVGID_51_)" d="M309.7,205.5c0,14.1-2.8,27.7-8.2,40.6
				c-5.2,12.4-12.8,23.6-22.3,33.1c-9.6,9.6-20.7,17.1-33.1,22.3c-12.8,5.4-26.5,8.2-40.6,8.2c-14.1,0-27.7-2.7-40.6-8.2
				c-12.4-5.2-23.6-12.8-33.1-22.3c-9.6-9.6-17.1-20.7-22.3-33.1c-5.4-12.8-8.2-26.5-8.2-40.6c0-14.1,2.8-27.7,8.2-40.6
				c5.2-12.4,12.8-23.6,22.3-33.1c9.6-9.6,20.7-17.1,33.1-22.3c12.8-5.4,26.5-8.2,40.6-8.2c14.1,0,27.7,2.8,40.6,8.2
				c12.4,5.3,23.6,12.8,33.1,22.3c9.6,9.6,17.1,20.7,22.3,33.1C307,177.8,309.7,191.4,309.7,205.5z M205.5,100.9
				c-14.1,0-27.8,2.8-40.7,8.2c-12.5,5.3-23.6,12.8-33.3,22.4c-9.6,9.6-17.2,20.8-22.4,33.3c-5.5,12.9-8.2,26.6-8.2,40.7
				c0,14.1,2.8,27.8,8.2,40.7c5.3,12.5,12.8,23.6,22.4,33.3c9.6,9.6,20.8,17.1,33.3,22.4c12.9,5.5,26.6,8.2,40.7,8.2
				c14.1,0,27.8-2.8,40.7-8.2c12.5-5.3,23.6-12.8,33.3-22.4c9.6-9.6,17.2-20.8,22.4-33.3c5.5-12.9,8.2-26.6,8.2-40.7
				c0-14.1-2.8-27.8-8.2-40.7c-5.3-12.5-12.8-23.6-22.4-33.3c-9.6-9.6-20.8-17.2-33.3-22.4C233.3,103.7,219.6,100.9,205.5,100.9z"/>
		</g>
		<g>
			<linearGradient id="SVGID_52_" gradientUnits="userSpaceOnUse" x1="102.8799" y1="205.508" x2="308.1435" y2="205.508">
				<stop  offset="0" style="stop-color:#242C36"/>
				<stop  offset="0.5" style="stop-color:#61666D"/>
				<stop  offset="1" style="stop-color:#242C36"/>
			</linearGradient>
			<path fill-rule="evenodd" clip-rule="evenodd" fill="url(#SVGID_52_)" d="M307.7,205.5c0,13.8-2.7,27.2-8,39.8
				c-5.1,12.2-12.5,23.1-21.9,32.5c-9.4,9.4-20.3,16.8-32.5,21.9c-12.6,5.3-26,8-39.8,8c-13.8,0-27.2-2.7-39.8-8
				c-12.2-5.1-23.1-12.5-32.5-21.9c-9.4-9.4-16.8-20.3-21.9-32.5c-5.3-12.6-8-26-8-39.8c0-13.8,2.7-27.2,8-39.8
				c5.1-12.2,12.5-23.1,21.9-32.5c9.4-9.4,20.3-16.8,32.5-21.9c12.6-5.3,26-8,39.8-8c13.8,0,27.2,2.7,39.8,8
				c12.2,5.1,23.1,12.5,32.5,21.9c9.4,9.4,16.8,20.3,21.9,32.5C305,178.3,307.7,191.7,307.7,205.5z M205.5,102.9
				c-13.9,0-27.3,2.7-39.9,8.1c-12.2,5.2-23.2,12.6-32.6,22c-9.4,9.4-16.8,20.4-22,32.6c-5.4,12.7-8.1,26.1-8.1,40
				c0,13.9,2.7,27.3,8.1,39.9c5.2,12.2,12.6,23.2,22,32.6c9.4,9.4,20.4,16.8,32.6,22c12.7,5.4,26.1,8.1,39.9,8.1
				c13.9,0,27.3-2.7,39.9-8.1c12.2-5.2,23.2-12.6,32.6-22c9.4-9.4,16.8-20.4,22-32.6c5.4-12.7,8.1-26.1,8.1-39.9
				c0-13.9-2.7-27.3-8.1-40c-5.2-12.2-12.6-23.2-22-32.6c-9.4-9.4-20.4-16.8-32.6-22C232.8,105.6,219.4,102.9,205.5,102.9z"/>
		</g>
		<g>
			<linearGradient id="SVGID_53_" gradientUnits="userSpaceOnUse" x1="104.8608" y1="205.5114" x2="306.1621" y2="205.5114">
				<stop  offset="0" style="stop-color:#242C36"/>
				<stop  offset="0.5" style="stop-color:#61666D"/>
				<stop  offset="1" style="stop-color:#242C36"/>
			</linearGradient>
			<path fill-rule="evenodd" clip-rule="evenodd" fill="url(#SVGID_53_)" d="M305.8,205.5c0,13.5-2.7,26.7-7.9,39
				c-5.1,11.9-12.3,22.7-21.5,31.9c-9.2,9.2-19.9,16.4-31.9,21.5c-12.4,5.2-25.5,7.9-39,7.9c-13.5,0-26.7-2.7-39-7.9
				c-11.9-5-22.7-12.3-31.9-21.5c-9.2-9.2-16.4-19.9-21.5-31.9c-5.2-12.4-7.9-25.5-7.9-39c0-13.5,2.7-26.7,7.9-39
				c5.1-11.9,12.3-22.7,21.5-31.9c9.2-9.2,19.9-16.4,31.9-21.5c12.4-5.2,25.5-7.9,39-7.9c13.5,0,26.7,2.7,39,7.9
				c11.9,5.1,22.7,12.3,31.9,21.5c9.2,9.2,16.4,19.9,21.5,31.9C303.1,178.8,305.8,192,305.8,205.5z M205.5,104.9
				c-13.6,0-26.8,2.7-39.2,7.9c-12,5.1-22.7,12.3-32,21.6c-9.2,9.2-16.5,20-21.6,32c-5.2,12.4-7.9,25.6-7.9,39.2s2.7,26.8,7.9,39.2
				c5.1,12,12.3,22.7,21.6,32c9.2,9.2,20,16.5,32,21.6c12.4,5.2,25.6,7.9,39.2,7.9c13.6,0,26.8-2.7,39.2-7.9
				c12-5.1,22.7-12.3,32-21.6c9.2-9.2,16.5-20,21.6-32c5.2-12.4,7.9-25.6,7.9-39.2s-2.7-26.8-7.9-39.2c-5.1-12-12.3-22.7-21.6-32
				c-9.2-9.2-20-16.5-32-21.6C232.3,107.5,219.1,104.9,205.5,104.9z"/>
		</g>
		<g>
			<linearGradient id="SVGID_54_" gradientUnits="userSpaceOnUse" x1="106.8423" y1="205.5083" x2="304.1816" y2="205.5083">
				<stop  offset="0" style="stop-color:#242C36"/>
				<stop  offset="0.5" style="stop-color:#61666D"/>
				<stop  offset="1" style="stop-color:#242C36"/>
			</linearGradient>
			<path fill-rule="evenodd" clip-rule="evenodd" fill="url(#SVGID_54_)" d="M303.8,205.5c0,13.3-2.6,26.1-7.7,38.3
				c-5,11.7-12,22.2-21.1,31.2c-9,9-19.5,16.1-31.2,21.1c-12.1,5.1-25,7.7-38.3,7.7c-13.3,0-26.1-2.6-38.3-7.7
				c-11.7-5-22.2-12-31.2-21.1c-9-9-16.1-19.5-21.1-31.2c-5.1-12.1-7.7-25-7.7-38.3c0-13.3,2.6-26.1,7.7-38.3
				c5-11.7,12-22.2,21.1-31.2c9-9,19.5-16.1,31.2-21.1c12.1-5.1,25-7.7,38.3-7.7c13.3,0,26.1,2.6,38.3,7.7
				c11.7,4.9,22.2,12,31.2,21.1c9,9,16.1,19.5,21.1,31.2C301.2,179.4,303.8,192.2,303.8,205.5z M205.5,106.8
				c-13.3,0-26.2,2.6-38.4,7.8c-11.7,5-22.3,12.1-31.4,21.1c-9.1,9.1-16.2,19.6-21.1,31.4c-5.1,12.2-7.8,25.1-7.8,38.4
				c0,13.3,2.6,26.2,7.8,38.4c5,11.7,12.1,22.3,21.1,31.4c9.1,9.1,19.6,16.2,31.4,21.1c12.2,5.1,25.1,7.8,38.4,7.8
				c13.3,0,26.2-2.6,38.4-7.8c11.8-5,22.3-12.1,31.4-21.1c9.1-9.1,16.2-19.6,21.1-31.4c5.1-12.2,7.8-25.1,7.8-38.4
				c0-13.3-2.6-26.2-7.8-38.4c-5-11.8-12.1-22.3-21.1-31.4c-9.1-9.1-19.6-16.2-31.4-21.1C231.8,109.4,218.8,106.8,205.5,106.8z"/>
		</g>
		<g>
			<linearGradient id="SVGID_55_" gradientUnits="userSpaceOnUse" x1="108.8232" y1="205.5119" x2="302.2002" y2="205.5119">
				<stop  offset="0" style="stop-color:#242C36"/>
				<stop  offset="0.5" style="stop-color:#61666D"/>
				<stop  offset="1" style="stop-color:#242C36"/>
			</linearGradient>
			<path fill-rule="evenodd" clip-rule="evenodd" fill="url(#SVGID_55_)" d="M301.8,205.5c0,13-2.5,25.6-7.6,37.5
				c-4.8,11.5-11.8,21.8-20.6,30.6c-8.8,8.8-19.1,15.8-30.6,20.6c-11.9,5-24.5,7.6-37.5,7.6c-13,0-25.6-2.5-37.5-7.6
				c-11.5-4.8-21.8-11.8-30.6-20.6c-8.8-8.8-15.8-19.1-20.6-30.6c-5-11.9-7.6-24.5-7.6-37.5c0-13,2.5-25.6,7.6-37.5
				c4.8-11.5,11.8-21.8,20.6-30.6c8.8-8.8,19.1-15.8,30.6-20.6c11.9-5,24.5-7.6,37.5-7.6c13,0,25.6,2.5,37.5,7.6
				c11.5,4.8,21.8,11.8,30.6,20.6c8.8,8.8,15.8,19.1,20.6,30.6C299.3,179.9,301.8,192.5,301.8,205.5z M205.5,108.8
				c-13.1,0-25.7,2.6-37.6,7.6c-11.5,4.9-21.9,11.8-30.7,20.7c-8.9,8.9-15.8,19.2-20.7,30.7c-5,11.9-7.6,24.6-7.6,37.6
				c0,13,2.6,25.7,7.6,37.6c4.9,11.5,11.8,21.9,20.7,30.7c8.9,8.9,19.2,15.9,30.7,20.7c11.9,5,24.6,7.6,37.6,7.6
				c13.1,0,25.7-2.6,37.6-7.6c11.5-4.9,21.9-11.8,30.7-20.7c8.9-8.9,15.8-19.2,20.7-30.7c5-11.9,7.6-24.6,7.6-37.6
				c0-13.1-2.6-25.7-7.6-37.6c-4.9-11.5-11.8-21.8-20.7-30.7c-8.9-8.9-19.2-15.9-30.7-20.7C231.2,111.4,218.6,108.8,205.5,108.8z"/>
		</g>
		<g>
			<linearGradient id="SVGID_56_" gradientUnits="userSpaceOnUse" x1="110.8013" y1="205.5117" x2="300.2217" y2="205.5117">
				<stop  offset="0" style="stop-color:#242C36"/>
				<stop  offset="0.5" style="stop-color:#61666D"/>
				<stop  offset="1" style="stop-color:#242C36"/>
			</linearGradient>
			<path fill-rule="evenodd" clip-rule="evenodd" fill="url(#SVGID_56_)" d="M299.9,205.5c0,12.7-2.5,25.1-7.4,36.7
				c-4.8,11.2-11.6,21.3-20.2,30c-8.7,8.7-18.8,15.5-30,20.2c-11.6,4.9-24,7.4-36.7,7.4c-12.7,0-25.1-2.5-36.7-7.4
				c-11.2-4.8-21.3-11.6-30-20.2c-8.7-8.7-15.5-18.8-20.2-30c-4.9-11.6-7.4-24-7.4-36.7c0-12.7,2.5-25.1,7.4-36.7
				c4.8-11.2,11.6-21.3,20.2-30c8.7-8.7,18.8-15.5,30-20.2c11.6-4.9,24-7.4,36.7-7.4c12.7,0,25.1,2.5,36.7,7.4
				c11.2,4.7,21.3,11.6,30,20.2c8.7,8.7,15.5,18.8,20.2,30C297.4,180.4,299.9,192.8,299.9,205.5z M205.5,110.8
				c-12.8,0-25.2,2.5-36.9,7.4c-11.3,4.8-21.4,11.6-30.1,20.3c-8.7,8.7-15.5,18.8-20.3,30.1c-4.9,11.7-7.4,24.1-7.4,36.9
				c0,12.8,2.5,25.2,7.4,36.9c4.8,11.3,11.6,21.4,20.3,30.1c8.7,8.7,18.8,15.5,30.1,20.3c11.7,4.9,24.1,7.4,36.9,7.4
				c12.8,0,25.2-2.5,36.9-7.4c11.3-4.8,21.4-11.6,30.1-20.3c8.7-8.7,15.5-18.8,20.3-30.1c4.9-11.7,7.4-24.1,7.4-36.9
				c0-12.8-2.5-25.2-7.4-36.9c-4.8-11.3-11.6-21.4-20.3-30.1c-8.7-8.7-18.8-15.5-30.1-20.3C230.7,113.3,218.3,110.8,205.5,110.8z"/>
		</g>
		<g>
			<g>
				<linearGradient id="SVGID_57_" gradientUnits="userSpaceOnUse" x1="112.7827" y1="205.5083" x2="298.2412" y2="205.5083">
					<stop  offset="0" style="stop-color:#242C36"/>
					<stop  offset="0.5" style="stop-color:#61666D"/>
					<stop  offset="1" style="stop-color:#242C36"/>
				</linearGradient>
				<path fill-rule="evenodd" clip-rule="evenodd" fill="url(#SVGID_57_)" d="M297.9,205.5c0,12.5-2.4,24.6-7.3,36
					c-4.7,11-11.3,20.9-19.8,29.4c-8.5,8.5-18.4,15.1-29.4,19.8c-11.4,4.8-23.5,7.3-36,7.3c-12.5,0-24.6-2.4-36-7.3
					c-11-4.7-20.9-11.3-29.4-19.8c-8.5-8.5-15.1-18.4-19.8-29.4c-4.8-11.4-7.3-23.5-7.3-36c0-12.5,2.4-24.6,7.3-36
					c4.7-11,11.3-20.9,19.8-29.4c8.5-8.5,18.4-15.1,29.4-19.8c11.4-4.8,23.5-7.3,36-7.3c12.5,0,24.6,2.4,36,7.3
					c11,4.7,20.9,11.3,29.4,19.8c8.5,8.5,15.1,18.4,19.8,29.4C295.4,180.9,297.9,193,297.9,205.5z M205.5,112.8
					c-12.5,0-24.7,2.5-36.1,7.3c-11,4.7-21,11.4-29.5,19.9c-8.5,8.5-15.2,18.4-19.9,29.5c-4.8,11.4-7.3,23.6-7.3,36.1
					c0,12.5,2.5,24.7,7.3,36.1c4.7,11,11.4,21,19.9,29.5c8.5,8.5,18.4,15.2,29.5,19.9c11.4,4.8,23.6,7.3,36.1,7.3
					c12.5,0,24.7-2.5,36.1-7.3c11-4.7,21-11.4,29.5-19.9c8.5-8.5,15.2-18.4,19.9-29.5c4.8-11.4,7.3-23.6,7.3-36.1
					c0-12.5-2.5-24.7-7.3-36.1c-4.7-11-11.4-21-19.9-29.5c-8.5-8.5-18.4-15.2-29.5-19.9C230.2,115.2,218,112.8,205.5,112.8z"/>
			</g>
		</g>
	</g>
</g>
</svg>
